<?xml version="1.0" encoding="UTF-8"?>
<svg version="1.1" xmlns="http://www.w3.org/2000/svg" width="512" height="512">
<path d="M0 0 C1.9296875 0.33203125 1.9296875 0.33203125 4.2421875 1.70703125 C5.90758742 4.29765335 6.52025433 6.19954502 7.3046875 9.14453125 C9.67180256 17.64122847 15.01169047 22.00883484 22.40234375 26.5 C32.36147133 31.67257014 43.01873932 35.64394027 53.82910156 38.6184082 C55.9296875 39.33203125 55.9296875 39.33203125 58.6171875 41.26953125 C60.0710093 44.66178212 59.95858866 46.14022222 59.60546875 49.75390625 C59.4504187 51.36060181 59.4504187 51.36060181 59.29223633 52.99975586 C58.61254399 59.24697516 57.83655184 65.48025459 57.03515625 71.71289062 C56.01088352 79.94328412 55.48423358 88.01384012 54.9296875 96.33203125 C101.7896875 96.33203125 148.6496875 96.33203125 196.9296875 96.33203125 C195.01968192 73.25694951 195.01968192 73.25694951 191.9296875 50.33203125 C191.9296875 44.33203125 191.9296875 44.33203125 193.3125 41.66796875 C197.06157064 38.32178331 201.03804341 37.34008153 205.8046875 35.95703125 C219.28125305 31.74705025 233.04671151 26.66405481 242.3046875 15.45703125 C244.01992551 12.15849661 245.12751868 8.95597998 246.12109375 5.3828125 C247.04912469 3.02911085 247.93800843 1.88269567 249.9296875 0.33203125 C253.30095517 -0.35365031 254.74573004 -0.59327047 257.9296875 0.33203125 C277.72324857 14.26831404 288.23991703 51.83493224 292.35742188 74.42480469 C299.87048606 120.20873134 289.60274798 166.54096776 262.53881836 204.32324219 C257.49417634 211.13975927 251.85633769 217.2812194 245.9296875 223.33203125 C245.17171875 224.14027344 244.41375 224.94851563 243.6328125 225.78125 C218.14593358 252.4308515 177.9062076 270.8482618 140.99584961 272.5090332 C139.56633772 272.53523751 138.13670535 272.55538408 136.70703125 272.5703125 C135.93268738 272.58006104 135.15834351 272.58980957 134.36053467 272.59985352 C117.50079094 272.76842145 101.35041275 272.62505437 84.9296875 268.33203125 C84.18605957 268.1501123 83.44243164 267.96819336 82.67626953 267.78076172 C61.11641612 262.45387367 40.38479372 252.00874557 22.9296875 238.33203125 C22.0634375 237.66945313 21.1971875 237.006875 20.3046875 236.32421875 C-14.9229123 208.57224333 -36.56723427 167.63108883 -42.0703125 123.33203125 C-42.18264378 120.62042221 -42.25669888 117.93417848 -42.2734375 115.22265625 C-42.28049713 114.46248703 -42.28755676 113.70231781 -42.29483032 112.91911316 C-42.52473138 80.88589221 -42.52473138 80.88589221 -39.0703125 67.33203125 C-38.87163574 66.54199707 -38.67295898 65.75196289 -38.46826172 64.93798828 C-34.37262724 49.17823222 -20.16926754 -0.99738136 0 0 Z M-4.0703125 27.33203125 C-14.9257473 42.34653018 -20.56811904 61.32173117 -23.8828125 79.33203125 C-24.00696533 80.00177979 -24.13111816 80.67152832 -24.2590332 81.36157227 C-25.12626847 86.52722232 -25.0703125 90.93338863 -25.0703125 96.33203125 C-4.2803125 96.33203125 16.5096875 96.33203125 37.9296875 96.33203125 C38.87426378 84.79987144 38.87426378 84.79987144 39.81420898 73.26733398 C39.93456704 71.80841728 40.05508094 70.34951343 40.17578125 68.890625 C40.23544067 68.14913208 40.2951001 67.40763916 40.35656738 66.64367676 C40.7286278 62.17525339 41.25263863 57.76478514 41.9296875 53.33203125 C41.39190674 53.12634521 40.85412598 52.92065918 40.30004883 52.70874023 C24.86899792 46.77042799 11.15914187 41.19994176 -0.8046875 29.4921875 C-2.66920644 27.21702123 -2.66920644 27.21702123 -4.0703125 27.33203125 Z M254.9296875 27.33203125 C254.25486328 28.07646484 254.25486328 28.07646484 253.56640625 28.8359375 C241.71046869 41.35713809 225.89784874 47.67876359 209.9296875 53.33203125 C210.05815063 54.43321289 210.05815063 54.43321289 210.18920898 55.55664062 C210.58619534 58.98128457 210.97670021 62.40664041 211.3671875 65.83203125 C211.50189453 66.98574219 211.63660156 68.13945312 211.77539062 69.328125 C212.79695179 78.3477626 213.36154921 87.24181863 213.9296875 96.33203125 C234.7196875 96.33203125 255.5096875 96.33203125 276.9296875 96.33203125 C276.9296875 72.68679711 269.50695206 48.39782804 256.9296875 28.33203125 C256.2696875 28.00203125 255.6096875 27.67203125 254.9296875 27.33203125 Z M-25.0703125 112.33203125 C-25.0703125 132.89071467 -18.98395531 152.33511901 -10.3828125 170.83203125 C-10.00229736 171.6521167 -9.62178223 172.47220215 -9.22973633 173.31713867 C-8.86388428 174.07486572 -8.49803223 174.83259277 -8.12109375 175.61328125 C-7.79794189 176.28423828 -7.47479004 176.95519531 -7.1418457 177.64648438 C-6.02490062 179.65450538 -6.02490062 179.65450538 -3.0703125 181.33203125 C-2.64363281 180.84734375 -2.21695313 180.36265625 -1.77734375 179.86328125 C7.63510929 169.77157902 19.52791902 164.28700709 32.06152344 159.10693359 C35.0293289 157.87590712 37.97829025 156.60181844 40.9296875 155.33203125 C40.00303102 140.99324155 38.95344691 126.66466304 37.9296875 112.33203125 C17.1396875 112.33203125 -3.6503125 112.33203125 -25.0703125 112.33203125 Z M54.9296875 112.33203125 C54.9296875 122.009102 55.10204806 130.81458549 56.4296875 140.26953125 C56.57277344 141.34654297 56.71585937 142.42355469 56.86328125 143.53320312 C57.21007006 146.13411918 57.56552528 148.73350137 57.9296875 151.33203125 C58.84669434 151.18580322 59.76370117 151.0395752 60.70849609 150.88891602 C64.15605761 150.34056885 67.60400987 149.79481425 71.05224609 149.25073242 C72.53613099 149.01607081 74.01985957 148.78041819 75.50341797 148.54370117 C77.65290234 148.20091422 79.80294978 147.86186076 81.953125 147.5234375 C83.24138184 147.31920166 84.52963867 147.11496582 85.85693359 146.90454102 C94.29399534 145.66988393 102.62466339 145.16699434 111.1484375 145.12890625 C112.19673737 145.12198257 113.24503723 145.1150589 114.32510376 145.10792542 C117.69333672 145.09071783 121.06141264 145.08433743 124.4296875 145.08203125 C126.14910553 145.08002213 126.14910553 145.08002213 127.90325928 145.07797241 C144.44853342 145.0821765 160.58853332 145.5182809 176.9296875 148.33203125 C177.81269531 148.47608398 178.69570313 148.62013672 179.60546875 148.76855469 C184.39562809 149.55094738 189.16706813 150.39675363 193.9296875 151.33203125 C194.44616251 147.64665238 194.93959071 143.958503 195.4296875 140.26953125 C195.57277344 139.25052734 195.71585938 138.23152344 195.86328125 137.18164062 C196.97449447 128.68879672 196.9296875 121.08735918 196.9296875 112.33203125 C150.0696875 112.33203125 103.2096875 112.33203125 54.9296875 112.33203125 Z M213.9296875 112.33203125 C212.38113603 133.82895229 212.38113603 133.82895229 210.9296875 155.33203125 C211.6103125 155.60015625 212.2909375 155.86828125 212.9921875 156.14453125 C228.28312473 162.32597396 243.59837853 169.0169752 254.9296875 181.33203125 C259.07256623 177.80777242 261.04315147 173.66607677 263.3046875 168.83203125 C263.6960791 167.99615479 264.0874707 167.16027832 264.49072266 166.29907227 C272.18017676 149.35858909 276.9296875 130.96507491 276.9296875 112.33203125 C256.1396875 112.33203125 235.3496875 112.33203125 213.9296875 112.33203125 Z M61.9296875 167.33203125 C62.45100259 175.13520788 64.48626867 182.00776598 66.9921875 189.39453125 C67.59836914 191.1892688 67.59836914 191.1892688 68.21679688 193.02026367 C71.40383205 202.23535891 75.00429651 210.91694336 79.9296875 219.33203125 C80.28530762 219.94320801 80.64092773 220.55438477 81.00732422 221.18408203 C88.96102741 234.63690187 99.72093374 249.29054493 115.02734375 254.70703125 C124.55701696 256.75918161 134.52253637 256.59264629 142.9296875 251.33203125 C144.02990234 250.69587891 144.02990234 250.69587891 145.15234375 250.046875 C170.36338703 234.52240752 181.52457365 202.22008354 189.30078125 175.21484375 C189.89733958 172.48030931 190.05822961 170.11882423 189.9296875 167.33203125 C147.72822944 158.79355336 104.09128742 157.25482141 61.9296875 167.33203125 Z M206.9296875 172.33203125 C206.77935059 172.9146875 206.62901367 173.49734375 206.47412109 174.09765625 C200.1414867 198.45173321 191.64962804 219.50742133 177.98583984 240.67724609 C176.58747084 242.86821814 175.25174818 245.09436867 173.9296875 247.33203125 C195.34727917 245.49623768 217.1542959 226.83223647 231.9296875 212.33203125 C232.87070312 211.41808594 233.81171875 210.50414062 234.78125 209.5625 C240.28291294 204.31195887 240.28291294 204.31195887 244.9296875 198.33203125 C244.0048758 193.44374084 240.57531782 189.54681435 236.9296875 186.33203125 C227.79939405 180.26443117 217.62654857 174.90489142 206.9296875 172.33203125 Z M11.53125 189.66796875 C9.50536953 191.77290797 7.97023359 193.58201658 6.9296875 196.33203125 C8.83696327 201.12941368 12.46405717 204.60495863 15.9296875 208.33203125 C16.78820312 209.25628906 17.64671875 210.18054688 18.53125 211.1328125 C31.82017759 225.09076886 47.62379041 235.0013482 64.9296875 243.26953125 C65.54070312 243.5644043 66.15171875 243.85927734 66.78125 244.16308594 C70.48087767 245.8764047 73.88501008 246.84494357 77.9296875 247.33203125 C75.34641825 242.71821928 72.61721571 238.29554024 69.6796875 233.89453125 C57.26316148 214.85379761 50.27029613 194.29263685 44.9296875 172.33203125 C34.34490518 172.33203125 18.79476442 182.88271042 11.53125 189.66796875 Z " fill="#000000" transform="translate(130.0703125,223.66796875)"/>
<path d="M0 0 C0.81126343 0.00021149 1.62252686 0.00042297 2.45837402 0.00064087 C15.6686532 0.03491236 28.1683762 1.0439236 41 4.375 C41.74507812 4.55691895 42.49015625 4.73883789 43.2578125 4.92626953 C74.17921595 12.56784428 103.7059018 30.73288337 125 54.375 C125.46245117 54.87902344 125.92490234 55.38304687 126.40136719 55.90234375 C136.69548597 67.29494038 136.69548597 67.29494038 136.9375 74.1875 C135.85298216 83.4330146 131.44194132 89.90643909 125 96.375 C124.43796875 96.96023437 123.8759375 97.54546875 123.296875 98.1484375 C105.96064631 114.80629203 77.87442957 120.59160253 55.0625 124.625 C54.14009521 124.78822754 53.21769043 124.95145508 52.26733398 125.11962891 C45.47747526 126.25905833 38.91587224 126.79867731 32 127.375 C32 148.825 32 170.275 32 192.375 C35.96 192.375 39.92 192.375 44 192.375 C48 196.375 48 196.375 48.75 200 C48.40064398 206.11936521 43.89570945 210.02458629 40 214.375 C38.64522167 215.96044319 37.30239957 217.55550746 35.96020508 219.15161133 C34.55333683 220.82338857 33.13847937 222.48814772 31.72265625 224.15234375 C29.28064733 227.03228912 26.88319791 229.94609667 24.5 232.875 C21.11497047 237.02714054 17.69907433 241.15103279 14.25 245.25 C13.80205078 245.78560547 13.35410156 246.32121094 12.89257812 246.87304688 C5.19343983 255.99074854 5.19343983 255.99074854 1.9375 257.0390625 C-1.69913542 256.96574324 -3.48219366 256.77331257 -6.4375 254.5 C-7.30387413 253.46846425 -8.15588263 252.42482665 -9 251.375 C-10.41377442 249.83068059 -11.83078511 248.28932116 -13.25 246.75 C-17.17505667 242.36507695 -20.92097644 237.86043174 -24.62109375 233.28515625 C-26.73028618 230.70494548 -28.87434136 228.16336363 -31.04223633 225.6328125 C-32.90611216 223.45160488 -34.75130373 221.25515463 -36.59179688 219.05419922 C-37.54390448 217.91886702 -38.50108886 216.78777604 -39.46289062 215.66064453 C-40.89155288 213.97713724 -42.29176057 212.2733416 -43.6875 210.5625 C-44.51636719 209.56605469 -45.34523438 208.56960938 -46.19921875 207.54296875 C-48.6152344 203.2926679 -48.65039158 201.2113705 -48 196.375 C-46.68 195.055 -45.36 193.735 -44 192.375 C-40.04 192.375 -36.08 192.375 -32 192.375 C-32 170.925 -32 149.475 -32 127.375 C-36.95 127.045 -41.9 126.715 -47 126.375 C-50.84700058 125.85835213 -54.62442129 125.30980609 -58.4375 124.625 C-59.42049072 124.4501709 -60.40348145 124.2753418 -61.41625977 124.09521484 C-69.8849916 122.51999062 -77.89588232 120.26451389 -86 117.375 C-86.65516602 117.15086426 -87.31033203 116.92672852 -87.98535156 116.69580078 C-106.82738708 110.24984126 -125.37636549 101.83543098 -135 83.375 C-136.67510418 78.34968745 -136.85911943 73.60024131 -136 68.375 C-133.90074633 64.48727602 -131.05236888 61.54328163 -128 58.375 C-126.68734227 56.88837558 -125.37471258 55.40172586 -124.06323242 53.9140625 C-92.38756394 18.4777867 -47.18223512 -0.11400463 0 0 Z M-38.0078125 36.796875 C-52.50024505 55.55178771 -64.5881942 80.65890963 -67 104.375 C-59.8596966 106.38454647 -52.69514193 107.84631731 -45.375 109 C-44.21327271 109.18429565 -44.21327271 109.18429565 -43.02807617 109.37231445 C-8.3263602 114.677571 27.78588949 113.10607305 62 105.375 C55.63476265 74.85348922 43.82464124 42.77581562 18 23.375 C-3.24563899 10.94305404 -22.8579199 18.90905 -38.0078125 36.796875 Z M44 23.375 C45.61432845 26.93328417 47.77087399 29.90595694 50.0625 33.0625 C64.22510526 53.25743246 72.39769439 76.50185852 78 100.375 C83.41978976 99.82740466 87.79781355 98.48530327 92.75 96.25 C93.44593262 95.93869141 94.14186523 95.62738281 94.85888672 95.30664062 C104.2662584 90.99447671 114.04977478 86.09663367 118.94921875 76.51953125 C119.01885699 73.57865484 117.63315163 72.33989229 115.68652344 70.26538086 C115.1918457 69.76530518 114.69716797 69.26522949 114.1875 68.75 C113.6812207 68.22220947 113.17494141 67.69441895 112.65332031 67.15063477 C111.60889336 66.06625082 110.55887606 64.98722426 109.50341797 63.91357422 C108.16915173 62.54810721 106.86539395 61.15297647 105.56640625 59.75390625 C89.61602793 42.94279925 66.54672701 28.94536785 44 23.375 Z M-105 59.375 C-105.50466797 59.86597168 -106.00933594 60.35694336 -106.52929688 60.86279297 C-113.30792476 67.15941331 -113.30792476 67.15941331 -119 74.375 C-118.50252124 79.84726639 -115.0261061 82.84904778 -111.03125 86.21484375 C-107.30964125 88.86696957 -103.46098188 91.09098378 -99.4375 93.25 C-98.37583618 93.8219812 -98.37583618 93.8219812 -97.29272461 94.40551758 C-92.60051766 96.82304428 -88.1622874 98.27169898 -83 99.375 C-82.731875 98.16328125 -82.46375 96.9515625 -82.1875 95.703125 C-77.13262219 73.7492487 -68.69496538 52.4730538 -55.76171875 33.92578125 C-54.06198126 31.46474227 -52.51096415 28.95526186 -51 26.375 C-69.63875816 26.375 -92.28477012 46.88808226 -105 59.375 Z M-16 128.375 C-16 149.495 -16 170.615 -16 192.375 C-5.44 192.375 5.12 192.375 16 192.375 C16 171.255 16 150.135 16 128.375 C5.44 128.375 -5.12 128.375 -16 128.375 Z M-22 208.375 C-17.4590014 214.50623203 -17.4590014 214.50623203 -12.640625 220.33203125 C-11.80337891 221.28819336 -11.80337891 221.28819336 -10.94921875 222.26367188 C-10.38847656 222.89853516 -9.82773438 223.53339844 -9.25 224.1875 C-8.10780076 225.4842922 -6.96711254 226.78241726 -5.828125 228.08203125 C-5.0841748 228.92471558 -5.0841748 228.92471558 -4.32519531 229.78442383 C-3 231.375 -3 231.375 -1 234.375 C2.71563534 233.13645489 3.59458591 231.68482822 6 228.625 C6.78246094 227.64273438 7.56492187 226.66046875 8.37109375 225.6484375 C8.79116699 225.12088867 9.21124023 224.59333984 9.64404297 224.04980469 C12.53472591 220.47938967 15.5476552 217.00933556 18.54492188 213.52832031 C20.93446757 211.242889 20.93446757 211.242889 22 208.375 C7.48 208.375 -7.04 208.375 -22 208.375 Z " fill="#000000" transform="translate(256,47.625)"/>
<path d="M0 0 C3.63303084 1.69586126 5.94549046 3.73800488 8.75 6.625 C9.54921875 7.44226562 10.3484375 8.25953125 11.171875 9.1015625 C11.77515625 9.72804688 12.3784375 10.35453125 13 11 C10.97699054 15.43626553 8.02132242 18.38251359 4.625 21.8125 C4.0475 22.42287109 3.47 23.03324219 2.875 23.66210938 C2.31039063 24.23380859 1.74578125 24.80550781 1.1640625 25.39453125 C0.65311035 25.91893799 0.1421582 26.44334473 -0.38427734 26.98364258 C-2 28 -2 28 -4.0480957 27.78320312 C-6.89333855 26.64154721 -8.64049223 24.83143659 -10.8125 22.6875 C-11.62332031 21.90761719 -12.43414062 21.12773438 -13.26953125 20.32421875 C-15 18 -15 18 -14.80566406 16.07055664 C-13.85429127 13.62552856 -12.71642318 12.37273607 -10.83984375 10.546875 C-10.21142578 9.928125 -9.58300781 9.309375 -8.93554688 8.671875 C-8.27619141 8.03765625 -7.61683594 7.4034375 -6.9375 6.75 C-6.27427734 6.1003125 -5.61105469 5.450625 -4.92773438 4.78125 C-3.29170683 3.1805324 -1.64909088 1.58723807 0 0 Z " fill="#000000" transform="translate(385,50)"/>
<path d="M0 0 C2.93230193 1.32120828 4.98664899 2.74638197 7.234375 5.0390625 C7.80800781 5.61914062 8.38164062 6.19921875 8.97265625 6.796875 C9.55917969 7.40015625 10.14570313 8.0034375 10.75 8.625 C11.35199219 9.23601563 11.95398438 9.84703125 12.57421875 10.4765625 C14.05405305 11.97988624 15.52764676 13.48934856 17 15 C15.46356148 18.68069887 13.21849055 20.98775204 10.375 23.75 C9.55773437 24.54921875 8.74046875 25.3484375 7.8984375 26.171875 C7.27195313 26.77515625 6.64546875 27.3784375 6 28 C3.06769807 26.67879172 1.01335101 25.25361803 -1.234375 22.9609375 C-1.80800781 22.38085938 -2.38164063 21.80078125 -2.97265625 21.203125 C-3.55917969 20.59984375 -4.14570312 19.9965625 -4.75 19.375 C-5.35199219 18.76398438 -5.95398438 18.15296875 -6.57421875 17.5234375 C-8.05405305 16.02011376 -9.52764676 14.51065144 -11 13 C-9.46356148 9.31930113 -7.21849055 7.01224796 -4.375 4.25 C-3.55773437 3.45078125 -2.74046875 2.6515625 -1.8984375 1.828125 C-0.95871094 0.92320313 -0.95871094 0.92320313 0 0 Z " fill="#000000" transform="translate(125,50)"/>
<path d="M0 0 C5.28 0 10.56 0 16 0 C16 5.28 16 10.56 16 16 C10.72 16 5.44 16 0 16 C0 10.72 0 5.44 0 0 Z " fill="#000000" transform="translate(248,16)"/>
</svg>
