<?xml version="1.0" encoding="UTF-8"?>
<svg version="1.1" xmlns="http://www.w3.org/2000/svg" width="512" height="512">
<path d="M0 0 C6.55175661 4.47973465 11.41047448 10.0523724 13 18 C13.69626342 25.87313253 12.99898759 32.14154646 8.078125 38.47265625 C4.11028904 43.00830322 -0.10159449 47.13974575 -4.703125 51.0234375 C-7.70611737 53.60764522 -10.59861801 56.30281842 -13.5 59 C-17.58518407 62.7893664 -21.70395508 66.52173797 -25.91796875 70.16796875 C-29.13491793 72.99864261 -32.2797068 75.90767016 -35.43334961 78.80834961 C-40.25603882 83.24236939 -45.12349669 87.62525909 -50 92 C-51.66692647 93.49971128 -53.33359149 94.99971321 -55 96.5 C-55.81984375 97.23734375 -56.6396875 97.9746875 -57.484375 98.734375 C-59.20518562 100.28417339 -60.9238363 101.83637251 -62.640625 103.390625 C-63.50171875 104.16921875 -64.3628125 104.9478125 -65.25 105.75 C-66.01828125 106.44609375 -66.7865625 107.1421875 -67.578125 107.859375 C-70.33903737 110.29966529 -73.16554288 112.64556408 -76 115 C-74.0706813 115.00219984 -74.0706813 115.00219984 -72.10238647 115.00444412 C-41.56178023 115.04015568 -11.02128853 115.09641063 19.51922721 115.17792095 C23.27925655 115.18793826 27.03928633 115.19778241 30.79931641 115.20751953 C31.54786223 115.2094609 32.29640805 115.21140228 33.06763709 115.21340248 C45.18373198 115.24441308 57.29980794 115.2614005 69.41593504 115.27319422 C81.85068412 115.28561066 94.2853339 115.31312317 106.72002029 115.35461307 C114.39126249 115.37973443 122.06234001 115.39311828 129.73362392 115.39142957 C135.61862755 115.39139627 141.50343925 115.41237901 147.38837624 115.44116783 C149.80061221 115.44968661 152.21288328 115.45140341 154.62512779 115.44580269 C157.92013 115.43917143 161.21413171 115.45706409 164.5090332 115.48101807 C165.46235849 115.47325765 166.41568378 115.46549723 167.39789772 115.45750165 C174.50389752 115.54887552 179.73904493 117.2527175 185.20703125 121.859375 C190.90060861 128.56422036 193.69177388 134.49859338 193.3359375 143.421875 C192.23771019 151.85013114 188.71974638 156.97176307 182.31640625 162.40625 C176.61628792 166.32808521 171.54402129 166.29191691 164.83183289 166.2784729 C163.28184191 166.2871615 163.28184191 166.2871615 161.70053798 166.29602563 C158.233514 166.31304862 154.76662296 166.31590416 151.29956055 166.31884766 C148.81609266 166.32814423 146.3326279 166.33831249 143.84916687 166.34928894 C138.5001022 166.3709665 133.15107246 166.38657148 127.80197716 166.39665604 C120.06811129 166.41124705 112.33431198 166.43678505 104.60048518 166.46498732 C92.05260345 166.51044764 79.50471214 166.54706559 66.95678711 166.578125 C54.76829342 166.60831365 42.57982319 166.64266537 30.39135742 166.68261719 C29.26424352 166.68630951 29.26424352 166.68630951 28.11435964 166.69007643 C24.34472663 166.70245109 20.57509389 166.71490761 16.80546129 166.72740483 C-14.46299399 166.83096125 -45.7314751 166.92002097 -77 167 C-75.75127148 168.26151183 -74.50065255 169.52115255 -73.24926758 170.7800293 C-72.55303787 171.48169724 -71.85680817 172.18336517 -71.13948059 172.90629578 C-68.52223683 175.46754094 -65.78254734 177.85546458 -63.00927734 180.24462891 C-59.51874952 183.29406937 -56.1742513 186.49762536 -52.8125 189.6875 C-47.69148337 194.52742402 -42.56103758 199.35475497 -37.375 204.125 C-32.70936757 208.41656356 -28.06758453 212.73260583 -23.4375 217.0625 C-18.78404918 221.41021916 -14.12434963 225.75077697 -9.4375 230.0625 C-8.52871094 230.89910156 -7.61992187 231.73570312 -6.68359375 232.59765625 C-4.77354019 234.30752953 -2.86319645 235.91975926 -0.8671875 237.51953125 C1.74549185 239.77981924 3.47014004 241.73482885 5.3125 244.625 C5.80363281 245.38039063 6.29476562 246.13578125 6.80078125 246.9140625 C10.28291163 252.97092773 9.60205606 260.25281997 9 267 C6.98622085 273.42061423 2.67691153 278.45050822 -3 282 C-10.09259707 285.3737759 -16.79865436 286.01639967 -24.375 284.0625 C-29.27993617 282.28118927 -32.63217728 279.1289778 -36.34765625 275.546875 C-38.45584483 273.52251719 -40.5899403 271.59619849 -42.796875 269.68359375 C-47.03219388 266.00092326 -51.11666935 262.1752008 -55.1875 258.3125 C-60.30851663 253.47257598 -65.43896242 248.64524503 -70.625 243.875 C-75.29063093 239.58343782 -79.93258664 235.26757582 -84.5625 230.9375 C-89.02117662 226.76874495 -93.49466255 222.61830175 -98 218.5 C-103.15403568 213.78872712 -108.2629371 209.03100608 -113.36328125 204.26171875 C-117.39533714 200.49298079 -121.44047252 196.73912081 -125.5 193 C-130.82030871 188.09909053 -136.1140497 183.17037362 -141.39428711 178.22631836 C-144.45576944 175.36250467 -147.5271339 172.51158253 -150.62890625 169.69140625 C-168.85596738 153.11207552 -168.85596738 153.11207552 -169.4375 141.125 C-168.99232249 130.71102599 -164.17355487 124.3914059 -156.79296875 117.51953125 C-153.93753967 114.94365467 -151.08424292 112.37278245 -148.16015625 109.875 C-145.39014959 107.47065426 -142.69625855 104.9861876 -140 102.5 C-136.72166443 99.48050705 -133.43418361 96.47797272 -130.0625 93.5625 C-126.47041409 90.45035876 -122.98448008 87.23127914 -119.5 84 C-115.41429121 80.21118064 -111.29606727 76.47828136 -107.08203125 72.83203125 C-103.86508207 70.00135739 -100.7202932 67.09232984 -97.56665039 64.19165039 C-92.74396118 59.75763061 -87.87650331 55.37474091 -83 51 C-81.33307353 49.50028872 -79.66640851 48.00028679 -78 46.5 C-74.66666667 43.5 -71.33333333 40.5 -68 37.5 C-66.75863281 36.38238281 -66.75863281 36.38238281 -65.4921875 35.2421875 C-63.85260121 33.76707382 -62.21200345 32.29308348 -60.5703125 30.8203125 C-56.5045548 27.17022332 -52.45385486 23.50537983 -48.43212891 19.80688477 C-37.82605226 10.0538839 -37.82605226 10.0538839 -33 6 C-32.35675781 5.45472656 -31.71351563 4.90945312 -31.05078125 4.34765625 C-21.66180022 -3.19673126 -11.11397327 -5.40421724 0 0 Z " fill="#000000" transform="translate(244,115)"/>
</svg>
