<?xml version="1.0" encoding="UTF-8"?>
<svg version="1.1" xmlns="http://www.w3.org/2000/svg" width="512" height="512">
<path d="M0 0 C0.77359863 0.20898926 1.54719727 0.41797852 2.34423828 0.63330078 C41.66781696 11.70160724 75.71303486 38.53736305 95.8125 74.0625 C99.7272082 81.16122798 103.0822441 88.43260386 106 96 C106.44085938 97.13308594 106.88171875 98.26617187 107.3359375 99.43359375 C117.5831792 127.7842958 118.90579804 161.86667985 111 191 C110.68651611 192.16039795 110.68651611 192.16039795 110.36669922 193.34423828 C99.29878782 232.66641338 72.46300593 266.71526301 36.9375 286.8125 C16.78447629 297.91415361 -6.76397046 306.0618862 -29.9609375 306.203125 C-30.70977203 306.20882507 -31.45860657 306.21452515 -32.23013306 306.22039795 C-33.81177381 306.22979745 -35.39343371 306.2363617 -36.97509766 306.24023438 C-39.33403264 306.2498333 -41.69205403 306.28085914 -44.05078125 306.3125 C-58.14534056 306.4117815 -71.57438183 304.46558092 -85.0625 300.25 C-85.89410645 299.99395996 -86.72571289 299.73791992 -87.58251953 299.47412109 C-127.36201901 286.85814143 -159.86450578 258.85798792 -179.03173828 221.92578125 C-181.64575922 216.72674011 -183.9073729 211.42736911 -186 206 C-186.44085938 204.86691406 -186.88171875 203.73382813 -187.3359375 202.56640625 C-197.5831792 174.2157042 -198.90579804 140.13332015 -191 111 C-190.79101074 110.22640137 -190.58202148 109.45280273 -190.36669922 108.65576172 C-179.29839276 69.33218304 -152.46263695 35.28696514 -116.9375 15.1875 C-109.83877202 11.2727918 -102.56739614 7.9177559 -95 5 C-93.86691406 4.55914062 -92.73382813 4.11828125 -91.56640625 3.6640625 C-63.2157042 -6.5831792 -29.13332015 -7.90579804 0 0 Z " fill="#FF5E5E" transform="translate(296,105)"/>
<path d="M0 0 C1.01790619 0.00215515 2.03581238 0.0043103 3.08456421 0.00653076 C17.69363523 0.05620146 32.02575853 0.30709809 46.375 3.3125 C47.34985352 3.51117676 48.32470703 3.70985352 49.32910156 3.91455078 C97.7109774 14.03517194 141.69928269 35.9516877 177.375 70.3125 C178.3640332 71.26068604 178.3640332 71.26068604 179.37304688 72.22802734 C188.86130305 81.37247479 197.6012044 90.66984009 205.375 101.3125 C206.23306152 102.46355017 207.09113451 103.61459177 207.94921875 104.765625 C213.98736829 112.95680614 219.34595521 121.47054105 224.375 130.3125 C224.73948242 130.94430176 225.10396484 131.57610352 225.47949219 132.22705078 C247.08534998 169.97532572 256.85198095 212.74189997 256.6875 255.9375 C256.68534485 256.95540619 256.6831897 257.97331238 256.68096924 259.02206421 C256.63129854 273.63113523 256.38040191 287.96325853 253.375 302.3125 C253.07698486 303.77478027 253.07698486 303.77478027 252.77294922 305.26660156 C242.65232806 353.6484774 220.7358123 397.63678269 186.375 433.3125 C185.74287598 433.97185547 185.11075195 434.63121094 184.45947266 435.31054688 C175.31502521 444.79880305 166.01765991 453.5387044 155.375 461.3125 C154.22394983 462.17056152 153.07290823 463.02863451 151.921875 463.88671875 C143.73224019 469.92427396 135.22961724 475.30707302 126.375 480.3125 C125.66778809 480.7146875 124.96057617 481.116875 124.23193359 481.53125 C101.09654164 494.5566741 75.92537591 503.30551461 49.9375 508.625 C49.21860596 508.77235596 48.49971191 508.91971191 47.7590332 509.0715332 C33.08339502 511.86090125 18.55831162 512.66142619 3.64770508 512.62817383 C0.70811513 512.6250221 -2.2304558 512.64854926 -5.16992188 512.67382812 C-18.54306192 512.71848737 -31.43916711 511.51301542 -44.625 509.3125 C-46.33055054 509.03031616 -46.33055054 509.03031616 -48.07055664 508.74243164 C-91.33802759 500.97044532 -132.38793216 480.98345309 -165.625 452.3125 C-166.37007813 451.67828125 -167.11515625 451.0440625 -167.8828125 450.390625 C-181.38779833 438.57948485 -194.05918743 425.82889772 -204.625 411.3125 C-205.48149066 410.16255169 -206.33826433 409.01281411 -207.1953125 407.86328125 C-213.23534209 399.67315742 -218.61867614 391.16870382 -223.625 382.3125 C-224.0271875 381.60528809 -224.429375 380.89807617 -224.84375 380.16943359 C-237.8691741 357.03404164 -246.61801461 331.86287591 -251.9375 305.875 C-252.08485596 305.15610596 -252.23221191 304.43721191 -252.3840332 303.6965332 C-255.35789088 288.05024391 -255.99800362 272.57681954 -255.9375 256.6875 C-255.93534485 255.66959381 -255.9331897 254.65168762 -255.93096924 253.60293579 C-255.88129854 238.99386477 -255.63040191 224.66174147 -252.625 210.3125 C-252.42632324 209.33764648 -252.22764648 208.36279297 -252.02294922 207.35839844 C-241.90232806 158.9765226 -219.9858123 114.98821731 -185.625 79.3125 C-184.99287598 78.65314453 -184.36075195 77.99378906 -183.70947266 77.31445312 C-174.56502521 67.82619695 -165.26765991 59.0862956 -154.625 51.3125 C-153.47394983 50.45443848 -152.32290823 49.59636549 -151.171875 48.73828125 C-142.98224019 42.70072604 -134.47961724 37.31792698 -125.625 32.3125 C-124.91778809 31.9103125 -124.21057617 31.508125 -123.48193359 31.09375 C-100.34654164 18.0683259 -75.17537591 9.31948539 -49.1875 4 C-48.46860596 3.85264404 -47.74971191 3.70528809 -47.0090332 3.5534668 C-31.36274391 0.57960912 -15.88931954 -0.06050362 0 0 Z M-160.625 86.3125 C-161.22103027 86.88129883 -161.81706055 87.45009766 -162.43115234 88.03613281 C-171.318633 96.55912819 -179.3950662 105.33990071 -186.625 115.3125 C-187.08358398 115.94269043 -187.54216797 116.57288086 -188.01464844 117.22216797 C-194.96021968 126.84962128 -201.14962077 136.77986991 -206.625 147.3125 C-207.03105469 148.09189941 -207.43710938 148.87129883 -207.85546875 149.67431641 C-218.20883527 169.81957841 -225.21421895 191.11327831 -229.625 213.3125 C-229.78871094 214.10043945 -229.95242187 214.88837891 -230.12109375 215.70019531 C-241.61846134 273.35331749 -226.6070308 336.69010058 -194.4296875 385.21484375 C-190.68178004 390.7352044 -186.79983043 396.10306936 -182.625 401.3125 C-181.85542969 402.28574219 -181.08585937 403.25898438 -180.29296875 404.26171875 C-168.22777381 419.18919875 -154.33584863 433.23866397 -138.625 444.3125 C-137.94646973 444.79235352 -137.26793945 445.27220703 -136.56884766 445.76660156 C-105.12672557 467.78244182 -70.60929131 482.18556317 -32.625 488.3125 C-31.86058594 488.44237305 -31.09617188 488.57224609 -30.30859375 488.70605469 C28.49137909 498.37069111 90.45150408 480.50144877 138.375 446.3125 C141.81846464 443.76161146 145.11360631 441.0911047 148.375 438.3125 C149.48277114 437.38896082 150.59086868 436.46581306 151.69921875 435.54296875 C163.0279662 426.04438053 173.25568899 415.99570676 182.375 404.3125 C182.87290039 403.68569336 183.37080078 403.05888672 183.88378906 402.41308594 C191.52549087 392.78628781 198.40231333 383.05566818 204.375 372.3125 C204.7457666 371.65846191 205.1165332 371.00442383 205.49853516 370.33056641 C217.17124004 349.65590335 225.21117536 327.3260177 230.125 304.125 C230.32375732 303.18817383 230.52251465 302.25134766 230.72729492 301.28613281 C233.70403674 286.50067024 234.78559747 272.04280896 234.75 257 C234.74945618 256.12876495 234.74891235 255.25752991 234.74835205 254.3598938 C234.58565409 197.33425897 213.24654764 142.86679487 175.375 100.3125 C174.92801758 99.80380371 174.48103516 99.29510742 174.02050781 98.77099609 C158.8448853 81.53590285 141.10406494 67.06190902 121.375 55.3125 C120.37678223 54.71574463 120.37678223 54.71574463 119.35839844 54.10693359 C34.89885757 4.16004775 -73.00465105 12.88632652 -160.625 86.3125 Z " fill="#F73838" transform="translate(255.625,-0.3125)"/>
</svg>
