<svg xmlns="http://www.w3.org/2000/svg" width="512" height="512" xmlns:v="https://vecta.io/nano"><path fill="#08b285" d="M495 14c1.408 3.285 1.018 4.94 0 8.375-2.698 5.64-7.603 9.452-12.297 13.41-6.194 5.41-11.936 11.3-17.74 17.121a2962 2962 0 0 1-6.074 6.069C452.716 65.145 446.599 71.295 441 78q-1.406 1.625-2.816 3.246c-11.914 13.818-23.438 27.889-34.433 42.448l-5.665 7.376c-7.67 9.942-15.033 20.007-22.024 30.438-2.139 3.179-4.363 6.277-6.64 9.36-5.39 7.369-10.42 14.98-15.475 22.58a4234 4234 0 0 1-5.04 7.556C330.054 229.267 312.346 258.219 296 288l-3.113 5.64A1495 1495 0 0 0 272 333l-.913 1.782c-15.863 31-29.795 62.654-43.227 94.772-6.52 15.586-13.105 31.122-20.36 46.384l-1.493 3.16c-3.902 8.087-7.21 13.724-16.007 16.902-17.767 4.917-36.987 5.188-55.25 3.188l-2.056-.213c-8.5-1.062-13.04-3.592-18.449-10.036-4.839-6.335-9.214-12.987-13.62-19.627q-2.945-4.414-5.898-8.824l-1.456-2.175c-10.755-16.015-22.1-31.7-34.705-46.313-2.333-2.728-4.58-5.504-6.816-8.312-3.856-4.75-7.982-9.188-12.187-13.625C16 365.124 16 365.124 16 353c2.147-12.1 11.427-20.183 21-27 4.525-2.942 9.212-5.514 14-8l2.55-1.387c8.881-4.253 20.112-4.127 29.325-.925Q85.459 316.796 88 318l2.402 1.027C122.345 333.575 147.758 368.517 163 399l1.074-2.332 13.897-29.232a2225 2225 0 0 0 7.646-15.956c11.97-25.293 24.316-50.464 37.957-74.902a707 707 0 0 0 4.551-8.39C235.762 253.929 243.748 239.91 252 226l1.59-2.688A1213 1213 0 0 1 276 187l1.518-2.372C290.484 164.4 304.018 144.538 318 125l1.56-2.188A1024 1024 0 0 1 344 90l1.46-1.89C361.628 67.21 378.91 46.122 400 30l2.195-1.746c11.195-8.283 26.452-9.408 39.868-11.379l5.213-.784C489.94 9.75 489.94 9.75 495 14"/></svg>