<svg xmlns="http://www.w3.org/2000/svg" width="512" height="512"><path d="M0 0h86v16c13.585.42 23.021-4.21 34.878-10.552 9.213-4.273 16.889-6.037 27.066-5.966l3.775-.02c3.384-.015 6.768-.012 10.153 0 3.567.01 7.134.001 10.701-.005q8.988-.01 17.975.022c6.889.021 13.777.014 20.665-.008q8.925-.026 17.849-.01c3.538.006 7.075.007 10.613-.006 17.464-.057 33.267-.006 48.95 8.545l1.922.941c10.291 5.469 18.305 14.24 25.019 23.572 12.217 16.834 26.118 33.59 47.564 37.152 9.281 1.295 18.612 1.59 27.972 1.655l2.41.02c13.725.07 27.395-.647 41.113-1.215L512 68v223H153V182l-16-2c-11.664-2.708-23.263-7.014-32.977-14.203-3.65-2.17-6.767-2.457-10.898-2.547L86 163v25H0zm18 18v152h50V18zm99.248 9.745C106.964 33.487 98.298 33.277 86 34v111l21 1c5.186 2.89 9.347 5.522 14 9 10.159 5.66 20.524 7.725 32 9v-41l-15-8-6-5c1.34-4.765 4.235-7.704 7.54-11.23 1.672-1.645 1.672-1.645 1.46-3.77l2.02 1.574c12.864 9.734 23.894 13.548 39.98 12.426 8.676-1.706 15.05-5.736 22-11a1168 1168 0 0 1 6-4l1.92 1.954q8.984 9.135 18.005 18.23 4.64 4.675 9.255 9.373 4.458 4.538 8.948 9.045a618 618 0 0 1 3.396 3.45c8.67 9.38 8.67 9.38 20.515 13.023 4.938-.326 8.26-1.88 11.961-5.075 3.53-4.646 4.85-8.473 4.461-14.346-1.757-10.108-12.766-18.34-19.734-25.22l-3.876-3.863a4392 4392 0 0 0-10.15-10.076c-3.464-3.433-6.92-6.876-10.377-10.317Q235.174 70.076 225 60q1.41-1.66 2.82-3.316l1.587-1.866c2.095-2.39 4.313-4.605 6.593-6.818 3.463 1.426 4.98 3.038 7.093 6.093 5.57 7.237 11.206 13.774 20.67 15.177 8.972.893 18.011.433 26.995-.034 3.981-.187 7.965-.267 11.949-.357 7.77-.191 15.53-.497 23.293-.879-5.988-7.108-12.397-13.726-18.928-20.333a638 638 0 0 1-4.1-4.203c-14.205-14.688-28.842-25.64-50.203-26.084l-3.263-.009-3.558-.055c-3.845-.053-7.689-.076-11.534-.093l-4.022-.03q-10.544-.083-21.088-.099c-6.484-.012-12.965-.08-19.448-.175-5.62-.079-11.24-.113-16.86-.117a583 583 0 0 1-9.997-.087c-17.662-.294-30.354 2.224-45.75 11.03M277 86l6 7 2.054 2.616c4.11 4.804 7.113 6.948 13.495 7.466 2.564.026 5.128.003 7.691-.06q2.13-.004 4.26.004c3.832.002 7.66-.05 11.49-.113 4.012-.057 8.024-.062 12.036-.073a2759 2759 0 0 0 22.757-.192c8.641-.1 17.282-.15 25.923-.195 17.765-.094 35.53-.252 53.294-.453l-.068 3.274-.053 4.324-.05 2.149c-.081 9.23 3.066 16.39 9.296 23.19C454.992 144 464.987 145 478 145v69h-15c-9.69 2.112-17.17 7.744-22.781 15.926C435.115 238.612 436 245.288 436 256H230v-13c-1.453-6.319-3.028-10.824-7-16l-1.625-2.5c-5.108-5.377-11.424-8.183-18.375-10.5h-16v-69h10c10.883-1.12 18.17-5.586 26-13a382 382 0 0 0-6-7l-1.781-2.059c-3.199-3.75-3.199-3.75-7.656-5.129-2.055.952-4.067 1.994-6.063 3.063-9.552 4.928-19.933 5.312-30.5 6.125v146h323V86zm29 34v20l-1 6 2.527-1.46c12.805-7.188 24.552-9.987 39.16-5.977 11.272 3.865 19.492 10.864 25.063 21.312 5.649 12.042 5.686 24.62 1.25 37.125-5.066 10.906-12.774 18.631-24 23-10.486 3.566-23.386 3.737-33.613-.742-11.763-6.2-18.68-13.734-23.387-26.258-1.276-4.401-1.184-8.636-1.187-13.187l-.038-2.463c-.013-5.694.765-10.85 2.225-16.35-2.84.925-5.637 1.844-8.383 3.023-9.01 3.362-18.936 2.207-27.617-1.585-7.717-4.172-13.929-11.207-20-17.438-3.34 1.48-5.755 3.42-8.5 5.813-7.075 5.766-14.932 8.33-23.5 11.187v35l13 4c14.86 8.105 22.661 17.87 28 34l1 3h172l4-13c6.768-12.453 15.706-20.815 29-26l8-2v-35l-13-5c-16.324-8.55-22.687-20.166-29-37zm7 43c-4.857 6.898-6.352 13.666-5 22 2.728 8.534 7.635 13.432 15.188 17.875 7.223 2.132 14.155 2.258 21.125-.812 6.395-3.636 10.396-8.864 13.125-15.625 1.456-8.902.454-16.018-4.91-23.489-4.757-5.251-10.65-8.151-17.63-9.293-8.512-.407-16.403 2.894-21.898 9.344M426 341h86v171h-86l-1-11-2.323.902q-5.212 2.021-10.427 4.036l-3.656 1.42-3.516 1.357-3.237 1.254c-4.337 1.574-7.894 2.159-12.525 2.178l-3.513.022-3.842.008-4.057.02c-4.438.02-8.876.031-13.314.041l-4.594.013q-10.8.029-21.598.041-12.435.015-24.87.077-9.63.044-19.26.048c-3.829.002-7.657.011-11.485.036q-5.412.034-10.822.018a549 549 0 0 0-5.816.038c-9.886-.058-18.122-2.288-26.563-7.513l-2.81-1.714-2.96-1.844q-3.307-2.024-6.617-4.043l-1.746-1.071c-6.368-3.902-12.798-7.697-19.227-11.496a2902 2902 0 0 1-33.93-20.37c-9.39-5.722-18.83-11.357-28.292-16.958a3017 3017 0 0 1-34.571-20.765c-5.424-3.308-10.858-6.59-16.34-9.803C82.317 410.592 74.419 404.502 71 392c-1.113-11.643-.485-22.076 7.055-31.594 6.316-6.732 13.148-11.016 22.484-11.644q2.043-.045 4.086-.075l2.004-.087c9.905-.124 18.606 5.382 27.121 9.9l3.022 1.59c8.534 4.506 17.008 9.122 25.47 13.762 15.52 8.503 31.13 16.844 46.758 25.148.26-.897.52-1.794.79-2.719 3.058-8.287 9.58-13.005 17.296-16.705 8.537-3.627 17.741-5.647 26.687-7.998q3.321-.886 6.642-1.776a4234 4234 0 0 1 13.873-3.68 4323 4323 0 0 0 17.678-4.708q6.85-1.832 13.703-3.649 3.256-.865 6.513-1.737c14.462-3.863 28.474-7.373 43.548-7.294l2.552-.005q2.63-.002 5.26.01c2.652.011 5.304 0 7.956-.012 22.124-.021 22.124-.021 31.127 4.773l2.96 1.57C412.45 358.95 419.23 362.96 426 367zm18 18v135h50V359zM90 376c-1.193 2.386-1.235 4.024-1.312 6.688l-.114 2.511c.804 5.289 3.267 8.874 7.347 12.137l3.384 2.039 1.857 1.137A500 500 0 0 0 107 404q1.846 1.11 3.688 2.223c3.137 1.885 6.287 3.748 9.441 5.603a4371 4371 0 0 1 12.636 7.466c6.841 4.056 13.635 8.188 20.423 12.333 9.979 6.09 20.029 12.046 30.129 17.934 9.689 5.652 19.3 11.421 28.876 17.262a2127 2127 0 0 0 31.382 18.743 797 797 0 0 1 10.292 6.23c3.536 1.999 6.36 2.344 10.348 2.4l3.276.053 3.598.041 3.792.054a4552 4552 0 0 0 34.886.31c8.564.05 17.125.135 25.688.269 6.052.09 12.104.138 18.157.155 3.595.01 7.188.04 10.782.118 20.079.416 35.696-2.8 53.881-10.975 2.552-1.142 5.122-2.199 7.725-3.219.302-11.856.532-23.712.674-35.571.067-5.508.16-11.013.307-16.519a786 786 0 0 0 .252-15.95q.036-3.04.141-6.076c.795-10.245.795-10.245-2.626-19.493-3.494-3.045-7.47-4.663-11.748-6.391a142 142 0 0 1-5.328-3.336q-2.46-1.521-4.922-3.039l-2.484-1.574c-10.272-6.29-19.833-6.374-31.612-6.312-2.385.01-4.769 0-7.154-.012q-2.336 0-4.672.007l-2.097-.012c-14.408.132-28.14 4.306-41.938 8.02l-6.411 1.712q-6.685 1.786-13.366 3.586a5561 5561 0 0 1-17.09 4.565 5741 5741 0 0 0-13.212 3.537q-3.15.844-6.302 1.681c-2.937.781-5.872 1.573-8.806 2.368l-2.6.684C237.55 394.917 230.25 397.136 226 404c-2.209 4.733-2.485 9.004-1 14 1.938 3.89 4.2 6.437 7.75 8.938 9.026 2.95 17.737-.055 26.563-2.438q2.194-.58 4.39-1.156c4.368-1.151 8.731-2.319 13.095-3.488a7023 7023 0 0 1 12.706-3.383l4.08-1.084A25875 25875 0 0 0 340 403l.938 5.125.527 2.883A663 663 0 0 1 343 420q-17.472 4.671-34.945 9.336l-16.226 4.335q-7.828 2.092-15.658 4.182-2.988.797-5.975 1.597-4.182 1.119-8.367 2.233l-2.495.67c-10.827 2.88-24.044 5.57-34.385-.103L223 441l-2.105-1.25c-6.264-4.136-10.863-10.293-12.57-17.667-1.705-3.967-4.036-5.153-7.747-6.966l-1.962-1.019c-2.113-1.092-4.24-2.157-6.366-3.223q-2.208-1.134-4.413-2.275-4.395-2.27-8.8-4.521c-5.19-2.661-10.306-5.45-15.412-8.267l-5.191-2.843-2.634-1.442a2666 2666 0 0 0-19.446-10.497c-4.84-2.588-9.665-5.189-14.428-7.917-9.338-5.549-9.338-5.549-19.914-6.675-5.529 1.545-8.774 5.006-12.012 9.562"/></svg>