<svg xmlns="http://www.w3.org/2000/svg" width="512" height="512"><path d="m283.11 7.797 2.547-.021q4.046-.025 8.093-.026l2.792-.002c13.387.016 26.33.418 39.458 3.252l2.521.504C377.665 19.396 412.282 38.476 441 66l1.774 1.675C452.628 77.015 461.163 86.913 469 98l1.256 1.775c31.574 45.338 42.935 103.276 33.59 157.549-6.852 35.502-6.852 35.502-19.846 44.676-7.523 4.226-15.459 5.014-23.812 3.063-7.049-2.292-12.683-7.156-16.668-13.372-5.033-10.482-3.132-19.481-.34-30.293 10.869-42.518 5.341-84.772-16.86-122.64-6.912-11.417-15.78-21.47-25.32-30.758l-1.328-1.465c-25.304-27.156-65.502-40.133-101.629-41.66-42.165-.849-80.607 15.455-111.465 43.645-7.76 7.466-14.78 15.374-20.578 24.48l-2.145 3.324c-9.565 15.16-15.69 30.929-20.204 48.24-.843 3.157-1.748 6.295-2.651 9.436l2.966-.063c3.638-.073 7.275-.119 10.913-.157q2.36-.03 4.72-.082a496 496 0 0 1 6.792-.089l2.124-.062c3.394-.002 5.17.214 7.905 2.295 2.051 2.802 2.461 4.695 2.58 8.158-.863 2.613-.863 2.613-2.312 5.313l-1.711 3.199c-2.928 5.213-5.965 10.362-9.024 15.5-3.433 5.778-6.787 11.601-10.14 17.426l-1.93 3.347L148 259c-3.755 6.52-7.511 13.038-11.277 19.55a2726 2726 0 0 0-7.602 13.243l-3.746 6.52-1.72 3.037c-2.784 4.822-5.301 9.12-9.655 12.65-3.998.571-6.618.161-10-2-1.609-2.233-1.609-2.233-3.18-5.04l-1.793-3.16-1.902-3.425a2005 2005 0 0 0-2.004-3.543 2920 2920 0 0 1-4.116-7.29C88.062 284.327 85.03 279.165 82 274a5438 5438 0 0 1-18.168-31.355 2810 2810 0 0 0-6.957-12.016q-1.56-2.68-3.117-5.362a2708 2708 0 0 0-3.924-6.73c-8.128-14.009-8.128-14.009-7.209-18.787 2.077-4.153 2.077-4.153 4.375-5.75a74 74 0 0 1 8.387-.293l2.476.013c2.608.017 5.216.054 7.825.093q2.652.022 5.306.04 6.503.053 13.006.147l.126-2.2c.516-7.498 1.7-14.572 3.499-21.863l.81-3.296c5.87-23.167 15.57-46.179 29.565-65.641l1.41-1.971C125.502 90.582 131.898 82.623 139 75q2.034-2.34 4.063-4.687c3.71-4.16 7.634-7.778 11.937-11.313l1.542-1.292c35.145-29.402 80.173-49.65 126.567-49.911M182 60l-1.68 1.213c-8.158 5.932-15.64 12.484-22.923 19.453a339 339 0 0 1-3.604 3.38c-30.554 29.123-49.43 72.933-53.542 114.472l-.282 2.357-.205 2.055c-1.21 3.278-3.061 4.904-5.764 7.07-3.138.66-3.138.66-6.613.707l-3.78.088-3.92.018-3.978.076q-4.855.088-9.709.111c5.735 11.037 11.9 21.778 18.195 32.504 4.566 7.78 9.066 15.597 13.567 23.415A3736 3736 0 0 0 110 288c2.656-2.4 4.28-4.964 6.047-8.066l1.788-3.12 1.915-3.377 2.003-3.502q2.085-3.644 4.165-7.292c2.613-4.578 5.251-9.14 7.89-13.704 3.07-5.31 6.13-10.624 9.192-15.939l1.822-3.162q2.561-4.449 5.115-8.9l1.56-2.707 1.405-2.454 1.234-2.148c.942-1.469.942-1.469.864-2.629l-2.307-.012c-3.461-.033-6.92-.104-10.38-.175l-3.631-.018c-8.806-.22-8.806-.22-13.006-2.975-5.118-8.612.547-24.019 2.824-33.234 7.535-28.88 22.717-54.336 43.5-75.586l2.156-2.344c30.778-32.672 74.577-46.382 118.164-48.844C330.657 46.94 368.76 59.603 399 83l2.813 2.137c35.109 27.607 57.59 68.68 63.172 112.868 2.576 23.006 1.386 46.526-5.359 68.757-1.712 5.754-2.808 11.284-.501 17.05 2.425 2.83 4.349 3.967 7.875 5.188 4.27 0 6.272-.386 9.555-3.152 15.649-18.224 14.613-58.899 12.98-81.15-3.92-46.399-23.09-87.745-55.17-121.27a457 457 0 0 1-3.63-3.854C397.18 44.591 347.906 25.581 300 24c-42.1-.76-83.846 11.039-118 36"/><path d="M267.273 329.633c2.332 2.024 4.405 4.086 6.477 6.367 2.35 2.466 3.993 3.444 7.334 4.088l2.414.474q6.189 1.083 12.4 2.024l5.641.883c2.917.454 5.835.906 8.754 1.348 29.422 4.477 29.422 4.477 36.262 13.156 5.683 7.926 7.556 15.683 6.086 25.402-1.735 7.503-5.866 12.642-11.641 17.625-14.073 8.63-34.665 5.997-50.625 6.25l-2.677.044c-29.279.42-52.859-2.395-78.307-18.21-3.327-2.113-3.327-2.113-6.727-3.749-2.938-1.472-4.166-2.421-5.664-5.335-.563-3.778-.295-5.49 1.625-8.812 3.007-2.77 4.292-3.035 8.375-3.188 3.25.938 6.237 2.356 9.313 3.75l2.663 1.167c4.884 2.15 9.643 4.379 14.31 6.971 18.163 9.656 34.859 9.567 54.92 9.042a606 606 0 0 1 10.042-.114c4.026-.025 8.051-.079 12.076-.136l2.286-.027c2.136-.03 4.27-.08 6.404-.138l3.661-.08c3.703-.484 6.148-1.494 9.325-3.435 2.418-3.432 3.011-5.356 2.938-9.562-1.066-3.909-2.064-5.596-4.938-8.438-2.729-.917-5.064-1.48-7.875-1.937l-2.506-.461c-6.387-1.14-12.804-2.097-19.217-3.079l-2.562-.395c-4.298-.662-8.597-1.31-12.9-1.934l-4.842-.73-2.249-.311c-5.903-.909-9.844-2.771-13.786-7.216C251.81 338.423 234.813 329.513 218 325l-2.516-.68c-21.429-4.798-43.925-.143-62.804 10.563-7.981 5.147-17.196 11.405-22.875 19.086-2.85 3.447-6.175 4.736-10.371 6.023l-2.17.714q-2.256.737-4.52 1.446a512 512 0 0 0-6.906 2.23q-2.202.714-4.404 1.423l-2.078.672C96.032 367.513 93.527 368 90 368l.638 2.317c3.61 13.313 6.84 26.72 10.112 40.12l1.824 7.456Q104.79 426.945 107 436c5.462-1.115 10.64-2.453 15.871-4.418l3.74-1.361a535 535 0 0 0 5.739-2.134c1.875-.708 3.76-1.388 5.646-2.067l3.35-1.247c7.99-1.69 16.177.628 23.981 2.528l2.966.705q4.802 1.146 9.602 2.307l6.714 1.602q8.805 2.103 17.606 4.22c7.139 1.716 14.28 3.422 21.42 5.129a16533 16533 0 0 1 16.656 3.99l3.09.74q2.85.683 5.698 1.37c6.668 1.598 12.91 2.854 19.796 2.949l2.008.087c14.227.172 27.868-6.504 40.68-11.962q2.677-1.128 5.356-2.252 5.649-2.37 11.291-4.752c8.652-3.644 17.33-7.22 26.01-10.798q4.38-1.807 8.76-3.617 18.25-7.534 36.52-15.019a17926 17926 0 0 0 47.019-19.344 5199 5199 0 0 0 16.124-6.678c2.226-.924 4.455-1.837 6.685-2.75q1.903-.789 3.805-1.58l3.235-1.33c4.383-2.195 6.454-4.962 8.632-9.318.514-5.083.807-10.262-1.5-14.937-3.022-3.702-5.86-5.842-10.5-7.063-7.956-.724-14.955 1.773-22.488 4.094q-2.139.646-4.278 1.287a2766 2766 0 0 0-11.268 3.424c-3.72 1.135-7.444 2.258-11.167 3.382l-17.454 5.278-2.122.642q-6.097 1.849-12.18 3.74c-3.047.945-6.098 1.876-9.148 2.81-1.08.34-2.158.681-3.27 1.033-6.106 1.854-11.237 2.804-17.625 2.31-2.562-1.5-2.562-1.5-4-4-.542-2.782-.73-5.25 0-8 3.554-4.916 8.888-5.833 14.438-7.434l3.19-.953c3.453-1.03 6.913-2.04 10.372-3.05q3.578-1.06 7.154-2.124a5186 5186 0 0 1 14.642-4.322 6294 6294 0 0 0 20.364-6.023c7.56-2.245 15.122-4.487 22.688-6.715l2.344-.692c10.802-3.176 21.186-4.46 31.808.313 7.932 4.674 14.142 11.291 17.305 19.996 2.566 11.086 1.184 21.418-4.59 31.176-7.195 10.662-19.473 14.468-30.902 19.015q-2.579 1.04-5.155 2.083-4.078 1.651-8.16 3.295c-9.554 3.85-19.072 7.787-28.588 11.73q-7.313 3.028-14.629 6.049l-2.894 1.196c-10.07 4.158-20.151 8.291-30.234 12.421a9315 9315 0 0 0-29.102 11.976l-3.087 1.277q-7.418 3.067-14.835 6.141c-9.005 3.73-18.02 7.436-27.059 11.082l-2.46 1.001c-18.443 7.403-36.224 7.163-55.372 2.617l-4.027-.933c-10.865-2.522-21.705-5.158-32.547-7.778l-9.965-2.406-2.503-.605q-6.377-1.54-12.75-3.103-6.313-1.547-12.633-3.058-2.37-.57-4.734-1.158c-11.227-2.785-19.323-3.575-30.45.271l-1.965.668a961 961 0 0 0-6.101 2.11q-3.087 1.064-6.177 2.12-2.776.952-5.548 1.915C113 454 113 454 111 454c.182.696.364 1.391.55 2.108.825 3.17 1.637 6.344 2.45 9.517l.867 3.316.82 3.223.762 2.952c.87 4.555 1.342 7.526-1.054 11.637-2.895 2.716-4.862 3.316-8.72 4.2l-4.048.97-2.236.516c-3.504.822-6.987 1.727-10.473 2.623-3.904.998-7.815 1.97-11.726 2.94q-3.02.752-6.036 1.518c-2.951.75-5.907 1.483-8.863 2.214-.886.228-1.771.457-2.684.691C54.811 503.837 48.97 504.823 43 504c-3.14-2.541-3.841-4.048-4.5-8 .652-3.91 1.64-5.231 4.5-8 3.118-1.33 6.331-2.066 9.629-2.824l2.863-.704c3.02-.738 6.045-1.449 9.07-2.16q3.015-.732 6.026-1.47C79.69 478.632 88.767 476.598 98 475l-.892-3.52c-7.682-30.36-15.11-60.778-22.42-91.23l-.655-2.728Q70.01 360.762 66 344l-3.282.779-17.502 4.15Q36.61 350.968 28 353l-2.07.49q-2.708.638-5.418 1.272l-2.974.698c-3.477.74-6.01 1.128-9.538.54-2.937-2.062-2.937-2.062-5-5-.562-3.562-.562-3.562 0-7 3.12-4.16 6.919-5.178 11.766-6.383l2.37-.622c2.618-.681 5.24-1.34 7.864-1.995l2.807-.713c5.95-1.511 11.908-2.98 17.875-4.419a1276 1276 0 0 0 6.2-1.518c3.032-.75 6.067-1.486 9.102-2.217l2.784-.697c4.708-1.115 8.469-1.864 13.232-.436 4.649 4.047 5.454 9.544 6.75 15.313l.668 2.822A691 691 0 0 1 86 350c10.263 0 25.684-3.985 33.668-10.629q2.552-2.712 4.934-5.574C136.805 319.566 157.21 311.189 175 307l2.996-.742c31.364-6.495 64.754 3.5 89.277 23.375M307.5 129.688c4.406 4.075 7.224 8.387 9.883 13.75l.91 1.825q.944 1.9 1.88 3.802c.95 1.932 1.91 3.86 2.87 5.787 4.856 9.783 4.856 9.783 5.738 12.956 1.073 2.505 1.073 2.505 4.133 3.187l3.711.517 2.005.3c2.12.314 4.244.595 6.37.875q2.1.299 4.2.604 3.068.447 6.14.882c17.779 2.526 17.779 2.526 23.973 9.39 2.323 3.355 2.899 6.124 3.062 10.125l.148 2.449c-1.615 8.836-9.33 15.062-15.46 21.05l-2.67 2.655c-7.113 7.027-7.113 7.027-11.08 9.678-2.48 2.164-2.48 2.164-2.536 4.485.205 2.558.641 4.981 1.16 7.495q.488 2.82.973 5.64L354 253a653 653 0 0 1 1.875 11.25l.472 2.557c.957 5.957.44 10.767-2.347 16.193-3.17 3.645-7.3 6.361-12.016 7.477-9.053.601-16.335-4.253-23.984-8.477a1185 1185 0 0 0-7.655-4.188 321 321 0 0 1-4.962-2.749l-2.301-1.254-2.024-1.132c-3.555-1.17-6.181-.09-9.47 1.459l-2.502 1.41-2.809 1.563-2.902 1.641C260.481 291.634 260.481 291.634 252 290c-4.72-1.374-8.06-3.536-11-7.5-4.944-9.4-1.367-21.575.5-31.437q.708-3.825 1.406-7.653l.635-3.37c.99-5.245.99-5.245-.883-9.965l-1.877-1.817-2.078-2.043-2.203-2.09-2.11-2.066a255 255 0 0 0-12.603-11.441c-4.664-4.223-7.937-8.276-8.85-14.618-.258-6.482 1.265-10.925 5.5-15.812 7.993-5.867 20.632-6.06 30.125-7.313q3.722-.5 7.442-1.008l3.276-.434c2.805-.37 2.805-.37 5.72-1.433a110 110 0 0 0 4.02-7.797l2.35-4.844a2287 2287 0 0 0 3.652-7.656c1.174-2.464 2.366-4.92 3.56-7.375l1.07-2.298c2.416-4.945 4.824-7.857 9.348-11.03 6.034-2.011 12.765-2.078 18.5.688M297 145l-1.573 3.241c-1.935 3.98-3.887 7.951-5.843 11.92q-1.265 2.575-2.516 5.156c-1.203 2.478-2.421 4.948-3.642 7.417l-1.115 2.324c-2.622 5.247-5.237 8.372-10.573 11.098-3.799 1.171-7.613 1.762-11.539 2.352l-2.534.395c-2.659.413-5.318.817-7.978 1.222l-5.423.84Q237.634 191.99 231 193c1.495 3.488 3.495 5.74 6.176 8.406l2.51 2.504 2.626 2.59 2.592 2.59c4.703 4.687 4.703 4.687 9.737 9.006 3.19 2.575 5.138 5.018 6.359 8.904.856 9.926-.648 19.465-2.5 29.188q-.706 3.833-1.406 7.667l-.635 3.364c-.54 2.805-.54 2.805-.459 5.781 4.191-1.3 7.964-2.89 11.844-4.934l3.277-1.716 3.379-1.788 6.656-3.496 2.963-1.564L287 258l3.076-1.658c5.37-2.465 10.258-2.306 15.799-.302 3.083 1.429 6.071 2.972 9.063 4.585l3.052 1.582a399 399 0 0 1 12.143 6.565l2.996 1.689 2.694 1.548L338 273l2-1-.55-3.086c-.679-3.808-1.347-7.618-2.013-11.428q-.434-2.464-.874-4.929-.633-3.559-1.25-7.12l-.398-2.194c-1.412-8.231-1.897-15.167 3.085-22.243 3.096-3.562 6.422-6.845 9.813-10.125l2.658-2.629c3.784-3.72 7.582-7.348 11.666-10.738L365 195v-2c-1.725-.25-1.725-.25-3.485-.503-4.284-.622-8.566-1.257-12.848-1.896q-2.774-.41-5.552-.811c-2.667-.385-5.333-.784-7.998-1.185l-2.491-.35c-6.726-1.034-12.052-2.751-16.38-8.359-2.625-3.994-4.664-8.289-6.746-12.583l-1.395-2.819c-3.168-6.439-6.17-12.946-9.105-19.494z"/><path d="M54 368c3.641 2.2 4.856 3.616 6.363 7.645q.504 2.077.95 4.168l.51 2.08c1.023 4.417 1.52 8.55 1.177 13.107-2.125 2.938-2.125 2.938-5 5-3.052.436-5.209.18-8.187-.5-5.649-4.674-7.066-16.631-7.813-23.5.867-2.988 1.595-4.58 3.75-6.812 3.029-1.6 4.864-1.672 8.25-1.188"/></svg>