<svg xmlns="http://www.w3.org/2000/svg" width="512" height="512"><path d="M153.956-.51c3.025.755 4.657 1.927 6.817 4.162l2.496 2.492c.9.943 1.802 1.885 2.731 2.856a681 681 0 0 0 3.224 3.18c3.495 3.433 6.95 6.906 10.401 10.383l3.621 3.634A7347 7347 0 0 1 192 35c8.123-2.008 15.917-4.7 23.74-7.643 29.632-11.134 56.79-18.24 87.073-4.732a493 493 0 0 1 6.817 3.238 408 408 0 0 0 7.362 3.422A352 352 0 0 1 344.625 43.5l2.92 1.665a3303 3303 0 0 1 11.01 6.308C370.066 58.055 381.02 62.238 394 65l.125-3.687c.12-3.535.956-4.399 3.47-7.052 3.501-2.696 6.348-2.84 10.772-2.75l2.06.022c2.15.028 4.298.09 6.448.155q2.199.037 4.398.068c3.577.055 7.152.14 10.727.244l-.04-2.3-.03-3.012-.04-2.989c.14-3.436.75-5.182 3.11-7.699 4.246-2.493 7.356-3.377 12.261-3.388l3.692-.029 3.95.019q2.046-.003 4.093-.01 4.281-.005 8.561.017c3.643.017 7.285.007 10.928-.01 2.816-.012 5.633-.008 8.45 0 1.99.003 3.982-.007 5.973-.016 11.593.09 11.593.09 17.092 3.417 2.253 3.38 2.256 4.531 2.274 8.49l.03 3.458.002 3.798.026 3.996c.022 3.62.03 7.24.035 10.86q.006 3.392.017 6.785.037 11.835.042 23.67c.003 7.355.033 14.709.075 22.063q.051 9.471.05 18.943c.002 3.771.01 7.542.039 11.313q.038 5.321.012 10.643c-.003 1.92.02 3.841.042 5.761-.07 8.256-.07 8.256-2.597 12.501-4.242 2.393-7.598 2.353-12.392 2.22l-2.83-.017q-3.037-.022-6.073-.076a678 678 0 0 0-9.623-.079c-9.12-.027-18.238-.109-27.357-.236-5.583-.075-11.163-.102-16.746-.1a354 354 0 0 1-6.369-.083c-11.438-.695-11.438-.695-21.697 3.286-2.034 2.521-3.508 4.92-4.96 7.804-12.297 14.166-29.107 24.816-48 27l-3.619-.04c-7.174-.079-12.424.197-18.117 5.026a183 183 0 0 0-5.3 5.475q-1.485 1.51-2.979 3.01a454 454 0 0 0-6.292 6.494c-3.287 3.459-6.629 6.861-9.979 10.26a2384 2384 0 0 0-15.786 16.22 4668 4668 0 0 1-28.29 29.06 1188 1188 0 0 0-9.893 10.208 898 898 0 0 1-6.167 6.34c-1.402 1.44-2.783 2.9-4.163 4.36-4.5 4.557-7.767 7.59-14.314 7.994-6.332-1.226-10.62-6.633-14.985-11.003l-2.386-2.367q-3.959-3.932-7.907-7.876-2.834-2.82-5.672-5.637a12983 12983 0 0 1-17-16.935q-4.001-3.991-8.005-7.981a35875 35875 0 0 1-26.606-26.541l-1.718-1.716-1.721-1.72-5.185-5.178c-9.26-9.247-18.535-18.48-27.816-27.705q-14.298-14.211-28.555-28.463a5947 5947 0 0 0-16.034-15.973q-6.841-6.783-13.64-13.607-3.467-3.482-6.963-6.936a993 993 0 0 1-7.532-7.538l-2.245-2.187c-3.136-3.207-5.48-5.741-6.28-10.246.25-6.372 3.44-9.339 7.77-13.727l1.397-1.424q2.308-2.344 4.629-4.68l3.322-3.371a4781 4781 0 0 1 10.91-11.022l3.765-3.797q7.829-7.897 15.676-15.779a5874 5874 0 0 0 22.407-22.62 3543 3543 0 0 1 15.784-15.912c3.15-3.156 6.29-6.321 9.411-9.506a891 891 0 0 1 8.872-8.922 281 281 0 0 0 3.234-3.284c9.75-10.053 9.75-10.053 17.928-9.265m-6.019 28.346-2.507 2.539-2.715 2.734-2.84 2.891q-1.43 1.447-2.863 2.89A2703 2703 0 0 0 130 46c3.395 5.093 9.236 5.707 15 7 9.354 1.202 18.567-.783 27-5-1.482-3.436-3.43-5.687-6.062-8.328l-2.415-2.422-2.523-2.5-2.523-2.547-2.414-2.406-2.215-2.208c-2.685-2.309-3.276-2.098-5.911.247m85 15.602q-3.017 1.156-6.035 2.308l-2.938 1.129c-4.636 1.76-9.298 3.447-13.964 5.125 9.026 19.08 29.468 36.432 48.9 43.6 14.119 5.026 28.625 8.844 43.118 12.613a275 275 0 0 1 12.064 3.455l3.34 1.02c3.182 1.62 4.127 3.086 5.578 6.312.51 4.082.41 6.246-1.562 9.875-3.089 2.692-5.44 3.27-9.438 3.125-4.383-.956-8.597-2.365-12.852-3.777q-1.918-.62-3.838-1.233-4.069-1.306-8.13-2.632a1480 1480 0 0 0-12.433-3.98l-2.077-.656q-2.083-.66-4.168-1.317a18933 18933 0 0 1-12.552-3.966 3551 3551 0 0 1-10.671-3.388 2391 2391 0 0 0-10.604-3.358q-1.986-.628-3.969-1.264a741 741 0 0 0-5.497-1.736l-3.133-.994c-6.102-1.386-10.738-.989-16.146 1.957-4.174 2.907-7.321 6.518-8.93 11.344-.633 7.077-.082 11.98 4.336 17.742 7.918 9 21.397 11.633 32.454 15.264q3.624 1.192 7.241 2.4c6.85 2.28 13.701 4.555 20.56 6.81q6.327 2.084 12.646 4.2a798 798 0 0 0 4.79 1.578c2.235.729 4.462 1.474 6.69 2.223l1.974.63c6.275 2.148 10.482 5.857 14.559 11.028 10.335 11.982 25.246 17.028 40.645 18.379 14.478.588 26.597-5.27 37.293-14.629 9.424-8.206 9.424-8.206 14.053-19.06q.007-2.171-.014-4.341v-2.396c0-2.613-.016-5.226-.032-7.84l-.008-5.435c-.008-4.77-.028-9.538-.05-14.308-.02-4.866-.03-9.732-.04-14.599-.02-9.548-.055-19.097-.097-28.646l-1.722-.33c-2.61-.502-5.22-1.012-7.829-1.522l-2.708-.517c-15.298-3.007-27.838-10.32-41.268-17.97-35.484-21.245-35.484-21.245-75.035-30.036l-2.002-.044c-10.646.108-20.7 4.053-30.498 7.857M453 54v106h39V54zM110.732 64.928l-2.619 2.666-1.4 1.412a873 873 0 0 0-4.4 4.494l-2.995 3.035Q95.648 80.256 92 84l1.68 3.438L95.875 92l1.105 2.254c7.039 14.716 7.86 31.687 2.91 47.23-2.272 6.09-4.97 11.675-7.89 17.516l100 100c4.092-1.364 6.954-2.423 10.563-4.437 14.029-7.046 31.18-7.613 46.261-3.704 5.004 1.797 9.565 4.286 14.18 6.91 2.795 1.533 2.795 1.533 4.9.58 2.555-1.644 4.508-3.537 6.643-5.7l2.558-2.579 2.645-2.695 2.691-2.719q3.286-3.321 6.559-6.656c-1.631-4.152-3.552-7.998-5.684-11.914-3.875-9.086-4.726-17.466-4.503-27.273L279 187l-33-11-6 14c-2.286 3.283-4.357 6.082-7 9l-1.578 1.855C224.52 208.443 214.899 213.53 205 216l-2.195.55c-17.073 2.735-33.667-.383-47.805-10.55-11.73-9.887-19.024-22.659-21-38-1.34-17.347 3.091-32.084 13.813-45.812 7.151-7.797 17.55-13.884 27.812-16.313 5.347-1.626 7.24-5.607 10.215-10.078C191.327 88.693 199.572 85.349 208 83c-3.977-4.886-8.249-9.472-12.625-14-.562-.6-1.125-1.2-1.704-1.82-1.803-1.897-1.803-1.897-4.671-4.18-3.627.471-6.63 2.249-9.875 3.875C162.572 74.569 145.096 75.09 128 69a123 123 0 0 1-9.645-4.828c-3.422-1.703-4.68-1.746-7.623.756M415 73v87h17V73zM73.959 101.928l-2.65 2.666-1.409 1.412q-2.234 2.245-4.462 4.494l-3.022 3.035A5523 5523 0 0 0 55 121c4.384 5.252 9.008 10.132 13.875 14.938l2.086 2.072Q73.477 140.509 76 143c6.204-7.902 7.59-17.075 6.75-26.934-.934-6.012-2.759-10.781-5.75-16.066-1.347-.114-1.347-.114-3.041 1.928m90.1 33.935c-7.412 7.989-10.43 16.652-10.27 27.457.8 10.152 5.58 18.446 12.836 25.43 8.39 6.805 17.117 9.073 27.824 8.668 10.733-1.263 19.472-7.207 26.23-15.48C223.2 178.24 226 173.57 226 169l-2.152-.731a1673 1673 0 0 1-9.785-3.394l-3.385-1.148c-6.956-2.448-12.798-5.275-18.678-9.727l-2.84-2.059c-6.928-6.226-10.45-15.236-13.16-23.941-4.568 0-8.807 4.855-11.941 7.863M299 204c.433 6.82 1.908 11.916 5 18q1.663-1.368 3.313-2.75c.614-.51 1.23-1.02 1.863-1.547 1.883-1.758 3.34-3.602 4.824-5.703a3882 3882 0 0 0-6.937-4l-1.999-1.156c-2.862-1.97-2.862-1.97-6.064-2.844m-90 70c1.487 3.466 3.457 5.69 6.133 8.328l2.441 2.422 2.551 2.5 2.574 2.547A2086 2086 0 0 0 229 296c3.436-1.482 5.687-3.43 8.328-6.062l2.422-2.415 2.5-2.523c1.26-1.25 1.26-1.25 2.547-2.523l2.406-2.414 2.208-2.215c1.806-1.695 1.806-1.695 1.589-3.848a560 560 0 0 0-4.187-1.937l-2.356-1.09C232.982 266.43 219.703 268.43 209 274"/><path d="m219 328 1.852 1.527c2.6 2.175 4.979 4.275 7.186 6.863 3.783 3.333 7.342 4.48 12.099 5.958l2.728.889a922 922 0 0 0 5.806 1.866c4.068 1.294 8.126 2.624 12.184 3.951q3.088 1.01 6.178 2.015c8.699 2.83 17.37 5.732 26.005 8.746q2.12.738 4.244 1.46C312.478 366.45 325.367 373.225 333 388l1 3c4.82-.606 9.37-1.541 14.05-2.842l2.017-.557q3.269-.906 6.535-1.82l4.575-1.266q6-1.662 11.998-3.333 9.61-2.674 19.223-5.335 3.347-.929 6.695-1.863l4.116-1.142 3.617-1.007c12.124-3.19 24.728-3.353 36.174 2.165 8.967 5.274 15.45 13.24 19 23 3.085 12.604 1.932 22.732-4.18 34.145-7.683 12.052-20.096 18.749-33.28 23.246l-3.282 1.158c-3.54 1.246-7.086 2.473-10.633 3.701q-3.759 1.32-7.516 2.642-6.776 2.386-13.556 4.757c-11.078 3.875-22.124 7.834-33.168 11.804q-4.886 1.756-9.773 3.507-16.818 6.03-33.624 12.09l-3.468 1.251q-8.193 2.954-16.385 5.914c-30.502 11.014-57.442 15.907-87.928 1.759A944 944 0 0 1 197 499c-1.072-.52-2.145-1.038-3.25-1.573-13.61-6.608-27.017-13.494-40.116-21.076-11.18-6.646-11.18-6.646-23.321-11.101l-2.75-.691A93 93 0 0 0 118 463l-.187 3.188c-.983 4.61-2.138 5.924-5.813 8.812-3.505.568-3.505.568-7.488.488l-2.131-.021a416 416 0 0 1-6.693-.154 1491 1491 0 0 0-4.557-.069c-3.711-.055-7.42-.141-11.131-.244l.083 2.495.065 3.275.084 3.245C79.88 488.53 78.339 490.058 75 493c-2.787 1.394-5.088 1.143-8.206 1.161l-3.955.03-4.296.012-4.395.017q-4.611.015-9.222.02c-3.935.006-7.869.03-11.803.058-3.027.019-6.055.024-9.082.026q-2.175.004-4.35.024a570 570 0 0 1-6.097.008l-3.5.011C6.618 493.955 4.78 493.093 2 491c-2.248-3.373-2.254-4.504-2.267-8.452l-.026-3.433.002-3.769-.02-3.967c-.018-3.593-.022-7.186-.024-10.779-.001-3-.009-5.999-.016-8.998q-.023-10.617-.02-21.232c.002-7.3-.02-14.6-.051-21.9q-.038-9.4-.036-18.802c0-3.743-.005-7.486-.026-11.23-.023-4.175-.014-8.35-.002-12.525l-.034-3.757.026-3.45-.004-2.99C.141 352.231 1.587 350.541 4 348c3.365-1.683 7.168-1.061 10.865-.999l5.716.067 3.073.038c6.497.07 12.994.077 19.49.094 5.708.019 11.414.06 17.12.153 5.521.088 11.04.112 16.56.094q3.15.006 6.295.082c12.083.686 12.083.686 22.516-4.352 2.871-3.139 5.06-6.612 7.365-10.177 28.18-29.642 75.083-31.635 106-5m-91.254 19.898A233 233 0 0 0 125 351l-1.775 1.833c-6.963 8.236-6.127 16.656-5.909 26.862q.02 2.703.03 5.406c.027 4.712.096 9.423.173 14.134.072 4.82.104 9.64.14 14.46.074 9.436.193 18.87.341 28.305l3.923.582 5.163.785 2.578.38c16.484 2.534 30.658 11.447 44.961 19.565C190.627 472.386 206.923 481.116 224 488l2.781 1.152c6.213 2.133 12.586 2.176 19.094 2.286l2.72.068c7.67-.028 14.227-1.97 21.405-4.506l2.557-.894c7.6-2.66 15.178-5.382 22.755-8.106l7.453-2.67q5.79-2.075 11.579-4.152c9.935-3.564 19.876-7.112 29.82-10.654q13.923-4.963 27.839-9.95 9.896-3.542 19.805-7.05c4.089-1.45 8.174-2.911 12.258-4.374q2.827-1.01 5.659-2.005c18.357-6.24 18.357-6.24 31.38-20.028 1.918-4.538 1.64-9.757.172-14.406-2.393-5.175-5.375-8.394-10.645-10.786-10.404-3.656-21.798.95-31.882 3.852q-2.622.738-5.245 1.473a3130 3130 0 0 0-13.707 3.89c-4.66 1.328-9.325 2.639-13.99 3.952a7185 7185 0 0 0-22.543 6.387c-2.775.793-5.527 1.608-8.265 2.521-1 2.258-1 2.258-1.75 5-3.501 10.162-9.916 16.79-19.25 22-17.486 8.342-36.183.402-53.125-5.25q-3.802-1.243-7.606-2.48-5.715-1.856-11.423-3.732a994 994 0 0 0-22.889-7.23l-5.326-1.621a905 905 0 0 0-7.344-2.208c-2.201-.65-4.395-1.322-6.588-1.999l-3.661-1.096c-3.52-1.604-4.995-3.128-7.038-6.384-.623-4.988-.062-7.995 3-12 8.076-4.038 18.401.996 26.305 3.602q2.232.72 4.466 1.436c3.912 1.259 7.82 2.533 11.725 3.81 3.913 1.278 7.83 2.54 11.746 3.804q8.946 2.89 17.889 5.793l2.079.675q4.539 1.473 9.078 2.95 4.024 1.308 8.052 2.602l2.194.719c7.061 2.255 12.881 2.96 19.779.046 4.996-2.831 7.895-7.06 9.687-12.437.791-6.365.269-11.01-3.535-16.258-8.244-9.805-21.926-12.708-33.7-16.624q-3.47-1.156-6.938-2.322c-5.732-1.925-11.467-3.84-17.202-5.756q-7.311-2.442-14.618-4.898-3.404-1.14-6.81-2.271l-4.189-1.407-3.672-1.226c-5.333-1.98-9.277-3.51-12.399-8.363-8.404-11.341-22.273-17.875-35.992-19.922-19.167-2.534-34.31 3.923-48.199 16.945M20 368v105h39V368zm60 0v86h17v-86zM353 123c3.206 1.9 5.399 3.335 6.7 6.938.615 3.495.507 5.571-.887 8.875-2.953 3.563-4.482 5.014-9.188 5.625-4.238-.512-6.334-1.774-9.625-4.438-1.736-3.473-1.602-7.212-1-11 4.215-5.324 7.26-6.674 14-6"/><path d="M168 384c2.96 2.582 4.595 4.18 5.445 8 .21 3.692-.337 5.83-2.32 8.938-2.857 2.773-4.548 3.267-8.437 3.437-3.587-.058-4.575-.3-7.688-2.375-2.466-3.698-3.444-6.554-3-11 1.683-3.496 3.018-5.39 6.313-7.437 3.667-.768 6.071-.596 9.687.437"/></svg>