<?xml version="1.0" standalone="no"?>
<!DOCTYPE svg PUBLIC "-//W3C//DTD SVG 20010904//EN"
 "http://www.w3.org/TR/2001/REC-SVG-20010904/DTD/svg10.dtd">
<svg version="1.0" xmlns="http://www.w3.org/2000/svg"
 width="512.000000pt" height="512.000000pt" viewBox="0 0 512.000000 512.000000"
 preserveAspectRatio="xMidYMid meet">

<g transform="translate(0.000000,512.000000) scale(0.100000,-0.100000)"
fill="#000000" stroke="none">
<path d="M1999 4977 c-102 -29 -171 -88 -218 -187 -25 -52 -26 -65 -29 -247
l-4 -192 -522 -3 -521 -3 -68 -33 c-79 -39 -136 -103 -162 -182 -26 -79 -18
-288 14 -350 31 -61 86 -116 146 -148 l50 -27 1875 0 1875 0 45 24 c62 32 117
86 148 146 24 45 27 63 30 177 5 149 -8 201 -68 277 -28 35 -59 59 -107 83
l-68 33 -521 3 -521 3 -5 192 c-4 179 -6 196 -30 247 -36 79 -80 125 -156 162
l-67 33 -535 2 c-403 2 -546 -1 -581 -10z m1051 -467 l0 -160 -490 0 -490 0 0
160 0 160 490 0 490 0 0 -160z"/>
<path d="M1152 3359 c-114 -19 -247 -121 -293 -223 -45 -103 -46 -91 46 -976
113 -1094 153 -1454 166 -1520 6 -30 30 -96 54 -146 68 -141 192 -257 337
-315 118 -47 147 -48 1093 -48 530 -1 917 3 958 9 251 37 468 231 531 476 15
59 58 441 191 1724 58 549 65 643 56 694 -30 171 -160 299 -331 326 -81 12
-2731 12 -2808 -1z m723 -658 c41 -23 71 -72 79 -123 3 -24 33 -334 67 -691
l61 -647 -24 -48 c-34 -69 -78 -95 -153 -90 -72 4 -114 30 -140 84 -12 27 -32
199 -81 707 -36 370 -62 687 -59 705 8 42 65 106 107 120 41 14 104 6 143 -17z
m742 14 c50 -21 72 -42 94 -90 17 -38 19 -81 19 -715 l0 -676 -22 -44 c-31
-59 -65 -82 -131 -88 -70 -6 -120 17 -155 71 l-27 41 -3 673 c-2 458 1 687 8
714 14 52 55 96 105 114 52 18 68 18 112 0z m765 3 c48 -14 105 -75 113 -120
3 -18 -23 -335 -59 -705 -49 -508 -69 -680 -81 -707 -26 -54 -68 -80 -140 -84
-75 -5 -119 21 -153 90 l-24 47 66 686 c44 458 70 694 80 712 19 39 48 63 93
79 48 17 56 17 105 2z"/>
</g>
</svg>
