<svg xmlns="http://www.w3.org/2000/svg" width="512" height="512"><path d="M272 75c4.633 3.99 6.737 8.028 8 14 .187 2.795.286 5.49.278 8.283l.018 2.443c.017 2.687.02 5.374.023 8.06l.03 5.797c.028 5.235.043 10.47.056 15.705.015 5.474.042 10.95.068 16.424.047 10.362.083 20.725.116 31.087.039 11.8.088 23.599.138 35.398q.154 36.4.273 72.803l2.452-2.479q11.46-11.58 22.95-23.13a5384 5384 0 0 0 11.796-11.891q5.688-5.75 11.399-11.476 2.172-2.184 4.334-4.378c2.025-2.054 4.062-4.095 6.102-6.133l1.783-1.827c5.646-5.591 11.543-9.259 19.684-9.249 7.576.246 11.755 2.674 16.875 8.063 2.723 4.189 3.928 7.811 4 12.813l.086 2.675c-1.441 9.415-8.155 15.285-14.61 21.695q-1.565 1.575-3.126 3.151a2165 2165 0 0 1-8.474 8.485q-3.549 3.545-7.089 7.098a7834 7834 0 0 1-16.74 16.737 5694 5694 0 0 0-17.225 17.256 5893 5893 0 0 1-14.82 14.847 2896 2896 0 0 0-8.837 8.854q-4.147 4.172-8.323 8.311a493 493 0 0 0-3.038 3.049c-6.169 6.24-10.848 10.417-19.648 11.963-13.813.026-22.634-11.439-31.76-20.516l-2.563-2.565-2.793-2.783a6517 6517 0 0 1-7.48-7.468l-4.685-4.68q-8.19-8.175-16.373-16.36-7.606-7.605-15.225-15.199-6.567-6.548-13.124-13.106a5288 5288 0 0 0-7.817-7.804 4063 4063 0 0 1-8.695-8.694l-2.6-2.584C140.184 250.407 135.49 244.61 135 234c.755-6.657 3.274-11.054 8.086-15.625 4.21-3.024 8.103-3.708 13.226-3.812l3.239-.122c7.63 1.236 13.17 6.843 18.416 12.185l1.954 1.953c2.106 2.109 4.202 4.228 6.298 6.347q2.201 2.21 4.405 4.418c3.847 3.858 7.684 7.725 11.52 11.594 3.923 3.954 7.855 7.9 11.786 11.845Q225.476 274.38 237 286l.004-3.086q.055-37.17.18-74.339c.04-11.983.072-23.966.087-35.95q.019-15.667.084-31.335c.022-5.53.038-11.06.037-16.59q0-7.81.05-15.621.012-2.865.004-5.728c-.007-2.612.011-5.222.035-7.834l-.023-2.276c.102-6.32 2.162-11.426 6.253-16.264C252.635 69.729 262.183 68.83 272 75"/><path d="M110 343c4.393 5.122 6.114 9.133 6.142 15.917l.021 2.954.013 3.176q.034 3.344.072 6.687c.035 3.507.064 7.013.078 10.52.015 3.39.056 6.778.1 10.168l-.006 3.15c.127 7.626 1.443 13.371 7.017 18.803 5.982 3.793 10.92 3.912 17.843 3.886l3.168.011c3.508.01 7.016.007 10.524.003q3.77.007 7.54.015 9.18.017 18.362.012a12291 12291 0 0 1 21.386.01q20.235.014 40.47.003c12.34-.006 24.68.006 37.02.025q19.008.03 38.016.024c7.114-.002 14.228 0 21.342.014q10.033.019 20.066-.002 3.685-.004 7.37.009c3.35.01 6.7.002 10.05-.01l2.955.022c5.3-.043 8.804-.578 13.451-3.397l3-1c1.156-1.824 1.156-1.824 2-4l.84-1.962c2.274-6.194 2.557-11.799 2.496-18.354q.018-3.252.039-6.502.007-5.07-.015-10.138c-.008-3.287.013-6.573.038-9.86l-.04-3.038c.087-8.34 2.73-12.958 8.267-19.021 5.616-3.536 12.048-4.893 18.625-3.562 5.618 1.818 10.047 4.856 13.125 9.937 2.059 4.434 2.743 8.27 2.786 13.128l.03 2.694.012 2.885.017 3.025q.014 3.173.02 6.347c.01 3.184.04 6.368.072 9.552.077 14.364.133 29.28-6.937 42.244l-1.043 1.994C433.057 435.372 428.945 440.28 424 445l-1.633 1.691c-11.28 10.855-27.626 14.793-42.796 14.69l-3.287.014c-3.6.012-7.199.003-10.798-.007q-3.893.007-7.784.016c-6.295.013-12.59.01-18.884.002q-7.679-.01-15.356-.005l-2.215.002-4.454.003c-13.895.008-27.79-.001-41.686-.018q-17.858-.018-35.716.003a22766 22766 0 0 1-45.986.01l-2.205-.001q-7.663-.003-15.327.009-10.326.014-20.652-.015-3.783-.006-7.567.004a1543 1543 0 0 1-10.352-.017l-3.002.02c-9.794-.081-18.66-2.592-27.363-7.026l-2.064-1.05C91.2 446.086 82.37 434.34 77 420c-2.52-8.635-3.458-16.834-3.434-25.8l-.015-3.52q-.01-3.646.003-7.293c.009-3.708-.02-7.415-.052-11.123q-.003-3.564.002-7.127l-.034-3.33c.064-7.106.918-13.017 5.977-18.326 9.091-7.941 21.174-8.551 30.553-.481"/></svg>