<svg xmlns="http://www.w3.org/2000/svg" width="512" height="512"><path d="M170.867 41.564c3.06.003 6.12-.003 9.179-.009q10.826-.02 21.652-.001c7.415.011 14.83-.003 22.245-.03a4389 4389 0 0 1 19.224-.022c3.81.003 7.62 0 11.429-.017q5.363-.022 10.724.008c1.921.005 3.842-.01 5.762-.024 7.924.067 15.727.748 21.857 6.281 5.411 5.849 6.528 11.406 6.373 19.242-.62 5.976-2.92 9.584-7.062 13.82-8.15 5.486-15.326 5.62-24.911 5.573q-2.057.007-4.113.016-4.409.017-8.818.01c-4.658-.007-9.316.009-13.974.028-9.895.038-19.79.05-29.684.061-10.67.011-21.342.027-32.013.07q-6.93.028-13.859.016c-2.888-.002-5.776.01-8.664.023-1.954.006-3.908-.003-5.862-.012-17.942.123-33.093 6.061-45.797 18.716-15.905 16.73-18.01 35.066-17.943 57.156q-.007 3.402-.016 6.804a4872 4872 0 0 0 .001 18.396c.008 6.433 0 12.865-.004 19.298q-.007 17.236.019 34.473.018 15.596-.003 31.193-.025 18.155-.013 36.31.008 9.595-.005 19.19-.012 9.022.015 18.044.006 3.301-.004 6.603c-.056 20.476 2.61 37.902 17.281 53.23 13.861 13.916 29.83 19.256 49.182 19.391 3.135.006 6.27-.003 9.404-.013q3.402.007 6.804.016c6.132.014 12.264.009 18.396-.001 6.433-.008 12.865 0 19.298.004 11.49.006 22.982-.003 34.473-.019q15.596-.018 31.193.003 18.155.025 36.31.013 9.595-.008 19.19.005 9.022.012 18.044-.015 3.301-.006 6.603.004c20.476.056 37.902-2.61 53.23-17.281 13.21-13.159 19.276-28.892 19.382-47.508l-.023-3.778q.003-2.048.011-4.095.013-4.365 0-8.732c-.012-4.612 0-9.224.017-13.836.036-11.447.042-22.894.04-34.34-.002-8.917.005-17.834.04-26.751q.024-6.864-.001-13.728c-.006-2.853.005-5.706.02-8.56.006-1.935-.009-3.87-.024-5.805.065-7.949.725-15.771 6.278-21.922 5.848-5.412 11.407-6.529 19.242-6.374 5.976.62 9.584 2.92 13.82 7.062 5.445 8.089 5.622 15.196 5.576 24.708q.007 2.025.016 4.05c.014 3.649.009 7.298-.001 10.948-.008 3.842 0 7.685.004 11.528q.007 9.695-.016 19.39c-.016 7.424-.011 14.848.006 22.272q.02 9.614.007 19.227c-.004 3.812-.005 7.623.005 11.435.09 39.848.09 39.848-6.597 56.505l-.91 2.357C458.32 413.65 452.064 423.617 444 433l-1.566 2.004c-16.633 20.634-43.109 31.532-68.743 34.726-8.548.857-17.16.675-25.74.642q-3.368.004-6.737.011c-6.041.01-12.082 0-18.123-.013-6.352-.011-12.703-.007-19.055-.005q-15.983 0-31.967-.029-16.395-.029-32.79-.02-19.845.01-39.689-.01-7.548-.006-15.095-.003a5973 5973 0 0 1-17.787-.022q-3.249-.006-6.498-.002c-14.138.015-27.93-.27-41.585-4.404l-2.132-.642c-27.721-8.795-50.059-28.514-63.49-54.108-10.034-20.118-11.46-40.946-11.391-63.094q-.007-3.357-.016-6.714c-.014-6.02-.009-12.04.001-18.061.008-6.336 0-12.672-.004-19.008-.006-11.314.003-22.627.019-33.941q.018-15.326-.003-30.65a17084 17084 0 0 1-.013-35.764c.004-6.29.005-12.58-.005-18.87q-.012-8.874.015-17.75a1314 1314 0 0 0-.004-6.467c-.046-16.362.404-33.22 6.585-48.618l.91-2.358C53.682 98.35 59.937 88.383 68 79l1.566-2.004c16.386-20.328 42.985-31.75 68.356-34.723 10.933-.969 21.976-.726 32.945-.709"/><path d="m305 130.625 3.563-.023c12.551 1.454 22.29 15.09 30.773 23.566l3.157 3.147q3.277 3.269 6.55 6.542 4.179 4.177 8.371 8.341 3.25 3.235 6.491 6.478 1.542 1.54 3.088 3.075 2.158 2.147 4.305 4.304l2.466 2.462c5.148 5.717 7.684 10.853 8.236 18.483-.841 10.92-7.923 17.227-15.292 24.614l-2.85 2.88q-3.855 3.891-7.723 7.772-2.421 2.43-4.839 4.861a11134 11134 0 0 1-15.176 15.23 5894 5894 0 0 0-17.447 17.55q-6.75 6.813-13.53 13.595a1822 1822 0 0 0-8.059 8.11q-3.78 3.827-7.599 7.618a514 514 0 0 0-4.066 4.12c-5.39 5.318-10.148 8.5-17.419 10.65l-2.01.62c-1.857.54-3.733 1.014-5.608 1.486l-2.093.534q-3.365.853-6.734 1.688l-4.743 1.194q-4.942 1.241-9.889 2.47c-4.21 1.047-8.416 2.109-12.621 3.175q-4.886 1.232-9.775 2.45-2.328.58-4.653 1.172a966 966 0 0 1-6.515 1.622l-3.73.933c-7.03 1.271-13.26 1.08-19.629-2.344-4.516-3.798-9.283-8.91-10-15-.181-5.526.302-10.385 1.665-15.758l.537-2.21c.583-2.389 1.18-4.773 1.778-7.157q.623-2.51 1.242-5.02 1.302-5.247 2.621-10.49c1.121-4.46 2.22-8.927 3.314-13.395q1.277-5.181 2.577-10.357.615-2.466 1.219-4.937c.565-2.31 1.148-4.614 1.735-6.918l.484-2.028c2.604-9.978 9.14-16.478 16.297-23.587q1.435-1.441 2.869-2.885 3.872-3.889 7.76-7.76c2.72-2.71 5.431-5.43 8.144-8.147a8911 8911 0 0 1 13.676-13.66 7149 7149 0 0 0 15.778-15.784q6.78-6.8 13.578-13.585a4233 4233 0 0 0 8.095-8.1q3.799-3.81 7.616-7.602c1.374-1.367 2.74-2.742 4.105-4.116 6.254-6.19 10.784-9.939 19.91-9.879M445.563 53.185C459.117 64.178 468.048 78.402 470 96c1.495 17.343-3.854 32.91-14.722 46.316-3.726 4.39-7.712 8.486-11.778 12.559l-2.434 2.508c-5.472 5.499-10.39 9.822-18.191 11.148L420 168.5l-2.875.031c-7.115-1.21-12.338-5.147-17.294-10.182l-1.698-1.677a908 908 0 0 1-5.461-5.469l-3.838-3.826q-4.009-4-7.998-8.02a2111 2111 0 0 0-10.235-10.22 2372 2372 0 0 1-7.906-7.907 1115 1115 0 0 0-3.775-3.765 812 812 0 0 1-5.269-5.296l-1.561-1.537c-5.107-5.226-8.671-11.16-8.59-18.632l-.031-2.875c1.537-9.04 7.38-14.575 13.683-20.743a424 424 0 0 0 4.344-4.337c22.234-22.19 57.081-31.32 84.067-10.86"/></svg>