<?xml version="1.0" encoding="UTF-8"?>
<svg version="1.1" xmlns="http://www.w3.org/2000/svg" width="512" height="512">
<path d="M0 0 C1.07121094 0.37382812 2.14242188 0.74765625 3.24609375 1.1328125 C24.26950358 9.22079947 40.83287206 25.73116704 50.2734375 45.984375 C59.2134293 66.15020699 60.43436364 90.9757839 52.87304688 111.80175781 C48.14992504 123.69409255 41.66100061 133.61574255 33 143 C33.72316406 143.58007812 33.72316406 143.58007812 34.4609375 144.171875 C35.40839844 144.95304687 35.40839844 144.95304687 36.375 145.75 C37.00148438 146.26046875 37.62796875 146.7709375 38.2734375 147.296875 C41.34739668 150.32910623 42.30939674 153.25229891 42.39013672 157.52172852 C42.20934746 166.42142388 39.78862818 175.03193509 37.7578125 183.65234375 C37.30987622 185.59363118 36.86303125 187.53517069 36.41720581 189.47694397 C35.23803307 194.59988673 34.04468631 199.71942235 32.8480835 204.83831787 C31.67195237 209.87929114 30.5080476 214.92307969 29.34375 219.96679688 C27.95812844 225.96787658 26.57053701 231.96846074 25.17242432 237.96664429 C22.81531595 248.0871937 20.4958918 258.21422504 18.24902344 268.35986328 C17.80181353 270.3684054 17.35445857 272.37691522 16.9069519 274.38539124 C16.2700252 277.24441915 15.63620522 280.10390126 15.01413345 282.96619987 C10.80033518 302.35470391 5.7769879 320.63420288 -11 333 C-17.45210929 337.14131172 -23.51809419 339.25566908 -31 340.4375 C-35.77834343 341.08333886 -35.77834343 341.08333886 -39.6640625 343.59375 C-40.79437602 345.67860699 -40.79437602 345.67860699 -42 349 C-47.28038021 353.89401093 -51.52499819 354.14608238 -58.46916199 354.13130188 C-59.78148575 354.13447545 -59.78148575 354.13447545 -61.12032109 354.13771313 C-64.06354357 354.1437235 -67.00672329 354.14271224 -69.94995117 354.1418457 C-72.05561394 354.14487655 -74.16127606 354.14839779 -76.26693726 354.15237427 C-80.80788941 354.16026996 -85.34883369 354.16541073 -89.88979149 354.16866493 C-97.07110886 354.17456965 -104.25237653 354.19110531 -111.43367004 354.21000671 C-113.8912954 354.21634433 -116.34892079 354.22266995 -118.80654621 354.22898388 C-120.03745664 354.23214969 -121.26836707 354.2353155 -122.53657782 354.23857725 C-139.25883274 354.28066736 -155.98106478 354.31362701 -172.70336914 354.32592773 C-183.9780467 354.33430655 -195.25260152 354.35679169 -206.52721769 354.3952834 C-212.49443866 354.41505184 -218.4614761 354.427446 -224.42873192 354.42244911 C-230.04386335 354.4178045 -235.65864702 354.43159833 -241.27370834 354.45946121 C-243.33279975 354.46637635 -245.39192708 354.46649611 -247.45101738 354.45926094 C-250.26639776 354.45036877 -253.0806323 354.46607257 -255.8959198 354.48774719 C-256.70712459 354.47930466 -257.51832939 354.47086212 -258.35411614 354.46216375 C-263.88164877 354.54062698 -268.47212297 355.69423044 -273 359 C-275.68253996 363.52678619 -276.11631592 366.83848087 -276 372 C-274.98421875 371.95359375 -273.9684375 371.9071875 -272.921875 371.859375 C-264.05312381 371.57485663 -256.0813067 371.85547381 -248 376 C-247.43188599 376.54516266 -246.86377197 377.09032532 -246.27844238 377.65200806 C-237.658546 385.3622202 -227.17552294 383.99600154 -216.3046875 383.89453125 C-214.1857978 383.89671009 -212.06690934 383.90111597 -209.94802856 383.90763855 C-205.52144648 383.91342641 -201.09586006 383.8945747 -196.66943359 383.85766602 C-191.0088168 383.81213253 -185.35012385 383.82480318 -179.68946648 383.85547352 C-175.31918876 383.87330509 -170.94935843 383.86200919 -166.57910538 383.84183311 C-164.49241137 383.83533874 -162.40567187 383.83739903 -160.31899643 383.84833717 C-157.39896366 383.85892189 -154.48175839 383.83064103 -151.56201172 383.79223633 C-150.70881348 383.80281067 -149.85561523 383.81338501 -148.9765625 383.82427979 C-142.33417766 383.672619 -138.94685768 381.22991329 -134 377 C-131.42578125 375.57421875 -131.42578125 375.57421875 -129.3125 374.6875 C-128.60738281 374.38199219 -127.90226562 374.07648438 -127.17578125 373.76171875 C-117.03107744 370.21016176 -104.69250444 370.8294759 -94.74609375 374.67578125 C-82.56578908 380.54935633 -74.48694822 389.25497198 -70 402 C-66.35696245 414.6509463 -68.10216863 426.91648485 -74.31640625 438.44140625 C-80.67923282 448.68781089 -89.48150063 454.32392395 -100.6875 458.3125 C-112.51142506 460.77283188 -124.22723249 459.41126891 -134.71875 453.45703125 C-143.62541814 447.59526321 -150.31106034 440.10647519 -154 430 C-154.33 427.69 -154.66 425.38 -155 423 C-178.1 423.33 -201.2 423.66 -225 424 C-226.32 427.63 -227.64 431.26 -229 435 C-230.9220313 438.2460973 -232.70640972 441.06465089 -235 444 C-235.47824219 444.61617188 -235.95648438 445.23234375 -236.44921875 445.8671875 C-242.29130751 452.48920246 -252.22556611 457.88449058 -261 459 C-275.60499976 459.86795427 -286.46108214 457.39999234 -298.16015625 448.32421875 C-305.04217047 442.13173196 -310.85458512 432.29058738 -312 423 C-312.09357357 420.36342714 -312.13977686 417.760207 -312.125 415.125 C-312.12886719 414.44308594 -312.13273437 413.76117188 -312.13671875 413.05859375 C-312.13026464 409.67018469 -311.93862629 406.6487649 -311.3515625 403.2890625 C-310.95835923 399.6104275 -311.38153844 398.3641026 -313.25 395.25 C-319.92707246 382.84440856 -321.19141195 368.71675017 -317.4375 355.125 C-312.39142005 340.94285952 -303.01601358 331.72327858 -290.83569336 323.49975586 C-286.16138508 320.42655912 -286.16138508 320.42655912 -283 316 C-282.43712675 309.97531841 -283.31241099 304.63334925 -285.05688477 298.89306641 C-285.27691288 298.1339285 -285.49694099 297.37479059 -285.72363663 296.59264851 C-286.45148912 294.09212131 -287.19633981 291.59700928 -287.94140625 289.1015625 C-288.46245895 287.32392343 -288.98242963 285.5459669 -289.50138855 283.76771545 C-290.88816222 279.02698326 -292.28964584 274.29072454 -293.69450378 269.55532455 C-295.14224331 264.66780708 -296.57790119 259.77674407 -298.01464844 254.88598633 C-299.73179236 249.04400512 -301.45060498 243.20253206 -303.17623901 237.36305237 C-306.43116634 226.34802217 -309.65209369 215.32430221 -312.82421875 204.28515625 C-313.82660833 200.81241819 -314.82993353 197.33995224 -315.83370972 193.86761475 C-316.4385705 191.76836003 -317.04014085 189.6681541 -317.63821411 187.56695557 C-318.45186162 184.71218533 -319.27890155 181.86163153 -320.109375 179.01171875 C-320.33231735 178.21564713 -320.5552597 177.4195755 -320.78495789 176.59938049 C-323.67855609 166.79449992 -328.53355702 157.63325617 -337.68359375 152.4921875 C-345.71074544 148.68010732 -352.71789516 147.86982339 -361.4921875 147.859375 C-363.35027271 147.84105081 -365.20834598 147.82148086 -367.06640625 147.80078125 C-369.97172382 147.77183112 -372.87626706 147.74999979 -375.78173828 147.74951172 C-378.6025732 147.74616213 -381.42165859 147.71153678 -384.2421875 147.671875 C-385.10077362 147.6789447 -385.95935974 147.6860144 -386.84396362 147.69329834 C-393.03233083 147.56955073 -397.21313186 145.95870721 -402 142 C-406.35964646 137.36170801 -407.35160587 133.36083903 -407.5625 127 C-407.29647424 120.2774572 -406.21983766 115.43155301 -401.57421875 110.48046875 C-397.15424046 106.51733576 -392.86913253 104.76223415 -386.98876953 104.70947266 C-386.01650421 104.69671295 -385.04423889 104.68395325 -384.04251099 104.67080688 C-382.47846024 104.66746841 -382.47846024 104.66746841 -380.8828125 104.6640625 C-379.79346405 104.6574057 -378.7041156 104.6507489 -377.58175659 104.64389038 C-375.27359704 104.63377076 -372.96540827 104.62907315 -370.65722656 104.62939453 C-367.17201515 104.62505849 -363.68810936 104.5888334 -360.203125 104.55078125 C-348.20045225 104.48921335 -337.33020652 104.75789386 -326 109 C-325.24525391 109.28246582 -324.49050781 109.56493164 -323.71289062 109.85595703 C-315.56217285 113.24225575 -308.50850256 118.10273073 -302 124 C-300.90365234 124.99193359 -300.90365234 124.99193359 -299.78515625 126.00390625 C-295.41181533 130.16550254 -291.66543363 134.5409869 -289 140 C-289 140.66 -289 141.32 -289 142 C-223.99 141.67 -158.98 141.34 -92 141 C-94.31 138.36 -96.62 135.72 -99 133 C-112.796542 112.09036196 -118.22376821 89.0224475 -113.875 64.25 C-108.4629266 40.92296143 -95.19639913 21.02041361 -74.85302734 8.11816406 C-52.4719018 -5.38717915 -24.81484593 -8.71795965 0 0 Z M-82 34 C-95.32359855 49.15353724 -101.46288083 67.8151857 -100.20263672 87.85351562 C-98.43435587 106.5845099 -89.14415242 124.00004326 -75.22265625 136.4921875 C-59.38198961 149.12219554 -41.18264172 154.4558625 -21 153 C-3.07109316 150.56030698 14.43880864 142.2675072 26 128 C39.13276447 109.84523085 44.6931676 91.16422918 41.6953125 68.71875 C38.2564022 50.19074349 27.04317531 33.8543654 11.9609375 22.765625 C-18.50790478 3.04613097 -57.30282433 7.56408638 -82 34 Z M-392 123 C-393.0494817 125.92355616 -393.33391086 127.28751504 -392.00341797 130.12646484 C-389.0181005 132.91824236 -385.95088392 132.56506202 -382.0703125 132.5390625 C-381.28413544 132.55085541 -380.49795837 132.56264832 -379.68795776 132.57479858 C-377.16677354 132.61010283 -374.64641094 132.61921695 -372.125 132.625 C-352.21439102 132.75716726 -334.17040094 133.13079668 -318.89453125 147.83984375 C-309.99993486 157.98151757 -306.48943145 171.19335182 -302.8671875 183.890625 C-302.47385288 185.25493027 -302.08004084 186.61909796 -301.68579102 187.98313904 C-300.62894337 191.64420055 -299.57823975 195.30699818 -298.52877045 198.97018051 C-297.42905537 202.80509211 -296.3240357 206.6384739 -295.21923828 210.47192383 C-293.85273226 215.2141122 -292.48650874 219.95637959 -291.12252808 224.69929504 C-288.23297738 234.74389836 -285.32112502 244.78174621 -282.38799667 254.81370926 C-281.75609908 256.97523072 -281.12478695 259.13692227 -280.49368286 261.29867554 C-280.08319181 262.70465114 -279.67269987 264.11062648 -279.26220703 265.51660156 C-278.96257648 266.54289515 -278.96257648 266.54289515 -278.65689278 267.58992195 C-277.67409167 270.95518229 -276.68984529 274.32000764 -275.70257568 277.68395996 C-274.60710155 281.41690062 -273.51821653 285.15174671 -272.4296875 288.88671875 C-272.1097583 289.97230576 -271.7898291 291.05789276 -271.46020508 292.17637634 C-265.17396873 313.81607004 -265.17396873 313.81607004 -268.8359375 323.125 C-272.69137624 330.12494551 -279.36296243 334.53539567 -285.84765625 338.9296875 C-294.22770928 344.67008146 -300.70914696 351.45768472 -303.56640625 361.44921875 C-305.02691571 370.04122488 -304.78599334 378.11251388 -301 386 C-300.54109375 385.59007812 -300.0821875 385.18015625 -299.609375 384.7578125 C-298.68898438 383.94957031 -298.68898438 383.94957031 -297.75 383.125 C-297.14671875 382.59132813 -296.5434375 382.05765625 -295.921875 381.5078125 C-294.02581254 380.0202513 -292.18709995 378.99677564 -290 378 C-290.09539062 377.16597656 -290.19078125 376.33195312 -290.2890625 375.47265625 C-291.3067307 365.1421407 -291.0019077 357.62903808 -284.8359375 349.01171875 C-279.8544624 343.55329391 -272.26871155 340.48069888 -264.96061361 339.81393349 C-262.66673647 339.74192638 -260.38036163 339.73039309 -258.08537292 339.74171448 C-257.21100643 339.73803877 -256.33663993 339.73436307 -255.43577749 339.73057598 C-252.51856696 339.72062994 -249.60154831 339.72473993 -246.68432617 339.72875977 C-244.58804116 339.72437099 -242.49175789 339.71906828 -240.39547729 339.71292114 C-235.88840354 339.70143564 -231.38137671 339.69596282 -226.87428856 339.69503975 C-219.75308836 339.69309853 -212.63198536 339.67504468 -205.51081848 339.65428162 C-187.82991196 339.60511003 -170.14897919 339.57416169 -152.46801758 339.55297852 C-138.71446651 339.53647931 -124.96099904 339.51374872 -111.20750409 339.46995777 C-104.12213758 339.44811824 -97.03692965 339.44012929 -89.95153177 339.44235051 C-85.55486355 339.44068992 -81.15829999 339.42668041 -76.76166916 339.40913773 C-74.71617578 339.40351441 -72.67066093 339.40307469 -70.62516594 339.40807533 C-67.8431048 339.41416617 -65.06171159 339.40207771 -62.27970886 339.38526917 C-61.4615374 339.39148098 -60.64336593 339.3976928 -59.80040139 339.40409285 C-57.33001065 339.41232045 -57.33001065 339.41232045 -54 339 C-51.61201318 336.09414313 -51.61201318 336.09414313 -52.3125 332.375 C-52.64113123 329.17495688 -52.64113123 329.17495688 -54 328 C-56.21995771 327.89946944 -58.44317356 327.87089718 -60.66540527 327.86869812 C-61.72296894 327.86552455 -61.72296894 327.86552455 -62.80189753 327.86228687 C-65.18240009 327.85625919 -67.56285006 327.857289 -69.94335938 327.8581543 C-71.64316905 327.85512448 -73.34297792 327.85160353 -75.04278564 327.84762573 C-78.71343578 327.83972025 -82.38407613 327.83458552 -86.05473328 327.83133507 C-91.86256904 327.82543487 -97.67034318 327.80890213 -103.47814941 327.78999329 C-105.4653854 327.78365524 -107.45262142 327.77732962 -109.43985748 327.77101612 C-110.43535771 327.76785031 -111.43085794 327.7646845 -112.45652485 327.76142275 C-125.98272419 327.71933663 -139.50889585 327.68639145 -153.03515625 327.67407227 C-162.15089314 327.66568455 -171.26647856 327.64316327 -180.38213968 327.6047166 C-185.20645564 327.58497176 -190.03054523 327.57254596 -194.85490417 327.57755089 C-199.39893193 327.58220705 -203.94253158 327.56833908 -208.48647308 327.54053879 C-210.15006353 327.53364198 -211.81369837 327.53348414 -213.47728729 327.54073906 C-223.98003868 327.58189727 -232.99067132 327.08430025 -241.25 319.8125 C-241.85328125 319.30332031 -242.4565625 318.79414063 -243.078125 318.26953125 C-249.154109 311.09443632 -251.84244576 302.31105749 -254.6875 293.5 C-255.14297696 292.11192431 -255.5988864 290.72399048 -256.05517578 289.33618164 C-266.25033536 258.18267594 -275.97654012 226.86476793 -285.68847656 195.55786133 C-287.26687259 190.47401441 -288.85840544 185.39440049 -290.45629883 180.31665039 C-291.11282969 178.22290666 -291.76514554 176.12783677 -292.41333008 174.03149414 C-298.81010105 153.36215902 -304.94766451 137.78586593 -324.51171875 126.55859375 C-333.8767715 121.63348751 -342.58868005 119.53522642 -353.15234375 119.6015625 C-354.17429337 119.59869232 -355.19624298 119.59582214 -356.24916077 119.59286499 C-358.38950155 119.59083807 -360.52986145 119.596271 -362.67016602 119.60888672 C-365.95305179 119.6250767 -369.23472814 119.60893151 -372.51757812 119.58984375 C-374.60416938 119.59182415 -376.69075989 119.59566361 -378.77734375 119.6015625 C-380.24916359 119.59245346 -380.24916359 119.59245346 -381.75071716 119.5831604 C-382.659189 119.59261688 -383.56766083 119.60207336 -384.50366211 119.61181641 C-385.70085121 119.61539658 -385.70085121 119.61539658 -386.92222595 119.61904907 C-389.52546126 120.09634106 -390.38749117 120.93878751 -392 123 Z M-283 157 C-278.71 170.86 -274.42 184.72 -270 199 C-253.83 199 -237.66 199 -221 199 C-222.051875 195.225625 -223.10375 191.45125 -224.1875 187.5625 C-224.5074292 186.41209229 -224.8273584 185.26168457 -225.15698242 184.07641602 C-227.68639723 175.02286578 -230.34668437 166.02127313 -233 157 C-249.5 157 -266 157 -283 157 Z M-218 157 C-212.73951232 178.48462928 -212.73951232 178.48462928 -205 199 C-180.58 199 -156.16 199 -131 199 C-131 185.14 -131 171.28 -131 157 C-159.71 157 -188.42 157 -218 157 Z M-116 157 C-116 170.86 -116 184.72 -116 199 C-89.27 199 -62.54 199 -35 199 C-29.08259126 184.25929137 -29.08259126 184.25929137 -26 168 C-27.20914063 167.90203125 -28.41828125 167.8040625 -29.6640625 167.703125 C-53.08357902 165.63542568 -53.08357902 165.63542568 -61.01879883 160.75952148 C-71.05734828 155.01782553 -82.50951962 156.46181125 -93.6875 156.6875 C-95.85348986 156.71261621 -98.0195078 156.7354235 -100.18554688 156.75585938 C-105.45829825 156.80630667 -110.72710494 156.90420659 -116 157 Z M7.36328125 159.60546875 C3.15178962 161.35169699 -1.15120412 162.58907568 -5.5390625 163.8125 C-9.50158613 165.72457489 -10.63658103 168.98089167 -12.07495117 173.0144043 C-12.55411987 174.65276245 -12.55411987 174.65276245 -13.04296875 176.32421875 C-13.39423828 177.51724609 -13.74550781 178.71027344 -14.10742188 179.93945312 C-14.46384766 181.17630859 -14.82027344 182.41316406 -15.1875 183.6875 C-15.55552734 184.93595703 -15.92355469 186.18441406 -16.30273438 187.47070312 C-18.19996852 193.14343998 -18.19996852 193.14343998 -19 199 C-6.79 199 5.42 199 18 199 C21.55017031 185.72042791 21.55017031 185.72042791 24.8125 172.375 C25.04130859 171.43527344 25.27011719 170.49554688 25.50585938 169.52734375 C25.71662109 168.61855469 25.92738281 167.70976562 26.14453125 166.7734375 C26.33378174 165.97341309 26.52303223 165.17338867 26.71801758 164.34912109 C27.03864379 161.6780688 26.65252913 159.59572463 26 157 C18.66553768 155.38393203 14.21420031 156.68316132 7.36328125 159.60546875 Z M-264 214 C-262.68159696 220.5920152 -261.30820555 226.68321568 -259.21484375 233 C-258.95369278 233.80236084 -258.69254181 234.60472168 -258.42347717 235.43139648 C-257.87732716 237.10600735 -257.32851291 238.77975156 -256.77709961 240.45263672 C-255.93092139 243.01995964 -255.0927093 245.58977916 -254.25585938 248.16015625 C-253.72180659 249.79441875 -253.1873174 251.42853871 -252.65234375 253.0625 C-252.40129379 253.83013672 -252.15024384 254.59777344 -251.8915863 255.38867188 C-250.63032293 259.26794744 -250.63032293 259.26794744 -249 263 C-233.49 263 -217.98 263 -202 263 C-206.55697844 246.63207744 -211.21645079 230.30311669 -216 214 C-231.84 214 -247.68 214 -264 214 Z M-201 214 C-199.4325 219.506875 -197.865 225.01375 -196.25 230.6875 C-195.7643457 232.39639404 -195.27869141 234.10528809 -194.77832031 235.8659668 C-191.95424421 250.44175345 -191.95424421 250.44175345 -186 263 C-184.28134591 263.0935919 -182.55884256 263.11744611 -180.83764648 263.11352539 C-179.18604774 263.11341209 -179.18604774 263.11341209 -177.50108337 263.11329651 C-176.3031868 263.10813522 -175.10529022 263.10297394 -173.87109375 263.09765625 C-172.65172623 263.0962413 -171.4323587 263.09482635 -170.17604065 263.09336853 C-166.2631693 263.08774967 -162.35035419 263.07519396 -158.4375 263.0625 C-155.79231853 263.05748743 -153.14713617 263.0529241 -150.50195312 263.04882812 C-144.00126274 263.03862296 -137.50069467 263.01905121 -131 263 C-131 246.83 -131 230.66 -131 214 C-154.1 214 -177.2 214 -201 214 Z M-116 214 C-116 230.17 -116 246.34 -116 263 C-95.54 263 -75.08 263 -54 263 C-50.81370607 253.44111821 -47.6757183 243.91300517 -44.77758789 234.27075195 C-44.17564904 232.27317166 -43.56537951 230.27824227 -42.95507812 228.28320312 C-42.56720186 226.99754853 -42.17981269 225.71174684 -41.79296875 224.42578125 C-41.4477417 223.28536377 -41.10251465 222.14494629 -40.74682617 220.9699707 C-39.83742186 217.86386585 -39.83742186 217.86386585 -40 214 C-65.08 214 -90.16 214 -116 214 Z M-24 214 C-25.99633962 220.65616297 -27.99102981 227.31277292 -29.98144531 233.97070312 C-30.65949852 236.23694806 -31.33853225 238.50289987 -32.01855469 240.76855469 C-32.99409918 244.0194216 -33.96614795 247.27131581 -34.9375 250.5234375 C-35.39684937 252.05005508 -35.39684937 252.05005508 -35.86547852 253.60751343 C-36.14576904 254.54833771 -36.42605957 255.48916199 -36.71484375 256.45849609 C-36.96355225 257.28900482 -37.21226074 258.11951355 -37.46850586 258.97518921 C-38.08462993 260.97351021 -38.08462993 260.97351021 -38 263 C-24.14 263 -10.28 263 4 263 C7.63 246.83 11.26 230.66 15 214 C2.13 214 -10.74 214 -24 214 Z M-244 278 C-240.25778677 297.15229959 -240.25778677 297.15229959 -228.39599609 311.6262207 C-224.12359286 313.35453221 -220.65698934 313.38111223 -216.1015625 313.29296875 C-214.84912247 313.28660149 -214.84912247 313.28660149 -213.57138062 313.28010559 C-210.92224965 313.26340333 -208.2738984 313.22576775 -205.625 313.1875 C-203.82162562 313.1724422 -202.01823924 313.15875571 -200.21484375 313.14648438 C-195.8093587 313.11608774 -191.40554513 313.05735281 -187 313 C-191.95 295.675 -191.95 295.675 -197 278 C-212.51 278 -228.02 278 -244 278 Z M-182 278 C-178.7 289.55 -175.4 301.1 -172 313 C-158.47 313 -144.94 313 -131 313 C-131 301.45 -131 289.9 -131 278 C-147.83 278 -164.66 278 -182 278 Z M-116 278 C-116 289.55 -116 301.1 -116 313 C-100.49 313 -84.98 313 -69 313 C-66.4693147 306.25150586 -64.31600402 299.5931057 -62.3125 292.6875 C-61.99216797 291.60404297 -61.67183594 290.52058594 -61.34179688 289.40429688 C-60.88836914 287.8487207 -60.88836914 287.8487207 -60.42578125 286.26171875 C-60.15161377 285.32287842 -59.87744629 284.38403809 -59.5949707 283.41674805 C-58.88047554 280.92931418 -58.88047554 280.92931418 -59 278 C-77.81 278 -96.62 278 -116 278 Z M-43 278 C-44.670625 283.383125 -46.34125 288.76625 -48.0625 294.3125 C-48.59367432 296.00802002 -49.12484863 297.70354004 -49.67211914 299.45043945 C-50.0854929 300.79617351 -50.49821651 302.14210753 -50.91015625 303.48828125 C-51.13119019 304.18546265 -51.35222412 304.88264404 -51.57995605 305.60095215 C-52.86955082 309.77406242 -52.86955082 309.77406242 -52 314 C-50.783125 314.37125 -49.56625 314.7425 -48.3125 315.125 C-42.80930923 316.9395656 -40.69439294 321.13172184 -38 326 C-27.70499886 325.50185478 -19.82028978 321.91457213 -12.80859375 314.25390625 C-5.19670914 304.76782111 0 290.3284737 0 278 C-14.19 278 -28.38 278 -43 278 Z M-291 397 C-296.22975206 404.93292261 -297.82219664 411.50420785 -297 421 C-295.36472816 427.61584263 -292.28953293 433.60510266 -287 438 C-278.81410298 442.91664641 -271.58380147 445.16574895 -262 444 C-253.29607879 441.06727083 -247.13620455 436.75957062 -242.7578125 428.71875 C-239.09213976 420.73011147 -238.63452546 413.0429126 -241.625 404.75 C-245.43681759 396.36931394 -250.69315737 391.82905889 -259 388 C-270.38465955 384.20511348 -283.21683308 387.96914983 -291 397 Z M-137.375 400.9375 C-141.27363279 408.28492333 -141.93529756 415.7012619 -140.0625 423.8125 C-137.58161169 431.4775087 -131.82376524 437.86072945 -124.6875 441.5625 C-117.08203101 444.52734385 -109.07664488 445.59168386 -101.3125 442.4375 C-92.76875393 438.0509971 -87.18396082 432.1146003 -84 423 C-81.88179405 414.54033277 -83.66845016 407.40403859 -87.6875 399.8125 C-93.54174661 392.69247034 -99.52624048 387.70848257 -108.85546875 386.6875 C-121.31266679 386.1822651 -129.66799132 391.40514716 -137.375 400.9375 Z M-228 399 C-227.01 401.97 -226.02 404.94 -225 408 C-201.9 408 -178.8 408 -155 408 C-154.34 405.03 -153.68 402.06 -153 399 C-177.75 399 -202.5 399 -228 399 Z " fill="#000000" transform="translate(434,28)"/>
<path d="M0 0 C2.87152479 2.06875728 5.2435827 4.54381886 7.68359375 7.09765625 C8.38396255 7.80651474 9.08433136 8.51537323 9.80592346 9.24571228 C12.0309725 11.50424174 14.23420835 13.78276026 16.4375 16.0625 C17.94587152 17.60097744 19.4556228 19.13810341 20.96679688 20.67382812 C24.6606619 24.43370633 28.33685376 28.21020001 32 32 C36.64303587 28.13921913 40.97757938 24.11400746 45.16015625 19.76171875 C46.29432357 18.60032687 47.42910722 17.43953662 48.56445312 16.27929688 C50.3236475 14.47672038 52.0786267 12.67071151 53.82348633 10.85424805 C55.5284251 9.08266361 57.24890002 7.32747342 58.97265625 5.57421875 C59.48844742 5.0294841 60.00423859 4.48474945 60.53565979 3.92350769 C63.86846333 0.5665512 66.24171853 -0.84851524 71 -1 C73.8125 0 73.8125 0 76 2 C77.25 5.1875 77.25 5.1875 77 9 C71.73233831 17.0124969 63.35391674 23.75737614 56.5625 30.5 C55.3415631 31.71591114 54.12085808 32.93205516 52.90039062 34.1484375 C49.93625987 37.10164966 46.96901042 40.05169398 44 43 C47.85531079 47.6408163 51.87715387 51.95951974 56.23828125 56.125 C57.39982546 57.25445097 58.56061119 58.38468241 59.72070312 59.515625 C61.52200939 61.26742182 63.32726499 63.01407875 65.14575195 64.74804688 C66.91979259 66.44319359 68.67389536 68.15700454 70.42578125 69.875 C70.9705159 70.38562988 71.51525055 70.89625977 72.07649231 71.42236328 C75.76211907 75.0809168 76.90916787 77.81835263 77 83 C75.5 85.9375 75.5 85.9375 73 88 C69.75 88.75 69.75 88.75 66 88 C58.21861785 82.60822123 51.65478077 74.76748051 45 68.0625 C43.83226626 66.88973991 42.66429926 65.71721202 41.49609375 64.54492188 C38.66136766 61.69928311 35.82981176 58.85052547 33 56 C30.09771438 57.30729965 28.09353558 58.67920159 25.90307617 60.98095703 C25.32534958 61.58142853 24.74762299 62.18190002 24.15238953 62.80056763 C23.53878067 63.44645844 22.92517181 64.09234924 22.29296875 64.7578125 C20.97145721 66.11922197 19.6491673 67.47987625 18.32617188 68.83984375 C16.25105316 70.98305959 14.18181031 73.13098141 12.12573242 75.29248047 C10.13483037 77.38027325 8.12239282 79.44518957 6.10546875 81.5078125 C5.19416451 82.48272141 5.19416451 82.48272141 4.26445007 83.47732544 C1.13103588 86.64800923 -0.23979878 87.89907057 -4.79174805 88.50341797 C-8 88 -8 88 -10.4375 86.4375 C-12.66700126 82.95947804 -12.57238694 81.09418563 -12 77 C-10.02940481 74.0663164 -7.55671538 71.74115489 -5 69.31640625 C-4.28972656 68.61603745 -3.57945312 67.91566864 -2.84765625 67.19407654 C-0.58103113 64.96655531 1.70872625 62.76463128 4 60.5625 C5.54325757 59.05436061 7.08494428 57.54461198 8.625 56.03320312 C12.39865523 52.33661996 16.19158781 48.66074629 20 45 C18.70665553 42.15101954 17.35207334 40.10820567 15.12670898 37.91552734 C14.54948593 37.34168304 13.97226288 36.76783875 13.37754822 36.17660522 C12.75666824 35.56918488 12.13578827 34.96176453 11.49609375 34.3359375 C10.85761002 33.70265533 10.21912628 33.06937317 9.56129456 32.41690063 C7.52472625 30.39812011 5.48158925 28.38616271 3.4375 26.375 C1.39072882 24.35583275 -0.65457266 22.33523099 -2.69700623 20.31167603 C-3.96743566 19.05351851 -5.24052842 17.79804361 -6.51649475 16.54550171 C-11.85965214 11.26313072 -11.85965214 11.26313072 -12.375 6.625 C-12 3 -12 3 -9.9375 0.5 C-5.97107906 -1.52540644 -4.29194457 -1.17268809 0 0 Z " fill="#000000" transform="translate(373,66)"/>
<path d="M0 0 C2.44914881 1.75182172 4.05293245 3.69231195 5.6875 6.20703125 C6.2753125 7.10421875 6.2753125 7.10421875 6.875 8.01953125 C9.19086037 14.25453993 8.97538072 19.06117599 6.625 25.16796875 C4.24200339 30.35098637 1.06851457 33.15062127 -4.0390625 35.4765625 C-9.70284275 37.29636818 -15.20364934 37.01193983 -20.625 34.58203125 C-25.45742044 31.80949104 -28.33376928 28.39752381 -30.625 23.26953125 C-32.08435128 16.76878465 -31.65973554 10.9971615 -28.3125 5.20703125 C-20.70605694 -3.30091618 -10.16011615 -5.79700176 0 0 Z M-15.0625 13.70703125 C-15.475 14.20203125 -15.8875 14.69703125 -16.3125 15.20703125 C-15.68716625 17.73067113 -15.68716625 17.73067113 -14.3125 20.20703125 C-11.76474694 21.10089289 -11.76474694 21.10089289 -9.3125 21.20703125 C-8.3225 19.55703125 -7.3325 17.90703125 -6.3125 16.20703125 C-7.53840192 14.12725828 -7.53840192 14.12725828 -9.3125 12.20703125 C-13.19047662 11.77317033 -13.19047662 11.77317033 -15.0625 13.70703125 Z " fill="#000000" transform="translate(333.3125,426.79296875)"/>
<path d="M0 0 C4.9905058 3.44582543 8.59138511 7.03275241 10.625 12.8125 C11.30216349 19.02756212 11.39444691 24.58391236 7.625 29.8125 C2.75821596 34.79945155 -1.61044995 37.80037931 -8.6875 38.1875 C-14.52308561 38.02270772 -18.95021203 36.13186241 -23.171875 32.09375 C-27.94205794 26.73297298 -28.67420431 22.64956329 -28.58984375 15.53515625 C-28.10695888 9.41568803 -24.89247146 5.69962661 -20.375 1.8125 C-14.25857459 -2.41074612 -6.86531684 -2.41557445 0 0 Z M-13.375 15.8125 C-13.05301034 18.91176819 -13.05301034 18.91176819 -12.375 21.8125 C-10.02966049 22.58206136 -10.02966049 22.58206136 -7.375 22.8125 C-5.375 21.8125 -5.375 21.8125 -4.375 19.8125 C-4.61705349 16.49431015 -4.61705349 16.49431015 -6.375 13.8125 C-10.336168 13.42159667 -10.336168 13.42159667 -13.375 15.8125 Z " fill="#000000" transform="translate(174.375,425.1875)"/>
</svg>
