<svg xmlns="http://www.w3.org/2000/svg" width="512" height="512"><path d="m48.144 141.807 2.873-.025c3.147-.025 6.293-.041 9.44-.055l3.252-.017c5.679-.026 11.358-.046 17.037-.06 5.872-.017 11.743-.062 17.614-.112 4.51-.034 9.02-.046 13.53-.051 2.164-.007 4.329-.022 6.493-.046 3.029-.032 6.056-.032 9.085-.024l2.713-.05c4.438.044 6.233.168 9.818 3.012 1.881 2.464 3.443 4.945 5.001 7.621 4.688 5.669 9.847 10.9 15.086 16.055 2.55 2.591 4.918 5.318 7.273 8.086L169 178l1.511 2.026c3.706 2.94 7.328 2.974 11.947 3.415l2.937.324c3.256.354 6.514.683 9.773 1.012 2.333.25 4.667.5 7 .752 6.347.68 12.696 1.34 19.045 1.996 5.97.62 11.937 1.256 17.904 1.893 11.135 1.189 22.27 2.365 33.408 3.534 24.993 2.621 49.98 5.307 74.965 7.995 8.057.866 16.114 1.728 24.172 2.586 5.012.534 10.024 1.07 15.036 1.606 2.329.249 4.658.496 6.988.743 3.176.337 6.352.677 9.527 1.017l2.809.296c4.04.436 8.01.899 11.978 1.805l-.19 2.13c-.59 6.636-1.18 13.27-1.766 19.907-.301 3.41-.604 6.822-.908 10.233-.35 3.924-.696 7.848-1.042 11.773l-.332 3.7-.303 3.457-.27 3.035c-.178 2.6-.224 5.16-.189 7.765l3.75-.125c17.87.084 32.674 6.742 45.5 18.937 12.752 13.192 17.17 28.562 17.116 46.462-.138 7.916-1.078 14.444-4.366 21.726l-1.285 2.871c-3.507 7.043-8.19 12.576-13.715 18.129l-1.828 1.934c-10.401 10.152-26.212 14.869-40.422 15.253-17.295-.296-33.042-6.773-45.46-18.816C363 367.285 363 367.285 363 363H203v42l6 1c6.021 3.096 9.913 7.56 12 14v3h72l1-6c3.4-6.073 7.408-9.77 14-12 7.347-.872 13.964-.566 20 4 2.98 2.85 5.57 6.101 7 10v4h19l1-6c3.4-6.073 7.408-9.77 14-12 7.347-.872 13.964-.566 20 4 3.956 3.784 6.73 7.694 7.371 13.172.142 7.66-.07 13.052-5.371 18.828l-1.387 1.52c-7.107 6.757-17.075 5.762-26.179 5.72l-4.13.006c-3.766.004-7.534-.004-11.3-.014-4.069-.009-8.137-.006-12.205-.004-7.043.001-14.087-.005-21.13-.017a22612.53 22612.53 0 0 0-30.55-.024c-16.523-.004-33.045-.017-49.568-.036a78306.424 78306.424 0 0 0-66.037-.05C127.343 448.08 86.17 448.045 45 448v-7l75-1-4-7c-1.937-6.33-.932-12.157 2-18 3.42-5.332 6.964-8.134 13-10a93.473 93.473 0 0 1 5 0c2.309-36.28-5.316-68.098-15.486-102.467-4.036-13.674-7.774-27.42-11.455-41.193l-1.775-6.628c-2.055-7.683-4.107-15.367-6.159-23.05a6632.704 6632.704 0 0 0-5.031-18.736c-.517-1.916-1.03-3.832-1.54-5.75-.703-2.637-1.414-5.272-2.128-7.907l-.614-2.333c-1.982-7.236-5.361-11.8-10.437-17.186l-1.465-1.582a196.043 196.043 0 0 0-3.142-3.29C75 173 75 173 73.06 170.602c-3.096-3.589-5.44-6.202-10.136-7.365-3.423-.238-6.746-.237-10.175-.113-2.297.036-4.594.06-6.89.07l-3.048.095c-3.316-.342-5.126-1.359-7.812-3.29-2.341-3.01-2.412-6.277-2.328-10.031.519-3.112 2.114-4.82 4.328-6.969 3.43-1.715 7.369-1.175 11.144-1.193zM140 159l-1.627 1.473c-2.976 1.915-4.812 1.922-8.335 1.96l-3.64.06-3.914.019a1742.313 1742.313 0 0 1-14.573.158c-3.592.03-7.185.076-10.778.121-7.044.086-14.089.153-21.133.209l1.147 1.29c2.595 2.963 4.996 5.848 7.059 9.209 3.745 5.44 7.643 8.886 14.265 10.179 9.638.896 19.284.572 28.944.215 4.015-.135 8.031-.193 12.048-.258 7.849-.139 15.692-.36 23.537-.635a429.062 429.062 0 0 0-13.75-15.375l-2.035-2.191-1.95-2.082-1.756-1.88c-1.462-1.575-1.462-1.575-3.509-2.472zm3 204v43l8 4c3.924 4.607 5.019 7.056 7 13h21l3-8c4.102-6.273 6.387-6.616 14-10v-42h-53zm15 67-5 11h31l-4-8-1-3h-21zm63 0-5 11h82l-5-11h-72zm114 0-5 11h29l-5-11h-19z" fill="#5F6276"/><path d="M175 190a162.44 162.44 0 0 1 21.574 1.023l2.932.322c3.061.338 6.121.684 9.181 1.03l6.092.672c9.966 1.103 19.921 2.259 29.863 3.559 4.512.53 9.027.813 13.56 1.102 3.864.297 7.701.721 11.547 1.192 9.436 1.133 18.881 2.17 28.33 3.194l5.358.582 11.153 1.21c3.766.408 7.532.818 11.298 1.228 25.418 2.788 25.418 2.788 50.866 5.293a452.09 452.09 0 0 1 18.808 2.155l2.936.381c3.9.517 7.696 1.038 11.502 2.057.47 11.966-.915 23.85-2 35.75l-.578 6.484c-.469 5.256-.943 10.511-1.422 15.766l-3.077.98c-1.353.438-2.707.877-4.06 1.317l-2.02.64C381.036 281.104 369.617 292.539 362 307c-4.047 8.45-5.35 16.4-5.313 25.688l-.048 2.412c-.007 7.883 1.616 13.758 3.361 21.9H202l-6.188-38.063c-3.858-23.726-7.724-47.45-11.636-71.167l-.46-2.787c-1.459-8.849-2.92-17.698-4.384-26.546-.536-3.237-1.07-6.475-1.605-9.712l-.746-4.501c-.338-2.036-.674-4.073-1.01-6.11l-.572-3.453C175 192 175 192 175 190zM97 189h72c3.523 21.461 7.044 42.923 10.561 64.385 1.633 9.964 3.267 19.929 4.903 29.893 1.426 8.683 2.85 17.366 4.272 26.05.753 4.599 1.508 9.198 2.264 13.797.71 4.326 1.42 8.653 2.127 12.98.26 1.59.522 3.18.784 4.77.357 2.167.71 4.333 1.064 6.5.2 1.214.398 2.428.603 3.679C196 354 196 354 196 357h-54c-2.341-7.61-4.6-15.04-6.438-22.75-1.536-6.302-3.183-12.542-5.062-18.75-1.853-6.126-3.481-12.282-5-18.5-1.499-6.135-3.103-12.207-4.938-18.25-2.073-6.845-3.852-13.743-5.562-20.688-1.9-7.714-3.872-15.393-6.03-23.039-2.227-7.89-4.347-15.81-6.472-23.728l-.85-3.166-.825-3.082a908.12 908.12 0 0 0-1.7-6.208l-.834-3-.751-2.68C97 191 97 191 97 189z" fill="#F4F4F4"/><path d="M445.313 284.688c13.997 9.277 23.818 21.615 27.308 38.277C474.734 339.89 470.845 355.089 461 369c-9.114 11.077-21.884 17.802-36 20-10.58.79-20.21.475-30-4l-2.379-1.063c-6.44-3.225-11.511-7.923-16.621-12.937l-1.754-1.68c-10.922-11.464-12.938-26.978-12.621-42.035.734-14.686 8.64-26.3 18.992-36.25 17.942-15.324 44.045-17.877 64.695-6.348z" fill="#F3F3F2"/><path d="M401 302c5.29 4.408 10.188 9.076 15 14 4.325-1.659 7.094-4.871 10.25-8.125l1.68-1.707c1.361-1.385 2.716-2.776 4.07-4.168 5.661 4.698 10.852 9.747 16 15-1.612 4.03-4.462 6.76-7.5 9.75l-1.512 1.535C435.253 332 435.253 332 433 332c4.76 5.593 9.746 10.869 15 16-4.698 5.661-9.747 10.852-15 16-4.69-3.908-9.05-7.98-13.3-12.363-1.617-1.72-1.617-1.72-3.7-2.637l-.648 1.64c-1.833 3.2-4.35 5.57-6.977 8.11l-1.563 1.535A897.139 897.139 0 0 1 403 364c-2.932-1.321-4.987-2.746-7.234-5.04l-1.739-1.757-1.777-1.828-1.824-1.852c-1.48-1.503-2.954-3.012-4.426-4.523 4.408-5.29 9.076-10.188 14-15-1.659-4.325-4.871-7.094-8.125-10.25l-1.707-1.68A1077.693 1077.693 0 0 0 386 318c4.698-5.661 9.747-10.852 15-16z" fill="#E18410"/><path d="M372 241c3.623 1.647 6.168 3.433 8 7 .318 7.162-.306 14.327-.897 21.464-.11 1.4-.208 2.8-.293 4.203-.808 13.172-.808 13.172-5.165 17.392l-1.887 1.519c-2.768 2.24-4.186 4.87-6.008 7.922-.645 1.062-1.29 2.124-1.953 3.219-5.195 9.486-7.177 18.248-7.11 28.969l.004 2.614c.113 7.59 1.387 14.33 3.309 21.698h-14c-2.35-8.336-3.523-15.788-3.438-24.438l.026-3.323c.169-8.108 1-14.8 4.412-22.239l.828-1.815c5.142-11.124 5.142-11.124 7.754-13.814 2.177-3.64 1.82-7.137 1.79-11.3.016-1.783.034-3.566.052-5.348.01-2.8.013-5.6.012-8.4.003-2.71.03-5.418.06-8.128l-.025-2.52c.069-5.355.95-8.44 4.529-12.675 3.726-2.484 5.587-2.38 10-2zM238 228c3.752 2.015 5.636 3.455 8 7 .205 2.908.294 5.721.29 8.63l.02 2.672c.02 2.919.024 5.838.026 8.757l.02 6.079c.012 4.25.016 8.499.015 12.748 0 5.449.027 10.897.061 16.346.022 4.186.026 8.371.025 12.557.003 2.009.012 4.018.027 6.027.02 2.808.014 5.616.002 8.424l.034 2.52c-.04 3.608-.216 5.81-2.324 8.795C242 330 242 330 238.375 329.875 235 329 235 329 233 327a135.22 135.22 0 0 1-1.398-8.46l-.38-2.67c-.416-2.956-.82-5.913-1.222-8.87l-.88-6.321a3261.7 3261.7 0 0 1-2.282-16.843c-.31-2.311-.621-4.622-.937-6.933-3.02-22.14-3.02-22.14-3.788-33.266l-.177-2.179c-.233-4.221.219-6.7 2.876-10.02 4.032-3.534 7.898-4.166 13.188-3.438z" fill="#A9AFC4"/><path d="M308 235c4.12 1.82 6.824 4.05 9 8 .609 7.898-.165 15.935-.813 23.813l-.263 3.322c-.84 10.35-1.837 20.686-2.87 31.019l-.37 3.71c-.12 1.185-.238 2.37-.36 3.592-.42 4.603-.706 9.211-.96 13.826-.366 2.735-.858 4.421-2.364 6.718-3 2-3 2-6.5 1.875-3.5-.875-3.5-.875-5.18-2.566-1.63-2.85-1.788-4.846-1.936-8.121l-.181-3.555-.152-3.848a2490.73 2490.73 0 0 0-.19-4.002c-.131-2.806-.254-5.613-.37-8.42-.144-3.533-.306-7.065-.473-10.596-.349-7.377-.646-14.754-.894-22.134-.08-2.329-.165-4.657-.26-6.984-.113-2.926-.192-5.85-.259-8.778l-.112-2.51c-.049-4.066.255-6.563 2.844-9.79 4.352-4.202 6.646-5.09 12.663-4.571z" fill="#AAB0C4"/><path d="M389 63c3.944 1.315 4.905 3.06 6.98 6.547 2.198 5.288 1.933 10.838.067 16.183-3.107 4.963-7.154 8.849-11.297 12.957l-2.527 2.588c-5.544 5.54-9.728 9.243-17.723 10.1-5.648-.605-10.166-2.734-14.5-6.375.514-4.176 2.773-6.174 5.688-9.063l2.574-2.597c5.122-4.377 9.021-5.743 15.738-5.34l.078-1.758C374.857 75.522 381.575 70.17 389 63z" fill="#5E6175"/><path d="M279 71c3.042-.081 6.082-.14 9.125-.188l2.594-.076c6.134-.07 10.43.698 15.156 4.951L307 77l1.266-1.313c8.007-6.809 17.85-5.243 27.734-4.687.213 6.802-.775 11.508-5.46 16.582-6.374 5.613-13.23 4.635-21.33 4.658-2.071.01-4.142.041-6.214.073l-3.988.015-3.636.028c-5.387-.569-9.28-2.673-12.685-6.856l-1.488-1.781C278.38 79.676 278.923 75.71 279 71z" fill="#5F6276"/><path d="M358 249h1c.047 8.32.082 16.639.104 24.959.01 3.863.024 7.727.047 11.591.022 3.735.034 7.47.039 11.204.003 1.42.01 2.838.021 4.257.057 7.686-.268 14.55-2.211 21.989-.337 3.235-.333 6.436-.313 9.688l.004 2.614c.113 7.59 1.387 14.33 3.309 21.698h-14c-2.35-8.336-3.523-15.788-3.438-24.438l.026-3.323c.169-8.108 1-14.8 4.412-22.239l.828-1.815c5.144-11.13 5.144-11.13 7.745-13.801 2.206-3.686 1.907-7.303 1.939-11.525l.054-2.673c.054-2.812.088-5.624.122-8.436.033-1.909.067-3.818.103-5.727.085-4.674.152-9.348.209-14.023z" fill="#C6CBD6"/><path d="M81 377c3.436 2.12 5.807 4.096 7 8 .462 4.777.5 7.019-1.688 11.313-3.574 4.154-5.75 5.513-11.25 6.125C70.785 402.26 68.266 400.81 65 398c-2.387-2.944-2.962-4.651-3.375-8.438.506-4.802 1.761-8.1 5.375-11.375 4.693-2.786 8.848-2.364 14-1.187zm-10.313 7.625c-1.998 2.314-1.998 2.314-1.624 5.5.704 3.167.704 3.167 3.937 4.875 3.077-.082 3.077-.082 6-1 2.32-2.826 2.32-2.826 1.813-6.063-.55-3.234-.55-3.234-3.813-4.937-3.926-.383-3.926-.383-6.313 1.625z" fill="#5D6074"/><path d="M406 260v13l-2.895.848c-7.72 2.36-14.241 5.035-20.933 9.699C380 285 380 285 377 286l1-23h1l1 5 1.984-.988C389.486 263.42 397.552 260 406 260z" fill="#D9DCE0"/><path d="M377 271c1.073 14.183 1.073 14.183-1.277 18.164a68.077 68.077 0 0 1-3.641 2.996c-2.76 2.439-4.52 5.338-6.394 8.465l-1.989 3.29A57.171 57.171 0 0 0 360 312h-1c-1.904-24.133-1.904-24.133 2.238-30.035 2.583-2.82 5.527-4.93 8.762-6.965 1.103-.75 2.204-1.503 3.305-2.258C376 271 376 271 377 271z" fill="#8E96AF"/><path d="M114.938 338.625c1.552 3.471 1.707 6.684 1.062 10.375-1.563 2.938-1.563 2.938-4 5-3.891 1.132-6.006 1.43-9.75-.188-3.347-2.696-5-4.375-5.75-8.687.708-4.426 2.298-5.996 5.5-9.125 4.252-2.268 9.434-.313 12.938 2.625zM106 342l-2 4 3 2 2-1v-4l-3-1z" fill="#5D6074"/><path d="M158 116c4 2 4 2 4.908 3.937.092 2.063.092 2.063-2.435 5.079a209.932 209.932 0 0 1-3.41 3.234l-1.749 1.68A454.13 454.13 0 0 1 151 134c-3.161-1.37-3.993-1.99-6-5l13-13z" fill="#5F6275"/><path d="M203 420c1.875 1.125 1.875 1.125 3 3 .544 3.653.438 5.343-1.625 8.438C202 433 202 433 198.937 433c-2.937-1-2.937-1-4.875-2.688-1.458-3.174-1.067-5.01-.062-8.312 3.47-2.313 4.922-2.425 9-2z" fill="#EDEDEE"/><path d="M157 142h19v7h-19v-7z" fill="#5E6075"/><path d="M130 103h7v19h-7v-19z" fill="#5D6174"/><path d="M378 420c1.875 1.063 1.875 1.063 3 3 .438 3.5.438 3.5 0 7-1.625 2-1.625 2-4 3-3.125-.125-3.125-.125-6-1-2.313-3.47-2.425-4.922-2-9 2.21-3.682 4.982-3.502 9-3z" fill="#EFEFF0"/><path d="m388 73 3 1c.459 5.732-.344 8.553-4 13-2.75 2.375-2.75 2.375-5 4-1-1-1-1-1.313-4.688.057-5.3 2.522-8.393 6.063-12.187L388 73zM375 94l2 1c-1.724 4.389-4.83 6.915-9 9-2.672.134-5.323.043-8 0 0-3 0-3 1.46-4.57l1.915-1.555 1.898-1.57C368.58 93.806 370.9 93.829 375 94z" fill="#D0D3DD"/><path d="m324.188 76.938 2.73.027L329 77c-1.278 3.942-2.411 5.886-6 8-2.797.293-2.797.293-5.75.188l-2.984-.083L312 85c.711-3.255 1.363-4.87 4-7 3.015-1.005 5.042-1.103 8.188-1.063z" fill="#D3D6DF"/><path d="M286 77c5.096-.363 8.9-.54 13.563 1.75 2.524 2.33 2.838 3.048 3.437 6.25-9.887.623-9.887.623-14.125-1.75-1.887-2.264-2.299-3.45-2.875-6.25z" fill="#D3D7DF"/><path d="M137 420v9h5l-1 3c-5.255 1.314-5.255 1.314-8.375 0-1.625-2-1.625-2-2.063-5.5.438-3.5.438-3.5 1.75-5.438C134 420 134 420 137 420z" fill="#E9E9EB"/><path d="m263 160 7 1c-.25 2.875-.25 2.875-1 6-2.063 1.375-2.063 1.375-4 2l-4-3 2-6z" fill="#ACB2C6"/><path d="M262 144a158.814 158.814 0 0 1 6 5v2c-4.385 3-4.385 3-7 3-1.625-2.5-1.625-2.5-3-5l4-5z" fill="#ACB1C4"/><path d="m317 163 7 1v7h-7v-8z" fill="#A8AFC3"/><path d="m390 149 7 3c-.75 2.438-.75 2.438-2 5-1.938.938-1.938.938-4 1l-3-2 2-7z" fill="#ABB1C7"/><path d="m229 141 7 1v7l-8-1 1-7z" fill="#A7AEC4"/><path d="m303 101 8 1-3 8-6-3 1-6z" fill="#AEB3C6"/><path d="M429 172h6c1.208 3.623.543 4.641-1 8-2.375-.313-2.375-.313-5-1l-2-3 2-4z" fill="#A8ADC4"/><path d="m332 151 1 6-5 2-4-4c2.023-4.48 3.204-5.439 8-4z" fill="#A9B0C4"/><path d="M233 109v7l-6 1c-1.46-2.647-2-3.894-2-7 2.892-.826 4.887-1 8-1z" fill="#A8AEC3"/><path d="m430 107 3 1c1.188 3.063 1.188 3.063 2 6-2.647 1.46-3.894 2-7 2l-2-5 4-4z" fill="#A8AEC5"/><path d="M407.25 177.875 409 179c0 4 0 4-2 7-2.468-1.152-4.048-2.048-6-4v-3c3.446-2.215 3.446-2.215 6.25-1.125z" fill="#A8AEC4"/><path d="m404 162 1 8h-7l-1-6c4.75-2 4.75-2 7-2z" fill="#A9AFC3"/><path d="m221 134 2 5-5 4c-2.063-2.313-2.063-2.313-4-5l1-3c2-1 2-1 6-1z" fill="#A8AEC3"/><path d="M215 118c3.27.564 4.826 1.5 7 4l-2 4h-6c-.93-2.606-1.15-3.642-.063-6.25L215 118z" fill="#AAB0C4"/><path d="m414 100 8 1-2 7-6-1v-7z" fill="#A9AEC4"/><path d="M317 180h7v7h-7v-7z" fill="#A8AFC3"/><path d="M234 169h7v7h-7v-7z" fill="#A9AEC3"/><path d="M429 156h7v7h-7v-7z" fill="#A8AEC3"/><path d="M373 149h7v7h-7v-7zM357 149h7v7h-7v-7zM341 149h7v7h-7v-7z" fill="#A9AEC3"/><path d="M245 142h7v7h-7v-7z" fill="#A7AEC5"/><path d="M429 140h7v7h-7v-7zM429 124h7v7h-7v-7zM274 109h7v7h-7v-7zM258 109h7v7h-7v-7zM242 109h7v7h-7v-7z" fill="#A9AEC3"/><path d="M398 100h7v7h-7v-7z" fill="#A9AEC4"/><path d="M290 109c2-.043 4-.04 6 0 1 1 1 1 1.063 4.063L297 116h-7v-7z" fill="#AAB0C5"/><path d="M417 182h6l2 6-8 2v-8z" fill="#A8AEC5"/><path d="M250 169h6l1 7h-7v-7z" fill="#AAB0C5"/><path d="M308 429h11l-1 3c-2.75.75-2.75.75-6 1-2.375-1.938-2.375-1.938-4-4z" fill="#DBDCDF"/><path d="m317 420 2 3h-10v-2c2.789-1.394 4.92-1.257 8-1z" fill="#EFEFF0"/></svg>