<?xml version="1.0" encoding="UTF-8"?>
<svg version="1.1" xmlns="http://www.w3.org/2000/svg" width="512" height="512">
<path d="M0 0 C0.77406693 -0.00701431 1.54813385 -0.01402863 2.34565735 -0.02125549 C4.82945657 -0.03865233 7.31301708 -0.04510781 9.796875 -0.046875 C10.64724335 -0.04754974 11.49761169 -0.04822449 12.37374878 -0.04891968 C25.32943246 -0.03259097 37.83618948 0.50236782 50.546875 3.203125 C51.39378906 3.37473145 52.24070313 3.54633789 53.11328125 3.72314453 C81.9414011 9.66177968 109.57013416 21.00645587 133.546875 38.203125 C134.13355957 38.62303711 134.72024414 39.04294922 135.32470703 39.47558594 C143.58759732 45.46413612 151.17998255 52.1515648 158.546875 59.203125 C159.09988281 59.72358398 159.65289062 60.24404297 160.22265625 60.78027344 C169.77880693 69.80253083 177.9394514 79.49116296 185.546875 90.203125 C185.95744141 90.7796582 186.36800781 91.35619141 186.79101562 91.95019531 C212.21316504 128.22114955 223.89518257 170.46179973 223.921875 214.390625 C223.92486603 215.71474396 223.92486603 215.71474396 223.92791748 217.06561279 C223.92726654 219.60527789 223.90915811 222.144076 223.8828125 224.68359375 C223.88039551 225.43989578 223.87797852 226.19619781 223.87548828 226.97541809 C223.79229806 231.72349328 223.16549687 235.72234046 221.546875 240.203125 C218.69904612 242.72548772 216.81498713 243.16482327 213.046875 243.703125 C208.58208841 243.06529834 207.23655502 241.76299561 204.546875 238.203125 C203.16367123 234.74511558 203.65688688 231.65801215 204.0390625 228.02734375 C204.17997314 226.67322388 204.17997314 226.67322388 204.32373047 225.29174805 C204.39736816 224.60250244 204.47100586 223.91325684 204.546875 223.203125 C203.98168655 223.20978683 203.41649811 223.21644867 202.83418274 223.22331238 C196.94558405 223.28974224 191.05709203 223.33495732 185.16821289 223.36791992 C182.97122879 223.38299552 180.77427474 223.40345926 178.57739258 223.42944336 C175.417405 223.46588002 172.25781576 223.48286384 169.09765625 223.49609375 C167.62707512 223.51931953 167.62707512 223.51931953 166.12678528 223.54301453 C161.11045333 223.54424926 157.59926656 223.51560653 153.546875 220.203125 C151.17647192 217.83272192 151.20221707 217.14009747 151.109375 213.890625 C151.06941406 213.13136719 151.02945312 212.37210938 150.98828125 211.58984375 C151.87312024 207.80916807 153.45418136 206.53977362 156.546875 204.203125 C160.21427514 203.50777881 163.8139934 203.62107689 167.53515625 203.71484375 C168.59349167 203.72191849 169.65182709 203.72899323 170.74223328 203.73628235 C174.11533937 203.76422281 177.48677246 203.82696379 180.859375 203.890625 C183.14906453 203.91570818 185.43878014 203.93852131 187.72851562 203.95898438 C193.33520415 204.01404819 198.94092004 204.0976717 204.546875 204.203125 C199.74639345 160.59641647 186.92084851 120.69694543 157.546875 87.203125 C156.43892578 85.93082031 156.43892578 85.93082031 155.30859375 84.6328125 C153.08732486 82.12381448 150.83085062 79.65509883 148.546875 77.203125 C147.86238281 76.46449219 147.17789062 75.72585937 146.47265625 74.96484375 C113.10941175 40.24486842 67.247388 24.60149023 20.546875 19.203125 C20.55131622 19.75134415 20.55575745 20.29956329 20.56033325 20.86439514 C20.60471936 26.59112939 20.63480468 32.31781442 20.65673828 38.04467773 C20.66677063 40.17946357 20.68039964 42.31423574 20.69775391 44.44897461 C20.7221239 47.52461119 20.733386 50.60006543 20.7421875 53.67578125 C20.75251007 54.62397232 20.76283264 55.57216339 20.77346802 56.54908752 C20.77549725 68.64433649 20.77549725 68.64433649 16.859375 73.140625 C13.56284926 74.65524494 11.13616768 74.58094528 7.546875 74.203125 C2.946875 72.003125 2.946875 72.003125 1.546875 69.203125 C1.45671123 67.59958048 1.42931425 65.99230278 1.43334961 64.38623047 C1.43342514 63.38534393 1.43350067 62.3844574 1.43357849 61.35324097 C1.43873978 60.26987457 1.44390106 59.18650818 1.44921875 58.0703125 C1.45134117 56.40985397 1.45134117 56.40985397 1.45350647 54.71585083 C1.45911728 51.16991507 1.47167163 47.62404177 1.484375 44.078125 C1.48938861 41.67838633 1.49395175 39.27864667 1.49804688 36.87890625 C1.50909022 30.98695775 1.5258389 25.09504584 1.546875 19.203125 C-16.93440405 21.23729116 -16.93440405 21.23729116 -35.140625 24.890625 C-36.68339111 25.27516846 -36.68339111 25.27516846 -38.25732422 25.66748047 C-91.04111088 39.3413201 -132.03894734 73.78608254 -159.578125 119.953125 C-174.08086457 146.01136733 -180.87561919 174.68903458 -183.453125 204.203125 C-182.83560364 204.19424255 -182.21808228 204.18536011 -181.58184814 204.1762085 C-175.15817516 204.08775581 -168.73467498 204.02739931 -162.31054688 203.98339844 C-159.91268894 203.96327564 -157.51488012 203.93597441 -155.1171875 203.90136719 C-151.67175177 203.8528801 -148.22696448 203.83016259 -144.78125 203.8125 C-143.17168427 203.78153229 -143.17168427 203.78153229 -141.52960205 203.74993896 C-140.02849884 203.74948578 -140.02849884 203.74948578 -138.49707031 203.74902344 C-137.61770813 203.74014099 -136.73834595 203.73125854 -135.83233643 203.72210693 C-132.66884103 204.36168794 -131.48839019 205.7609063 -129.453125 208.203125 C-128.04311836 211.02313827 -128.20764049 213.07319755 -128.453125 216.203125 C-130.71783088 220.83547794 -130.71783088 220.83547794 -133.453125 222.203125 C-135.05666952 222.29328877 -136.66394722 222.32068575 -138.27001953 222.31665039 C-139.27090607 222.31657486 -140.2717926 222.31649933 -141.30300903 222.31642151 C-142.38637543 222.31126022 -143.46974182 222.30609894 -144.5859375 222.30078125 C-145.69290985 222.2993663 -146.7998822 222.29795135 -147.94039917 222.29649353 C-151.48633493 222.29088272 -155.03220823 222.27832837 -158.578125 222.265625 C-160.97786367 222.26061139 -163.37760333 222.25604825 -165.77734375 222.25195312 C-171.66929225 222.24090978 -177.56120416 222.2241611 -183.453125 222.203125 C-178.45511477 270.03947205 -162.93741033 311.94234222 -129.453125 347.203125 C-128.97649414 347.7069873 -128.49986328 348.21084961 -128.00878906 348.72998047 C-120.38977856 356.73114323 -112.46299154 363.80944519 -103.453125 370.203125 C-102.59944336 370.81534912 -102.59944336 370.81534912 -101.72851562 371.43994141 C-72.67258037 392.10319392 -39.55119173 403.25189342 -4.18286133 406.73706055 C-3.29375565 406.8249736 -2.40464996 406.91288666 -1.48860168 407.00346375 C-0.48104073 407.10229607 -0.48104073 407.10229607 0.546875 407.203125 C0.53688225 406.33988113 0.53688225 406.33988113 0.52668762 405.459198 C0.46019775 399.4569051 0.41501779 393.45471725 0.38208008 387.45214844 C0.36701536 385.21349842 0.34655967 382.97487781 0.32055664 380.73632812 C0.28407217 377.51424898 0.26712517 374.29256089 0.25390625 371.0703125 C0.23842239 370.07321259 0.22293854 369.07611267 0.20698547 368.04879761 C0.20569062 362.67422548 0.47972028 358.83132204 3.546875 354.203125 C5.87414325 352.43761115 7.52539851 352.20639316 10.421875 351.765625 C13.77292241 352.23477164 15.73654741 353.16489481 18.28106689 355.40072632 C20.99062134 359.25889198 20.26406721 364.10275288 20.1328125 368.62890625 C20.12432281 369.73163376 20.11583313 370.83436127 20.10708618 371.97050476 C20.07354595 375.48654591 19.99825901 379.00027911 19.921875 382.515625 C19.8917765 384.90165955 19.8644005 387.28773011 19.83984375 389.67382812 C19.77375259 395.51771221 19.67339603 401.36025373 19.546875 407.203125 C21.40892578 407.04263672 21.40892578 407.04263672 23.30859375 406.87890625 C24.9504562 406.75693932 26.5923873 406.63589395 28.234375 406.515625 C29.05099609 406.44279297 29.86761719 406.36996094 30.70898438 406.29492188 C35.56968941 405.96037942 38.58391686 405.98949812 42.546875 409.203125 C44.65842371 411.79457115 44.6818922 413.97701071 44.484375 417.203125 C43.98040735 420.31382189 43.58300366 421.1616833 41.421875 423.640625 C18.64712161 436.01820837 -26.54651898 425.37086025 -49.76953125 418.67578125 C-64.26711107 414.24177118 -78.12637815 408.40773116 -91.453125 401.203125 C-92.0517334 400.88375977 -92.6503418 400.56439453 -93.26708984 400.23535156 C-109.83601867 391.33897931 -124.4218502 379.88580297 -138.203125 367.140625 C-138.81728271 366.57504883 -139.43144043 366.00947266 -140.06420898 365.42675781 C-169.76064964 337.60811555 -189.46395606 298.52567002 -198.453125 259.203125 C-198.66485352 258.2965918 -198.87658203 257.39005859 -199.09472656 256.45605469 C-204.99740417 230.01093646 -205.3462246 198.714131 -199.453125 172.203125 C-199.25444824 171.26871582 -199.05577148 170.33430664 -198.85107422 169.37158203 C-194.40837522 148.86860935 -187.42687076 129.65209807 -177.453125 111.203125 C-177.13375977 110.6045166 -176.81439453 110.0059082 -176.48535156 109.38916016 C-168.77093848 95.02155529 -159.15541338 82.45040539 -148.453125 70.203125 C-147.72996094 69.35621094 -147.00679687 68.50929688 -146.26171875 67.63671875 C-142.58554553 63.38501939 -138.77886735 59.54765647 -134.48046875 55.92578125 C-133.15363201 54.7983535 -131.85234467 53.63997183 -130.58203125 52.44921875 C-118.3826734 41.05839534 -104.26167725 31.81112726 -89.453125 24.203125 C-88.68194336 23.7999707 -87.91076172 23.39681641 -87.11621094 22.98144531 C-60.54238434 9.21300708 -30.10818098 0.18430607 0 0 Z " fill="#000000" transform="translate(202.453125,14.796875)"/>
<path d="M0 0 C7.14414504 4.93663449 10.96209444 11.30544012 15.0625 18.8125 C16.04212217 20.55812493 17.02176842 22.30373689 18.00288391 24.04852295 C19.01203839 25.84737655 20.01471303 27.64972803 21.01660156 29.45263672 C24.08862584 34.96595384 27.27018587 40.41609016 30.4375 45.875 C38.67831717 60.14507909 46.84373489 74.45816338 55.01037598 88.77075195 C57.36041657 92.88921585 59.7110209 97.00735725 62.0625 101.125 C62.39402069 101.70554138 62.72554138 102.28608276 63.06710815 102.88421631 C67.85626573 111.26877583 72.66969616 119.63907691 77.5 128 C87.39838973 145.13747147 97.2877557 162.28343221 106.9375 179.5625 C107.54815308 180.65111328 107.54815308 180.65111328 108.17114258 181.76171875 C112.50573607 189.56800498 113.1460685 197.22385591 112 206 C109.32813167 214.5786058 104.84119794 220.8060797 96.9806366 225.10417175 C89.33433685 228.56590167 82.06663513 228.53124879 73.80078125 228.42578125 C72.28283087 228.42120006 70.76487448 228.41834081 69.24691772 228.41705322 C65.13033045 228.40826075 61.01430974 228.37403108 56.89791489 228.33476639 C52.52356435 228.29709314 48.14912332 228.28206668 43.7746582 228.26342773 C33.47460607 228.21397163 23.17507705 228.12408594 12.87538147 228.02676392 C9.05778755 227.99122993 5.24017298 227.95827894 1.42255688 227.92523003 C-19.83383986 227.74017735 -41.08910558 227.5015977 -62.34416199 227.19949341 C-71.3788329 227.07163292 -80.41315672 226.96216171 -89.44841003 226.88545227 C-94.16282225 226.84303274 -98.87696125 226.78584021 -103.59115601 226.72409058 C-105.65605181 226.70017179 -107.72103332 226.68259042 -109.78604126 226.67214966 C-121.3921731 226.60946797 -131.23532497 226.33960285 -141.3125 219.875 C-148.59415558 212.08532194 -152.34504568 203.87740696 -152 193.25 C-150.64259248 181.2719974 -142.8271538 171.36364169 -136.47265625 161.453125 C-132.59322892 155.39032953 -128.82626119 149.26005214 -125.0625 143.125 C-123.69278322 140.89448526 -122.32299205 138.66401621 -120.953125 136.43359375 C-120.28732422 135.34933105 -119.62152344 134.26506836 -118.93554688 133.14794922 C-116.07068912 128.48858042 -113.19312601 123.83713203 -110.3125 119.1875 C-109.52564819 117.91737061 -109.52564819 117.91737061 -108.72290039 116.62158203 C-107.67424843 114.92914049 -106.62550233 113.23675727 -105.57666016 111.54443359 C-102.88291446 107.19723359 -100.19157322 102.8485453 -97.5 98.5 C-94.2862934 93.30788832 -91.07219597 88.11602221 -87.85546875 82.92578125 C-82.60643606 74.4543851 -77.36830474 65.97656032 -72.15136719 57.48535156 C-66.11252541 47.65731846 -60.05102166 37.84428831 -53.9375 28.0625 C-53.04538818 26.63490356 -53.04538818 26.63490356 -52.13525391 25.1784668 C-50.99659822 23.35947316 -49.85595106 21.54172434 -48.71313477 19.7253418 C-47.51298446 17.81608174 -46.31864379 15.90316317 -45.12866211 13.98754883 C-44.51643799 13.00939209 -43.90421387 12.03123535 -43.2734375 11.0234375 C-42.72478027 10.14220215 -42.17612305 9.2609668 -41.61083984 8.35302734 C-32.22217902 -5.36141839 -14.07072372 -7.79944394 0 0 Z M-25 18 C-26.75807514 20.125074 -26.75807514 20.125074 -28.20703125 22.62890625 C-28.78509521 23.56782715 -29.36315918 24.50674805 -29.95874023 25.47412109 C-30.87635132 27.00286865 -30.87635132 27.00286865 -31.8125 28.5625 C-32.79101929 30.16085693 -32.79101929 30.16085693 -33.78930664 31.79150391 C-35.17120911 34.05022126 -36.54907551 36.31088217 -37.92089844 38.57568359 C-40.57401275 42.95243876 -43.2655832 47.30533256 -45.95410156 51.66040039 C-49.31133488 57.10164744 -52.6548144 62.551341 -56 68 C-64.40074041 81.68317795 -72.82646547 95.3485707 -81.35131836 108.95483398 C-87.34153158 118.52486217 -93.25401658 128.14205337 -99.1640625 137.76171875 C-102.07762589 142.50332926 -104.99996155 147.23935561 -107.93212891 151.96948242 C-108.96989327 153.64441665 -110.00605078 155.32034762 -111.04052734 156.99731445 C-113.73843981 161.3683021 -116.45480768 165.72610573 -119.20605469 170.06378174 C-120.69657714 172.41785699 -122.17735146 174.77798374 -123.65698242 177.13891602 C-124.72439466 178.83433001 -125.80443584 180.52177216 -126.88476562 182.20898438 C-131.60850406 189.57630709 -131.60850406 189.57630709 -133 198 C-131.25771806 202.16211797 -128.71311026 204.50578827 -125 207 C-121.7018666 207.63066432 -121.7018666 207.63066432 -118.05175781 207.58959961 C-117.37031456 207.60462336 -116.68887131 207.6196471 -115.98677826 207.63512611 C-113.72545772 207.68029775 -111.46481766 207.69762864 -109.203125 207.71484375 C-107.58845244 207.7412433 -105.973807 207.76935048 -104.35919189 207.79905701 C-100.09233246 207.87296031 -95.82549572 207.92352688 -91.55825806 207.96962738 C-87.47542724 208.01810031 -83.39304647 208.09017621 -79.31054688 208.16064453 C-69.12408762 208.33074563 -58.9372532 208.45146492 -48.75 208.5625 C-47.84130409 208.57254562 -46.93260818 208.58259125 -45.99637604 208.59294128 C-16.91932485 208.91291736 12.15892182 209.1513095 41.2376709 209.23117065 C45.15219954 209.24223839 49.06660669 209.26007297 52.9810791 209.28372192 C57.57468696 209.31091881 62.16809746 209.32334576 66.7617836 209.32413673 C68.44861558 209.32676619 70.13544837 209.33447034 71.82223129 209.34760094 C74.12667729 209.36458015 76.43038077 209.36289704 78.73486328 209.35644531 C80.66955978 209.36191376 80.66955978 209.36191376 82.64334106 209.36749268 C86.24797909 208.97285083 88.11472773 208.14662701 91 206 C93.24001725 203.11997782 93.44276508 200.00749185 93.40014648 196.41088867 C92.54593565 191.26425534 89.50456674 186.9249642 86.875 182.5 C86.24335938 181.40558594 85.61171875 180.31117188 84.9609375 179.18359375 C82.99082941 175.77890299 80.99747302 172.38869372 79 169 C77.81399127 166.9693996 76.62905362 164.93817314 75.4453125 162.90625 C73.71806541 159.94330054 71.98911354 156.98144706 70.25341797 154.0234375 C66.0781076 146.89831861 62.0159208 139.71599387 58 132.5 C52.83782963 123.22554333 47.55083049 114.03372108 42.1796875 104.87890625 C37.66805551 97.17784315 33.26559171 89.41978021 28.89208984 81.63964844 C24.45384103 73.76165614 19.8989955 65.9555896 15.32055664 58.15844727 C10.31568828 49.60709665 5.47515411 40.968214 0.70532227 32.28369141 C-4.02293698 23.0890822 -4.02293698 23.0890822 -10.875 15.5625 C-16.46848048 14.08187282 -20.34616529 14.67596336 -25 18 Z " fill="#000000" transform="translate(400,269)"/>
<path d="M0 0 C0.75023437 -0.0309375 1.50046875 -0.061875 2.2734375 -0.09375 C5.91281975 0.82516379 7.30473399 2.58398182 9.625 5.5 C10.35017398 8.41427048 10.31611773 11.24572254 10.28442383 14.23754883 C10.29490753 15.10634674 10.30539124 15.97514465 10.31619263 16.87026978 C10.34492131 19.73288786 10.33865372 22.59429495 10.33203125 25.45703125 C10.34514761 27.44530247 10.36045164 29.43356037 10.37785339 31.42179871 C10.41772341 36.64805116 10.42789516 41.8739552 10.43188477 47.1003418 C10.44121238 52.43614281 10.47862363 57.77173878 10.51367188 63.10742188 C10.5782682 73.57160499 10.61149156 84.03563496 10.625 94.5 C11.44842392 94.89634895 11.44842392 94.89634895 12.28848267 95.30070496 C13.00877655 95.65288589 13.72907043 96.00506683 14.47119141 96.36791992 C15.18514069 96.71465256 15.89908997 97.06138519 16.63467407 97.41862488 C19.25911516 98.84452466 21.04509643 100.56635569 23 102.8125 C23.64710938 103.53050781 24.29421875 104.24851562 24.9609375 104.98828125 C26.97726042 108.03169824 27.68464022 110.99145874 28.625 114.5 C29.88062744 114.49782471 31.13625488 114.49564941 32.42993164 114.4934082 C44.70397329 114.47817627 56.97830495 114.47098183 69.2512207 114.65258789 C71.15216975 114.67619499 73.05325746 114.69026024 74.9543457 114.69555664 C77.76072739 114.70482333 80.56512824 114.74562113 83.37109375 114.79296875 C84.2148204 114.7890361 85.05854706 114.78510345 85.92784119 114.78105164 C91.83665064 114.92747969 94.52341286 116.2027706 98.625 120.5 C99.60310846 123.27656594 99.30920861 125.65392217 98.625 128.5 C96.5005173 131.94312714 95.47647359 133.21617547 91.625 134.5 C89.58017837 134.54926722 87.53361386 134.53488796 85.48876953 134.48657227 C84.22380646 134.4606752 82.95884338 134.43477814 81.6555481 134.40809631 C80.97988926 134.39262316 80.30423042 134.37715 79.60809708 134.36120796 C76.0242082 134.2847591 72.43985103 134.24362166 68.85546875 134.19726562 C64.29664937 134.13726759 59.73895079 134.06645895 55.18115234 133.95141602 C51.49476361 133.85929871 47.80964038 133.80649387 44.12221909 133.77992058 C42.71939118 133.76266107 41.31666212 133.73106464 39.91449356 133.68472481 C32.26919268 133.11775095 32.26919268 133.11775095 25.72259521 136.23532104 C24.35981345 138.31837404 24.35981345 138.31837404 23.48165894 140.50767517 C21.24894892 145.70027099 15.34165821 148.68820733 10.3125 150.76953125 C2.50897957 152.89054625 -6.15107034 152.65756099 -13.3515625 148.81640625 C-20.53949142 144.14008956 -25.97880866 138.9526199 -28.375 130.5 C-29.54809277 121.02871817 -29.22049756 112.46045145 -23.375 104.5 C-19.5133711 99.77624 -15.86187758 97.18364202 -10.375 94.5 C-10.36691315 93.43368851 -10.35882629 92.36737701 -10.35049438 91.26875305 C-10.27300499 81.21907761 -10.18525851 71.16953708 -10.08747292 61.12003803 C-10.03753011 55.95350644 -9.99119977 50.78699509 -9.953125 45.62036133 C-9.91624691 40.63414855 -9.86987987 35.64810598 -9.81693649 30.6620388 C-9.79840601 28.75988946 -9.78329307 26.85770365 -9.77165604 24.95549965 C-9.75477067 22.29087525 -9.72572996 19.62663953 -9.69384766 16.9621582 C-9.69168747 16.17597107 -9.68952728 15.38978394 -9.68730164 14.57977295 C-9.61089995 9.58037323 -9.07923565 5.74604468 -6.0234375 1.71875 C-3.9175037 0.16175629 -2.60491968 0.03556204 0 0 Z M-6.375 114.5 C-9.26377665 117.09989898 -9.37394942 118.4905448 -9.8125 122.4375 C-9.66759728 126.52528187 -8.33815444 128.62399716 -5.375 131.5 C-2.16040014 133.10729993 1.14888103 133.11930855 4.625 132.5 C7.58550874 130.20800597 7.58550874 130.20800597 9.625 127.5 C9.955 127.17 10.285 126.84 10.625 126.5 C11.0998585 120.80927508 11.0998585 120.80927508 9.0625 115.625 C3.80405556 111.0407151 -0.62846061 110.58190496 -6.375 114.5 Z " fill="#000000" transform="translate(212.375,105.5)"/>
<path d="M0 0 C3.41591116 0.8946434 4.9056843 2.88663027 7.1328125 5.55859375 C7.76100159 8.7144928 7.76100159 8.7144928 7.76391602 12.30493164 C7.77107132 12.9624794 7.77822662 13.62002716 7.78559875 14.29750061 C7.80243494 16.45946867 7.78311957 18.6193481 7.76171875 20.78125 C7.76254784 22.28909984 7.76500874 23.7969496 7.76902771 25.30479431 C7.77188205 28.45974032 7.75721976 31.61397494 7.72973633 34.76879883 C7.69562364 38.80987922 7.70168424 42.84969045 7.7203989 46.89083195 C7.73097316 50.00246232 7.72202795 53.11379795 7.70701408 56.22540092 C7.70183683 57.7153174 7.70230857 59.20526472 7.70855904 60.69517708 C7.71401808 62.77800715 7.69362042 64.85902677 7.66625977 66.94165039 C7.66006119 68.12569962 7.65386261 69.30974884 7.6474762 70.52967834 C7.0302133 74.16241386 5.98661422 75.30882476 3.1328125 77.55859375 C-0.34445478 79.29722739 -4.17426724 78.44624981 -7.8671875 77.55859375 C-10.81303851 74.79685843 -11.79557772 71.92211279 -12.00762939 67.88444519 C-12.0144574 66.80778091 -12.0212854 65.73111664 -12.02832031 64.62182617 C-12.03792786 63.40013229 -12.0475354 62.17843842 -12.05743408 60.91972351 C-12.0622826 59.58450508 -12.06656129 58.24928447 -12.0703125 56.9140625 C-12.07606728 55.54266865 -12.08182497 54.17127481 -12.08758545 52.79988098 C-12.09808672 49.92411933 -12.10393487 47.04838555 -12.10742188 44.17260742 C-12.11290021 40.49735363 -12.13691732 36.82247151 -12.16539383 33.1473341 C-12.18406929 30.313654 -12.18922844 27.48006249 -12.19075775 24.64632607 C-12.19523666 22.63560823 -12.21386021 20.6249379 -12.23272705 18.61430359 C-12.22972595 17.38315323 -12.22672485 16.15200287 -12.22363281 14.88354492 C-12.22727844 13.80449387 -12.23092407 12.72544281 -12.23468018 11.61369324 C-11.80203975 8.01699693 -10.74816755 5.64196219 -8.8671875 2.55859375 C-5.69899994 0.44646871 -3.73499498 0.22702911 0 0 Z " fill="#000000" transform="translate(381.8671875,336.44140625)"/>
<path d="M0 0 C2.69990662 1.79993774 4.5418865 3.083773 6 6 C6.78377494 12.64504843 4.48811227 16.70154919 1.25 22.25 C0.8065625 23.05179688 0.363125 23.85359375 -0.09375 24.6796875 C-2.33026071 28.61331516 -4.06382214 31.57929671 -8 34 C-13.00037064 34.6349677 -14.86484175 34.84533061 -18.9375 31.8125 C-21.08270279 28.88722346 -22 27.60082546 -22 24 C-20.05872657 19.04432682 -17.72551914 14.38876387 -15.125 9.75 C-14.79886719 9.13898438 -14.47273438 8.52796875 -14.13671875 7.8984375 C-10.78499149 1.92532043 -6.98034738 -1.01796733 0 0 Z " fill="#000000" transform="translate(302,70)"/>
<path d="M0 0 C3.25415498 2.40524498 4.69571685 4.10616823 6 7.9375 C6 11.90613603 5.14412537 13.64198264 3 17 C0.46991055 19.11896812 -2.26624767 20.73789443 -5.125 22.375 C-5.846875 22.82488281 -6.56875 23.27476562 -7.3125 23.73828125 C-12.40923817 26.72195893 -17.07809598 28.20928876 -23 27 C-26.38522723 24.35952276 -27.64784296 22.97560101 -28.390625 18.80859375 C-28.36617115 15.19553716 -27.8983248 12.89626442 -25.296875 10.30078125 C-22.93778299 8.68420921 -20.52595319 7.34052779 -18 6 C-17.07703125 5.43925781 -16.1540625 4.87851562 -15.203125 4.30078125 C-5.79379717 -1.27463538 -5.79379717 -1.27463538 0 0 Z " fill="#000000" transform="translate(83,296)"/>
<path d="M0 0 C4.22261181 3.59828288 6.75857513 7.54822739 9.3125 12.375 C9.67150391 13.00921875 10.03050781 13.6434375 10.40039062 14.296875 C12.74041192 18.66491474 13.51826662 21.94073059 13 27 C10.95572441 30.76146709 9.74657034 31.77879397 5.625 33 C1.30668811 33 -0.37860864 32.34298562 -4 30 C-6.115442 27.44617725 -7.7373506 24.6895185 -9.375 21.8125 C-9.82488281 21.08224609 -10.27476563 20.35199219 -10.73828125 19.59960938 C-13.72811079 14.46964349 -14.65685283 10.93080712 -14 5 C-10.2579255 -1.06474143 -6.76283593 -1.63240867 0 0 Z " fill="#000000" transform="translate(132,71)"/>
<path d="M0 0 C4.63235294 2.26470588 4.63235294 2.26470588 6 5 C7.17241954 11.9172753 5.3095359 15.99280593 1.8125 21.8125 C1.42594238 22.45856201 1.03938477 23.10462402 0.64111328 23.77026367 C-1.77593907 27.59618345 -4.16417824 30.46371196 -8 33 C-11.53280906 33.51520132 -13.47573928 33.22638531 -16.75 31.8125 C-19.44185152 29.64406405 -20.21914023 28.35769699 -21 25 C-20.64769858 19.23428648 -18.08654521 15.08588944 -15.1875 10.25 C-14.52911133 9.09951172 -14.52911133 9.09951172 -13.85742188 7.92578125 C-13.42365234 7.19230469 -12.98988281 6.45882813 -12.54296875 5.703125 C-12.15133545 5.03958008 -11.75970215 4.37603516 -11.35620117 3.69238281 C-8.30082112 -0.12037948 -4.67062441 -0.47659433 0 0 Z " fill="#000000" transform="translate(139,352)"/>
<path d="M0 0 C2.51666056 2.12948202 3.71851452 3.6855159 4.4140625 6.93359375 C4.69846734 10.89280853 4.57197254 12.32740267 1.890625 15.48046875 C-1.16466242 18.14352332 -4.31434888 20.29771788 -7.8125 22.3125 C-8.39064453 22.67150391 -8.96878906 23.03050781 -9.56445312 23.40039062 C-14.34288777 26.17241072 -17.64317882 26.47068303 -23 26 C-25.9375 24.4375 -25.9375 24.4375 -28 22 C-29.06717843 18.33157413 -29.36474142 16.0681713 -28.125 12.4375 C-24.93039369 8.77309864 -21.16486936 6.45785049 -17 4 C-15.72962891 3.24396484 -15.72962891 3.24396484 -14.43359375 2.47265625 C-9.35811653 -0.32466784 -5.76997755 -2.07719192 0 0 Z " fill="#000000" transform="translate(366,134)"/>
<path d="M0 0 C7.77435639 0.10145979 16.32035457 6.13925466 21.96142578 11.15307617 C24.07995807 13.55910715 24.18859577 15.52794203 24.3125 18.6875 C22.78376129 22.66222063 21.88469503 24.30603665 18.3125 26.6875 C12.01307711 27.29372061 8.36552378 26.24602369 3.0625 22.9375 C2.464375 22.58945313 1.86625 22.24140625 1.25 21.8828125 C-3.54986163 19.01563852 -7.12387696 16.7541178 -8.625 11.25 C-8.69485492 7.26826972 -8.08456001 5.79480001 -5.6875 2.6875 C-3.6875 0.6875 -3.6875 0.6875 0 0 Z " fill="#000000" transform="translate(64.6875,133.3125)"/>
<path d="M0 0 C3.13836313 2.02685952 4.65870267 3.45297192 5.4765625 7.16015625 C5.74267565 11.35493981 5.33198013 13.49165543 3 17.0625 C-0.32473316 19.2097235 -2.18032278 19.74883437 -6.06640625 19.484375 C-9.50163404 18.62383309 -10.98605167 16.80732192 -13 14 C-14.30400002 10.16949995 -14.20871714 8.54266456 -12.75 4.75 C-9.55674481 -0.26797245 -5.62372858 -1.02846398 0 0 Z " fill="#000000" transform="translate(384,433)"/>
</svg>
