<svg xmlns="http://www.w3.org/2000/svg" width="512" height="512"><path fill="#F34336" d="M60.648 63.492q2.64-.007 5.278-.019c4.803-.016 9.605-.008 14.408.004 5.191.01 10.383-.005 15.574-.016 10.159-.018 20.316-.014 30.475-.002q12.387.013 24.774.006l3.566-.002 7.172-.004c22.402-.011 44.804.002 67.206.023q28.813.026 57.626-.003a44369 44369 0 0 1 74.116-.014l3.551.002q12.367.003 24.735-.012 15.08-.018 30.157.013c5.126.01 10.252.015 15.377.001q7.047-.017 14.094.016 2.54.008 5.08-.007c16.886-.09 30.788 3.447 43.413 15.272 11.033 11.779 15.386 25.082 15.258 41.04l.019 3.692c.013 3.344.008 6.687-.004 10.03-.01 3.621.005 7.242.016 10.863.018 7.078.014 14.156.002 21.234q-.013 8.634-.006 17.268l.002 2.49.004 5.008c.011 15.626-.002 31.253-.023 46.879q-.026 20.08.003 40.16a21587 21587 0 0 1 .012 54.187q-.003 8.618.012 17.233.018 10.511-.013 21.023c-.01 3.57-.015 7.14-.001 10.71.014 3.882-.003 7.763-.023 11.644l.027 3.372c-.145 14.633-5.332 27.13-15.41 37.73-7.204 6.76-14.698 10.792-24.125 13.687l-1.71.54c-3.16.635-6.184.588-9.407.591l-2.185.007q-3.642.006-7.284.002l-5.26.01q-7.244.011-14.487.01-7.806.005-15.612.016-17.077.02-34.153.024l-21.322.012q-29.51.019-59.02.026h-7.644l-7.675.002h-3.846q-30.844.009-61.69.046-31.659.035-63.319.037-17.779-.001-35.557.025-15.14.023-30.28.012c-5.15-.004-10.3-.003-15.449.011q-7.074.019-14.15 0-2.555-.004-5.111.01c-8.684.04-16.65-.093-24.839-3.381l-2.742-1c-12.713-5.96-22.666-16.728-27.57-29.813-1.674-4.893-2.812-9.112-2.82-14.305l-.011-3.151.003-3.458-.01-3.677q-.01-5.054-.01-10.107c-.002-3.634-.01-7.267-.016-10.9q-.02-11.92-.024-23.84l-.012-14.89q-.019-20.616-.026-41.233v-5.337l-.003-8.047q-.008-21.533-.045-43.065-.035-22.114-.037-44.227.001-12.413-.025-24.827-.023-10.572-.012-21.145.008-5.391-.011-10.782c-.015-3.902-.007-7.805.004-11.707l-.025-3.417C-.349 109.222.637 103.43 3 97l1-2.742c5.774-12.315 16.243-22.21 28.773-27.408 9.353-3.16 18.141-3.414 27.875-3.358"/><path fill="#F9F9F9" d="M426 191h1l.013 3.893a245958 245958 0 0 0 .36 102.699l.008 2.262q.065 18.144.124 36.289.06 18.611.132 37.222.045 11.49.078 22.977.027 8.803.065 17.605.015 3.616.023 7.232.014 4.924.039 9.849l.003 2.912.016 2.663.008 2.297c.137 2.191.384 4.032 1.131 6.1 2.49 1.297 2.49 1.297 5 2v1H77c4-3 4-3 6-3 .815-2.862 1.128-5.409 1.139-8.38l.016-2.653.003-2.901.015-3.092q.022-5.142.032-10.286l.03-7.36q.033-7.933.056-15.865.035-11.467.08-22.936.071-18.607.132-37.213.058-18.075.125-36.15l.008-2.25.041-11.178q.17-46.368.323-92.736c3.147 1.226 5.865 2.423 8.61 4.398l2.01 1.434c.702.51 1.406 1.018 2.13 1.543l4.578 3.273 2.354 1.69c3.592 2.575 7.205 5.118 10.818 7.662l6.375 4.5 93.502 66.001 4.23 2.986q6.594 4.653 13.176 9.32 3.226 2.28 6.463 4.545a257 257 0 0 1 6.54 4.734c3.766 2.752 7.113 5.052 12.019 4.61 4.68-1.483 8.498-4.515 12.416-7.395a344 344 0 0 1 5.732-4.082c3.624-2.538 7.234-5.094 10.841-7.655 3.564-2.528 7.135-5.045 10.706-7.564l4.25-3 95.629-67.503q2.106-1.486 4.21-2.973 5.609-3.96 11.224-7.91l2.376-1.675 4.543-3.195c3.276-2.197 3.276-2.197 6.268-4.744"/><path fill="#ECEEF0" d="M56 64h399c-17.054 13.643-34.72 26.495-52.443 39.248-5.535 3.992-11.006 8.06-16.455 12.167-7.515 5.661-15.098 11.23-22.679 16.803Q357.46 136.605 351.5 141l-4.75 3.5-2.375 1.75-47.503 35.002-4.723 3.48q-6.142 4.526-12.286 9.05l-2.562 1.886-4.809 3.539-2.222 1.637-2.154 1.57a117 117 0 0 0-4.267 3.36l-2.087 1.695-1.834 1.545c-1.928.986-1.928.986-4.415.811-2.611-.857-4.307-1.837-6.49-3.493l-2.252-1.686-2.396-1.833q-2.566-1.929-5.133-3.856l-2.641-1.998c-4.01-3.02-8.055-5.988-12.101-8.959l-4.75-3.5-2.375-1.75L93.872 91.748l-4.72-3.476q-6.176-4.544-12.324-9.124l-2.576-1.914a1517 1517 0 0 1-4.848-3.617C65.077 70.407 60.738 67.57 56 65z"/><path fill="#CFD7DB" d="M426 191h1l.013 3.893a245958 245958 0 0 0 .36 102.699l.008 2.262q.065 18.144.124 36.289.06 18.611.132 37.222.045 11.49.078 22.977.027 8.803.065 17.605.015 3.616.023 7.232.014 4.924.039 9.849l.003 2.912.016 2.663.008 2.297c.137 2.191.384 4.032 1.131 6.1 2.49 1.297 2.49 1.297 5 2v1H77c4-3 4-3 6-3 .815-2.862 1.128-5.409 1.139-8.38l.016-2.653.003-2.901.015-3.092q.022-5.142.032-10.286l.03-7.36q.033-7.933.056-15.865.035-11.467.08-22.936.071-18.607.132-37.213.058-18.075.125-36.15l.008-2.25.041-11.178q.17-46.368.323-92.736h1v239c12.262-8.408 12.262-8.408 24.438-16.937l6.42-4.547c3.545-2.51 7.094-5.012 10.642-7.516l4.25-3 93.5-66 2.128-1.503q2.108-1.487 4.22-2.966a424 424 0 0 0 11.074-8.023l2.322-1.715a267 267 0 0 0 4.387-3.313c4.887-3.58 4.887-3.58 8.119-3.136L260 314l1.702 1.117c2.05 1.377 4.049 2.81 6.048 4.258l4.578 3.273 2.354 1.69c3.592 2.575 7.205 5.118 10.818 7.662l4.25 3 2.125 1.5 93.501 66 4.24 2.993a11850 11850 0 0 1 17.062 12.06c6.409 4.53 12.868 8.979 19.322 13.447z"/><path fill="#EDEDED" d="M426 192v239c-4.506-1.803-7.772-3.865-11.562-6.75a680 680 0 0 0-18.313-13.187l-2.572-1.794-5.101-3.557c-3.722-2.6-7.432-5.217-11.14-7.837l-6.235-4.407Q365.79 389.732 360.5 386l-4.25-3-2.125-1.5-59.501-42-4.24-2.993q-5.39-3.804-10.775-7.612l-2.191-1.55q-2.145-1.515-4.287-3.034a565 565 0 0 0-10.088-6.995l-1.85-1.255a1125 1125 0 0 0-4.947-3.319L254 311v-2l3.504-.664c4.93-1.24 8.41-3.69 12.433-6.711l4.497-3.273 2.296-1.69c3.556-2.603 7.164-5.13 10.77-7.662l4.25-3 93.5-66 2.127-1.501 4.233-2.988 10.886-7.687q5.32-3.756 10.64-7.508a2743 2743 0 0 0 5.118-3.625L421 194.75l2.313-1.64C425 192 425 192 426 192"/></svg>