<svg xmlns="http://www.w3.org/2000/svg" width="512" height="512"><path fill="#DDEAF4" d="M137.912-.407c3.482.005 6.964-.008 10.446-.018 6.802-.017 13.603-.018 20.404-.013a9795 9795 0 0 0 19.004-.005l4.825-.004c15.043-.014 30.087-.009 45.13.003 13.721.01 27.442-.003 41.162-.027q21.203-.037 42.404-.027c7.917.003 15.834.001 23.751-.017q10.11-.022 20.221.002c3.43.009 6.859.011 10.288-.004 18.591-.067 36.7.825 54.203 7.704l2.334.894c31.203 12.376 56.479 37.2 70.037 67.824 1.533 3.653 2.904 7.349 4.192 11.095l.698 2.007c5.236 16.187 5.435 32.046 5.396 48.905-.005 3.482.008 6.964.018 10.446.017 6.802.018 13.603.013 20.404q-.006 8.302.002 16.606l.003 2.398.004 4.825c.014 15.043.009 30.087-.003 45.13-.01 13.721.003 27.442.027 41.162q.037 21.203.027 42.404c-.003 7.917-.001 15.834.017 23.751q.022 10.11-.002 20.221c-.009 3.43-.011 6.859.004 10.288.067 18.591-.825 36.7-7.704 54.203l-.894 2.334C494.047 456.973 475.88 479.037 453 493l-3.25 2.07c-6.388 3.89-12.89 7.008-19.875 9.68l-2.073.817c-18.315 6.642-36.934 7.014-56.193 6.95q-4.212.007-8.423.022c-6.788.017-13.575.014-20.362.002a6821 6821 0 0 0-18.968-.004l-4.822.004c-15.017.011-30.034-.002-45.05-.023q-19.264-.026-38.527.003a19934 19934 0 0 1-49.71.014l-2.386-.002q-8.26-.003-16.521.012-10.089.018-20.177-.013c-3.422-.01-6.842-.013-10.264-.001-21.374.063-40.712-1.88-60.399-10.531l-1.982-.858c-30.095-13.286-53.802-38.864-65.89-69.338A246 246 0 0 1 5.689 425l-.699-2.007c-5.236-16.187-5.435-32.046-5.396-48.905.005-3.482-.008-6.964-.018-10.446-.017-6.802-.018-13.603-.013-20.404q.006-8.302-.002-16.606l-.003-2.398-.004-4.825c-.014-15.043-.009-30.087.003-45.13.01-13.721-.003-27.442-.027-41.162q-.037-21.203-.027-42.404c.003-7.917.001-15.834-.017-23.751q-.022-10.11.002-20.221c.009-3.43.011-6.859-.004-10.288-.067-18.591.825-36.7 7.705-54.203l.893-2.334c12.376-31.203 37.2-56.479 67.824-70.037C79.558 8.346 83.254 6.975 87 5.687l2.007-.698c16.187-5.236 32.046-5.435 48.905-5.396"/><path fill="#DDEAF4" d="M391 0c31.221-.779 60.879 14.54 83.045 35.594 22.924 22.389 37.582 53.108 38.307 85.368.24 33.427-8.66 65.935-31.364 91.284A132 132 0 0 1 476 217l-2.312 2.375L471 222l-1.969 1.957C456.963 235.442 433.408 252 416 252l.063 2.006c1.228 45.15-11.898 87.23-42.823 120.68C352.32 396.66 322.684 411.534 293 417l-3.648.684C268.85 420.748 245.126 421.15 225 416q-2.244-.501-4.488-.996C191.553 408.324 166.454 393.26 145 373l-2.418-2.223c-17.01-16.198-28.723-36.609-36.739-58.496a233 233 0 0 0-2.308-5.933c-13.548-35.95-9.936-78.865 4.84-113.766 5.05-11.13 10.398-21.67 17.625-31.582l1.198-1.646c25.768-35.051 64.417-58.636 107.439-65.49 7.916-1.06 15.768-1.263 23.738-1.239l2.24.004c31.81.14 60.072 9.054 87.135 25.558l2.025 1.225c5.063 3.186 9.019 6.875 11.225 12.588.23 2.254.23 2.254.188 4.563l-.02 2.316C361 141 361 141 360 144q6.934-.105 13.867-.262 2.35-.05 4.701-.084c21.29-.32 40.306-5.793 56.12-20.779C442.63 114.604 448.457 104.903 452 94l.902-2.582c5.614-18.498 2.075-37.712-6.49-54.632-9.098-16.731-24.818-27.877-42.724-33.598C399.475 2.016 395.35 1.403 391 1z"/><path fill="#EFF9FE" d="M139.237-.372q4.098-.003 8.195-.011a6066 6066 0 0 1 19.842.009c7.717.014 15.434.012 23.151.01q20.663-.003 41.325.028 20.01.029 40.022.02a36530 36530 0 0 1 48.354.01l2.317.001q8.054.006 16.108.002 9.82-.004 19.64.017 5.003.012 10.006.007c3.625-.003 7.25.006 10.876.018l3.15-.011C403.483-.146 420.866 7.164 436 22l2.125 2.016c12.341 12.63 18.178 30.821 18.312 48.171-.094 7.609-.861 14.602-3.437 21.813l-1.066 3.004c-7.01 18.111-19.39 31.927-36.868 40.422-13.019 5.74-24.808 6.996-38.816 6.761a2649 2649 0 0 0-4.75-.04c-3.834-.033-7.667-.085-11.5-.147l.176-2.344c.268-6.193.226-10.83-3.526-15.922-3.058-3.214-6.544-5.472-10.338-7.734l-2.534-1.55c-8.274-4.943-16.804-8.96-25.778-12.45l-2.149-.85C288.218 92.424 253.885 89.606 225 97q-2.244.501-4.488.996C190.592 104.903 164.857 120.764 143 142l-1.688 1.617c-4.136 4.029-7.749 8.248-11.187 12.883l-1.573 2.084a101 101 0 0 0-7.887 12.435c-4.552 8.4-9.647 12.267-17.864 16.905-3.019 1.804-5.78 3.917-8.551 6.076l-1.625 1.264c-4.286 3.384-8.363 6.97-12.375 10.673-1.978 1.814-4.002 3.533-6.063 5.25C40.84 240.36 19.271 282.814 8 325l-.922 3.387C3.605 342.224 1.854 356.768 1 371H0a64818 64818 0 0 1-.22-109.558l-.003-2.331c-.017-12.419-.049-24.837-.086-37.256q-.056-19.146-.067-38.294-.008-11.792-.056-23.584c-.024-6.053-.026-12.105-.02-18.157q-.003-3.697-.025-7.396C-.583 116.544.576 99.073 7.187 82.25l.894-2.334c12.376-31.203 37.2-56.479 67.824-70.037C79.558 8.346 83.254 6.975 87 5.687l2.007-.698c16.623-5.377 32.929-5.415 50.23-5.361"/><path fill="#CCDBEA" d="M511 137h1a66452 66452 0 0 1 .22 111.267l.003 2.368c.017 12.612.049 25.224.086 37.837q.056 19.445.067 38.89.008 11.978.056 23.954c.024 6.146.026 12.292.02 18.438q.003 3.756.025 7.512c.105 17.991-1.011 35.555-7.664 52.484l-.894 2.334C494.047 456.973 475.88 479.037 453 493l-3.25 2.07C421.117 512.502 386.477 516.387 354 509c-22.83-5.845-41.912-16.833-59-33l-2.496-2.3C277.394 459.296 267.24 440.79 261 421l-8-1v-1l1.778-.044C294.44 417.866 332.044 409.178 363 383l3.043-2.547C382.951 365.877 394.123 347.24 403 327l1.508-3.266C414.056 301.28 415.49 276.011 416 252l1.69-.607c36.655-13.284 64.813-33.932 82.001-69.936C506.154 166.863 509.062 152.74 511 137"/><path fill="#00B450" d="m275.28 226.853 3.395-.022 3.742-.008 3.927-.02c4.306-.021 8.612-.031 12.918-.041l4.448-.013q10.45-.029 20.902-.041 12.058-.015 24.115-.077 9.322-.044 18.645-.048c3.711-.002 7.422-.011 11.133-.036 4.144-.028 8.287-.024 12.431-.017l3.711-.039c6.678.041 10.945.47 16.353 4.509 1.523 1.676 1.523 1.676 2.375 3.312l.898 1.614c10.446 29.82-1.388 72.738-14.21 99.89-17.963 36.88-49.209 63.008-87.808 76.445-6.317 2.07-12.722 3.536-19.255 4.739l-3.648.684C268.85 420.748 245.126 421.15 225 416q-2.244-.501-4.488-.996C191.553 408.324 166.454 393.26 145 373l-2.418-2.223C130.214 359 121.285 344.81 113 330c3.817-4.03 7.898-7.295 12.375-10.563 5.525-4.085 10.965-8.247 16.313-12.562 4.758-3.835 9.536-7.64 14.375-11.375l3.035-2.344c2.91-2.162 5.868-4.173 8.902-6.156l1.285 3.113C180.327 316.41 197.74 335.51 224 347c25.025 10.1 52.176 9.309 76.832-1.117C310.936 341.41 319.183 335.817 327 328l1.93-1.93c9.55-10.23 15.455-23.403 18.07-37.07l-2.907.047q-13.594.213-27.188.316c-4.66.036-9.318.086-13.976.165-4.5.076-9 .118-13.5.136q-2.569.02-5.138.076c-15.087.32-15.087.32-20.281-3.908-4.954-5.551-5.32-11.093-5.31-18.3l-.014-2.42q-.008-2.522-.002-5.043c.003-2.561-.02-5.121-.045-7.682q-.004-2.46-.002-4.918l-.028-2.302c.047-5.508 1.112-9.726 4.926-13.812 4.326-3.307 6.346-4.479 11.746-4.502"/><path fill="#E60114" d="m258.375 92.625 2.24.004c31.81.14 60.072 9.054 87.135 25.558l2.025 1.225c5.082 3.198 8.973 6.877 11.225 12.588.336 2.148.336 2.148.375 4.375l.086 2.21c-1.14 5.973-6.166 10.428-10.328 14.583l-1.689 1.701a1164 1164 0 0 1-3.525 3.527 955 955 0 0 0-5.345 5.391l-3.441 3.443c-.525.535-1.05 1.07-1.592 1.62-4.265 4.213-8.852 7.507-14.978 7.9-5.856-.15-10.056-3.137-14.83-6.185C290.53 160.875 271.902 156.768 254 158l-3.633.25c-21.29 2.17-40.6 11.404-56.367 25.75l-2.133 1.887c-14.706 13.754-27.035 36.713-28.012 57.152q-.038 5.512-.042 11.024l-.038 3.818c-.013 8.539.448 16.946 2.824 25.199.46 1.783.46 1.783.401 4.92-1.928 2.57-4.352 4.311-6.937 6.188l-2.2 1.687A503 503 0 0 1 151 301a2193 2193 0 0 0-4.102 3.086 950 950 0 0 1-5.944 4.446c-5.398 4.003-10.643 8.176-15.82 12.46-3.852 3.145-7.756 5.643-12.134 8.008-19.09-41.454-23.057-85.742-7.555-129.18 5.321-13.752 11.857-26.89 20.555-38.82l1.198-1.646c25.768-35.051 64.417-58.636 107.439-65.49 7.916-1.06 15.768-1.263 23.738-1.239"/><path fill="#1E78FE" d="m275.28 226.853 3.395-.022 3.742-.008 3.927-.02c4.306-.021 8.612-.031 12.918-.041l4.448-.013q10.45-.029 20.902-.041 12.058-.015 24.115-.077 9.322-.044 18.645-.048c3.711-.002 7.422-.011 11.133-.036 4.144-.028 8.287-.024 12.431-.017l3.711-.039c6.678.041 10.945.47 16.353 4.509 1.523 1.676 1.523 1.676 2.375 3.312l.898 1.614c10.446 29.82-1.388 72.738-14.21 99.89-6.89 14.146-15.54 26.298-26 37.996l-1.396 1.583c-1.16 1.263-2.408 2.442-3.667 3.605-4.094 0-5.367-1.587-8.562-4.125l-3.504-2.758-1.911-1.516c-3.655-2.892-7.342-5.743-11.023-8.601l-4.613-3.59C327.35 348.993 327.35 348.993 315 340a299 299 0 0 1 7.832-7.656C335.349 320.514 343.789 306.042 347 289l-2.907.047q-13.594.213-27.188.316c-4.66.036-9.318.086-13.976.165-4.5.076-9 .118-13.5.136q-2.569.02-5.138.076c-15.087.32-15.087.32-20.281-3.908-4.954-5.551-5.32-11.093-5.31-18.3l-.014-2.42q-.008-2.522-.002-5.043c.003-2.561-.02-5.121-.045-7.682q-.004-2.46-.002-4.918l-.028-2.302c.047-5.508 1.112-9.726 4.926-13.812 4.326-3.307 6.346-4.479 11.746-4.502"/><path fill="#FEB301" d="M113 183c5.268 2.634 9.492 5.987 13.966 9.804 4.83 4.093 9.863 7.875 14.947 11.645a539 539 0 0 1 15.395 11.898c3.459 2.752 6.988 5.25 10.692 7.653l-.875 2.48c-2.874 9.471-3.51 18.376-3.5 28.27l-.004 3.692c.1 8.308.672 16.614 2.977 24.64.46 1.781.46 1.781.402 4.918-1.928 2.57-4.352 4.311-6.937 6.188l-2.2 1.687A503 503 0 0 1 151 301a2193 2193 0 0 0-4.102 3.086 950 950 0 0 1-5.944 4.446c-5.398 4.003-10.643 8.176-15.82 12.46-3.852 3.145-7.756 5.643-12.134 8.008-19.054-41.377-23.372-86.238-7.379-129.531A176 176 0 0 1 113 183"/><path fill="#CADAEA" d="M272 289h75c-2.37 18.954-12.409 34.857-27 47-18.753 14.163-41.93 19.567-65 19v-1h5l.227-1.66C264.15 328.682 278.96 307.215 296 291l-24-1z"/></svg>