<svg xmlns="http://www.w3.org/2000/svg" width="512" height="512" style="shape-rendering:geometricPrecision;text-rendering:geometricPrecision;image-rendering:optimizeQuality;fill-rule:evenodd;clip-rule:evenodd"><path fill="#2c3c65" d="M364.5 134.5q-6.391 3.45-13 .5l-83-83q-32.23-21.751-63 2L21 238.5q-9.828 12.79-2 27 13.789 13.922 30.5 3.5a24578 24578 0 0 1 187-186q4.379-.828 8 2l66.5 66.5q3.08 6.17-.5 12-6.468 2.54-12-1.5a5045 5045 0 0 0-60-59.5 15065 15065 0 0 0-146 146q-14.5 13.5-28 28a9313 9313 0 0 0-1 193q39.258.497 78-1v-140q3.337-15.095 18-20.5 45.5-1 91 0 14.446 3.444 19.5 17.5.75 56.999.5 114v30q39.503-.25 79 .5 1.375.561 2.5 1.5 1.353 3.64 2.5 7-1.161 4.913-6 6.5-172 1-344 0a27.3 27.3 0 0 1-5-3.5v-8q1.869-3.601 6-4.5 20.994-.75 42-.5v-180q-35.81 6.613-48-27v-16q2.653-9.154 8.5-17L195.5 41q40.769-29.816 83-2a4984 4984 0 0 1 84.5 83.5q3.86 5.647 1.5 12" style="opacity:.992"/><path fill="#f07cac" d="m364.5 134.5 13 14q-31.071 5.527-56 25l-11-10q3.58-5.83.5-12L244.5 85q-3.621-2.828-8-2a24578 24578 0 0 0-187 186q-16.71 10.422-30.5-3.5-7.828-14.21 2-27L205.5 54q30.77-23.751 63-2l83 83q6.609 2.95 13-.5" style="opacity:.999"/><path fill="#c8d7ee" d="m310.5 163.5 11 10q-54.196 46.839-38.5 117a688.7 688.7 0 0 0 46 107q12.787 23.581 25.5 47-42.207 3.874-84-5 .25-57.001-.5-114-5.054-14.056-19.5-17.5a2070 2070 0 0 0-91 0q-14.663 5.405-18 20.5a359 359 0 0 0-1.5 27q-37.574-47.166-47.5-107a15065 15065 0 0 1 146-146 5045 5045 0 0 1 60 59.5q5.532 4.04 12 1.5" style="opacity:1"/><path fill="#2d3d65" d="M511.5 249.5v25q-8.661 38.227-25.5 74a1765 1765 0 0 1-64 122q-14.445 19.482-37.5 12.5-4.337-1.911-8-4.5a52.6 52.6 0 0 1-8.5-11 581 581 0 0 0-13.5-23q-12.713-23.419-25.5-47a688.7 688.7 0 0 1-46-107q-15.696-70.161 38.5-117 24.929-19.473 56-25 78.12-8.061 119.5 58 10.756 20.522 14.5 43" style="opacity:.991"/><path fill="#fdd67f" d="M464.5 191.5q-.895.353-1 1.5 8.77 27.135 5 55.5-8.331-36.111-42-52.5-52.368-20.47-89.5 21.5-29.4 42.918-3 88 44.194 52.987 104.5 19a1477 1477 0 0 1-59.5 111q-3.129 3.891-7.5 6-42.006-69.518-70.5-146-22.139-76.444 44.5-119.5 51.42-25.705 102 2a124.6 124.6 0 0 1 17 13.5" style="opacity:1"/><path fill="#2e3e66" d="M468.5 248.5q6.597 46.77-30 76-60.306 33.987-104.5-19-26.4-45.082 3-88 37.132-41.97 89.5-21.5 33.669 16.389 42 52.5" style="opacity:1"/><path fill="#fcca4d" d="M464.5 191.5q42.082 41.535 26.5 99a693 693 0 0 1-42 97 2097 2097 0 0 1-42 76q-9.296 8.406-20.5 2.5a131.5 131.5 0 0 1-15-24.5q4.371-2.109 7.5-6a1477 1477 0 0 0 59.5-111q36.597-29.23 30-76 3.77-28.365-5-55.5.105-1.147 1-1.5" style="opacity:1"/><path fill="#fefefe" d="M382.5 205.5q53.25-5.271 70.5 45 6.189 54.915-46.5 70.5-53.711 5.272-68.5-46.5-4.92-52.187 44.5-69" style="opacity:1"/><path fill="#b1cae9" d="M92.5 248.5q9.926 59.834 47.5 107 .255-13.764 1.5-27v140h-77v-192q13.5-14.5 28-28" style="opacity:1"/><path fill="#60759a" d="M64.5 276.5v192h77a1522 1522 0 0 1-78 1 9313 9313 0 0 1 1-193" style="opacity:1"/><path fill="#44c7f4" d="M254.5 329.5v139h-97v-139q1.054-3.324 4-5.5a1980 1980 0 0 1 89 0q2.946 2.176 4 5.5" style="opacity:1"/><path fill="#3987b2" d="M157.5 329.5v139h97v-139a4900 4900 0 0 1 1 140h-99q-.498-70.254 1-140" style="opacity:1"/><path fill="#2b3d66" d="M170.5 384.5q5.889-.68 9.5 4 1 9 0 18-7.744 8.343-14-1a72.5 72.5 0 0 1 0-17q2.095-2.356 4.5-4" style="opacity:1"/><path fill="#afc8e7" d="M270.5 439.5q41.793 8.874 84 5a581 581 0 0 1 13.5 23 52.6 52.6 0 0 0 8.5 11h-22a275 275 0 0 0-2.5-7 9.5 9.5 0 0 0-2.5-1.5q-39.497-.75-79-.5z" style="opacity:.995"/></svg>