<?xml version="1.0" encoding="UTF-8"?>
<svg version="1.1" xmlns="http://www.w3.org/2000/svg" width="512" height="512">
<path d="M0 0 C9.9017087 7.49361315 16.80051053 17.30880887 18.6875 29.75 C19.94240234 29.7185791 19.94240234 29.7185791 21.22265625 29.68652344 C24.36112309 29.61788034 27.49920416 29.56797437 30.63818359 29.53027344 C32.65097627 29.50053955 34.66342134 29.44968271 36.67578125 29.3984375 C45.230152 29.31246392 51.35768807 29.5434275 57.74609375 35.75 C58.20113281 36.41 58.65617188 37.07 59.125 37.75 C59.59808594 38.41 60.07117188 39.07 60.55859375 39.75 C62.81555272 43.74848786 62.79929514 47.46484683 62.75 52 C62.74097656 53.07765625 62.73195313 54.1553125 62.72265625 55.265625 C62.70525391 56.49539062 62.70525391 56.49539062 62.6875 57.75 C63.28725647 57.74111755 63.88701294 57.73223511 64.50494385 57.7230835 C70.80007302 57.63394603 77.09502022 57.57399292 83.390625 57.53027344 C85.73379815 57.51027389 88.07692214 57.48306523 90.41992188 57.44824219 C93.80611371 57.39920875 97.19164041 57.37691379 100.578125 57.359375 C101.60987854 57.33872986 102.64163208 57.31808472 103.70465088 57.29681396 C115.32223914 57.29330447 125.28427794 60.58066483 133.6875 68.75 C143.28213026 79.07442316 144.80411602 91.02629907 144.89282227 104.5625 C144.90272186 105.50976456 144.91262146 106.45702911 144.92282104 107.43299866 C144.95420293 110.53864106 144.97910052 113.64429871 145.00390625 116.75 C145.02449595 118.91333393 145.04549293 121.07666403 145.06687927 123.23999023 C145.12189182 128.91490556 145.17139235 134.58985593 145.21972656 140.26483154 C145.2700942 146.06330458 145.32570036 151.86172716 145.38085938 157.66015625 C145.48818609 169.02339432 145.58968696 180.38667633 145.6875 191.75 C147.75585016 189.20885505 149.82331168 186.6669885 151.890625 184.125 C152.47086426 183.41214844 153.05110352 182.69929687 153.64892578 181.96484375 C156.23362132 178.78592343 158.81282589 175.60394238 161.35253906 172.38891602 C170.02677108 161.41001978 177.60638717 154.35532675 191.98046875 152.4453125 C202.22367491 152.07729312 211.14298939 155.81919476 218.734375 162.5703125 C226.29027947 170.54598944 228.30570821 178.85190797 228.15600586 189.56665039 C227.90850577 195.37676334 226.93387763 199.83904913 223.6875 204.75 C223.13964844 205.58273438 222.59179688 206.41546875 222.02734375 207.2734375 C218.00893232 213.0328855 213.53723676 218.38117186 208.96655273 223.70214844 C205.59523004 227.63603278 202.36401659 231.65764919 199.1875 235.75 C195.62047724 240.34106056 191.96920693 244.83409377 188.1875 249.25 C183.99678159 254.14645346 179.97913821 259.1507471 176.0234375 264.23828125 C172.32591435 268.97736022 168.52252102 273.62174173 164.6875 278.25 C159.24911024 284.81367677 153.93449397 291.46101315 148.69921875 298.1875 C146.6875 300.75 146.6875 300.75 145.6875 301.75 C145.58394364 303.2558718 145.5495456 304.7665575 145.54273987 306.27597046 C145.53584137 307.25431854 145.52894287 308.23266663 145.52183533 309.24066162 C145.51922195 310.323172 145.51660858 311.40568237 145.51391602 312.52099609 C145.507229 313.65439423 145.50054199 314.78779236 145.49365234 315.95553589 C145.47955983 318.42788982 145.46767933 320.9002571 145.45770454 323.37263107 C145.44133389 327.29075642 145.4180935 331.20878426 145.39280701 335.12686157 C145.32160758 346.27120835 145.2620716 357.41560353 145.21069336 368.56005859 C145.17921708 375.36937765 145.13748395 382.17858295 145.09049797 388.98781204 C145.07452863 391.57999328 145.06218381 394.17219956 145.05359077 396.76441574 C145.04135803 400.40474103 145.01717124 404.04481455 144.99047852 407.68505859 C144.98988937 408.74732666 144.98930023 409.80959473 144.98869324 410.90405273 C144.86201869 424.02399194 142.66407225 436.23138261 133.46484375 446.15625 C122.8474616 455.67689158 110.02965037 457.20870909 96.28735352 457.13818359 C95.00616135 457.14344055 93.72496918 457.14869751 92.404953 457.15411377 C88.93014319 457.16764744 85.45560418 457.16254996 81.98079038 457.15297651 C78.3289786 457.14531816 74.67718817 457.15244145 71.02537537 457.15713501 C64.90367512 457.1625699 58.78208402 457.1554558 52.66040039 457.14111328 C45.59036974 457.12473988 38.52059805 457.13011817 31.4505735 457.1465925 C25.36110934 457.16021133 19.27172301 457.16212664 13.18224853 457.15427649 C9.55319877 457.14960869 5.92427081 457.14895146 2.29522896 457.15888596 C-1.74270861 457.16917151 -5.78019928 457.15491204 -9.81811523 457.13818359 C-11.61431808 457.14729263 -11.61431808 457.14729263 -13.44680786 457.15658569 C-14.5470076 457.14812622 -15.64720734 457.13966675 -16.78074646 457.13095093 C-17.73396506 457.12981985 -18.68718367 457.12868877 -19.66928768 457.12752342 C-22.86262662 456.67142679 -24.71804715 455.64375345 -27.3125 453.75 C-29.3916019 450.63134716 -29.59409374 450.21260478 -29.1875 446.75 C-29.12304688 446.069375 -29.05859375 445.38875 -28.9921875 444.6875 C-28.04109162 441.97633014 -26.74860109 441.23596622 -24.3125 439.75 C-21.7683382 439.37361908 -21.7683382 439.37361908 -18.84284973 439.37145996 C-17.73127502 439.36325729 -16.61970032 439.35505463 -15.47444153 439.34660339 C-13.65174995 439.35582573 -13.65174995 439.35582573 -11.79223633 439.36523438 C-9.82219195 439.35698676 -7.85214758 439.34873839 -5.88210332 439.34046173 C-3.76590093 439.33446347 -1.64981639 439.33584557 0.46639061 439.33930969 C4.88413431 439.34612578 9.30161855 439.33023853 13.71931458 439.31091309 C23.10452904 439.27305288 32.48972091 439.26026796 41.875 439.25 C51.99073452 439.23891803 62.10634915 439.22344497 72.22200185 439.17928743 C76.60676265 439.16099895 80.99122631 439.15701485 85.37601602 439.16422272 C87.45232305 439.16538284 89.52847925 439.15971362 91.60476685 439.15104675 C94.12708912 439.14055862 96.64948746 439.14052719 99.17179871 439.15339661 C106.69993999 439.09853983 113.87013369 438.6815334 120.02734375 433.953125 C120.81818359 432.98632812 120.81818359 432.98632812 121.625 432 C122.17027344 431.36578125 122.71554687 430.7315625 123.27734375 430.078125 C126.89231782 424.10991296 126.97098931 418.00949496 126.91455078 411.23461914 C126.91498886 409.84320206 126.91498886 409.84320206 126.91543579 408.42367554 C126.91404967 405.37740513 126.89852231 402.33138359 126.8828125 399.28515625 C126.87907982 397.16523879 126.87623405 395.04531959 126.87423706 392.92539978 C126.8666207 387.36053662 126.84698937 381.79577875 126.8248291 376.23095703 C126.80432761 370.54656397 126.79522615 364.8621538 126.78515625 359.17773438 C126.76374159 348.03511013 126.72962978 336.89256384 126.6875 325.75 C125.40934459 327.17946786 124.1323975 328.6100162 122.85595703 330.04101562 C122.14472687 330.8375354 121.4334967 331.63405518 120.70071411 332.45471191 C118.19848408 335.30753256 115.87749948 338.2427338 113.5625 341.25 C109.39824467 346.61460156 105.14042899 351.89161407 100.8125 357.125 C96.1060106 362.81807309 91.41130125 368.5198306 86.75 374.25 C85.98937256 375.18271729 85.98937256 375.18271729 85.21337891 376.13427734 C84.72144043 376.73965332 84.22950195 377.3450293 83.72265625 377.96875 C83.21331543 378.57759033 82.70397461 379.18643066 82.17919922 379.8137207 C80.63305822 381.7243642 80.63305822 381.7243642 79.46533203 383.92651367 C73.80410223 393.17544106 63.11053118 395.55932592 53.4375 399.0625 C51.58628995 399.75593365 49.73601864 400.45187878 47.88671875 401.15039062 C43.56818607 402.77513673 39.23798356 404.36492976 34.90112305 405.94000244 C32.95548971 406.65193858 31.01714608 407.38373065 29.08007812 408.11865234 C28.11005859 408.48555176 27.14003906 408.85245117 26.140625 409.23046875 C25.35333008 409.53235107 24.56603516 409.8342334 23.75488281 410.14526367 C20.41914335 411.1210108 17.94404739 410.8355158 14.6875 409.75 C12.0251049 406.91689115 11.3031935 405.04634699 11.41259766 401.1887207 C11.68851505 392.44537603 13.19059301 383.82727596 14.55615234 375.2019043 C14.8924932 373.03352742 15.21229462 370.86251755 15.51513672 368.68920898 C17.47587448 354.63938392 19.66326661 345.07119689 29.6875 334.75 C30.91875302 333.26262282 32.13782672 331.76500847 33.33984375 330.25390625 C34.43307547 328.93858903 35.52811761 327.62477436 36.625 326.3125 C40.95293274 321.09942874 45.21702197 315.8496258 49.375 310.5 C53.31616008 305.43258896 57.39613829 300.51168299 61.56982422 295.63476562 C65.28807437 291.27026386 68.83262287 286.78752261 72.3515625 282.26171875 C76.6279866 276.78066814 81.05343509 271.4288715 85.48876953 266.07617188 C89.18682675 261.60240482 92.81228637 257.08210279 96.375 252.5 C100.30857992 247.4425401 104.37959802 242.53034424 108.5456543 237.66333008 C113.78644558 231.51224165 118.75070214 225.14615534 123.6875 218.75 C124.2223382 218.13162105 124.7571764 217.51324209 125.30822182 216.87612438 C126.98692752 214.28843962 127.06449638 212.80186371 127.06845093 209.73591614 C127.0769104 208.72531128 127.08536987 207.71470642 127.09408569 206.67347717 C127.088013 205.57055832 127.08194031 204.46763947 127.07568359 203.33129883 C127.08094055 202.16498932 127.08619751 200.99867981 127.09161377 199.79702759 C127.10483847 195.93356 127.09606368 192.0705032 127.0859375 188.20703125 C127.08660549 185.52145555 127.0908652 182.8358872 127.09463501 180.15031433 C127.10009336 174.51544748 127.09290288 168.88069855 127.07861328 163.24584961 C127.0623261 156.74863869 127.06754609 150.2517108 127.0840925 143.75450689 C127.09775259 138.16534768 127.09960385 132.57627321 127.09177649 126.98710269 C127.08711956 123.65399735 127.08761151 120.32113037 127.09638596 116.98801613 C127.10403506 113.26371003 127.09234498 109.53994018 127.07568359 105.81567383 C127.08479263 104.17647728 127.08479263 104.17647728 127.09408569 102.50416565 C127.03116742 94.8828156 126.28681956 88.09198229 121.5 81.9375 C114.34705586 76.37409901 108.39229596 75.1515709 99.40625 75.140625 C98.35215942 75.12408875 97.29806885 75.10755249 96.21203613 75.09051514 C92.87046368 75.0422258 89.52934572 75.02070596 86.1875 75 C83.9114357 74.97182447 81.6353924 74.94189485 79.359375 74.91015625 C73.80216532 74.83647212 68.24508246 74.78471811 62.6875 74.75 C62.70200195 75.57056885 62.71650391 76.3911377 62.73144531 77.23657227 C62.74836426 78.85390259 62.74836426 78.85390259 62.765625 80.50390625 C62.78012695 81.5719751 62.79462891 82.64004395 62.80957031 83.74047852 C62.56495961 89.77111089 59.94952216 94.48797784 55.6875 98.75 C48.45145376 103.45767439 41.75223407 103.32085403 33.3203125 103.26757812 C31.87399595 103.27300577 30.42768493 103.28013202 28.98138428 103.28881836 C25.07221544 103.30697864 21.16347115 103.30001469 17.25429535 103.28730202 C13.15275474 103.2771363 9.05124915 103.28657758 4.94970703 103.29284668 C-1.93658945 103.30011273 -8.82271403 103.29056286 -15.70898438 103.27148438 C-23.65710922 103.24971755 -31.60482356 103.25676966 -39.55293846 103.27879 C-46.39142036 103.29697382 -53.22977908 103.29948779 -60.06827736 103.28903532 C-64.14631499 103.28281672 -68.22416 103.2819195 -72.30218506 103.29518127 C-76.13717502 103.30678278 -79.97163854 103.29863648 -83.80657196 103.27560425 C-85.20935952 103.27033996 -86.61219181 103.27179171 -88.01496124 103.28065491 C-96.34846833 103.32843254 -103.41489865 103.32970225 -109.82229614 97.33820343 C-114.43978684 92.17785953 -115.5748444 87.73604794 -115.4375 80.9375 C-115.41945313 79.77605469 -115.40140625 78.61460938 -115.3828125 77.41796875 C-115.35960937 76.53753906 -115.33640625 75.65710938 -115.3125 74.75 C-122.02061944 74.81717518 -128.72816409 74.90705042 -135.43579102 75.01245117 C-137.71599486 75.04563367 -139.99627953 75.07368624 -142.27661133 75.09643555 C-145.56105882 75.13010382 -148.84477014 75.18242726 -152.12890625 75.23828125 C-153.64962486 75.24786613 -153.64962486 75.24786613 -155.20106506 75.25764465 C-163.13078525 75.42106732 -169.56261587 76.84471359 -175.3125 82.75 C-178.79964526 88.7847283 -179.89276428 94.10874444 -179.7978363 100.99884033 C-179.80180973 101.88504964 -179.80578315 102.77125894 -179.80987698 103.68432307 C-179.8184134 106.63003621 -179.79869771 109.57485843 -179.77905273 112.52050781 C-179.77960188 114.6417757 -179.78197908 116.76304379 -179.78604126 118.88430786 C-179.79120657 123.43998252 -179.78417794 127.99541599 -179.76778984 132.55106354 C-179.74264228 139.75308774 -179.74896253 146.95487467 -179.76026917 154.15692139 C-179.78345137 172.03860109 -179.76500489 189.92021149 -179.73876953 207.80187988 C-179.71883727 221.71280709 -179.71021115 235.62354484 -179.73570591 249.53447223 C-179.74753546 256.69610042 -179.73583718 263.85718894 -179.7064532 271.01876116 C-179.69321777 275.46804335 -179.70060211 279.91711514 -179.71373367 284.36639023 C-179.71559332 286.43160693 -179.70884708 288.49685171 -179.69293022 290.5620079 C-179.67240598 293.37827941 -179.68247093 296.19284174 -179.70018005 299.00909424 C-179.68677832 299.82883579 -179.67337658 300.64857733 -179.65956873 301.49315953 C-179.7206403 305.70576945 -179.97120095 307.30618558 -182.62811375 310.76115036 C-185.3125 312.75 -185.3125 312.75 -188.875 313.3125 C-192.79351711 312.67128811 -193.93808226 311.85500781 -196.3125 308.75 C-197.93401176 305.50697649 -197.45667492 301.9467371 -197.45294189 298.38331604 C-197.45591302 297.5073211 -197.45888414 296.63132617 -197.4619453 295.72878593 C-197.47065864 292.77564269 -197.4721428 289.82253987 -197.47363281 286.86938477 C-197.47825933 284.75888481 -197.48328376 282.6483857 -197.48867798 280.53788757 C-197.50182481 274.78951718 -197.50825202 269.04115848 -197.51268864 263.29277539 C-197.51561723 259.70093392 -197.51972175 256.10909565 -197.52419281 252.51725578 C-197.53787715 241.27842173 -197.54753777 230.03959499 -197.5513947 218.80075318 C-197.55587023 205.83013096 -197.57339074 192.85961441 -197.6023953 179.88902432 C-197.62403306 169.86426438 -197.63410019 159.83953412 -197.63543582 149.81475109 C-197.63648285 143.82786594 -197.64236839 137.84107998 -197.66025543 131.85421944 C-197.676771 126.21619689 -197.67887462 120.57834769 -197.67011642 114.94030952 C-197.66934777 112.87601252 -197.673666 110.81170607 -197.68357468 108.74743271 C-197.75325691 93.31954544 -197.38466128 80.35179782 -186.23828125 68.5546875 C-178.67603086 61.40156409 -170.63320133 57.60994759 -160.1550293 57.63647461 C-159.15436935 57.63655014 -158.15370941 57.63662567 -157.12272644 57.63670349 C-156.0548439 57.64186478 -154.98696136 57.64702606 -153.88671875 57.65234375 C-152.78399124 57.6537587 -151.68126373 57.65517365 -150.54512024 57.65663147 C-147.03005233 57.66221996 -143.51504859 57.67477041 -140 57.6875 C-137.61393321 57.69251648 -135.22786543 57.69707913 -132.84179688 57.70117188 C-126.9986761 57.71218563 -121.15559263 57.72891236 -115.3125 57.75 C-115.33135254 56.86376953 -115.35020508 55.97753906 -115.36962891 55.06445312 C-115.38429199 53.89849609 -115.39895508 52.73253906 -115.4140625 51.53125 C-115.43291504 50.37689453 -115.45176758 49.22253906 -115.47119141 48.03320312 C-115.21492827 42.73131602 -113.48365066 39.06985961 -109.88671875 35.2265625 C-104.73569889 30.62125792 -100.25763257 29.49497681 -93.48046875 29.5546875 C-91.54204102 29.56435547 -91.54204102 29.56435547 -89.56445312 29.57421875 C-88.2096327 29.59092673 -86.85481499 29.60785658 -85.5 29.625 C-84.12565749 29.63503997 -82.75130797 29.64416404 -81.37695312 29.65234375 C-78.02195683 29.67588758 -74.66731801 29.70877433 -71.3125 29.75 C-71.16554688 28.64696533 -71.01859375 27.54393066 -70.8671875 26.4074707 C-69.27054141 15.87958553 -62.11463259 7.56102097 -54.1171875 0.9296875 C-37.99035807 -10.57296145 -16.55452043 -10.82982848 0 0 Z M-46.3125 16.75 C-54.0304724 24.88834127 -55.77995813 33.93205736 -57.3125 44.75 C-61.30901311 46.04779949 -65.38590498 45.957352 -69.54296875 46.03125 C-70.72950798 46.05886414 -70.72950798 46.05886414 -71.9400177 46.08703613 C-75.31851905 46.16561224 -78.69720982 46.23371746 -82.07592773 46.30224609 C-84.54421296 46.3538215 -87.01231916 46.41109997 -89.48046875 46.46875 C-90.2502153 46.48232544 -91.01996185 46.49590088 -91.81303406 46.5098877 C-95.35924551 46.27310995 -95.35924551 46.27310995 -98.3125 47.75 C-98.41349488 50.47724279 -98.45220529 53.17862523 -98.4453125 55.90625 C-98.44626923 56.72371704 -98.44722595 57.54118408 -98.44821167 58.38342285 C-98.44889345 60.11515378 -98.44703929 61.84688724 -98.44287109 63.57861328 C-98.43752279 66.23866482 -98.44281612 68.8985475 -98.44921875 71.55859375 C-98.44855797 73.23697954 -98.4472768 74.91536523 -98.4453125 76.59375 C-98.44733673 77.39478149 -98.44936096 78.19581299 -98.45144653 79.02111816 C-98.78463668 82.68582301 -98.78463668 82.68582301 -97.3125 85.75 C-95.49484677 85.85080266 -93.6732423 85.88076875 -91.85279846 85.88371277 C-90.6679184 85.88797775 -89.48303833 85.89224274 -88.26225281 85.89663696 C-86.95053604 85.89618378 -85.63881927 85.89573059 -84.28735352 85.89526367 C-82.90130523 85.89825361 -81.51525777 85.90165575 -80.12921143 85.90544128 C-76.35445892 85.91430237 -72.57972906 85.91662028 -68.80496716 85.91725707 C-65.65867749 85.91820443 -62.51239313 85.92188073 -59.3661055 85.92542917 C-51.94580914 85.93358175 -44.52552493 85.93601267 -37.10522461 85.93530273 C-29.43955172 85.93470173 -21.77394916 85.94525625 -14.10829407 85.9610464 C-7.53674377 85.97410268 -0.96521651 85.97948744 5.60634667 85.97884732 C9.53558289 85.97859177 13.46475667 85.98147433 17.39398003 85.99202538 C21.08835097 86.0016743 24.78259934 86.00180775 28.47697449 85.99450874 C30.4852304 85.99295681 32.49348622 86.00133197 34.50172424 86.00994873 C36.28327408 86.003657 36.28327408 86.003657 38.10081482 85.99723816 C39.65577494 85.99805531 39.65577494 85.99805531 41.2421484 85.99888897 C43.86680532 85.99194315 43.86680532 85.99194315 45.6875 83.75 C45.88715373 81.12059804 45.9673411 78.59879837 45.953125 75.96875 C45.95599518 74.8148175 45.95599518 74.8148175 45.95892334 73.63757324 C45.96028508 72.0101692 45.95658939 70.3827543 45.94824219 68.75537109 C45.93754221 66.25984369 45.94813751 63.76503618 45.9609375 61.26953125 C45.9596159 59.69010257 45.9570535 58.11067434 45.953125 56.53125 C45.95919769 55.40777161 45.95919769 55.40777161 45.96539307 54.26159668 C46.06937202 50.04688852 46.06937202 50.04688852 43.6875 46.75 C41.08547936 46.52874358 38.58149092 46.42475849 35.9765625 46.40625 C35.21201752 46.3916272 34.44747253 46.37700439 33.65975952 46.36193848 C31.21072626 46.31536217 28.76177437 46.28121624 26.3125 46.25 C23.09605508 46.20882849 19.88017852 46.15510836 16.6640625 46.09375 C15.92539948 46.0884729 15.18673645 46.0831958 14.4256897 46.07775879 C10.73404623 46.00639991 7.76484045 45.92235462 4.6875 43.75 C3.96484375 41.9375 3.96484375 41.9375 3.625 39.75 C3.47417969 38.94691406 3.32335937 38.14382812 3.16796875 37.31640625 C2.93013672 36.04603516 2.93013672 36.04603516 2.6875 34.75 C0.54360977 25.28479756 -2.83992417 18.68359661 -11.1875 13.375 C-23.40575756 6.60343557 -35.67934202 7.69879961 -46.3125 16.75 Z M176.125 180.75 C175.58037109 181.36617187 175.03574219 181.98234375 174.47460938 182.6171875 C172.37107509 185.04265694 172.37107509 185.04265694 170.6875 187.75 C171.00223386 191.25464915 171.73884617 191.79599017 174.49609375 194.265625 C175.69804196 195.18719683 176.90818648 196.09814692 178.125 197 C179.40018771 197.96946292 180.67492405 198.93951982 181.94921875 199.91015625 C182.58134277 200.38727051 183.2134668 200.86438477 183.86474609 201.35595703 C187.24741799 203.94302595 190.51420544 206.67471195 193.796875 209.38671875 C195.56939374 210.9449595 195.56939374 210.9449595 197.6875 210.75 C199.08597878 209.26900565 199.08597878 209.26900565 200.47265625 207.3203125 C201.26833008 206.25103516 201.26833008 206.25103516 202.08007812 205.16015625 C202.63115234 204.40605469 203.18222656 203.65195313 203.75 202.875 C204.30494141 202.12863281 204.85988281 201.38226563 205.43164062 200.61328125 C210.28020319 194.05797741 211.50244718 190.0601656 210.6875 181.75 C209.41083417 177.75221213 207.17364461 175.18984512 204.0625 172.375 C192.29427778 166.70881893 183.8854962 171.3706898 176.125 180.75 Z M158.6875 202.75 C156.73423814 205.05951717 154.82738315 207.3892734 152.9375 209.75 C151.74487058 211.22923029 150.55216004 212.70839519 149.359375 214.1875 C148.44188477 215.32832031 148.44188477 215.32832031 147.50585938 216.4921875 C144.74456679 219.92081717 141.96575541 223.33511411 139.1875 226.75 C138.10671005 228.0806798 137.02598115 229.41140919 135.9453125 230.7421875 C133.75568362 233.4374192 131.56263844 236.12982154 129.3671875 238.8203125 C124.20732504 245.14886176 119.08092572 251.49601908 114.0625 257.9375 C110.09875249 263.023522 105.99760256 267.96633485 101.80541992 272.86499023 C98.08703824 277.22953203 94.54244744 281.71238696 91.0234375 286.23828125 C86.7470134 291.71933186 82.32156491 297.0711285 77.88623047 302.42382812 C74.18817325 306.89759518 70.56271363 311.41789721 67 316 C63.06579175 321.05826775 58.99443844 325.97154426 54.82714844 330.83886719 C50.43358743 335.99460867 46.25626948 341.31035897 42.09765625 346.65625 C39.6875 349.75 39.6875 349.75 37.63183594 352.01147461 C35.31009138 355.28156611 34.80610085 357.71397266 34.16796875 361.66015625 C34.06027664 362.30947617 33.95258453 362.95879608 33.84162903 363.62779236 C33.61860515 364.99229982 33.40303263 366.35804416 33.19458008 367.72485352 C32.87496431 369.81273317 32.5302735 371.89530538 32.18164062 373.97851562 C30.6712537 381.40355975 30.6712537 381.40355975 31.6875 388.75 C56.19700881 381.27561668 56.19700881 381.27561668 73.6875 363.75 C75.39913503 361.45207768 77.20295736 359.23140192 79 357 C79.91397515 355.82907215 80.82671106 354.65717608 81.73828125 353.484375 C85.56359215 348.60654931 89.53393637 343.84898761 93.48876953 339.07617188 C97.18682675 334.60240482 100.81228637 330.08210279 104.375 325.5 C108.31626108 320.43266433 112.39613429 315.51168766 116.56982422 310.63476562 C120.28807437 306.27026386 123.83262287 301.78752261 127.3515625 297.26171875 C131.6279866 291.78066814 136.05343509 286.4288715 140.48876953 281.07617188 C144.18682675 276.60240482 147.81228637 272.08210279 151.375 267.5 C154.88018422 262.99333457 158.47534057 258.58774527 162.1875 254.25 C167.89652271 247.57740764 173.30625657 240.68790705 178.6875 233.75 C179.42871094 232.79867187 180.16992188 231.84734375 180.93359375 230.8671875 C182.52059833 228.82994621 184.10540989 226.79105823 185.6875 224.75 C182.44039077 221.42127581 179.11634711 218.359423 175.5 215.4375 C174.07494141 214.28507813 174.07494141 214.28507813 172.62109375 213.109375 C171.16896484 211.94148437 171.16896484 211.94148437 169.6875 210.75 C168.72972656 209.97140625 167.77195312 209.1928125 166.78515625 208.390625 C163.08919218 204.7606465 163.08919218 204.7606465 158.6875 202.75 Z " fill="#000000" transform="translate(251.3125,7.25)"/>
<path d="M0 0 C2.62167586 1.28513523 4.93327853 2.56673386 7.375 4.125 C8.87260758 5.04214738 10.37138429 5.9573874 11.87109375 6.87109375 C12.68690918 7.37237793 13.50272461 7.87366211 14.34326172 8.39013672 C19.32450194 11.40854308 24.38654107 14.28785453 29.4375 17.1875 C31.66938633 18.47375795 33.90115544 19.7602193 36.1328125 21.046875 C40.1700918 23.37203386 44.20877638 25.69471719 48.24906921 28.01463318 C69.51245086 40.22520505 69.51245086 40.22520505 77 44.75 C77.94875 45.32234375 78.8975 45.8946875 79.875 46.484375 C82 48 82 48 84 51 C84.25168228 52.90408993 84.25168228 52.90408993 84.25396729 55.0922699 C84.26242676 56.3392868 84.26242676 56.3392868 84.27105713 57.61149597 C84.26498444 58.97447563 84.26498444 58.97447563 84.25878906 60.36499023 C84.26404602 61.80441483 84.26404602 61.80441483 84.26940918 63.2729187 C84.27822633 66.4515502 84.27237688 69.6299599 84.265625 72.80859375 C84.26697176 75.01432844 84.26891239 77.22006284 84.27142334 79.42579651 C84.27437468 84.05187807 84.27007702 88.67788247 84.26074219 93.30395508 C84.24935437 99.23700582 84.25590288 105.1698755 84.26788712 111.10291958 C84.27511112 115.65905626 84.27281517 120.21514995 84.26763153 124.77128792 C84.26629619 126.95898523 84.26793872 129.14668642 84.27259064 131.3343792 C84.27766392 134.39156313 84.26993385 137.44845321 84.25878906 140.50561523 C84.26283752 141.41224411 84.26688599 142.31887299 84.27105713 143.25297546 C84.26541748 144.08713989 84.25977783 144.92130432 84.25396729 145.78074646 C84.25283621 146.86446108 84.25283621 146.86446108 84.25168228 147.97006893 C83.95468227 150.36550796 83.25520037 151.94564333 82 154 C79.79882812 155.59301758 79.79882812 155.59301758 77.03125 157.14453125 C75.99871094 157.73105469 74.96617187 158.31757813 73.90234375 158.921875 C72.77957031 159.54578125 71.65679687 160.1696875 70.5 160.8125 C69.32357345 161.47672297 68.14780209 162.14210757 66.97265625 162.80859375 C64.52986163 164.19283577 62.08431813 165.57202675 59.63671875 166.94775391 C54.06436208 170.08525388 48.53439665 173.29618751 43 176.5 C40.86088669 177.7347382 38.72156232 178.96911083 36.58203125 180.203125 C34.97835693 181.12834961 34.97835693 181.12834961 33.34228516 182.07226562 C30.42404677 183.75542197 27.50545855 185.43796834 24.5866394 187.12011719 C22.19573403 188.49806938 19.80501328 189.87634172 17.41430664 191.25463867 C15.73016037 192.22540982 14.04574769 193.19571874 12.36132812 194.16601562 C10.82702148 195.05063477 10.82702148 195.05063477 9.26171875 195.953125 C8.36412842 196.47036133 7.46653809 196.98759766 6.54174805 197.52050781 C4.80593963 198.53088136 3.09093281 199.57763733 1.39575195 200.65478516 C-2.14111689 202.64073719 -5.11688715 202.80707194 -9 202 C-13.03473643 200.29357952 -16.73817312 198.11055638 -20.5 195.875 C-22.14488403 194.92536377 -22.14488403 194.92536377 -23.82299805 193.95654297 C-27.22519506 191.98742729 -30.61314236 189.99535799 -34 188 C-35.99531733 186.83720833 -37.99138013 185.67569466 -39.98828125 184.515625 C-42.90445634 182.81978855 -45.81887367 181.12125948 -48.72827148 179.41381836 C-54.2916029 176.14887105 -59.87422849 172.9218753 -65.484375 169.73828125 C-66.11619186 169.37933777 -66.74800873 169.02039429 -67.39897156 168.65057373 C-70.47977355 166.90093681 -73.56285674 165.15553349 -76.6496582 163.41650391 C-92.20304655 154.59390689 -92.20304655 154.59390689 -94 151 C-94.10385261 149.65587104 -94.14805201 148.30686236 -94.16062927 146.95878601 C-94.1706749 146.11343292 -94.18072052 145.26807983 -94.19107056 144.39710999 C-94.19690155 143.46773117 -94.20273254 142.53835236 -94.20874023 141.58081055 C-94.21852402 140.60343933 -94.2283078 139.62606812 -94.23838806 138.61907959 C-94.26837652 135.37497326 -94.28973587 132.13090821 -94.30859375 128.88671875 C-94.31516558 127.78050486 -94.3217374 126.67429096 -94.32850838 125.53455544 C-94.36111554 119.68035791 -94.3855643 113.82617871 -94.4050293 107.97192383 C-94.42285554 103.12074396 -94.45769568 98.27014392 -94.50756836 93.41918945 C-94.56765643 87.56834205 -94.5984895 81.71803315 -94.60820198 75.86689186 C-94.61677655 73.63530021 -94.63564351 71.40372371 -94.6649456 69.17230797 C-94.7037418 66.0500209 -94.7049099 62.92984279 -94.69702148 59.80737305 C-94.71702209 58.88406693 -94.73702271 57.9607608 -94.75762939 57.00947571 C-94.68811697 50.88653249 -94.68811697 50.88653249 -92.71839905 48.34885502 C-89.52409412 45.62711521 -85.78413952 43.55327824 -82.1328125 41.50390625 C-81.01245605 40.87025146 -79.89209961 40.23659668 -78.73779297 39.58374023 C-78.14947693 39.25461639 -77.56116089 38.92549255 -76.95501709 38.58639526 C-74.44444763 37.18173069 -71.94152163 35.76369254 -69.43814087 34.3462677 C-68.15397508 33.61922198 -66.86944782 32.89281435 -65.58456421 32.16703796 C-59.64927021 28.81186351 -53.7573002 25.38468636 -47.875 21.9375 C-39.14069582 16.82671978 -30.38994484 11.74548399 -21.625 6.6875 C-20.49433105 6.03450928 -19.36366211 5.38151855 -18.19873047 4.70874023 C-17.15604004 4.10747314 -16.11334961 3.50620605 -15.0390625 2.88671875 C-14.11303223 2.35264404 -13.18700195 1.81856934 -12.23291016 1.26831055 C-7.8858488 -1.20085452 -4.84296605 -1.13913558 0 0 Z M-12.06640625 20.75390625 C-13.6124353 21.65411499 -13.6124353 21.65411499 -15.18969727 22.57250977 C-16.30272217 23.22920654 -17.41574707 23.88590332 -18.5625 24.5625 C-19.72089487 25.24014839 -20.87967352 25.91714112 -22.03881836 26.59350586 C-23.84597495 27.64830394 -25.65272915 28.70375053 -27.45802307 29.76173401 C-31.6876992 32.24002792 -35.93229386 34.69083269 -40.1875 37.125 C-41.35214383 37.79221596 -42.51677614 38.45945202 -43.68139648 39.12670898 C-45.88045283 40.3857398 -48.08043672 41.64315241 -50.28149414 42.89868164 C-56.34740951 46.38347974 -62.24094884 50.02720774 -68 54 C-65.50615208 56.79563775 -62.74784919 58.43253404 -59.49609375 60.265625 C-58.37468994 60.90153564 -57.25328613 61.53744629 -56.09790039 62.19262695 C-54.87777128 62.87842572 -53.65763772 63.56421655 -52.4375 64.25 C-50.54817009 65.31919453 -48.65985402 66.39016576 -46.77153015 67.46113586 C-45.47344539 68.1971344 -44.17503024 68.93255053 -42.876297 69.66740417 C-36.08355885 73.51198743 -29.32120257 77.40847964 -22.5625 81.3125 C-20.93042603 82.25367676 -20.93042603 82.25367676 -19.26538086 83.21386719 C-11.10403304 87.92490491 -11.10403304 87.92490491 -8.48803711 89.81323242 C-6.0600253 91.2964757 -6.0600253 91.2964757 -3.51635742 90.37182617 C-2.68595947 89.91912354 -1.85556152 89.4664209 -1 89 C-0.16122314 88.54923096 0.67755371 88.09846191 1.54174805 87.6340332 C2.43933838 87.11156006 3.33692871 86.58908691 4.26171875 86.05078125 C5.79832153 85.15999878 5.79832153 85.15999878 7.3659668 84.2512207 C8.46207275 83.61144287 9.55817871 82.97166504 10.6875 82.3125 C12.42411509 81.30455181 14.16073331 80.29660898 15.89753723 79.28898621 C17.7083113 78.23792006 19.51826102 77.18544485 21.328125 76.1328125 C27.27247777 72.67752896 33.23086386 69.24654612 39.1875 65.8125 C40.26668701 65.18964111 41.34587402 64.56678223 42.45776367 63.92504883 C47.63217514 60.93881927 52.80970444 57.95854188 58 55 C55.5849251 52.32186248 52.98947088 50.6956489 49.86328125 48.91796875 C48.82228271 48.32226074 47.78128418 47.72655273 46.70874023 47.11279297 C45.02760132 46.15977295 45.02760132 46.15977295 43.3125 45.1875 C41.55456531 44.18399978 39.7976253 43.17877304 38.04072571 42.17346191 C36.83505478 41.48370632 35.62906763 40.79450319 34.42277527 40.10583496 C27.25279808 36.0101118 20.13040207 31.83317311 13.00708008 27.65698242 C10.3419619 26.09780556 7.67211522 24.54714809 5 23 C3.72600342 22.25411621 3.72600342 22.25411621 2.42626953 21.49316406 C1.62688965 21.03393555 0.82750977 20.57470703 0.00390625 20.1015625 C-0.69790771 19.69502441 -1.39972168 19.28848633 -2.12280273 18.86962891 C-6.17831364 16.99087616 -8.50469518 18.66352219 -12.06640625 20.75390625 Z M61.56640625 71.53515625 C60.61999268 72.08993652 59.6735791 72.6447168 58.69848633 73.21630859 C57.1461731 74.13017334 57.1461731 74.13017334 55.5625 75.0625 C53.37016157 76.34828717 51.17743965 77.63342064 48.984375 78.91796875 C48.41507767 79.2515741 47.84578033 79.58517944 47.25923157 79.92889404 C39.9236142 84.22290771 32.54949642 88.45032997 25.17211914 92.67211914 C23.20078924 93.80481959 21.23932668 94.95495789 19.29063416 96.12617493 C16 98 16 98 12.60388184 99.50979614 C8.70028452 101.41938638 6.12504878 102.96169252 3 106 C1.1948282 111.60658688 1.47389047 116.9201073 1.73046875 122.75 C1.75474718 124.37516901 1.77323725 126.00043384 1.78620911 127.62573242 C1.83561193 131.88299027 1.96305213 136.13438645 2.10736084 140.38934326 C2.24088885 144.73922402 2.29983244 149.0900624 2.36523438 153.44140625 C2.50423466 161.96361398 2.72577154 170.481076 3 179 C5.21546274 177.90226139 7.42979646 176.80233853 9.64355469 175.70117188 C10.57347733 175.2408255 10.57347733 175.2408255 11.52218628 174.7711792 C17.24918655 171.9187296 22.74093237 168.75888508 28.25 165.5 C41.12402781 157.92704247 54.06247284 150.46395798 67 143 C67 118.58 67 94.16 67 69 C65.03252675 69 63.20289779 70.57246771 61.56640625 71.53515625 Z M-77 70 C-77.55943909 79.27377063 -77.98399337 88.54165137 -78.24349213 97.82868385 C-78.36815849 102.14352418 -78.53651131 106.44674343 -78.81054688 110.75488281 C-80.66757227 129.17736882 -80.66757227 129.17736882 -74.78845215 145.85977173 C-69.15594115 150.60651589 -62.79468838 153.36023585 -55.92871094 155.88330078 C-52.09710825 157.34426699 -48.87436748 159.24507234 -45.390625 161.40234375 C-43.34411655 162.58136564 -41.29726258 163.75978808 -39.25 164.9375 C-37.17170468 166.13381874 -35.09357881 167.33043191 -33.015625 168.52734375 C-31.54125977 169.37594971 -31.54125977 169.37594971 -30.03710938 170.24169922 C-25.7745999 172.7094318 -21.53229833 175.21137425 -17.29199219 177.71704102 C-15.29233979 179.08140701 -15.29233979 179.08140701 -14 179 C-14 154.58 -14 130.16 -14 105 C-22.91 100.05 -22.91 100.05 -32 95 C-35.98912246 92.70189187 -39.96962154 90.39617768 -43.9375 88.0625 C-45.96998212 86.87357831 -48.00253525 85.684778 -50.03515625 84.49609375 C-52.98794908 82.76640225 -55.93990324 81.03532296 -58.89013672 79.30126953 C-61.54963499 77.73885497 -64.21205648 76.18153278 -66.875 74.625 C-67.67156006 74.15457275 -68.46812012 73.68414551 -69.28881836 73.19946289 C-72.90315465 70.84946694 -72.90315465 70.84946694 -77 70 Z " fill="#000000" transform="translate(127,310)"/>
<path d="M0 0 C1.20422104 -0.0038269 2.40844208 -0.00765381 3.64915466 -0.01159668 C6.1918115 -0.01431582 8.7344963 -0.00695462 11.27709961 0.00976562 C15.17299575 0.03119171 19.06705148 0.00995213 22.96289062 -0.015625 C25.43359783 -0.01298209 27.90430388 -0.00785789 30.375 0 C31.54172745 -0.00809692 32.7084549 -0.01619385 33.91053772 -0.02453613 C34.99523849 -0.01192749 36.07993927 0.00068115 37.19750977 0.01367188 C38.15061539 0.01685425 39.10372101 0.02003662 40.08570862 0.02331543 C43.35387818 0.67805474 44.53147965 1.99410591 46.62109375 4.53125 C47.86908546 7.02723343 47.76827485 8.75114223 47.7980957 11.54418945 C47.81734856 13.11140495 47.81734856 13.11140495 47.83699036 14.71028137 C47.84437729 15.84358383 47.85176422 16.97688629 47.859375 18.14453125 C47.86744675 19.30623337 47.87551849 20.46793549 47.88383484 21.6648407 C47.89768401 24.1270498 47.90840242 26.58927816 47.91625977 29.05151367 C47.93347566 32.8179154 47.97735632 36.58344032 48.02148438 40.34960938 C48.03161072 42.73957687 48.040127 45.12955183 48.046875 47.51953125 C48.06438309 48.64676102 48.08189117 49.77399078 48.09992981 50.93537903 C48.07820316 58.76486255 48.07820316 58.76486255 45.71948242 62.71948242 C42.50425422 65.49553925 40.68827912 65.66455111 36.51635742 65.70825195 C34.91911079 65.72750481 34.91911079 65.72750481 33.28959656 65.74714661 C32.13442032 65.75453354 30.97924408 65.76192047 29.7890625 65.76953125 C28.60516434 65.777603 27.42126617 65.78567474 26.20149231 65.79399109 C23.69220448 65.80784064 21.18289774 65.81855888 18.67358398 65.82641602 C14.83476091 65.84363264 10.99679793 65.88751318 7.15820312 65.93164062 C4.7226626 65.94176688 2.28711473 65.95028319 -0.1484375 65.95703125 C-1.29754105 65.97453934 -2.44664459 65.99204742 -3.63056946 66.01008606 C-7.98943734 65.99821572 -11.51216623 65.86249032 -15.60180664 64.29956055 C-18.66420367 59.52905362 -18.08915051 54.35008324 -18.04296875 48.8125 C-18.04775238 47.56247192 -18.05253601 46.31244385 -18.0574646 45.02453613 C-18.06086808 42.38087405 -18.05415742 39.73952313 -18.03076172 37.09619141 C-18.0022711 33.71282851 -18.01867909 30.33144844 -18.04862404 26.94815826 C-18.07106497 23.71536826 -18.05534015 20.48281591 -18.04296875 17.25 C-18.0530899 16.03638794 -18.06321106 14.82277588 -18.07363892 13.5723877 C-17.95999388 5.43903391 -17.95999388 5.43903391 -15.61108398 1.76953125 C-10.46253686 -0.20293125 -5.46711698 -0.03800696 0 0 Z M-1.37890625 17.53125 C-1.37890625 27.76125 -1.37890625 37.99125 -1.37890625 48.53125 C9.18109375 48.53125 19.74109375 48.53125 30.62109375 48.53125 C30.62109375 38.30125 30.62109375 28.07125 30.62109375 17.53125 C20.06109375 17.53125 9.50109375 17.53125 -1.37890625 17.53125 Z " fill="#000000" transform="translate(108.37890625,233.46875)"/>
<path d="M0 0 C1.66192383 -0.01407143 1.66192383 -0.01407143 3.35742188 -0.02842712 C4.54916016 -0.01719315 5.74089844 -0.00595917 6.96875 0.00561523 C8.19658203 0.00416 9.42441406 0.00270477 10.68945312 0.00120544 C13.28518039 0.0028653 15.8809174 0.01443606 18.4765625 0.03515625 C22.45354954 0.06409836 26.42920309 0.05576814 30.40625 0.04272461 C32.92708982 0.04896223 35.44792543 0.05735335 37.96875 0.06811523 C39.16048828 0.0651796 40.35222656 0.06224396 41.58007812 0.05921936 C42.68802734 0.07190353 43.79597656 0.08458771 44.9375 0.09765625 C45.91138672 0.10305923 46.88527344 0.10846222 47.88867188 0.11402893 C50.91929799 0.56940789 52.27995759 1.38246411 54.46875 3.50170898 C55.45673883 6.46567546 55.60646425 8.44260491 55.62988281 11.53637695 C55.63949036 12.561091 55.6490979 13.58580505 55.65899658 14.64157104 C55.66324646 15.74783844 55.66749634 16.85410583 55.671875 17.99389648 C55.67757507 19.13198761 55.68327515 20.27007874 55.68914795 21.44265747 C55.69859879 23.85181752 55.70513226 26.26099051 55.70898438 28.67016602 C55.71869314 32.35512835 55.74971781 36.03953375 55.78125 39.72436523 C55.78777977 42.06420567 55.79303034 44.4040501 55.796875 46.74389648 C55.8092218 47.84611542 55.8215686 48.94833435 55.83428955 50.08395386 C55.83128845 51.11497223 55.82828735 52.1459906 55.82519531 53.20825195 C55.83066376 54.56368607 55.83066376 54.56368607 55.83624268 55.94650269 C55.3839045 59.09164664 54.32713439 60.9414325 52.46875 63.50170898 C49.17478583 65.69768509 48.16997876 65.75719373 44.34228516 65.77636719 C43.29755035 65.7858992 42.25281555 65.79543121 41.17642212 65.80525208 C40.04828094 65.80434067 38.92013977 65.80342926 37.7578125 65.80249023 C36.01738174 65.80891792 36.01738174 65.80891792 34.24179077 65.81547546 C31.78554945 65.82122259 29.3292911 65.82171623 26.87304688 65.81738281 C23.11558938 65.81422732 19.35892235 65.83766286 15.6015625 65.86303711 C13.21614683 65.8653105 10.83072904 65.86601342 8.4453125 65.86499023 C7.32121979 65.87419998 6.19712708 65.88340973 5.03897095 65.89289856 C3.46241226 65.88355537 3.46241226 65.88355537 1.85400391 65.87402344 C0.93261627 65.87465286 0.01122864 65.87528229 -0.93807983 65.87593079 C-4.07815642 65.42278462 -5.97013265 64.34463972 -8.53125 62.50170898 C-9.81467577 59.93485744 -9.67933107 58.07169833 -9.70825195 55.19750977 C-9.72108719 54.08940948 -9.73392242 52.9813092 -9.74714661 51.83963013 C-9.75453354 50.63756927 -9.76192047 49.43550842 -9.76953125 48.19702148 C-9.78163887 46.35102859 -9.78163887 46.35102859 -9.79399109 44.46774292 C-9.80784032 41.86010145 -9.8185587 39.2524418 -9.82641602 36.64477539 C-9.83528561 33.96941418 -9.85617948 31.29457076 -9.88793945 28.61938477 C-9.9304454 24.77010313 -9.94676205 20.92150816 -9.95703125 17.07202148 C-9.97453934 15.87400909 -9.99204742 14.6759967 -10.01008606 13.44168091 C-10.00716049 12.32727631 -10.00423492 11.2128717 -10.0012207 10.06469727 C-10.00708694 9.08477814 -10.01295319 8.10485901 -10.01899719 7.09524536 C-8.943044 1.37399514 -5.3974195 0.00092093 0 0 Z M6.46875 16.50170898 C6.46875 27.06170898 6.46875 37.62170898 6.46875 48.50170898 C17.02875 48.50170898 27.58875 48.50170898 38.46875 48.50170898 C38.46875 37.94170898 38.46875 27.38170898 38.46875 16.50170898 C27.90875 16.50170898 17.34875 16.50170898 6.46875 16.50170898 Z " fill="#000000" transform="translate(100.53125,140.498291015625)"/>
<path d="M0 0 C0.64186202 -0.00779995 1.28372403 -0.01559991 1.94503641 -0.02363622 C4.08809329 -0.04352326 6.22936764 -0.02780761 8.37243652 -0.01205444 C9.91185032 -0.01883215 11.45125601 -0.02773615 12.99064636 -0.03860474 C17.16637512 -0.06138696 21.34148579 -0.05256651 25.51722527 -0.03670931 C29.8884535 -0.02404461 34.25962905 -0.035792 38.63085938 -0.04364014 C45.97141007 -0.05273506 53.31170919 -0.040753 60.65222168 -0.01693726 C69.13720374 0.01027384 77.62158509 0.00145956 86.1065526 -0.02606928 C93.39334773 -0.04876392 100.67996208 -0.05195874 107.96678114 -0.03887594 C112.31810826 -0.03108333 116.66915308 -0.03003446 121.02046204 -0.04655838 C125.11157645 -0.0610092 129.20191691 -0.05097109 133.29294777 -0.0220871 C134.79374214 -0.01547943 136.29460173 -0.01736864 137.7953701 -0.02840042 C139.84582108 -0.04208242 141.89379821 -0.02491531 143.9440918 0 C145.09076073 0.00188513 146.23742966 0.00377026 147.41884613 0.00571251 C151.44400522 0.83522032 152.95266271 2.45138819 155.4720459 5.63491821 C156.00621492 9.44087252 156.02773946 11.62937749 154.1595459 15.00991821 C150.93157948 18.11833032 147.50415616 17.76235561 143.25379944 17.76863098 C141.29999359 17.77502846 141.29999359 17.77502846 139.30671692 17.78155518 C137.8599548 17.78120565 136.41319271 17.78074411 134.96643066 17.78018188 C133.44540321 17.78317347 131.92437652 17.786576 130.40335083 17.7903595 C126.26909018 17.79920323 122.13485022 17.80153775 118.00058103 17.80217528 C114.55116969 17.80312416 111.10176318 17.80680218 107.6523537 17.81034738 C99.51566984 17.81849318 91.37899704 17.82093148 83.24230957 17.82022095 C74.84386928 17.81961995 66.44549318 17.8301759 58.04706913 17.84596461 C50.84020865 17.85903132 43.63336917 17.86440522 36.42649692 17.86376554 C32.12052114 17.86351032 27.81460239 17.86637487 23.50863838 17.87694359 C19.45966304 17.88661009 15.41079945 17.88671375 11.36182022 17.87942696 C9.87510579 17.87837934 8.38838446 17.88075446 6.9016819 17.88678741 C4.87356062 17.89448491 2.84540142 17.88867332 0.817276 17.88215637 C-0.31816367 17.88270114 -1.45360334 17.88324591 -2.62345028 17.88380718 C-5.49574458 17.63767827 -7.1312619 17.19407419 -9.5279541 15.63491821 C-11.82763973 12.41535833 -12.08144048 9.50932289 -11.5279541 5.63491821 C-7.94009282 1.14579062 -5.7035105 0.00937659 0 0 Z " fill="#000000" transform="translate(186.5279541015625,233.36508178710938)"/>
<path d="M0 0 C0.97482039 -0.01064158 0.97482039 -0.01064158 1.96933413 -0.02149814 C4.14548289 -0.03909109 6.31984839 -0.02096998 8.49597168 -0.00291443 C10.05656244 -0.00805284 11.6171474 -0.01533352 13.17771912 -0.02459717 C17.41543708 -0.04312976 21.65252682 -0.03016125 25.89021873 -0.01050687 C30.32330444 0.00586579 34.75634993 -0.00293133 39.18945312 -0.00802612 C46.63433887 -0.01254864 54.07897349 0.00333246 61.52380371 0.03126526 C70.13312013 0.06331796 78.74198361 0.063302 87.35133219 0.04605049 C95.63059581 0.03019096 103.90969324 0.03691523 112.18894958 0.0539875 C115.71362222 0.06086313 119.23816185 0.05982033 122.76283264 0.05244255 C126.91294202 0.0447857 131.06253547 0.05688574 135.21255684 0.08429146 C136.7363437 0.09118276 138.26017868 0.09126525 139.78396416 0.08407593 C141.86298236 0.0753967 143.94040265 0.09130753 146.01928711 0.11352539 C147.18292534 0.11633231 148.34656357 0.11913923 149.54546356 0.12203121 C153.1300757 0.73413293 154.30542438 1.79383856 156.50964355 4.62818909 C157.04089355 6.62818909 157.04089355 6.62818909 157.00964355 8.62818909 C157.0251123 9.61818909 157.0251123 9.61818909 157.04089355 10.62818909 C156.25646623 13.58132727 154.87779898 14.72447024 152.50964355 16.62818909 C149.54546356 17.13434696 149.54546356 17.13434696 146.01928711 17.14285278 C145.36940685 17.14979831 144.71952659 17.15674384 144.04995298 17.16389984 C141.87405721 17.18218479 139.69924994 17.17190256 137.52331543 17.16163635 C135.96272465 17.1686941 134.40214071 17.1774385 132.84156799 17.18774414 C128.60395614 17.21026314 124.36671732 17.20729285 120.12906837 17.19842267 C116.59259674 17.19331633 113.05619543 17.20060236 109.51973104 17.20789474 C101.17825276 17.22490135 92.83695738 17.22131984 84.4954834 17.2046051 C75.88611987 17.18767683 67.27726311 17.20352609 58.66795492 17.23582798 C51.27845043 17.26250418 43.88910388 17.26980542 36.49955606 17.2613129 C32.08507446 17.25637863 27.67089791 17.25862627 23.25645447 17.27910042 C19.10628974 17.29742721 14.9568555 17.2915364 10.80673027 17.26690102 C9.28293156 17.26188375 7.75907747 17.2654067 6.23532295 17.27804947 C4.1560376 17.29393798 2.07917037 17.27907534 0 17.25637817 C-1.16363823 17.25579186 -2.32727646 17.25520555 -3.52617645 17.25460148 C-6.49035645 16.62818909 -6.49035645 16.62818909 -8.86475372 14.27642727 C-10.86676466 11.0149897 -11.11795268 9.39376652 -10.49035645 5.62818909 C-7.52741826 0.80132338 -5.58849909 0.00281581 0 0 Z " fill="#000000" transform="translate(185.4903564453125,140.37181091308594)"/>
<path d="M0 0 C0.77283829 -0.00511093 1.54567657 -0.01022186 2.3419342 -0.01548767 C4.89348115 -0.02937351 7.44475768 -0.0284277 9.99633789 -0.02612305 C11.77226359 -0.03001049 13.54818837 -0.03434527 15.32411194 -0.03910828 C19.04553238 -0.04656828 22.76685794 -0.04628077 26.48828125 -0.04101562 C31.254329 -0.03522085 36.01998814 -0.05215315 40.78597164 -0.0753603 C44.45343797 -0.09010067 48.12081077 -0.09096893 51.78830147 -0.08785057 C53.5453525 -0.08836362 55.30240879 -0.09359824 57.05943108 -0.10366249 C59.51774132 -0.11601577 61.97529538 -0.10924227 64.43359375 -0.09765625 C65.51929153 -0.10912186 65.51929153 -0.10912186 66.62692261 -0.12081909 C71.00910596 -0.07522896 73.79563797 0.5799744 77.28149414 3.2746582 C78.85085008 6.41337008 78.63350517 8.81321642 78.28149414 12.2746582 C75.57674065 15.87219421 74.08146009 17.13666328 69.60083008 17.90957642 C68.15613942 17.93911329 66.71072691 17.94136774 65.26586914 17.92163086 C64.47337769 17.93039246 63.68088623 17.93915405 62.86437988 17.94818115 C60.25285589 17.97013231 57.6430344 17.95563876 55.03149414 17.9387207 C53.21215491 17.9420901 51.39281787 17.94694374 49.57348633 17.95321655 C45.76369764 17.96058204 41.95449577 17.94989304 38.14477539 17.92651367 C33.26521089 17.89802581 28.3870214 17.91443155 23.50750732 17.94437599 C19.7516039 17.96245788 15.99602561 17.95668691 12.2401123 17.94373703 C10.44120114 17.94040547 8.64226029 17.94448133 6.84338379 17.9561348 C4.32716884 17.96885867 1.81316935 17.94944771 -0.70288086 17.92163086 C-1.44380981 17.93175201 -2.18473877 17.94187317 -2.94812012 17.95230103 C-6.86240441 17.87227302 -8.5827257 17.38191812 -11.69213867 14.92562866 C-13.71850586 12.2746582 -13.71850586 12.2746582 -14.15600586 9.2121582 C-13.73108099 6.35909122 -13.38762755 4.61142857 -11.71850586 2.2746582 C-8.06710091 -0.22459034 -4.2607991 -0.01454319 0 0 Z " fill="#000000" transform="translate(188.718505859375,281.725341796875)"/>
<path d="M0 0 C0.79249146 -0.0087616 1.58498291 -0.01752319 2.40148926 -0.02655029 C5.01301325 -0.04850145 7.62283474 -0.0340079 10.234375 -0.01708984 C12.05371423 -0.02045924 13.87305127 -0.02531288 15.69238281 -0.03158569 C19.5021715 -0.03895118 23.31137337 -0.02826218 27.12109375 -0.00488281 C32.00065826 0.02360505 36.87884775 0.00719931 41.75836182 -0.02274513 C45.51426524 -0.04082702 49.26984353 -0.03505605 53.02575684 -0.02210617 C54.824668 -0.01877461 56.62360885 -0.02285047 58.42248535 -0.03450394 C60.9387003 -0.04722781 63.45269979 -0.02781685 65.96875 0 C67.08014343 -0.01518173 67.08014343 -0.01518173 68.21398926 -0.03067017 C72.10463774 0.04887461 73.84868482 0.5409312 76.95019531 2.9647522 C78.984375 5.64697266 78.984375 5.64697266 79.546875 9.20947266 C78.90566311 13.12798977 78.08938281 14.27255492 74.984375 16.64697266 C71.9514632 18.16342855 68.80414504 17.79428891 65.47705078 17.79223633 C64.31582199 17.79727425 64.31582199 17.79727425 63.13113403 17.80241394 C60.563969 17.81193701 57.99686911 17.81386779 55.4296875 17.81494141 C53.64850843 17.81815328 51.86732963 17.8215173 50.08615112 17.82502747 C46.34860625 17.83102229 42.6110845 17.83286703 38.87353516 17.83227539 C34.0827591 17.8321738 29.29213136 17.84582114 24.50139046 17.8630476 C20.82110919 17.87416347 17.14086381 17.87619472 13.46056747 17.87566566 C11.6943193 17.87684659 9.92807022 17.88127467 8.16183853 17.88899803 C5.69128272 17.89878867 3.22104922 17.89592349 0.75048828 17.88989258 C0.01995239 17.89551208 -0.7105835 17.90113159 -1.46325684 17.90692139 C-5.1295155 17.88416402 -7.94393036 17.75718468 -11.015625 15.64697266 C-13.31531063 12.42741277 -13.56911138 9.52137733 -13.015625 5.64697266 C-9.21230123 0.67132016 -5.98931172 -0.08181453 0 0 Z " fill="#000000" transform="translate(188.015625,188.35302734375)"/>
<path d="M0 0 C4.18757275 3.70899301 5.96187397 8.0680272 6.625 13.5625 C5.95970469 18.69477809 4.47544613 21.77520715 0.625 25.25 C-4.33638353 28.68480398 -8.89254125 28.53116818 -14.8125 27.9375 C-18.59815751 26.1798733 -20.28103928 24.68154501 -22.6875 21.3125 C-24.64094947 15.45215158 -24.84011436 10.2496323 -22.3125 4.5625 C-15.67045699 -2.41164516 -8.86961389 -3.35074303 0 0 Z " fill="#000000" transform="translate(233.8125,32.0625)"/>
</svg>
