<svg xmlns="http://www.w3.org/2000/svg" width="682.667" height="682.667" version="1.0" viewBox="0 0 512 512"><path d="M343 .9c-8.3 2.6-15.1 9.5-17.5 17.5-1 3.3-1.5 9.5-1.5 18.7v13.7l-17.7.4c-14.9.4-18.8.9-23.7 2.7-8.8 3.1-14.4 6.8-20.8 13.3l-5.8 5.9-5.7-5.9c-6.4-6.5-12-10.1-20.9-13.4l-5.9-2.3-82.9-.3c-94.8-.3-90.2-.7-98.6 7.7-6.7 6.7-8 11.6-8 29.1v13.7l-7.5.6c-11.8 1-18 4.6-23.3 13.6l-2.7 4.6L.2 292c-.2 129.3 0 172.6.9 175.8 1.7 6 6 11.6 11.6 14.9l4.8 2.8 93.4.5 93.4.5 1.2 5.2c2.1 9.3 8.9 16.6 18.1 19.3 2.7.8 13.5 1 34.4.8 34.3-.3 34.7-.4 42.2-8.1 3.4-3.5 4.6-6.2 7.4-16.4.3-1 19.7-1.3 92.7-1.3h92.3l5.2-2.6c2.9-1.4 6.5-4.2 8.2-6.2 6.4-7.8 6 4.4 5.8-184.7l-.3-172-2.7-4.6c-5.3-9-11.5-12.6-23.3-13.6l-7.5-.6V88c0-17.5-1.4-22.4-8-29-7.2-7.3-10.7-8-37.6-8h-22.2l-.4-15.8c-.5-16.9-1.3-20-6.3-26-1.5-1.8-4.8-4.5-7.4-6L391.5.5l-23-.2c-12.6-.1-24.1.2-25.5.6m46.5 18.5c2.9 2.9 3.7 6.9 3.3 16.1l-.3 7h-51V32.2c0-10.1.1-10.4 2.8-12.8 2.8-2.4 3.1-2.4 22.8-2.4s20 0 22.4 2.4m3.5 53.1V85h-52V60h52zm-171.5-3c11.1 2.9 19.7 10.6 23.8 21.3 1.6 3.9 1.7 17.2 1.7 159.2v154.9l-5-3.4c-2.7-1.8-7.6-4.4-10.7-5.7l-5.8-2.3-84-.5c-46.2-.3-84.8-.9-85.8-1.4-4.9-2.4-4.7 4.5-4.7-161.3C51 108.1 51.3 75 52.3 73c2.6-5.1.7-5 84.7-5 67.8 0 79.4.2 84.5 1.5m102.7 105.2c.3 106.1.3 106.8 2.4 111.9 2.1 5 22.8 42.1 26.7 47.7 4.4 6.4 14.7 8.5 21.8 4.5 4.5-2.5 5.7-4.2 20-29.3 16.2-28.5 14.4-11.6 14.7-135.3l.3-106.3 22.9.3c22.4.3 23 .4 25.2 2.6l2.3 2.3.3 155.7c.2 115.6-.1 156.4-.9 158.5-.7 1.5-2.1 3.3-3.3 4-1.6.9-22.9 1.3-86.1 1.7l-84 .5-5.8 2.3c-3.1 1.3-8 3.9-10.7 5.7l-5 3.4V250.1c0-133.2.2-155.4 1.5-159 3.6-10.3 12.7-18.6 23.5-21.5 3.5-.9 10.6-1.5 19.7-1.5l14.2-.1zm33.8 12.8V273h-17v-84.8c0-46.7.3-85.2.7-85.5.3-.4 4.2-.7 8.5-.7h7.8zm34.8.2.2 85.3h-18v-84.8c0-46.7.3-85.2.7-85.6s4.3-.5 8.8-.4l8 .3zM34.2 276.2l.3 157.3 2.9 5.3c3.2 5.7 7.9 9.8 13.5 11.8 5.3 1.9 404.9 1.9 410.2 0 5.6-2 10.3-6.1 13.5-11.8l2.9-5.3.3-157.3.2-157.2h4c5.1 0 10.5 2.2 11.9 4.8.8 1.5 1.1 51.7 1.1 170.2 0 148.7-.2 168.4-1.5 171-.9 1.7-1.7 3.1-1.8 3.2-.1.2-44.4.5-98.4.8l-98.2.5-2.3 2.2c-1.8 1.9-2.3 3.6-2.6 9.5-.4 8.4-1.4 11.1-4.9 12.7-3.3 1.5-55.3 1.5-58.6 0-3.5-1.6-4.5-4.3-4.9-12.7-.3-5.9-.8-7.6-2.6-9.5l-2.3-2.2-98.2-.5c-54-.3-98.3-.6-98.4-.8-.1-.1-.9-1.5-1.8-3.2-1.3-2.6-1.5-22.3-1.5-171 0-118.4.3-168.7 1.1-170.1 1.4-2.7 6.4-4.8 11.6-4.9H34zm351.6 14.6c-1.2 3-18.3 32.2-18.9 32.2S348 291.6 348 290.5c0-.3 8.6-.5 19.1-.5s18.9.4 18.7.8M138.5 410c83.2.5 84 .5 88.6 2.6 8.1 3.8 16.1 12.5 18.4 20.1l.6 2.3H56.2l-2.6-3.1c-2.4-2.9-2.6-3.7-2.6-13.6 0-9.7.1-10.4 1.8-9.7.9.5 39.5 1.1 85.7 1.4m322.5 8.4c0 9.8-.2 10.6-2.6 13.5l-2.6 3.1H265.9l.6-2.3c2.5-8.3 11.4-17.4 20.1-20.7 5.3-1.9 7.6-2 86.2-2.1 44.4-.1 82.1-.5 83.7-.9 1.7-.4 3.3-.8 3.8-.9.4 0 .7 4.6.7 10.3"/><path d="M143 102.7c-4.4 1.6-6 4.5-6 10.9v6.3l-6.4 3c-7.4 3.6-12.8 9.1-16.5 17-3.5 7.5-3.7 20.1-.4 27.3 5.3 11.5 16.2 18.9 30.5 20.6 8.9 1.1 12.9 3.4 15.8 9.2 4.7 9.2-.1 20.9-9.8 24.1-10.2 3.4-22.2-5.3-22.2-16 0-7.8-9.7-11.5-14.8-5.6-2.2 2.6-2.4 3.6-1.9 8.6 1.1 12.9 10.1 24.2 23 28.8 2.6 1 2.7 1.4 2.7 7.6 0 5.7.3 6.9 2.5 9 3.1 3.2 7.5 3.2 11.1.2 2.3-2 2.7-3.3 3.1-9.4l.6-7.1 3.8-1.1c5.4-1.6 14.3-10.1 17.6-16.9 2.4-5 2.8-6.8 2.8-14.7 0-7.4-.5-9.9-2.4-13.7-5.7-11.7-15.3-18.4-28.5-19.9-8.9-.9-12.5-2.6-16.2-7.4-5.6-7.3-3.4-19 4.5-24.2 4.1-2.7 12.6-3.1 17.1-.8s8 7.7 8.9 13.6c1.5 9.2 9.1 13 14.8 7.3 2.4-2.4 2.5-3.1 2-9-.9-12-9.5-23.9-20.2-28-4.5-1.7-4.5-1.7-4.5-6.4 0-7.1-1.7-11-5.6-12.6-1.8-.8-3.5-1.4-3.6-1.3-.2 0-1 .3-1.8.6M79.5 284.5c-3.2 3.1-3.2 7.5-.1 11.2l2.4 2.8 66.4.2c52.2.2 66.8 0 68.8-1 5.2-2.6 6.2-9.5 2-13.7-2-2-3.6-2-69.5-2H81.9zM80.1 326.6c-4 3.3-4.3 8.3-.6 11.9l2.4 2.5h67.6c65.9 0 67.5 0 69.5-2 4.3-4.3 3.4-11-2-13.7-1.9-1-17.7-1.3-68.2-1.3H83.2z"/></svg>