<svg xmlns="http://www.w3.org/2000/svg" width="512" height="512"><path d="m267.809 2.613 2.253.853c2.464.936 4.92 1.89 7.375 2.847q2.619 1.002 5.239 2.001c4.76 1.82 9.512 3.659 14.263 5.501 4.237 1.64 8.477 3.271 12.717 4.902 12.247 4.715 24.493 9.431 36.702 14.242q2.626 1.035 5.257 2.062c2.404.941 4.803 1.896 7.201 2.854l2.139.83c3.481 1.41 4.903 2.082 7.045 5.295.246 1.884.246 1.884.24 4.043l.009 2.486-.022 2.716v2.868c0 3.133-.016 6.266-.032 9.399l-.008 6.511c-.008 5.716-.028 11.432-.05 17.149-.02 5.831-.03 11.663-.04 17.494-.02 11.445-.055 22.89-.097 34.334l2.783.428c3.671.653 7.012 1.823 10.479 3.154l2.038.774q2.118.809 4.232 1.627c2.155.83 4.316 1.64 6.478 2.449q2.064.792 4.127 1.588l1.95.723c3.79 1.492 5.84 2.754 7.913 6.257.37 2.554.37 2.554.36 5.492l.013 3.383-.032 3.696v3.903c.002 3.53-.016 7.058-.037 10.586-.019 3.69-.02 7.378-.024 11.067-.01 6.984-.034 13.968-.064 20.952-.033 7.951-.05 15.903-.065 23.854-.031 16.356-.084 32.711-.151 49.067l2.012.592c8.772 2.601 8.772 2.601 12.97 4.239l2.574.997 2.698 1.059 2.92 1.134q4.695 1.829 9.389 3.666l6.526 2.548q4.999 1.95 9.997 3.903 9.57 3.74 19.168 7.407 5.69 2.176 11.376 4.365 2.67 1.022 5.342 2.034c2.468.935 4.93 1.883 7.391 2.833l2.184.816c4.011 1.566 6.742 3.05 9.453 6.407.503 2.605.503 2.605.508 5.617l.034 3.467-.024 3.791q.008 2.001.02 4.002c.02 3.62.012 7.24 0 10.86-.01 3.788-.001 7.576.005 11.365a4612 4612 0 0 1-.022 19.086c-.021 7.355-.014 14.71.008 22.064q.026 9.473.01 18.946c-.006 3.772-.007 7.543.006 11.315q.017 5.318-.02 10.637c-.007 1.922.005 3.844.017 5.766l-.034 3.467-.005 3.012c-.648 3.354-1.87 4.492-4.503 6.605a96 96 0 0 1-7.531 3.188l-2.314.894c-2.548.983-5.101 1.95-7.655 2.918q-2.7 1.036-5.399 2.075a4616 4616 0 0 1-11.727 4.49 5559 5559 0 0 0-20.272 7.794c-9.03 3.484-18.06 6.967-27.094 10.438l-2.88 1.11q-2.717 1.041-5.439 2.069a298 298 0 0 0-5.537 2.174c-9.854 3.86-16.185 3.308-25.972-.568l-2.888-1.106c-3.144-1.208-6.28-2.435-9.417-3.663l-6.594-2.55q-6.984-2.7-13.963-5.421a3217 3217 0 0 0-20.597-7.916c-4.332-1.654-8.66-3.317-12.988-4.98q-3.6-1.38-7.204-2.752a2118 2118 0 0 1-10.084-3.878l-3.036-1.146c-9.098-3.55-9.098-3.55-11.409-7.17-.61-3.453-.61-3.453-.75-7.25l-.172-3.828L287 454l-2.352.918q-4.366 1.693-8.744 3.354a807 807 0 0 0-5.603 2.173c-13.017 4.925-18.826 3.833-31.676-1.382l-3.598-1.42c-8.395-3.327-8.395-3.327-11.027-4.643l.14 3.14q.057 2.055.11 4.11l.102 2.066c.06 3.149.04 5.17-1.906 7.714-3.076 2.477-6.32 3.79-9.977 5.158l-2.314.894c-2.548.983-5.101 1.95-7.655 2.918q-2.7 1.036-5.399 2.075a4616 4616 0 0 1-11.727 4.49 5559 5559 0 0 0-20.272 7.794c-9.03 3.484-18.06 6.967-27.094 10.438l-2.88 1.11q-2.717 1.041-5.439 2.069a298 298 0 0 0-5.537 2.174c-9.854 3.86-16.185 3.308-25.972-.568l-2.888-1.106c-3.144-1.208-6.28-2.435-9.417-3.663l-6.594-2.55q-6.984-2.7-13.963-5.421a3217 3217 0 0 0-20.597-7.916c-4.332-1.654-8.66-3.317-12.988-4.98q-3.6-1.38-7.204-2.752a2118 2118 0 0 1-10.084-3.878l-3.036-1.146-2.791-1.09c-.8-.307-1.6-.613-2.423-.93C3.513 471.745 1.94 470.333 0 468c-.503-2.605-.503-2.605-.508-5.617l-.034-3.467.024-3.791q-.008-2.001-.02-4.002c-.02-3.62-.012-7.24 0-10.86.01-3.788.001-7.576-.005-11.365q-.01-9.542.022-19.086c.021-7.355.014-14.71-.008-22.064q-.026-9.473-.01-18.946c.006-3.772.007-7.543-.006-11.315q-.017-5.318.02-10.637c.007-1.922-.005-3.844-.017-5.766l.034-3.467.005-3.012C.139 331.281 1.417 330.116 4 328c2.012-1.074 2.012-1.074 4.175-1.897l2.497-.968 2.715-1.014 2.879-1.106c3.137-1.202 6.279-2.39 9.422-3.577l6.54-2.502q5.107-1.955 10.217-3.903c8.225-3.134 16.433-6.31 24.633-9.51l3.42-1.333q6.603-2.573 13.203-5.154a5700 5700 0 0 1 9.108-3.548l2.745-1.076 2.498-.97 2.177-.849C102 290 102 290 104 290l-.008-2.05q-.1-24.687-.147-49.375c-.016-7.959-.037-15.918-.071-23.877q-.046-10.404-.056-20.81c-.004-3.673-.013-7.346-.035-11.02-.024-4.098-.025-8.197-.024-12.297l-.032-3.696.012-3.383-.008-2.938c.439-3.038 1.255-4.354 3.369-6.554a83 83 0 0 1 7.625-3.234l2.252-.858a680 680 0 0 1 4.71-1.764 846 846 0 0 0 7.21-2.718q2.289-.864 4.578-1.723l2.178-.824c2.956-1.09 5.27-1.879 8.447-1.879l-.027-3.656q-.12-17.04-.18-34.078-.03-8.76-.095-17.521-.063-8.453-.078-16.904a981 981 0 0 0-.043-6.454c-.029-3.01-.033-6.019-.031-9.029l-.044-2.705c.04-6.016.04-6.016 2.268-9.12 2.112-1.452 3.968-2.504 6.357-3.414l2.469-.958 2.685-1.005 2.854-1.097c3.118-1.197 6.241-2.378 9.365-3.559q3.26-1.246 6.52-2.496 6.89-2.638 13.786-5.26c7.309-2.784 14.608-5.593 21.905-8.408l7.178-2.768 3.513-1.354q8.324-3.21 16.653-6.41l2.928-1.127 2.68-1.03 2.332-.895c7.556-2.833 13.436-2.052 20.814.861M250.735 18.57l-2.691 1.046-2.939 1.154-3.053 1.189q-3.248 1.266-6.495 2.535c-5.594 2.189-11.193 4.366-16.791 6.545l-3.342 1.302a2926 2926 0 0 1-26.987 10.346l-3.61 1.365Q180.915 45.528 177 47v2l1.71.647q7.326 2.774 14.651 5.554a8291 8291 0 0 0 13.809 5.223c19.673 7.44 19.673 7.44 29.033 11.392l3.839 1.6q3.345 1.41 6.658 2.9l2.956 1.239 2.432 1.077c7.863.993 16.67-3.97 23.869-6.8l3.102-1.208q4.879-1.902 9.753-3.811 6.384-2.492 12.77-4.981l3.138-1.225C314.792 56.681 324.892 52.83 335 49v-2l-1.933-.737-18.389-7.01q-4.722-1.803-9.444-3.602l-10.957-4.178-3.63-1.385a1811 1811 0 0 1-20.753-8.063q-3.009-1.189-6.013-2.388l-2.672-1.057-2.33-.93c-3.223-1.115-5.057-.287-8.144.92M160 60v74c5.918-1.776 11.424-3.444 17.102-5.7l1.84-.726q2.844-1.127 5.683-2.261l3.91-1.55Q193.27 121.889 198 120q.725 2.31 1.438 4.625l.808 2.602c.782 2.877 1.264 5.831 1.754 8.773l-42 16v18c17.84 7.206 35.765 14.165 53.75 21l11.111 4.23a12308 12308 0 0 0 9.92 3.774l2.698 1.026c1.732.666 3.452 1.367 5.16 2.095 2.41 1.049 2.41 1.049 5.361.875V94c-19.18-7.699-19.18-7.699-38.43-15.21l-3.311-1.275-6.758-2.595q-5.136-1.97-10.27-3.947l-6.66-2.559-3.038-1.168-5.404-2.073c-4.696-1.76-9.416-3.46-14.129-5.173m184.378 2.646-2.854 1.097-3.102 1.21-3.235 1.249q-5.22 2.018-10.437 4.048l-7.123 2.755q-7.058 2.73-14.112 5.468-8.391 3.255-16.788 6.492l-8.352 3.222-1.943.75-5.284 2.043-2.9 1.122c-2.233.856-2.233.856-4.248 1.898v110c27.24-10.33 27.24-10.33 54.467-20.692l7.326-2.79q5.402-2.055 10.805-4.116l3.307-1.256 3.052-1.166 2.67-1.016c2.17-.882 4.277-1.916 6.373-2.964v-18l-42-16c.675-4.049 1.364-7.52 2.563-11.375l.816-2.648L314 120l3.273 1.285q5.998 2.352 11.998 4.696 2.6 1.017 5.197 2.038 3.73 1.464 7.462 2.918l2.355.928c3.745 1.573 3.745 1.573 7.715 2.135V61c-3.104 0-4.758.536-7.622 1.646m-207.132 98.069-2.838 1.08-2.97 1.143-2.983 1.13c-4.549 1.427-4.549 1.427-8.455 3.932a77 77 0 0 0-.12 4.752l-.004 3.115.01 3.446v3.606q.001 4.909.013 9.818c.006 3.416.006 6.833.008 10.25q.005 9.711.021 19.422.016 11.052.022 22.106.016 22.743.05 45.485c10.757 4.32 21.515 8.631 32.344 12.77l6.488 2.488 3.307 1.267q8.571 3.287 17.138 6.584c8.897 3.422 8.897 3.422 17.798 6.834 3.999 1.531 7.994 3.074 11.988 4.62l3.359 1.278 2.988 1.163 2.504.963c2.266 1.122 3.487 2.08 5.086 4.033.385 1.978.385 1.978.399 4.271l.038 2.639-.005 2.886.031 3.045c.03 3.328.04 6.655.049 9.983l.054 6.915c.048 6.071.077 12.143.104 18.214.03 6.193.076 12.387.121 18.58.086 12.156.153 24.311.209 36.467a762 762 0 0 0 12.695 5.292 306 306 0 0 1 4.306 1.807c2.07.886 4.152 1.73 6.241 2.569l1.899.842c5.894 2.287 10.136.69 15.859-1.51l2.951-1.1a599 599 0 0 0 9.174-3.587l3.188-1.26A2928 2928 0 0 0 288 435l.018-3.89q.086-18.122.218-36.243c.044-6.212.084-12.423.11-18.634q.04-8.988.117-17.974.025-3.433.035-6.867c.01-3.199.037-6.397.07-9.596l-.005-2.886.038-2.639.014-2.293c.49-2.515 1.42-3.384 3.385-4.978 1.891-.954 1.891-.954 4.061-1.783l2.498-.968 2.73-1.03 2.883-1.11c3.149-1.21 6.3-2.41 9.453-3.609l6.555-2.517q6.872-2.64 13.747-5.271a7712 7712 0 0 0 31.246-12.071q4.854-1.882 9.71-3.76l8.671-3.356 2.498-.969 2.177-.842c1.832-.711 1.832-.711 3.771-1.714V168c-11.313-5.77-11.313-5.77-24-9l-.044 1.88a1045 1045 0 0 1-.269 8.433l-.068 2.958-.107 2.842-.08 2.619c-.546 2.868-1.06 3.564-3.432 5.268-2.47 1.124-4.9 2.132-7.434 3.09l-2.318.9c-2.559.99-5.122 1.969-7.685 2.947q-2.708 1.043-5.413 2.09a5595 5595 0 0 1-11.76 4.521 9565 9565 0 0 0-20.292 7.815q-13.542 5.226-27.09 10.434l-2.88 1.11q-2.717 1.041-5.439 2.069a298 298 0 0 0-5.537 2.174c-9.854 3.86-16.185 3.308-25.972-.568l-2.888-1.106c-3.144-1.208-6.28-2.435-9.417-3.663l-6.592-2.547q-6.984-2.7-13.96-5.42a3908 3908 0 0 0-20.633-7.95q-6.507-2.497-13.012-5.005-3.61-1.389-7.224-2.772c-3.372-1.292-6.74-2.595-10.106-3.9l-3.052-1.163-2.792-1.09-2.43-.936c-2.195-1.09-3.524-2.14-5.074-4.03-.432-2.268-.432-2.268-.512-4.887l-.107-2.842-.069-2.958-.103-2.995q-.124-3.658-.209-7.318c-2.563 0-4.355.8-6.754 1.715M120 308v28h-16v-27c-4.01.668-6.78 1.137-10.387 2.547l-2.463.953-2.623 1.035-2.782 1.082a3316 3316 0 0 0-8.808 3.445q-4.305 1.68-8.61 3.358l-5.712 2.228C52.766 327.492 42.886 331.254 33 335v2l1.71.647q7.326 2.774 14.651 5.554a8291 8291 0 0 0 13.809 5.223c19.673 7.44 19.673 7.44 29.033 11.392l3.839 1.6q3.346 1.41 6.658 2.9l2.956 1.239 2.432 1.077c7.863.993 16.67-3.97 23.869-6.8l3.102-1.208q4.879-1.901 9.754-3.812 6.383-2.49 12.769-4.98l3.138-1.225c10.072-3.926 20.172-7.777 30.28-11.607v-2a126448 126448 0 0 0-30.294-11.575C147.15 318.245 133.595 313.073 120 308m288 0v28h-16v-27c-4.01.668-6.78 1.137-10.387 2.547l-2.463.953-2.623 1.035-2.782 1.082a3316 3316 0 0 0-8.808 3.445q-4.305 1.68-8.61 3.358l-5.712 2.228c-9.849 3.844-19.729 7.606-29.615 11.352v2l1.71.647q7.326 2.774 14.651 5.554a8291 8291 0 0 0 13.809 5.223c19.673 7.44 19.673 7.44 29.033 11.392l3.839 1.6q3.346 1.41 6.658 2.9l2.956 1.239 2.432 1.077c7.863.993 16.67-3.97 23.869-6.8l3.102-1.208q4.879-1.901 9.753-3.812 6.384-2.49 12.77-4.98l3.138-1.225c10.072-3.926 20.172-7.777 30.28-11.607v-2a126448 126448 0 0 0-30.294-11.575C435.15 318.245 421.595 313.073 408 308M16 348v110c19.605 7.869 19.605 7.869 39.297 15.5l3.556 1.355Q64.301 476.93 69.75 479l11.111 4.23 6.828 2.598 3.091 1.176 2.699 1.026c1.732.666 3.452 1.367 5.16 2.095 2.41 1.049 2.41 1.049 5.361.875V382c-19.18-7.699-19.18-7.699-38.43-15.21l-3.311-1.275-6.758-2.595q-5.136-1.97-10.27-3.947l-6.66-2.559-3.038-1.168-2.908-1.115-2.496-.958c-4.696-1.76-9.416-3.46-14.129-5.173m288 0v80c7.688-2.258 7.688-2.258 15.174-4.901l2.667-1.03 2.76-1.08 2.917-1.131q4.555-1.768 9.107-3.546l6.223-2.416Q350.426 410.954 358 408c1.666 5.3 3.273 10.473 4 16l-1.934.74q-9.978 3.814-19.953 7.64-3.72 1.426-7.444 2.849-5.355 2.048-10.708 4.103l-3.353 1.279c-5 1.922-9.885 3.856-14.608 6.389v11c17.84 7.206 35.765 14.165 53.75 21l11.111 4.23a12308 12308 0 0 0 9.92 3.774l2.698 1.026c1.732.666 3.452 1.367 5.16 2.095 2.41 1.049 2.41 1.049 5.361.875V382c-19.18-7.699-19.18-7.699-38.43-15.21l-3.311-1.275-6.758-2.595q-5.136-1.97-10.27-3.947l-6.66-2.559-3.038-1.168-2.908-1.115-2.496-.958c-4.696-1.76-9.416-3.46-14.129-5.173m-103.622 2.646-2.854 1.097-3.102 1.21-3.235 1.249c-3.48 1.344-6.959 2.696-10.437 4.048l-7.123 2.755q-7.058 2.73-14.112 5.468-8.391 3.255-16.788 6.492l-8.352 3.223-1.943.749-5.284 2.043-2.9 1.122c-2.233.856-2.233.856-4.248 1.898v110c27.24-10.33 27.24-10.33 54.467-20.692l7.326-2.79q5.402-2.055 10.805-4.116l3.307-1.256 3.052-1.166 2.67-1.016c2.17-.882 4.277-1.916 6.373-2.964v-11c-6.407-3.364-12.948-6.006-19.719-8.547l-3.328-1.26q-5.225-1.977-10.453-3.943l-7.117-2.691Q158.693 427.273 150 424c.727-5.527 2.334-10.7 4-16l1.96.76q10.072 3.898 20.147 7.785 3.763 1.453 7.525 2.91 5.398 2.089 10.798 4.17l3.415 1.326 3.155 1.213 2.785 1.077c2.14.867 2.14.867 4.215.759v-79c-3.104 0-4.758.536-7.622 1.646m288 0-2.854 1.097-3.102 1.21-3.235 1.249c-3.48 1.344-6.959 2.696-10.437 4.048l-7.123 2.755q-7.058 2.73-14.112 5.468-8.391 3.255-16.788 6.492l-8.352 3.223-1.943.749-5.284 2.043-2.9 1.122c-2.233.856-2.233.856-4.248 1.898v110c27.24-10.33 27.24-10.33 54.467-20.692l7.326-2.79q5.402-2.055 10.805-4.116l3.307-1.256 3.052-1.166 2.67-1.016c2.17-.882 4.277-1.916 6.373-2.964V349c-3.104 0-4.758.536-7.622 1.646"/></svg>