<?xml version="1.0" encoding="UTF-8"?>
<svg version="1.1" xmlns="http://www.w3.org/2000/svg" width="512" height="512">
<path d="M0 0 C1.90626423 -0.00570809 3.81252505 -0.01267404 5.71878052 -0.02079773 C10.87789494 -0.03869528 16.03683896 -0.0375672 21.19597507 -0.03185534 C25.5100263 -0.02875871 29.82404503 -0.0348612 34.13809162 -0.04089409 C44.31848848 -0.0549264 54.4988014 -0.05338865 64.67919922 -0.04199219 C75.16695592 -0.03051079 85.6544569 -0.04459004 96.14217991 -0.07138866 C105.16156957 -0.09356883 114.18087909 -0.10017785 123.20029408 -0.09431225 C128.58064307 -0.09094721 133.96082815 -0.09332778 139.3411541 -0.11056328 C144.40151843 -0.12606734 149.46150481 -0.1220384 154.5218544 -0.10325813 C156.37371437 -0.09958192 158.22560255 -0.10265238 160.07743645 -0.11314392 C177.98843353 -0.20683361 177.98843353 -0.20683361 186.23657227 4.40405273 C187.78344727 5.23936523 187.78344727 5.23936523 189.36157227 6.09155273 C197.29253518 12.47080552 202.38751249 19.57512183 205.23657227 29.40405273 C205.4964482 32.70989855 205.41294155 35.87695679 205.26538086 39.18847656 C204.46404057 57.89532037 210.47119928 72.492136 217.81291199 89.38679504 C222.96601592 101.28302696 227.51365471 113.42266242 232.14315796 125.5296936 C233.33838251 128.65417613 234.53631024 131.77759574 235.73657227 134.90014648 C236.12142288 135.90159195 236.5062735 136.90303741 236.90278625 137.93482971 C239.16525847 143.77569908 241.55779776 149.53285444 244.11157227 155.25170898 C252.38610222 174.04900598 253.75492124 190.17302594 252.23657227 210.40405273 C253.18435547 210.69755615 254.13213867 210.99105957 255.10864258 211.29345703 C258.46689581 212.4858309 259.73791754 213.51919855 261.98657227 216.21655273 C262.55891602 216.88299805 263.13125977 217.54944336 263.72094727 218.23608398 C268.75125982 225.43150529 267.23657227 229.75523738 267.23657227 239.40405273 C285.38657227 239.40405273 303.53657227 239.40405273 322.23657227 239.40405273 C322.23657227 234.45405273 322.23657227 229.50405273 322.23657227 224.40405273 C325.3521932 217.62299542 330.11660315 212.21037447 337.23657227 209.40405273 C344.79744399 208.57653797 352.37230353 208.08402694 358.65844727 212.90795898 C363.34042776 217.34656921 367.07849228 221.43214905 367.43188477 228.07592773 C367.41868561 229.43544069 367.39497334 230.79488605 367.36157227 232.15405273 C367.35254883 232.85143555 367.34352539 233.54881836 367.33422852 234.26733398 C367.31077114 235.97972231 367.27490331 237.69193277 367.23657227 239.40405273 C367.81511963 239.38310547 368.39366699 239.3621582 368.98974609 239.34057617 C393.84289395 238.55920171 393.84289395 238.55920171 404.54907227 247.59155273 C411.80010789 254.61203079 416.75470795 261.67084169 417.49384117 271.9989357 C417.49719286 273.28345501 417.50054455 274.56797432 417.5039978 275.89141846 C417.50852892 276.61242697 417.51306003 277.33343549 417.51772845 278.07629275 C417.53031611 280.47500059 417.52875575 282.87347974 417.52709961 285.2722168 C417.53308844 286.99922475 417.5398948 288.72623003 417.54745483 290.45323181 C417.56508718 295.13317308 417.56980908 299.81304115 417.57108641 304.49301243 C417.57251027 307.42071094 417.57678435 310.34839098 417.58208084 313.2760849 C417.60057283 323.50088172 417.6087526 333.72562647 417.60717773 343.95043945 C417.60597696 353.46338101 417.62706897 362.97609546 417.65866506 372.48897958 C417.68486688 380.67097671 417.69554337 388.85289984 417.69426692 397.03493857 C417.69375838 401.91514054 417.69938135 406.79514063 417.72062302 411.6753006 C417.74007101 416.26861545 417.74008525 420.86153722 417.72558975 425.45486641 C417.72350859 427.1337676 417.72816097 428.81269383 417.74031067 430.49155235 C417.83111214 443.91581862 416.33880371 454.18742124 406.67016602 464.17358398 C396.66894867 473.34002878 388.18632658 474.70741307 374.95751953 474.63110352 C373.61660267 474.63053869 372.27568518 474.63085736 370.93476868 474.63198853 C367.31127701 474.63256024 363.68791888 474.62083549 360.06445813 474.60684061 C356.27148959 474.59430286 352.47851768 474.59316036 348.68553162 474.59078979 C341.51046037 474.58458395 334.33545038 474.5681853 327.16040605 474.54809082 C318.98870287 474.52570388 310.8169967 474.51473137 302.64527047 474.50469995 C285.84233526 474.48381825 269.03946159 474.44865976 252.23657227 474.40405273 C252.25026855 475.66411133 252.26396484 476.92416992 252.27807617 478.22241211 C252.37469828 487.11164604 248.13792542 494.96492639 242.23657227 501.40405273 C236.48460089 507.23722841 229.28934194 512.07049145 220.89935917 512.5328539 C220.02892744 512.53464247 219.15849572 512.53643104 218.26168728 512.53827381 C217.25380545 512.54273166 216.24592362 512.5471895 215.20749992 512.55178243 C214.10217055 512.55159807 212.99684117 512.5514137 211.85801697 512.55122375 C210.68221386 512.55490044 209.50641075 512.55857713 208.29497725 512.56236523 C205.03019025 512.57148369 201.7654328 512.57609994 198.50063527 512.57875454 C194.97966363 512.5826615 191.4587065 512.59223963 187.93774414 512.60096741 C179.43354078 512.6207217 170.92933624 512.63079713 162.42511567 512.6396952 C158.41833868 512.64408016 154.41156301 512.64944647 150.40478706 512.65468407 C137.08160012 512.67169601 123.75841399 512.68618927 110.43521786 512.69343281 C106.97845903 512.69534264 103.52170021 512.69726298 100.06494141 512.69921875 C99.20580116 512.69970249 98.34666091 512.70018623 97.46148611 512.70068463 C83.54993221 512.70898153 69.6384644 512.73431285 55.72694807 512.76679943 C41.43775979 512.79989531 27.14861522 512.81788389 12.85938841 512.82107705 C4.83919249 512.8232399 -3.18087794 512.83195551 -11.20103645 512.85753822 C-18.03274442 512.8792799 -24.8642964 512.88727869 -31.69603503 512.87757144 C-35.17898085 512.87303659 -38.66160506 512.87486476 -42.14450645 512.89433289 C-45.92860317 512.9120446 -49.71188934 512.90494776 -53.49598694 512.89179993 C-55.13055842 512.9082538 -55.13055842 512.9082538 -56.79815155 512.92504007 C-68.04082627 512.83102506 -76.4508631 509.66275999 -84.53295898 501.83764648 C-93.3465836 492.22138004 -95.05508032 483.91538552 -95.11160278 471.18325806 C-95.12460069 469.95255471 -95.13759859 468.72185136 -95.15099037 467.45385396 C-95.1846408 464.04851995 -95.20941912 460.64333964 -95.23010373 457.23791647 C-95.24944525 454.31313377 -95.27605186 451.38843451 -95.30264165 448.46371008 C-95.39768762 437.97780571 -95.46319502 427.49178183 -95.52124023 417.00561523 C-95.5258554 416.17529705 -95.53047056 415.34497886 -95.53522557 414.48949951 C-95.62629084 397.94972117 -95.70314969 381.40988716 -95.75668526 364.86994362 C-95.76866059 361.23450273 -95.78083215 357.59906258 -95.79321289 353.96362305 C-95.79781184 352.6085148 -95.79781184 352.6085148 -95.80250369 351.22603063 C-95.85364889 336.6747965 -95.96714372 322.12474052 -96.10614349 307.57410856 C-96.24823916 292.57279434 -96.32772868 277.57208144 -96.35018432 262.57010591 C-96.36435657 254.17255214 -96.40489494 245.77705242 -96.51623917 237.38017654 C-96.96376954 202.49788983 -97.09066061 171.04727821 -80.67107201 139.22442341 C-77.7576564 133.5300518 -75.60388855 127.55757083 -73.39624023 121.56030273 C-72.63643705 119.58772455 -71.87376603 117.61624556 -71.10668945 115.64648438 C-69.55830963 111.64264988 -68.01715368 107.63609907 -66.47875977 103.62841797 C-59.95560441 86.67540961 -59.95560441 86.67540961 -56.37280273 78.65795898 C-50.69284301 65.88335346 -48.62655864 55.23128968 -48.82592773 41.18920898 C-48.92164249 30.2930773 -45.81906757 21.8630347 -40.07592773 12.71655273 C-28.17408481 0.81470981 -15.90626587 -0.04298712 0 0 Z M-28.01342773 24.65405273 C-33.00012221 30.88089375 -32.85787741 37.02234617 -32.80249023 44.68920898 C-32.79967041 45.43174927 -32.79685059 46.17428955 -32.79394531 46.93933105 C-32.78662088 48.76091863 -32.77541258 50.58248986 -32.76342773 52.40405273 C-31.44433411 52.40991898 -30.12524048 52.41578522 -28.76617432 52.42182922 C-16.3468727 52.47899338 -3.92774725 52.55172198 8.49137497 52.63976765 C14.87648003 52.68453264 21.26152038 52.72377534 27.64672852 52.75048828 C33.80654304 52.77645994 39.96610933 52.816819 46.12577057 52.867239 C48.47811043 52.88394926 50.83049326 52.89543754 53.18288422 52.90166664 C56.4728561 52.91126236 59.76218691 52.93926803 63.05200195 52.97167969 C64.51719772 52.96952705 64.51719772 52.96952705 66.01199341 52.96733093 C66.9093924 52.97986908 67.80679138 52.99240723 68.73138428 53.00532532 C69.50937756 53.00993428 70.28737083 53.01454325 71.08893967 53.01929188 C73.8083039 53.50648178 75.21078048 54.55804827 77.23657227 56.40405273 C77.76782227 58.34155273 77.76782227 58.34155273 77.73657227 60.40405273 C77.75204102 61.42499023 77.75204102 61.42499023 77.76782227 62.46655273 C77.00902594 65.23392755 75.63754135 65.90810506 73.23657227 67.40405273 C71.05770493 67.78881359 71.05770493 67.78881359 68.65545654 67.80278015 C67.2841156 67.82158737 67.2841156 67.82158737 65.8850708 67.84077454 C64.88957214 67.83933945 63.89407349 67.83790436 62.8684082 67.83642578 C61.81443848 67.84661743 60.76046875 67.85680908 59.67456055 67.86730957 C56.1899692 67.8975097 52.70565245 67.90671645 49.22094727 67.91577148 C46.80526816 67.93261292 44.38959785 67.95076243 41.97393799 67.97016907 C35.61505887 68.01773306 29.25621539 68.04750119 22.8972168 68.0736084 C16.40870117 68.10338152 9.92030843 68.14992302 3.43188477 68.19506836 C-9.29981932 68.28117437 -22.03155321 68.34905664 -34.76342773 68.40405273 C-37.51326555 74.97244691 -40.24669575 81.54377428 -42.86499023 88.16577148 C-43.27681549 89.20675491 -43.27681549 89.20675491 -43.69696045 90.26876831 C-44.59565921 92.54242424 -45.49231519 94.81687634 -46.38842773 97.09155273 C-46.70080383 97.88399384 -47.01317993 98.67643494 -47.33502197 99.4928894 C-49.81780989 105.7940044 -52.29234925 112.09833741 -54.76342773 118.40405273 C-55.17488037 119.45395386 -55.58633301 120.50385498 -56.01025391 121.58557129 C-58.63057032 128.27518704 -61.24424549 134.96735488 -63.85101318 141.66226196 C-64.70711783 143.85954852 -65.56457382 146.05630905 -66.42340088 148.25253296 C-67.631922 151.34445561 -68.83508164 154.43841242 -70.03686523 157.53295898 C-70.39971619 158.45841522 -70.76256714 159.38387146 -71.13641357 160.33737183 C-71.46885071 161.19670319 -71.80128784 162.05603455 -72.14379883 162.94140625 C-72.57890274 164.05854759 -72.57890274 164.05854759 -73.02279663 165.19825745 C-73.95787857 167.82941701 -73.95787857 167.82941701 -74.76342773 172.40405273 C26.54657227 172.40405273 127.85657227 172.40405273 232.23657227 172.40405273 C229.98023164 164.71035862 229.98023164 164.71035862 227.31396484 157.23779297 C226.96487061 156.34842041 226.61577637 155.45904785 226.25610352 154.54272461 C225.88485352 153.60879883 225.51360352 152.67487305 225.13110352 151.71264648 C224.53591919 150.20069702 224.53591919 150.20069702 223.92871094 148.65820312 C222.63917096 145.38452435 221.34413613 142.1130497 220.04907227 138.84155273 C219.15433973 136.57292953 218.26005719 134.3041288 217.36621094 132.03515625 C216.00153797 128.57106423 214.6366166 125.10707322 213.2702179 121.6436615 C210.29513155 114.10122043 207.33611736 106.55270477 204.39282227 98.99780273 C204.01993576 98.04067886 203.64704926 97.08355499 203.26286316 96.09742737 C201.84406446 92.4542594 200.4260076 88.81080397 199.00894165 85.16696167 C198.05044295 82.70271851 197.09085128 80.23890338 196.13110352 77.77514648 C195.84976562 77.05053223 195.56842773 76.32591797 195.27856445 75.5793457 C193.86766699 71.94377116 193.86766699 71.94377116 192.23657227 68.40405273 C191.11570724 68.39818649 189.99484222 68.39232025 188.8400116 68.38627625 C178.28932816 68.32912309 167.73885231 68.25640051 157.18838024 68.16833782 C151.76394822 68.12356419 146.33959252 68.08432356 140.91503906 68.05761719 C135.68239649 68.0316539 130.45004655 67.99130124 125.21758461 67.94086647 C123.21889186 67.92415044 121.22014844 67.91266576 119.22139549 67.90643883 C116.42690551 67.89684912 113.63317224 67.86885194 110.83886719 67.83642578 C109.59269623 67.83857841 109.59269623 67.83857841 108.3213501 67.84077454 C102.66935141 67.74770153 102.66935141 67.74770153 100.54735279 66.06272602 C98.203124 63.09631815 98.09061732 59.75413594 98.48657227 56.09155273 C98.73407227 55.53467773 98.98157227 54.97780273 99.23657227 54.40405273 C103.03086737 53.1392877 106.60835776 53.22708818 110.56347656 53.19873047 C111.83697464 53.18388107 111.83697464 53.18388107 113.13619995 53.16873169 C115.94436854 53.1371269 118.75255405 53.11236325 121.56079102 53.08764648 C123.50706931 53.06707608 125.45334314 53.04607958 127.39961243 53.02467346 C132.52385854 52.96946175 137.64814492 52.92004846 142.77246094 52.87182617 C148.0007689 52.82160461 153.22901835 52.76592195 158.45727539 52.71069336 C168.71699104 52.60312278 178.97675748 52.50167533 189.23657227 52.40405273 C189.35417942 49.23770637 189.4242825 46.071932 189.48657227 42.90405273 C189.5368457 41.57374023 189.5368457 41.57374023 189.58813477 40.21655273 C189.6928686 33.09465169 188.2144346 27.78679986 183.45532227 22.38061523 C182.60454102 21.7115918 182.60454102 21.7115918 181.73657227 21.02905273 C181.16938477 20.56756836 180.60219727 20.10608398 180.01782227 19.63061523 C173.99260816 15.48167394 167.96324525 15.2795795 160.77334595 15.27033997 C160.04290805 15.26807441 159.31247016 15.26580885 158.55989778 15.26347464 C156.12349304 15.25716764 153.6871444 15.25796188 151.25073242 15.25878906 C149.49930245 15.25579553 147.74787315 15.25239255 145.9964447 15.24861145 C141.2464108 15.23978748 136.49639493 15.23743402 131.74635363 15.23679566 C128.77697977 15.23608431 125.80761048 15.23394837 122.83823776 15.23129845 C112.47426818 15.22205067 102.11031146 15.21796289 91.74633789 15.21875 C82.09312382 15.2193508 72.43996563 15.20879707 62.78676569 15.19300634 C54.49189352 15.17992217 46.1970396 15.17456647 37.90215719 15.17520541 C32.95111524 15.17546012 28.00012298 15.17262381 23.04909134 15.16202736 C18.39187364 15.15233153 13.73475298 15.1522774 9.07753181 15.15954399 C7.37157486 15.16058795 5.66561182 15.15823817 3.9596653 15.15218353 C1.62425231 15.14443383 -0.710828 15.14912787 -3.04623413 15.15681458 C-4.35107443 15.15626981 -5.65591473 15.15572504 -7.00029564 15.15516376 C-15.61724008 15.72507797 -22.01699444 18.29551598 -28.01342773 24.65405273 Z M-79.76342773 188.40405273 C-79.80467773 235.40842773 -79.84592773 282.41280273 -79.88842773 330.84155273 C-79.90663574 345.69082764 -79.92484375 360.54010254 -79.94360352 375.83935547 C-79.95029182 389.13422347 -79.95029182 389.13422347 -79.95431519 402.42909241 C-79.95618069 408.35704635 -79.96351893 414.28496262 -79.97457886 420.21290588 C-79.98731801 427.05100983 -79.99309762 433.88907763 -79.99031764 440.72719354 C-79.98911384 444.22447158 -79.99101019 447.72166884 -80.001858 451.21893203 C-80.01180202 454.96738589 -80.00940888 458.71563759 -80.00393677 462.46409607 C-80.0097621 463.55037827 -80.01558743 464.63666048 -80.02158928 465.75586033 C-79.98715449 474.5292899 -79.50230666 482.38986738 -73.76342773 489.40405273 C-65.54250134 497.35978795 -57.72714468 497.55415495 -46.77629089 497.5377655 C-45.66678819 497.54003106 -44.5572855 497.54229662 -43.4141615 497.54463083 C-39.69487965 497.550963 -35.97563431 497.55014196 -32.25634766 497.54931641 C-29.59029504 497.55230838 -26.92424529 497.5556827 -24.25819397 497.55949402 C-17.76687965 497.56779265 -11.27557441 497.5705485 -4.78425523 497.5711064 C0.49346279 497.57158193 5.77117781 497.57363856 11.04889488 497.57680702 C26.01966427 497.58561146 40.99042649 497.59022673 55.96119849 497.58947655 C57.17125729 497.58941661 57.17125729 497.58941661 58.40576172 497.58935547 C59.21345513 497.58931459 60.02114855 497.58927371 60.85331752 497.58923159 C73.94158442 497.58882518 87.02982255 497.59839391 100.11808113 497.61249384 C113.56433414 497.62686487 127.01057313 497.63376362 140.45683402 497.63290006 C148.00293581 497.63256834 155.54900744 497.63530444 163.09510231 497.64607811 C169.52018902 497.65519268 175.94523188 497.65735051 182.37032226 497.65056869 C185.64637035 497.6473083 188.92231708 497.64832073 192.19836044 497.65592194 C195.75514344 497.66363949 199.31170624 497.65899837 202.8684845 497.65129089 C203.89651414 497.65643446 204.92454379 497.66157802 205.98372585 497.66687745 C214.52055449 497.62605493 222.48821114 497.10266879 229.23657227 491.40405273 C234.47502194 485.9811506 235.72969542 481.81600629 236.23657227 474.40405273 C234.73259888 474.39003418 234.73259888 474.39003418 233.19824219 474.37573242 C229.42746855 474.33542985 225.65747682 474.26956689 221.88720703 474.1965332 C220.26491448 474.16855432 218.64249146 474.1472267 217.02001953 474.13305664 C203.22345091 474.00542881 192.74816115 472.79027372 182.40063477 462.77124023 C175.6487705 455.38562697 172.99547158 448.00556575 172.96914673 437.91668701 C172.96461562 437.19567849 172.9600845 436.47466998 172.95541608 435.73181272 C172.94282842 433.33310488 172.94438878 430.93462573 172.94604492 428.53588867 C172.9400561 426.80888072 172.93324973 425.08187544 172.9256897 423.35487366 C172.90805735 418.67493239 172.90333545 413.99506431 172.90205812 409.31509304 C172.90063426 406.38739453 172.89636018 403.45971448 172.89106369 400.53202057 C172.8725717 390.30722375 172.86439193 380.082479 172.8659668 369.85766602 C172.86716758 360.34472446 172.84607556 350.83201001 172.81447947 341.31912589 C172.78827765 333.13712876 172.77760116 324.95520563 172.77887762 316.77316689 C172.77938615 311.89296493 172.77376318 307.01296484 172.75252151 302.13280487 C172.73307352 297.53949002 172.73305928 292.94656825 172.74755478 288.35323906 C172.74963594 286.67433786 172.74498356 284.99541164 172.73283386 283.31655312 C172.64164827 269.83549741 174.16267297 259.59307987 183.86938477 249.56811523 C192.44398712 241.72928734 200.86137621 240.15021433 212.17407227 239.77905273 C213.1440918 239.74038086 214.11411133 239.70170898 215.11352539 239.66186523 C217.48769302 239.56830198 219.86186718 239.48256066 222.23657227 239.40405273 C222.26235352 238.48624023 222.28813477 237.56842773 222.31469727 236.62280273 C223.00373872 221.71445129 223.00373872 221.71445129 228.72875977 215.88452148 C231.0930077 213.84374031 233.63998335 212.13511201 236.23657227 210.40405273 C236.23657227 203.14405273 236.23657227 195.88405273 236.23657227 188.40405273 C131.95657227 188.40405273 27.67657227 188.40405273 -79.76342773 188.40405273 Z M239.23657227 227.40405273 C237.19544592 231.32594366 236.97948908 234.67957373 236.97094727 239.06030273 C236.96836914 240.3300293 236.96579102 241.59975586 236.96313477 242.90795898 C236.97086914 244.22666992 236.97860352 245.54538086 236.98657227 246.90405273 C236.97883789 248.22276367 236.97110352 249.54147461 236.96313477 250.90014648 C236.96571289 252.16987305 236.96829102 253.43959961 236.97094727 254.74780273 C236.97320312 255.90473633 236.97545898 257.06166992 236.9777832 258.25366211 C237.32973763 262.53820923 238.18197267 265.34945314 241.23657227 268.40405273 C245.91867221 268.91220129 245.91867221 268.91220129 250.11157227 267.15405273 C253.49161545 261.89620778 252.42260514 254.9717713 252.421875 248.98681641 C252.42406135 246.97659119 252.44223905 244.96691538 252.46118164 242.95678711 C252.46311523 241.68254883 252.46504883 240.40831055 252.46704102 239.09545898 C252.4711499 237.93216064 252.47525879 236.7688623 252.47949219 235.5703125 C252.23521946 232.38642004 251.7090683 230.22510789 250.23657227 227.40405273 C245.29595964 223.90947307 244.17718489 223.90947307 239.23657227 227.40405273 Z M339.23657227 227.40405273 C337.19544592 231.32594366 336.97948908 234.67957373 336.97094727 239.06030273 C336.96836914 240.3300293 336.96579102 241.59975586 336.96313477 242.90795898 C336.97086914 244.22666992 336.97860352 245.54538086 336.98657227 246.90405273 C336.97883789 248.22276367 336.97110352 249.54147461 336.96313477 250.90014648 C336.96571289 252.16987305 336.96829102 253.43959961 336.97094727 254.74780273 C336.97320312 255.90473633 336.97545898 257.06166992 336.9777832 258.25366211 C337.32973763 262.53820923 338.18197267 265.34945314 341.23657227 268.40405273 C345.91867221 268.91220129 345.91867221 268.91220129 350.11157227 267.15405273 C353.49161545 261.89620778 352.42260514 254.9717713 352.421875 248.98681641 C352.42406135 246.97659119 352.44223905 244.96691538 352.46118164 242.95678711 C352.46311523 241.68254883 352.46504883 240.40831055 352.46704102 239.09545898 C352.4711499 237.93216064 352.47525879 236.7688623 352.47949219 235.5703125 C352.23521946 232.38642004 351.7090683 230.22510789 350.23657227 227.40405273 C345.29595964 223.90947307 344.17718489 223.90947307 339.23657227 227.40405273 Z M193.82641602 261.85717773 C186.66862091 270.12098782 187.08560263 278.38171925 187.17407227 288.84155273 C187.17858398 289.85926758 187.1830957 290.87698242 187.18774414 291.92553711 C187.1994479 294.41843783 187.21584378 296.91121347 187.23657227 299.40405273 C188.25721268 299.40991898 189.27785309 299.41578522 190.329422 299.42182922 C199.93828551 299.47899082 209.54692127 299.55171778 219.15555286 299.63976765 C224.09571013 299.68453484 229.03578371 299.72377684 233.97607422 299.75048828 C238.74189451 299.77645807 243.50739386 299.81681523 248.27301598 299.867239 C250.09307558 299.88395064 251.91319075 299.89543808 253.73331642 299.90166664 C256.27877236 299.91126123 258.82339921 299.93926363 261.36865234 299.97167969 C262.12462708 299.9702446 262.88060181 299.96880951 263.65948486 299.96733093 C266.59787953 300.02041095 268.71740426 300.05897777 271.20487976 301.71232605 C272.96498343 304.59847123 272.58708634 307.13258804 272.23657227 310.40405273 C271.20487976 312.09577942 271.20487976 312.09577942 269.23657227 313.40405273 C266.539503 313.7136259 264.06819274 313.8415504 261.36865234 313.83642578 C260.56842148 313.84661743 259.76819061 313.85680908 258.94371033 313.86730957 C256.29777084 313.89751204 253.65219294 313.90671644 251.00610352 313.91577148 C249.17191864 313.93261282 247.33774534 313.95076232 245.50358582 313.97016907 C240.67525857 314.01773452 235.84697826 314.04750148 231.01849365 314.0736084 C226.09174324 314.10338095 221.16515468 314.14992259 216.23852539 314.19506836 C206.57129223 314.2811759 196.90402583 314.348488 187.23657227 314.40405273 C187.1897698 330.15542981 187.15454311 345.906788 187.13294792 361.65821743 C187.12265263 368.97252673 187.10862586 376.28679272 187.08569336 383.60107422 C187.06570582 389.97912837 187.05284314 396.35715115 187.04839528 402.73523575 C187.04579695 406.10972325 187.03972651 409.48412101 187.02511215 412.85857964 C187.01055788 416.63347532 187.008596 420.40818616 187.00952148 424.18310547 C187.00233093 425.29153809 186.99514038 426.3999707 186.98773193 427.54199219 C187.01116135 436.39535089 187.44195911 444.32174777 193.23657227 451.40405273 C200.62778745 458.55684162 207.31806835 459.52396216 217.4336853 459.5377655 C218.12343653 459.54003106 218.81318776 459.54229662 219.52384055 459.54463083 C221.81661098 459.55092044 224.10932154 459.55014473 226.40209961 459.54931641 C228.05353369 459.55231102 229.70496707 459.55571424 231.35639954 459.55949402 C235.82959091 459.56830679 240.30276314 459.57067097 244.77596235 459.5713098 C247.57365205 459.57202178 250.37133692 459.57415887 253.16902542 459.57680702 C262.93763792 459.58605095 272.70623679 459.59014304 282.47485352 459.58935547 C291.56741725 459.58875471 300.65992165 459.5993086 309.75247037 459.61509913 C317.57094932 459.62819118 325.38940891 459.63353868 333.20789874 459.63290006 C337.87223628 459.63264559 342.53652105 459.6354686 347.20084763 459.64607811 C351.58886911 459.65578729 355.97678766 459.65581898 360.36481285 459.64856148 C361.97037215 459.64751919 363.57593795 459.64985731 365.18148613 459.65592194 C380.66702434 460.00570323 380.66702434 460.00570323 394.23657227 453.40405273 C402.70645435 444.65184125 402.38741954 435.99123012 402.35009766 424.41015625 C402.3503167 422.62371956 402.3503167 422.62371956 402.35054016 420.80119324 C402.34996505 417.55375999 402.34496797 414.30637047 402.3379662 411.05894589 C402.33169254 407.65835337 402.3311257 404.25775989 402.3299408 400.85716248 C402.32683928 394.42584773 402.31864185 387.99455009 402.30859131 381.56324285 C402.29739347 374.23795021 402.29191048 366.91265672 402.28689587 359.58735764 C402.2764582 344.52624649 402.25888169 329.46515133 402.23657227 314.40405273 C401.69304202 314.40258617 401.14951178 314.40111961 400.58951092 314.39960861 C387.36950398 314.36257093 374.14975725 314.30334363 360.92995739 314.22014999 C354.53695312 314.18059143 348.14408833 314.14844405 341.75097656 314.13305664 C335.58463214 314.11794531 329.41867096 314.08359812 323.25249672 314.03574371 C320.89654173 314.0208728 318.54053203 314.01300847 316.18453026 314.01216888 C312.89180711 314.00981467 309.60015651 313.98285909 306.30761719 313.94995117 C305.32722473 313.95498154 304.34683228 313.9600119 303.33673096 313.9651947 C302.44070663 313.95128189 301.54468231 313.93736908 300.62150574 313.92303467 C299.84259067 313.9193475 299.06367559 313.91566032 298.26115704 313.91186142 C296.23657227 313.40405273 296.23657227 313.40405273 294.45079517 311.59817886 C292.62964282 308.30731856 293.37914719 305.96566458 294.23657227 302.40405273 C296.64755242 299.99307258 297.20713797 300.14894234 300.50125122 300.12557983 C301.39590088 300.11441635 302.29055054 300.10325287 303.21231079 300.0917511 C304.19629852 300.08959091 305.18028625 300.08743073 306.1940918 300.08520508 C307.7453476 300.07013664 307.7453476 300.07013664 309.32794189 300.05476379 C312.75841701 300.02378494 316.18881358 300.00685584 319.61938477 299.98999023 C321.99307946 299.97129042 324.36676742 299.95171791 326.740448 299.93130493 C332.99741662 299.87985246 339.25440682 299.84029703 345.51147461 299.80316162 C351.89255164 299.76320402 358.27353787 299.71207418 364.65454102 299.66186523 C377.18181995 299.56495073 389.70915087 299.48021665 402.23657227 299.40405273 C402.29540955 295.92495902 402.33044626 292.445996 402.36157227 288.96655273 C402.38670898 287.50572266 402.38670898 287.50572266 402.41235352 286.01538086 C402.47108318 277.23529599 401.97837994 269.42181767 396.23657227 262.40405273 C389.19834828 255.59286823 383.02352365 254.24296139 373.36157227 254.34155273 C372.20915039 254.35057617 371.05672852 254.35959961 369.86938477 254.36889648 C369.00055664 254.38049805 368.13172852 254.39209961 367.23657227 254.40405273 C367.21079102 255.32186523 367.18500977 256.23967773 367.15844727 257.18530273 C366.78870355 265.18521211 366.46104648 271.88943606 360.81469727 277.92358398 C354.82634248 283.2791487 349.22571188 283.85682249 341.46704102 283.71655273 C335.44320444 283.13383577 331.33477855 280.92845527 327.36157227 276.40405273 C321.73768861 268.46445228 323.02665363 266.25527317 322.23657227 254.40405273 C304.08657227 254.40405273 285.93657227 254.40405273 267.23657227 254.40405273 C266.90657227 259.02405273 266.57657227 263.64405273 266.23657227 268.40405273 C263.72721174 275.18862008 260.59244759 279.30019458 253.93969727 282.51342773 C247.62332843 284.59454348 239.83151304 284.56531138 233.73657227 281.77905273 C228.90589079 278.90510299 225.30448061 274.64513079 223.23657227 269.40405273 C222.94242461 266.79557353 222.73019609 264.26871962 222.61157227 261.65405273 C222.55356445 260.60797852 222.55356445 260.60797852 222.49438477 259.54077148 C222.40058603 257.82894455 222.31751053 256.11653591 222.23657227 254.40405273 C206.69876435 253.87664943 206.69876435 253.87664943 193.82641602 261.85717773 Z " fill="#000000" transform="translate(94.763427734375,-0.404052734375)"/>
<path d="M0 0 C17.07003685 14.65758639 28.11668713 35.36772827 31.8984375 57.5234375 C32.14529201 61.04111427 32.27421663 63.63096208 30.8984375 66.8984375 C28.3369592 68.97963862 26.23244446 69.37495393 23.03125 69.93359375 C19.44296649 69.24353923 18.11461772 67.3489766 15.8984375 64.5234375 C14.80427126 61.67084164 14.20708716 58.75978033 13.5859375 55.7734375 C9.11324092 36.95174846 0.44641269 20.45603372 -16.1015625 9.5234375 C-26.68447244 3.58002676 -37.09365914 1.2440216 -49.1015625 3.5234375 C-57.70022371 5.94999178 -64.50049136 9.53429998 -71.1015625 15.5234375 C-71.70355469 16.03390625 -72.30554688 16.544375 -72.92578125 17.0703125 C-87.95140865 30.71155625 -94.79328401 53.1981811 -95.9765625 72.9609375 C-96.93413826 95.86411429 -91.32669922 119.61706384 -76.11328125 137.3515625 C-67.94838585 146.1664787 -56.96519845 153.91456161 -44.6328125 154.76171875 C-30.93327356 155.14178807 -20.99463519 152.13217432 -10.1015625 143.5234375 C-9.27269531 142.90082031 -8.44382812 142.27820313 -7.58984375 141.63671875 C5.18899032 130.78373723 10.89304136 114.24892089 14.77026367 98.49243164 C14.99174072 97.63125732 15.21321777 96.77008301 15.44140625 95.8828125 C15.62727295 95.11420898 15.81313965 94.34560547 16.00463867 93.55371094 C17.15294909 90.94531175 18.47723724 89.97994299 20.8984375 88.5234375 C24.79849181 87.85959847 26.424219 88.24092435 29.8359375 90.2734375 C33.12605841 95.45787044 32.12797281 99.67211048 30.8984375 105.5234375 C25.42864531 127.25688392 14.20802537 149.08006548 -5.1015625 161.5234375 C-7.75017086 163.06158711 -10.43902469 164.50060048 -13.1640625 165.8984375 C-13.81270264 166.23270752 -14.46134277 166.56697754 -15.12963867 166.91137695 C-27.68143957 173.03047838 -43.81120435 173.73638475 -57.1640625 169.8984375 C-78.22803594 162.19473366 -92.94246175 146.99238451 -102.79296875 127.109375 C-115.4541262 98.99462438 -116.3930161 67.27046212 -105.94140625 38.30859375 C-101.50712124 27.23001031 -95.99608722 17.49581246 -88.1015625 8.5234375 C-87.42351562 7.75 -86.74546875 6.9765625 -86.046875 6.1796875 C-62.91091204 -18.56647068 -26.34053579 -21.03261926 0 0 Z " fill="#000000" transform="translate(213.1015625,221.4765625)"/>
<path d="M0 0 C3.5043281 2.8278597 6.74197728 5.89510963 10 9 C12.31151474 11.02721079 14.65480554 13.01168296 17 15 C17.85722656 14.10796875 18.71445312 13.2159375 19.59765625 12.296875 C20.7521915 11.11418035 21.90716278 9.93191124 23.0625 8.75 C23.90458008 7.87021484 23.90458008 7.87021484 24.76367188 6.97265625 C31.06462399 0.56368781 37.11526152 -3.09340448 46.25 -3.25 C54.13850362 -3.14509969 59.63916113 -1.0229617 65.4609375 4.3203125 C71.10215083 10.47696664 72.38122276 17.01954871 72.2734375 25.125 C71.17702409 36.65300389 61.82567436 44.38840184 54 52 C57.0756128 55.67573237 60.12819618 59.15971845 63.625 62.4375 C69.10645591 67.80981188 72.12008724 74.51182118 72.25 82.1875 C72.14647607 90.04496597 70.06716328 95.63864371 64.75 101.4609375 C58.75387919 106.7343116 51.70493263 108.37613548 43.91015625 108.2734375 C32.36110154 107.18829142 24.62472627 97.8391717 17 90 C13.32426763 93.0756128 9.84028155 96.12819618 6.5625 99.625 C1.21989169 105.07614888 -5.49089617 108.10587896 -13.125 108.3125 C-21.56728113 108.22328171 -28.09202765 104.90797235 -34 99 C-38.91047468 92.0120168 -39.79663464 85.37604419 -39 77 C-36.32566481 66.94707735 -28.21100051 60.0137391 -21 53 C-24.0756128 49.32426763 -27.12819618 45.84028155 -30.625 42.5625 C-36.10645591 37.19018812 -39.12008724 30.48817882 -39.25 22.8125 C-39.1456651 14.89348117 -37.04529702 9.38517436 -31.6796875 3.5390625 C-23.37265159 -4.07250064 -9.79101589 -5.9875828 0 0 Z M-22.375 17.75 C-23.36250526 21.30501894 -23.01118373 23.43111625 -22 27 C-19.18191961 31.25052656 -15.36409087 34.66409594 -11.6796875 38.15234375 C-11.09541992 38.71421387 -10.51115234 39.27608398 -9.90917969 39.85498047 C-8.73925875 40.97463386 -7.55529125 42.07983077 -6.35644531 43.16845703 C-3.37761438 46.01156815 -2.11095499 47.6104155 -0.953125 51.67578125 C-1.00372781 55.26436367 -1.1529041 56.1529041 -3.625 58.625 C-4.26050781 59.28242188 -4.89601563 59.93984375 -5.55078125 60.6171875 C-6.35902344 61.40351563 -7.16726563 62.18984375 -8 63 C-9.6853258 64.66396619 -11.36703644 66.33146767 -13.04638672 68.00146484 C-14.20880584 69.15231441 -15.37826256 70.29610592 -16.55517578 71.43212891 C-20.51620541 75.2038622 -20.51620541 75.2038622 -23 80 C-22.86406285 83.80624015 -22.53891744 86.21235144 -20.375 89.375 C-17.12935469 91.59570469 -14.92878388 92 -11 92 C-4.29995263 88.38333188 0.5212988 82.46718166 5.63476562 76.93554688 C8.98657826 73.45122772 11.12416675 71.27218203 15.80859375 69.81640625 C19.25374715 70.01459745 20.23469527 70.23469527 22.625 72.625 C23.28242188 73.26050781 23.93984375 73.89601563 24.6171875 74.55078125 C25.40351563 75.35902344 26.18984375 76.16726563 27 77 C28.66396619 78.6853258 30.33146767 80.36703644 32.00146484 82.04638672 C33.15231441 83.20880584 34.29610592 84.37826256 35.43212891 85.55517578 C39.2038622 89.51620541 39.2038622 89.51620541 44 92 C47.80624015 91.86406285 50.21235144 91.53891744 53.375 89.375 C55.59570469 86.12935469 56 83.92878388 56 80 C52.38333188 73.29995263 46.46718166 68.4787012 40.93554688 63.36523438 C37.45122772 60.01342174 35.27218203 57.87583325 33.81640625 53.19140625 C34.01459745 49.74625285 34.23469527 48.76530473 36.625 46.375 C37.26050781 45.71757812 37.89601563 45.06015625 38.55078125 44.3828125 C39.35902344 43.59648437 40.16726563 42.81015625 41 42 C42.6853258 40.33603381 44.36703644 38.66853233 46.04638672 36.99853516 C47.20880584 35.84768559 48.37826256 34.70389408 49.55517578 33.56787109 C53.51620541 29.7961378 53.51620541 29.7961378 56 25 C55.86406285 21.19375985 55.53891744 18.78764856 53.375 15.625 C50.12935469 13.40429531 47.92878388 13 44 13 C37.29995263 16.61666812 32.4787012 22.53281834 27.36523438 28.06445312 C24.01342174 31.54877228 21.87583325 33.72781797 17.19140625 35.18359375 C13.74625285 34.98540255 12.76530473 34.76530473 10.375 32.375 C9.71757812 31.73949219 9.06015625 31.10398437 8.3828125 30.44921875 C7.59648437 29.64097656 6.81015625 28.83273437 6 28 C4.33603381 26.3146742 2.66853233 24.63296356 0.99853516 22.95361328 C-0.15231441 21.79119416 -1.29610592 20.62173744 -2.43212891 19.44482422 C-5.81609287 15.9830915 -8.46337877 13.32520785 -13.4375 12.6875 C-17.34725971 13.16429996 -19.938646 14.64918581 -22.375 17.75 Z " fill="#000000" transform="translate(373,334)"/>
<path d="M0 0 C9.89664156 8.08860127 15.26931941 18.32812925 17.22265625 30.9140625 C17.72977291 40.05852092 13.78988076 48.13954317 7.8203125 54.81640625 C2.79846342 59.02443789 -1.75354073 59.91521893 -8.15625 59.72265625 C-8.84203125 59.7175 -9.5278125 59.71234375 -10.234375 59.70703125 C-13.26213124 59.66080596 -16.16567715 59.47105843 -19.15234375 58.96484375 C-22.85179339 58.35869205 -26.48231364 58.32672383 -30.21875 58.34765625 C-30.91291016 58.34378906 -31.60707031 58.33992188 -32.32226562 58.3359375 C-36.0862163 58.3430865 -39.48361159 58.72665157 -43.15625 59.47265625 C-45.81636025 59.61570251 -48.43380279 59.70289805 -51.09375 59.72265625 C-51.78404297 59.74328125 -52.47433594 59.76390625 -53.18554688 59.78515625 C-58.92409098 59.82867128 -62.78095795 58.50526782 -67.1328125 54.78125 C-73.84010609 47.16799495 -76.93262843 39.72099536 -76.5390625 29.48828125 C-75.04192947 17.69453943 -68.67466958 7.88844448 -59.7109375 0.328125 C-41.51339912 -12.88874156 -18.42201444 -13.04892689 0 0 Z M-54.94921875 18.75390625 C-58.86722551 24.48666673 -61.17992238 29.33388835 -60.15625 36.47265625 C-58.65876293 39.12948814 -57.30972249 41.31918376 -55.15625 43.47265625 C-53.59638888 43.57253436 -52.03179847 43.60232904 -50.46875 43.59765625 C-49.61925781 43.60023438 -48.76976562 43.6028125 -47.89453125 43.60546875 C-45.14235363 43.53225554 -45.14235363 43.53225554 -42.41796875 42.97265625 C-38.14464317 42.31758359 -33.97225636 42.32751936 -29.65625 42.34765625 C-28.82738281 42.34378906 -27.99851563 42.33992188 -27.14453125 42.3359375 C-22.68985222 42.34301966 -18.54689914 42.64233292 -14.15625 43.47265625 C-7.43647275 44.26014824 -7.43647275 44.26014824 -1.59375 41.47265625 C0.6930821 36.70013708 1.53276354 32.99775615 0.14453125 27.91015625 C-3.48106736 18.28010776 -9.09630616 12.78046211 -18.390625 8.42578125 C-31.65475496 3.43997353 -46.14038816 7.54615666 -54.94921875 18.75390625 Z " fill="#000000" transform="translate(203.15625,94.52734375)"/>
<path d="M0 0 C1.50160927 -0.01268921 1.50160927 -0.01268921 3.03355408 -0.02563477 C4.130793 -0.01956207 5.22803192 -0.01348938 6.35852051 -0.00723267 C7.51481461 -0.01248962 8.6711087 -0.01774658 9.86244202 -0.02316284 C13.6952555 -0.03639679 17.52765571 -0.02761239 21.36047363 -0.01748657 C24.01701375 -0.01950632 26.67354118 -0.02241206 29.33007812 -0.02618408 C34.90194195 -0.03164321 40.47368651 -0.02444599 46.04553223 -0.01016235 C52.48887868 0.00616458 58.93194036 0.00087618 65.3752799 -0.01564157 C70.90572724 -0.02925205 76.43608881 -0.03117828 81.96654749 -0.02332556 C85.27039211 -0.01864658 88.57407338 -0.0192067 91.87791443 -0.02793503 C95.56044956 -0.03552804 99.24243287 -0.0239747 102.92492676 -0.00723267 C104.02216568 -0.01330536 105.1194046 -0.01937805 106.24989319 -0.02563477 C107.25096603 -0.01717529 108.25203888 -0.00871582 109.28344727 0 C110.15433235 0.00113108 111.02521744 0.00226215 111.92249298 0.00342751 C114.62067996 0.46242837 115.50609648 1.22340583 117.14172363 3.38095093 C117.54016113 5.53720093 117.54016113 5.53720093 117.51672363 7.88095093 C117.5283252 9.04110718 117.5283252 9.04110718 117.54016113 10.22470093 C117.03729429 12.94609798 116.30829192 13.68904633 114.14172363 15.38095093 C111.92249298 15.75847435 111.92249298 15.75847435 109.28344727 15.76190186 C107.781838 15.77459106 107.781838 15.77459106 106.24989319 15.78753662 C104.60403481 15.77842758 104.60403481 15.77842758 102.92492676 15.76913452 C101.19048561 15.77701996 101.19048561 15.77701996 99.42100525 15.7850647 C95.58819176 15.79829864 91.75579155 15.78951425 87.92297363 15.77938843 C85.26643351 15.78140818 82.60990609 15.78431391 79.95336914 15.78808594 C74.38150532 15.79354506 68.80976076 15.78634785 63.23791504 15.77206421 C56.79456859 15.75573727 50.35150691 15.76102568 43.90816736 15.77754343 C38.37772002 15.79115391 32.84735845 15.79308014 27.31689978 15.78522742 C24.01305515 15.78054843 20.70937389 15.78110855 17.40553284 15.78983688 C13.7229977 15.7974299 10.04101439 15.78587656 6.35852051 15.76913452 C4.71266212 15.77824356 4.71266212 15.77824356 3.03355408 15.78753662 C2.03248123 15.77907715 1.03140839 15.77061768 0 15.76190186 C-0.87088509 15.76077078 -1.74177017 15.7596397 -2.63904572 15.75847435 C-5.33723269 15.29947349 -6.22264922 14.53849603 -7.85827637 12.38095093 C-8.25671387 10.22470093 -8.25671387 10.22470093 -8.23327637 7.88095093 C-8.24101074 7.10751343 -8.24874512 6.33407593 -8.25671387 5.53720093 C-7.37877977 0.78602818 -4.42613898 0.00574852 0 0 Z " fill="#000000" transform="translate(57.8582763671875,446.6190490722656)"/>
<path d="M0 0 C0.76615128 -0.00525696 1.53230255 -0.01051392 2.32167053 -0.01593018 C4.85593003 -0.02914141 7.38956216 -0.02038839 9.92382812 -0.01025391 C11.68355429 -0.01227433 13.44327964 -0.01518549 15.20300293 -0.01895142 C18.891764 -0.02337628 22.58030721 -0.01693855 26.26904297 -0.00292969 C31.00059094 0.01416236 35.73162842 0.00432204 40.46315765 -0.01364708 C44.09710547 -0.02448057 47.73093198 -0.02104059 51.36488342 -0.0132637 C53.10962484 -0.01126049 54.85437722 -0.01372522 56.59910583 -0.02070236 C59.03641998 -0.0283098 61.47290404 -0.01672324 63.91015625 0 C64.63336563 -0.00607269 65.35657501 -0.01214539 66.10169983 -0.0184021 C69.02566458 0.0188213 70.9802372 0.04924865 73.4017334 1.77767944 C74.79415469 3.90661237 74.85538736 5.35726031 74.83007812 7.88818359 C74.84167969 9.04833984 74.84167969 9.04833984 74.85351562 10.23193359 C74.33446733 13.04090086 73.78682903 13.72381176 71.45507812 15.38818359 C68.86034333 15.68415635 66.50534163 15.79815861 63.91015625 15.77636719 C63.14400497 15.78162415 62.3778537 15.7868811 61.58848572 15.79229736 C59.05422622 15.80550859 56.52059409 15.79675558 53.98632812 15.78662109 C52.22660196 15.78864151 50.46687661 15.79155268 48.70715332 15.7953186 C45.01839225 15.79974347 41.32984904 15.79330574 37.64111328 15.77929688 C32.90956531 15.76220482 28.17852783 15.77204515 23.4469986 15.79001427 C19.81305078 15.80084776 16.17922427 15.79740778 12.54527283 15.78963089 C10.80053141 15.78762768 9.05577903 15.79009241 7.31105042 15.79706955 C4.87373627 15.80467699 2.43725221 15.79309043 0 15.77636719 C-0.72320938 15.78243988 -1.44641876 15.78851257 -2.19154358 15.79476929 C-5.11550833 15.75754588 -7.07008095 15.72711854 -9.49157715 13.99868774 C-10.88399844 11.86975482 -10.94523111 10.41910688 -10.91992188 7.88818359 C-10.92765625 7.11474609 -10.93539062 6.34130859 -10.94335938 5.54443359 C-9.84025962 -0.42528273 -5.11726865 -0.04296902 0 0 Z " fill="#000000" transform="translate(60.544921875,406.61181640625)"/>
<path d="M0 0 C4.2664818 3.08899399 6.72884374 5.40017807 7.625 10.6875 C6.66738973 15.76283442 6.66738973 15.76283442 4 18 C0.6875 19 0.6875 19 -3 19 C-6.1875 17.1875 -6.1875 17.1875 -9 15 C-12.2752258 12.70734194 -14.987979 12.79557933 -18.921875 13.37109375 C-21.27415474 14.08296788 -22.65943376 15.08625951 -24.5625 16.625 C-27.39513993 18.86129469 -27.85908035 18.99765134 -31.75 19.0625 C-35 18 -35 18 -36.9375 16.375 C-38.4590889 12.97380129 -38.51749792 10.68717269 -38 7 C-28.76446986 -5.12163332 -12.96452278 -7.47108092 0 0 Z " fill="#000000" transform="translate(123,88)"/>
<path d="M0 0 C3.89018692 3.27668074 6.62159258 6.21116494 7.6875 11.25 C6.82333063 14.70667747 5.90234206 15.93780959 3 18 C0.125 19 0.125 19 -3 19 C-6.125 17.1875 -6.125 17.1875 -9 15 C-12.2752258 12.70734194 -14.987979 12.79557933 -18.921875 13.37109375 C-21.27415474 14.08296788 -22.65943376 15.08625951 -24.5625 16.625 C-27.40920426 18.8789123 -27.83053904 19 -31.75 19 C-36.62985075 17.49850746 -36.62985075 17.49850746 -38 15 C-38.49542335 10.61196461 -38.64270351 8.20157613 -36.5625 4.3125 C-26.27889858 -4.96782324 -12.15249769 -7.37388843 0 0 Z " fill="#000000" transform="translate(255,88)"/>
<path d="M0 0 C0.75792847 -0.0038269 1.51585693 -0.00765381 2.29675293 -0.01159668 C3.89364964 -0.01430955 5.49059126 -0.00699203 7.08740234 0.00976562 C9.52412494 0.03118736 11.95789976 0.00994611 14.39453125 -0.015625 C15.9505273 -0.01298161 17.50652153 -0.00785639 19.0625 0 C19.78659058 -0.00809692 20.51068115 -0.01619385 21.25671387 -0.02453613 C26.10832493 0.06486948 28.64087797 1.0569398 32.03125 4.53125 C32.66015625 6.53125 32.66015625 6.53125 32.59375 8.53125 C32.59568359 9.52125 32.59568359 9.52125 32.59765625 10.53125 C31.74634644 13.53725429 30.51376554 14.62578585 28.03125 16.53125 C25.12045028 16.9290643 22.59576259 17.09284 19.6875 17.0625 C18.88139282 17.0663269 18.07528564 17.07015381 17.24475098 17.07409668 C15.54352568 17.0768139 13.84225847 17.0694659 12.14111328 17.05273438 C9.53974104 17.0313199 6.94113028 17.05254019 4.33984375 17.078125 C2.68488975 17.07548169 1.02993746 17.07035663 -0.625 17.0625 C-1.40113647 17.07059692 -2.17727295 17.07869385 -2.97692871 17.08703613 C-6.55820923 17.02497197 -8.57364121 16.83451724 -11.45483398 14.62304688 C-13.08598855 12.36926001 -13.53662642 11.283975 -13.53125 8.53125 C-13.55316406 7.87125 -13.57507812 7.21125 -13.59765625 6.53125 C-11.63470617 0.28882491 -5.61722854 -0.06281296 0 0 Z " fill="#000000" transform="translate(62.96875,221.46875)"/>
</svg>
