<?xml version="1.0" encoding="UTF-8"?>
<svg version="1.1" xmlns="http://www.w3.org/2000/svg" width="512" height="512">
<path d="M0 0 C0.79622819 -0.00507454 1.59245639 -0.01014909 2.41281271 -0.0153774 C3.28167813 -0.01587516 4.15054355 -0.01637292 5.04573822 -0.01688576 C5.97330004 -0.02126801 6.90086186 -0.02565027 7.85653162 -0.03016531 C10.97180795 -0.04354477 14.08705599 -0.04973016 17.20235443 -0.0558567 C19.43288043 -0.06375803 21.66340515 -0.072027 23.89392853 -0.08063698 C31.22263622 -0.10684268 38.5513496 -0.12215822 45.88008881 -0.13642311 C48.40102899 -0.14178245 50.92196913 -0.14715995 53.44290924 -0.15255547 C63.92409729 -0.17417761 74.40528521 -0.19306819 84.88648987 -0.20417786 C87.60457107 -0.2071075 90.32265223 -0.21006919 93.04073334 -0.21308327 C93.71629164 -0.21382932 94.39184995 -0.21457537 95.08787972 -0.21534403 C106.04253143 -0.22801002 116.9970213 -0.26125288 127.95159727 -0.3028851 C139.19762354 -0.3452751 150.44356999 -0.36846125 161.68968534 -0.37409842 C168.00447562 -0.37775964 174.31899109 -0.3898638 180.63370514 -0.42220116 C186.56974921 -0.4521653 192.50535047 -0.45863524 198.44145393 -0.4468174 C200.6231965 -0.44659572 202.80495895 -0.4549781 204.98663139 -0.47247124 C207.95894096 -0.49501228 210.92962402 -0.48693802 213.90193939 -0.47098732 C214.77080481 -0.48486941 215.63967023 -0.49875149 216.5348649 -0.51305425 C222.35591844 -0.43576506 222.35591844 -0.43576506 225.50958252 2.4875145 C227.31253906 5.74987588 227.58642938 7.46147098 226.97383881 11.13701439 C225.40686417 13.78456211 225.40686417 13.78456211 222.97383881 16.13701439 C220.28966642 16.64245965 218.22891838 16.81714441 215.54543304 16.77625084 C214.79472526 16.78460652 214.04401748 16.79296219 213.27056098 16.80157107 C210.75353911 16.82352917 208.23797239 16.8098864 205.72090912 16.79643822 C203.91737509 16.8048895 202.11385018 16.81553271 200.31034088 16.82820702 C195.41184686 16.85640487 190.51378995 16.85387265 185.61523914 16.84591317 C180.49689302 16.84279276 175.37868725 16.86780881 170.26039886 16.88986778 C160.56715683 16.92735482 150.87405511 16.93945853 141.18074775 16.94249219 C130.14573067 16.94717796 119.11085459 16.98008583 108.0758996 17.01539004 C85.37522976 17.08738283 62.67461358 17.12385063 39.97383881 17.13701439 C40.48044037 18.08060814 40.48044037 18.08060814 40.99727631 19.04326439 C41.44329193 19.89920189 41.88930756 20.75513939 42.34883881 21.63701439 C42.78969818 22.47232689 43.23055756 23.30763939 43.68477631 24.16826439 C47.51785097 32.99595149 47.25178254 41.64629273 47.21434784 51.09477806 C47.21522056 52.73097933 47.21697275 54.36718032 47.21952617 56.00337982 C47.22399071 60.48896265 47.2160083 64.97444968 47.20597005 69.4600203 C47.19732498 74.30109731 47.20025646 79.14216901 47.2017746 83.98325157 C47.20282278 92.36726217 47.19655315 100.75124161 47.18529892 109.13524437 C47.16903785 121.25706866 47.16383529 133.3788779 47.16132294 145.50071192 C47.15694679 165.16806216 47.14363986 184.83539581 47.12471771 204.50273705 C47.10635684 223.60657735 47.09220135 242.71041314 47.08370209 261.81426048 C47.08317664 262.99202195 47.08265119 264.16978341 47.08210982 265.38323462 C47.07949973 271.29177766 47.07697232 277.20032074 47.07448602 283.10886383 C47.05375602 332.11825882 47.01853266 381.1276358 46.97383881 430.13701439 C48.88808395 429.19601833 50.80048957 428.25127959 52.71212006 427.30498314 C53.77728851 426.77928734 54.84245697 426.25359154 55.93990326 425.71196556 C58.46071502 424.4033829 60.80690959 423.03029579 63.16133881 421.44951439 C73.46145606 414.77589675 86.31720535 413.80764021 98.20430756 415.63310814 C108.06557148 417.89112071 116.26195255 422.54057812 124.74727631 427.90263939 C131.39733195 431.5893369 141.20671308 431.31011586 148.46602631 429.52373314 C151.90549962 428.05060023 155.00273899 426.1196673 158.20821381 424.19560814 C171.97831269 415.99036024 185.14397856 412.78088047 201.16133881 416.26201439 C207.29466849 417.99109137 212.52921724 420.88491259 217.97383881 424.13701439 C219.61575066 425.08136553 221.26133879 426.01936732 222.91133881 426.94951439 C223.60098724 427.3478347 224.29063568 427.74615501 225.00118256 428.15654564 C231.71177396 431.49190889 240.67397665 431.17778324 247.79805756 429.45342064 C252.91941565 427.51582676 257.15040479 424.72328248 261.61055756 421.59404564 C273.27078547 414.40517785 287.99083646 413.36733513 301.16133881 416.19951439 C306.55686994 417.72764468 311.07561257 420.22770556 315.79415131 423.22295189 C318.54728949 424.88024637 321.29648813 426.33074117 324.17256927 427.7566433 C325.07200256 428.20343437 325.97143585 428.65022545 326.89812469 429.11055565 C327.58311035 429.44928703 328.26809601 429.78801842 328.97383881 430.13701439 C328.97015163 428.99234105 328.96646446 427.84766771 328.96266556 426.6683073 C328.873927 398.83533819 328.80816415 371.00238738 328.76659012 343.16930676 C328.76251064 340.49146894 328.75834537 337.81363127 328.75411224 335.13579369 C328.753063 334.47019814 328.75201376 333.8046026 328.75093272 333.1188375 C328.73352381 322.33923718 328.70198348 311.55972211 328.66522762 300.78017239 C328.62783166 289.72072117 328.60590526 278.66131705 328.59748483 267.60180587 C328.59226331 261.38923729 328.57996386 255.17686214 328.55091858 248.96435547 C328.52381311 243.11952299 328.51538405 237.27496405 328.52140808 231.43007469 C328.52030567 229.2826209 328.51232305 227.13515816 328.49701691 224.98775864 C328.47716551 222.05957736 328.48188219 219.13243379 328.49282074 216.20422935 C328.48116937 215.35111209 328.46951801 214.49799483 328.45751357 213.61902553 C328.49813382 209.60630517 328.67712485 207.61235014 330.85155869 204.1289072 C333.34126119 201.79216547 334.57352891 201.21994878 337.97383881 201.13701439 C340.76459726 201.86792732 342.47651527 202.67952802 344.5980463 204.63111782 C346.72036211 208.49674718 346.39040962 212.20209763 346.36151886 216.54385948 C346.36959717 217.98927182 346.36959717 217.98927182 346.37783867 219.46388441 C346.39217643 222.70132943 346.3850001 225.93836893 346.37789154 229.17583275 C346.38359205 231.49340711 346.39055507 233.81097866 346.39868927 236.12854576 C346.41667087 242.43013684 346.41544288 248.73158906 346.40974689 255.03319812 C346.40666229 260.28940704 346.41273934 265.54558901 346.41878563 270.80179411 C346.43365009 283.90859085 346.4300035 297.01530937 346.41792233 310.12210584 C346.4079896 321.50608934 346.42093022 332.88991031 346.44485652 344.27386873 C346.4692366 355.96175697 346.47845813 367.64956272 346.47220379 379.33747584 C346.46882752 385.89983068 346.47129381 392.46205122 346.48845482 399.02438736 C346.50388469 405.1943357 346.5000122 411.36397297 346.48114967 417.53390884 C346.47745285 419.80067954 346.48060388 422.06747308 346.49103546 424.33422279 C346.50417194 427.42423921 346.49276254 430.51321464 346.47504425 433.60318565 C346.48464926 434.50415677 346.49425426 435.40512788 346.50415033 436.33340114 C346.4558919 440.41252822 346.28279363 442.61695676 344.15931034 446.19137478 C341.11032735 448.90576478 338.37041936 448.89438231 334.47383881 448.76201439 C333.76114838 448.74654564 333.04845795 448.73107689 332.31417084 448.71513939 C321.31826157 448.20198051 312.4704171 442.47814151 303.29805756 436.90654564 C295.65958992 432.84047532 287.77677062 431.85035242 279.34883881 433.71904564 C272.80998272 435.85001213 267.11078458 439.25284296 261.36348724 442.96294212 C250.40271539 449.9249526 236.15266191 449.72915018 223.61837006 447.55498314 C217.42026899 445.50145192 211.82782981 441.8351741 206.3608017 438.31108665 C198.32654304 433.20034822 190.37116214 432.24096449 180.97383881 433.13701439 C174.60763786 434.73082857 169.59029212 437.95051517 164.27462006 441.67998314 C152.59383066 449.07715537 138.63421718 449.74537007 125.29024506 447.52373314 C118.06792232 445.51704126 112.23539616 442.01361067 105.96602631 437.97685814 C97.92502728 433.0325885 89.54789314 431.61771985 80.28633881 433.75810814 C74.8343285 435.5411057 70.24198914 438.12443451 65.41133881 441.19951439 C55.7221496 447.31360911 45.49169791 450.19667861 33.97383881 448.13701439 C31.18964379 445.44562449 30.07295438 443.77465529 29.47408479 439.92194337 C29.47419213 438.69484692 29.47429947 437.46775047 29.47441006 436.20346928 C29.4690051 435.51461711 29.46360013 434.82576495 29.45803139 434.11603847 C29.44475155 431.80240949 29.46000212 429.48985025 29.47504425 427.17624474 C29.47131803 425.50295736 29.46582935 423.82967314 29.45872742 422.15639669 C29.44425353 417.55398286 29.45466077 412.95190672 29.46901047 408.34950483 C29.48010909 403.38754819 29.46813704 398.42564257 29.45882416 393.4636898 C29.44572193 384.86354204 29.44690602 376.26349143 29.45741844 367.66334152 C29.47234549 355.22021845 29.46245262 342.77720957 29.44589926 330.33409301 C29.41942555 310.13517767 29.40857977 289.93628792 29.40962982 269.73735619 C29.40971731 267.92346078 29.40971731 267.92346078 29.40980656 266.07292102 C29.4100724 261.17321713 29.41038969 256.27351325 29.41076982 251.37380938 C29.41173576 237.8918012 29.41040878 224.40979379 29.4076767 210.92778587 C29.4074368 209.72090251 29.40719691 208.51401915 29.40694975 207.27056357 C29.40254409 187.15161327 29.38631384 167.03268675 29.3624559 146.91375047 C29.34837744 134.50141449 29.34551232 122.08916877 29.3570788 109.67682967 C29.36439827 101.17204456 29.36134656 92.66730493 29.35012036 84.16252419 C29.34404335 79.25423238 29.34296923 74.34606779 29.35499763 69.43778419 C29.36594401 64.94404309 29.36314147 60.45052761 29.34945417 55.95679597 C29.34695915 54.33164518 29.34954045 52.70647695 29.35772806 51.08134487 C29.52752828 36.75383307 29.52752828 36.75383307 22.60274506 24.52373314 C16.7004337 19.49898366 10.35711947 17.30246157 2.64180756 17.72685814 C-5.0055666 18.90251595 -9.69088925 22.18277848 -14.61600494 28.03935814 C-17.26295168 31.97678306 -18.2757267 35.47974514 -18.2834301 40.20206165 C-18.28987899 41.20456784 -18.29632788 42.20707402 -18.3029722 43.23995918 C-18.29987499 44.33411347 -18.29677779 45.42826775 -18.29358673 46.55557823 C-18.29811784 47.72351294 -18.30264896 48.89144764 -18.30731738 50.09477431 C-18.31778732 53.33278667 -18.31928727 56.57065936 -18.31692863 59.80868328 C-18.3165204 63.30228318 -18.32756009 66.79584997 -18.33704376 70.28943443 C-18.35365246 77.13214547 -18.35915322 83.97482204 -18.36026852 90.81755155 C-18.36121892 96.37898049 -18.36532879 101.94039807 -18.37166977 107.50182343 C-18.38928069 123.2684276 -18.3985087 139.03500455 -18.39700882 154.80161863 C-18.39692891 155.65149601 -18.396849 156.50137339 -18.39676666 157.37700462 C-18.3966849 158.22791908 -18.39660314 159.07883353 -18.3965189 159.95553327 C-18.39570572 173.75077636 -18.41485191 187.54591033 -18.4430434 201.34112184 C-18.47175982 215.50489233 -18.48558442 229.66860958 -18.48385584 243.83240992 C-18.48319158 251.78479563 -18.48869984 259.73706691 -18.51021194 267.68942642 C-18.52840728 274.45904591 -18.53278462 281.22849907 -18.5191931 287.9981324 C-18.51265542 291.45210641 -18.51257461 294.90576118 -18.5298996 298.35970497 C-18.54526971 302.10391313 -18.53609723 305.84727771 -18.52063751 309.5914669 C-18.53092464 310.68339047 -18.54121176 311.77531403 -18.55181062 312.90032619 C-18.49630203 318.96631216 -18.06991542 322.51189716 -14.02616119 327.13701439 C-8.53879653 331.98662238 -1.33154048 331.61227448 5.58321381 331.66826439 C8.97383881 332.13701439 8.97383881 332.13701439 11.37227631 334.01592064 C13.26207122 336.51874659 13.82115222 338.00693941 13.97383881 341.13701439 C12.91972044 345.16182997 11.54504761 347.04293348 7.97383881 349.13701439 C-2.6103341 350.56452738 -13.80394756 349.21333994 -22.84647369 343.28935814 C-29.7698418 337.59566287 -34.92711062 330.08899515 -36.58232999 321.12504566 C-36.78643418 317.96340117 -36.81732433 314.85045447 -36.7746048 311.68253136 C-36.78255361 310.48764219 -36.79050242 309.29275303 -36.79869211 308.0616551 C-36.81449254 304.78025415 -36.80374516 301.50024301 -36.78119111 298.21892345 C-36.7633798 294.66669825 -36.78043036 291.11460799 -36.79291534 287.56238365 C-36.8118216 280.61787705 -36.79875391 273.67378824 -36.77438946 266.72931283 C-36.74704673 258.63211893 -36.75043416 250.53502274 -36.75465612 242.43779439 C-36.76102561 227.98515407 -36.73775924 213.53271135 -36.69852448 199.08012962 C-36.66051346 185.07453457 -36.64635248 171.06917101 -36.65750885 157.06352806 C-36.66963969 141.78950429 -36.66924297 126.51558209 -36.64653718 111.24156672 C-36.64412276 109.61122708 -36.64171078 107.98088744 -36.6393013 106.35054779 C-36.63809422 105.54851528 -36.63688715 104.74648277 -36.63564349 103.92014624 C-36.62790344 98.2835762 -36.62866529 92.64704412 -36.63247299 87.01047134 C-36.63672854 80.13682531 -36.62618106 73.26338137 -36.59724589 66.38979214 C-36.58281416 62.88657044 -36.57455512 59.38364221 -36.5837326 55.88039589 C-36.59020037 52.07477912 -36.57195335 48.27004032 -36.54755402 44.46451378 C-36.55511266 43.36858357 -36.56267131 42.27265336 -36.57045901 41.14351314 C-36.4279136 28.53613436 -32.04814623 19.4074187 -23.36991119 10.42217064 C-17.05141037 4.56563568 -8.74459757 0.02971422 0 0 Z " fill="#000000" transform="translate(76.02616119384766,31.862985610961914)"/>
<path d="M0 0 C19.47135395 15.87619997 33.93803649 37.65056688 37 63 C39.12793518 91.10609663 33.48180074 118.01099187 15 140 C14.40574219 140.73992187 13.81148437 141.47984375 13.19921875 142.2421875 C-1.1788892 159.4482877 -23.37026191 169.8824347 -45.40625 172.71875 C-74.80448297 175.01948128 -101.51180933 168.62362739 -124.46289062 149.34863281 C-142.29718642 133.70113441 -153.49905414 109.5552147 -155.22241211 85.95410156 C-156.2402383 57.99780881 -150.35992687 34.28510104 -131.625 12.8125 C-97.12880933 -23.97951223 -40.71429006 -31.13104062 0 0 Z M-118.65234375 23.2109375 C-134.52842739 42.07204185 -139.91164816 64.71976524 -138 89 C-136.24808653 102.8886262 -129.10412897 117.39864027 -120 128 C-119.50371094 128.63808594 -119.00742187 129.27617187 -118.49609375 129.93359375 C-105.31705774 146.22478766 -85.05394971 154.5634442 -64.6875 156.8125 C-43.1118866 158.03278138 -22.00541457 150.57230975 -5.67675781 136.46142578 C9.14533155 123.01677008 19.22137115 103.88976646 20.37890625 83.76171875 C20.89863603 67.87243975 18.62478075 53.13482747 11 39 C10.55914062 38.16210938 10.11828125 37.32421875 9.6640625 36.4609375 C-1.08171797 17.28476572 -18.30773052 5.90548605 -39 0 C-40.22396484 -0.37125 -40.22396484 -0.37125 -41.47265625 -0.75 C-69.04704732 -7.75301996 -99.47748762 3.06954391 -118.65234375 23.2109375 Z " fill="#000000" transform="translate(435,51)"/>
<path d="M0 0 C0.8319378 -0.00644889 1.6638756 -0.01289778 2.52102363 -0.0195421 C3.4349202 -0.01644489 4.34881677 -0.01334769 5.29040718 -0.01015663 C6.26132809 -0.01468774 7.232249 -0.01921886 8.23259175 -0.02388728 C11.50070079 -0.03659327 14.76864451 -0.03490692 18.03677559 -0.03325844 C20.37390547 -0.03923981 22.71103337 -0.04604444 25.04815865 -0.05361366 C31.40762855 -0.07132049 37.76704468 -0.07597101 44.12653685 -0.07724524 C49.42991238 -0.07914138 54.73327531 -0.08649561 60.03664601 -0.09358943 C71.83076285 -0.10924121 83.62485632 -0.11492575 95.41898261 -0.11357872 C96.48082529 -0.11345885 96.48082529 -0.11345885 97.56411934 -0.11333656 C98.2728776 -0.1132548 98.98163586 -0.11317304 99.71187164 -0.1130888 C111.19937694 -0.11227583 122.68675114 -0.13141531 134.17421852 -0.1596133 C145.9660264 -0.18833021 157.75777032 -0.20215425 169.54961407 -0.20042574 C176.17122723 -0.19976142 182.79271954 -0.2056598 189.41430473 -0.22678185 C195.64085907 -0.24610064 201.86712265 -0.24633217 208.09368706 -0.23174858 C210.38142507 -0.22965149 212.66918098 -0.23441457 214.9568882 -0.2464695 C218.07540508 -0.26184034 221.19290916 -0.25266742 224.31140327 -0.23720741 C225.2208384 -0.24749454 226.13027353 -0.25778167 227.0672673 -0.26838052 C231.15973882 -0.22341757 233.38821058 -0.06417759 236.97032547 2.06942368 C239.65968659 5.07515309 239.85676845 7.27452529 239.92788887 11.25726891 C238.82580879 14.65534916 238.00691011 15.20458808 234.92788887 17.25726891 C233.02100903 17.51026857 233.02100903 17.51026857 230.82174969 17.51453781 C229.56246775 17.52421115 229.56246775 17.52421115 228.27774578 17.53407991 C227.3553852 17.53098271 226.43302461 17.5278855 225.4827137 17.52469444 C224.50292012 17.52922556 223.52312654 17.53375667 222.51364225 17.53842509 C219.2155606 17.55113147 215.91764275 17.54944471 212.61953926 17.54779625 C210.2610827 17.55377756 207.9026281 17.56058218 205.5441761 17.56815147 C199.12692404 17.58585799 192.70972527 17.59050878 186.29245114 17.59178305 C182.28674045 17.59277011 178.28103645 17.5973388 174.27532959 17.60277748 C161.03230299 17.62039256 147.78930883 17.62961584 134.54627044 17.62811653 C133.47507268 17.62799666 133.47507268 17.62799666 132.38223457 17.62787437 C131.66723277 17.62779261 130.95223098 17.62771085 130.21556246 17.62762661 C118.6239177 17.62681344 107.0324028 17.64595816 95.44079561 17.67415111 C83.54390148 17.70285873 71.64707074 17.7166926 59.75014108 17.71496356 C53.06875703 17.71429896 46.38748989 17.7202088 39.7061348 17.74131966 C33.42459237 17.76062465 27.14333824 17.76087957 20.86178589 17.74628639 C18.55266463 17.74418764 16.24352569 17.74896213 13.93443489 17.76100731 C10.78929576 17.77635468 7.64516382 17.76722103 4.50004768 17.75174522 C3.57991782 17.76203235 2.65978795 17.77231948 1.71177536 17.78291833 C-4.44185128 17.71570946 -4.44185128 17.71570946 -7.61177731 15.40995789 C-9.52532824 12.58917818 -10.0025518 10.66567611 -10.07211113 7.25726891 C-7.8824968 2.44011739 -5.38442773 0.01054853 0 0 Z " fill="#000000" transform="translate(149.07211112976074,282.74273109436035)"/>
<path d="M0 0 C0.8319378 -0.00644889 1.6638756 -0.01289778 2.52102363 -0.0195421 C3.4349202 -0.01644489 4.34881677 -0.01334769 5.29040718 -0.01015663 C6.26132809 -0.01468774 7.232249 -0.01921886 8.23259175 -0.02388728 C11.50070079 -0.03659327 14.76864451 -0.03490692 18.03677559 -0.03325844 C20.37390547 -0.03923981 22.71103337 -0.04604444 25.04815865 -0.05361366 C31.40762855 -0.07132049 37.76704468 -0.07597101 44.12653685 -0.07724524 C49.42991238 -0.07914138 54.73327531 -0.08649561 60.03664601 -0.09358943 C71.83076285 -0.10924121 83.62485632 -0.11492575 95.41898261 -0.11357872 C96.48082529 -0.11345885 96.48082529 -0.11345885 97.56411934 -0.11333656 C98.2728776 -0.1132548 98.98163586 -0.11317304 99.71187164 -0.1130888 C111.19937694 -0.11227583 122.68675114 -0.13141531 134.17421852 -0.1596133 C145.9660264 -0.18833021 157.75777032 -0.20215425 169.54961407 -0.20042574 C176.17122723 -0.19976142 182.79271954 -0.2056598 189.41430473 -0.22678185 C195.64085907 -0.24610064 201.86712265 -0.24633217 208.09368706 -0.23174858 C210.38142507 -0.22965149 212.66918098 -0.23441457 214.9568882 -0.2464695 C218.07540508 -0.26184034 221.19290916 -0.25266742 224.31140327 -0.23720741 C225.2208384 -0.24749454 226.13027353 -0.25778167 227.0672673 -0.26838052 C231.18260185 -0.22316638 233.38072181 -0.07538788 236.96641922 2.10457993 C239.49445952 4.87907327 239.92788887 6.5177071 239.92788887 10.25726891 C238.32377039 13.78632957 237.18629525 15.08499798 233.92788887 17.25726891 C232.03498375 17.51026857 232.03498375 17.51026857 229.85577774 17.51453781 C229.02383994 17.5209867 228.19190214 17.5274356 227.33475411 17.53407991 C226.42085754 17.53098271 225.50696097 17.5278855 224.56537056 17.52469444 C223.59444965 17.52922556 222.62352875 17.53375667 221.62318599 17.53842509 C218.35507695 17.55113108 215.08713323 17.54944473 211.81900215 17.54779625 C209.48187227 17.55377762 207.14474437 17.56058225 204.80761909 17.56815147 C198.44814919 17.5858583 192.08873306 17.59050882 185.72924089 17.59178305 C180.42586536 17.59367919 175.12250243 17.60103342 169.81913173 17.60812724 C158.0250149 17.62377902 146.23092142 17.62946356 134.43679513 17.62811653 C133.72890001 17.62803662 133.02100489 17.62795671 132.2916584 17.62787437 C131.58290014 17.62779261 130.87414188 17.62771085 130.1439061 17.62762661 C118.6564008 17.62681364 107.1690266 17.64595312 95.68155922 17.67415111 C83.88975134 17.70286803 72.09800742 17.71669206 60.30616367 17.71496356 C53.68455051 17.71429923 47.0630582 17.72019761 40.44147301 17.74131966 C34.21491867 17.76063846 27.98865509 17.76086998 21.76209068 17.74628639 C19.47435267 17.7441893 17.18659676 17.74895238 14.89888954 17.76100731 C11.78037266 17.77637815 8.66286858 17.76720523 5.54437447 17.75174522 C4.63493934 17.76203235 3.72550421 17.77231948 2.78851044 17.78291833 C-1.32682411 17.73770419 -3.52494407 17.58992569 -7.11064148 15.40995789 C-9.63868178 12.63546454 -10.07211113 10.99683071 -10.07211113 7.25726891 C-7.8824968 2.44011739 -5.38442773 0.01054853 0 0 Z " fill="#000000" transform="translate(149.07211112976074,364.74273109436035)"/>
<path d="M0 0 C2.3994224 1.65889085 3.81148235 2.97038017 4.34945679 5.90861511 C4.4636763 8.32885954 4.44916156 10.71835378 4.390625 13.140625 C4.38496521 14.02280701 4.37930542 14.90498901 4.37347412 15.81390381 C4.35111591 18.62649213 4.30092132 21.43779795 4.25 24.25 C4.22993425 26.15883574 4.21168361 28.06769149 4.1953125 29.9765625 C4.151253 34.65153445 4.08222984 39.32554992 4 44 C5.78615723 43.9685791 5.78615723 43.9685791 7.60839844 43.93652344 C12.02884889 43.86409038 16.44924696 43.81818828 20.87011719 43.78027344 C22.78296735 43.76016548 24.69575611 43.73287493 26.60839844 43.69824219 C29.35887811 43.64968751 32.10854477 43.62702342 34.859375 43.609375 C35.71368103 43.58872986 36.56798706 43.56808472 37.44818115 43.54681396 C43.39143439 43.54457095 43.39143439 43.54457095 46.53808594 45.89941406 C48.11697588 48.16807957 48.54273779 49.26478144 48.5 52 C48.51546875 52.99 48.51546875 52.99 48.53125 54 C47.71779837 57.06240614 46.54617313 58.09453377 44 60 C40.95030761 60.55894119 37.95080334 60.46533239 34.859375 60.390625 C33.97719299 60.38496521 33.09501099 60.37930542 32.18609619 60.37347412 C29.37350787 60.35111591 26.56220205 60.30092132 23.75 60.25 C21.84116426 60.22993425 19.93230851 60.21168361 18.0234375 60.1953125 C13.34846555 60.151253 8.67445008 60.08222984 4 60 C4.02094727 61.19077148 4.04189453 62.38154297 4.06347656 63.60839844 C4.13590962 68.02884889 4.18181172 72.44924696 4.21972656 76.87011719 C4.23983452 78.78296735 4.26712507 80.69575611 4.30175781 82.60839844 C4.35031249 85.35887811 4.37297658 88.10854477 4.390625 90.859375 C4.41127014 91.71368103 4.43191528 92.56798706 4.45318604 93.44818115 C4.45542905 99.39143439 4.45542905 99.39143439 2.10058594 102.53808594 C-0.81137625 104.56468166 -2.64855705 104.5704663 -6.09765625 104.390625 C-9.06757326 103.78078578 -10.30252114 102.44436955 -12 100 C-13.25571495 95.94789161 -13.12594509 91.93724088 -13.09765625 87.734375 C-13.0962413 86.94097717 -13.09482635 86.14757935 -13.09336853 85.33013916 C-13.08778415 82.80338728 -13.07523454 80.27672496 -13.0625 77.75 C-13.05748298 76.03385545 -13.05292043 74.31770951 -13.04882812 72.6015625 C-13.03781984 68.40100731 -13.02056596 64.20051883 -13 60 C-14.16047852 60.02094727 -15.32095703 60.04189453 -16.51660156 60.06347656 C-20.82523238 60.13591807 -25.13380945 60.18181471 -29.44287109 60.21972656 C-31.30722101 60.23983261 -33.17150794 60.2671218 -35.03564453 60.30175781 C-37.71662948 60.35032121 -40.39678023 60.37297838 -43.078125 60.390625 C-43.91055725 60.41127014 -44.7429895 60.43191528 -45.60064697 60.45318604 C-51.39471283 60.45542884 -51.39471283 60.45542884 -54.52441406 58.10058594 C-56.11882069 55.83085155 -56.54287378 54.74392202 -56.5 52 C-56.5103125 51.34 -56.520625 50.68 -56.53125 50 C-55.72033321 46.94713677 -54.53099577 45.90436625 -52 44 C-49.02261163 43.44297912 -46.09799088 43.53447934 -43.078125 43.609375 C-42.21813904 43.61503479 -41.35815308 43.62069458 -40.47210693 43.62652588 C-37.73083351 43.64888049 -34.99087696 43.69907398 -32.25 43.75 C-30.38934182 43.77006624 -28.52866311 43.78831679 -26.66796875 43.8046875 C-22.11147334 43.84874216 -17.55595978 43.91776246 -13 44 C-13.01571045 42.94611084 -13.0314209 41.89222168 -13.04760742 40.80639648 C-13.10217256 36.87223035 -13.13644612 32.93809726 -13.16479492 29.00366211 C-13.17982126 27.30536258 -13.20024823 25.60710145 -13.22631836 23.90893555 C-13.26297449 21.45872482 -13.27978789 19.00903 -13.29296875 16.55859375 C-13.30845261 15.80726669 -13.32393646 15.05593964 -13.33988953 14.28184509 C-13.3415078 9.13820466 -12.42169365 5.56335252 -10 1 C-6.87057535 -0.56471233 -3.38917777 -0.69701958 0 0 Z " fill="#000000" transform="translate(380,76)"/>
<path d="M0 0 C1.20991104 -0.00708481 2.41982208 -0.01416962 3.66639709 -0.02146912 C5.00404395 -0.01917538 6.34169046 -0.01666569 7.67933655 -0.01396179 C9.09051788 -0.01830983 10.50169685 -0.02349328 11.91287231 -0.02944946 C15.74345412 -0.04284083 19.57393727 -0.043418 23.40453792 -0.04088616 C26.60289287 -0.03981656 29.80122786 -0.04469954 32.99957854 -0.04949158 C40.54519015 -0.06058721 48.09075198 -0.06102385 55.6363678 -0.05497742 C63.41966844 -0.04893642 71.20278837 -0.06125165 78.98605818 -0.08254749 C85.66982518 -0.10016229 92.35353465 -0.10616505 99.03732401 -0.10290974 C103.02867551 -0.10109656 107.01989809 -0.10373645 111.01122856 -0.11762428 C114.7648004 -0.13019612 118.51809046 -0.12826482 122.27165794 -0.11521339 C123.64829859 -0.11284665 125.02495904 -0.11558586 126.401577 -0.12383652 C128.28258463 -0.13429626 130.16367248 -0.12440493 132.04467773 -0.11352539 C133.62282965 -0.113777 133.62282965 -0.113777 135.23286343 -0.1140337 C138.52810529 0.31878807 140.40509478 1.33072525 143.08583069 3.26069641 C145.01446908 5.80299247 145.0948536 7.04414659 144.96083069 10.26069641 C143.93180909 13.78877045 142.94731604 14.99076036 140.08583069 17.26069641 C137.29344177 17.76406097 137.29344177 17.76406097 134.01307678 17.76863098 C132.76806396 17.77991028 131.52305115 17.79118958 130.24031067 17.80281067 C128.86329418 17.79503369 127.48627999 17.78684103 126.10926819 17.77827454 C124.65705157 17.7836955 123.20484046 17.79081803 121.75263977 17.79951477 C117.81044794 17.8177544 113.8686747 17.81067819 109.92647552 17.79799843 C105.80168527 17.78787398 101.67693094 17.79726256 97.55213928 17.80354309 C90.62515322 17.81082113 83.69833773 17.80122775 76.77137756 17.78218079 C68.76190967 17.76041164 60.75284906 17.76746291 52.74339104 17.78948641 C45.86768545 17.80763601 38.99210249 17.81020092 32.11638069 17.79973173 C28.00934803 17.79349434 23.90250683 17.79266779 19.79548645 17.80587769 C15.93429746 17.81742929 12.07363374 17.80942369 8.21250153 17.78630066 C6.79513674 17.78100979 5.37772778 17.78253389 3.96038055 17.79135132 C2.02646458 17.80227349 0.09245205 17.78615101 -1.84141541 17.76863098 C-2.92393585 17.76712288 -4.0064563 17.76561478 -5.1217804 17.76406097 C-8.60354158 17.13642806 -9.76285629 16.01779571 -11.91416931 13.26069641 C-13.06112869 9.66689037 -13.23049231 7.99323389 -11.72666931 4.51069641 C-8.37281563 0.34729183 -5.19511438 0.01014039 0 0 Z " fill="#000000" transform="translate(151.91416931152344,200.7393035888672)"/>
<path d="M0 0 C0.97301056 -0.0071553 1.94602112 -0.01431061 2.94851685 -0.02168274 C4.01972778 -0.02437164 5.09093872 -0.02706055 6.1946106 -0.02983093 C7.31989166 -0.03640213 8.44517273 -0.04297333 9.60455322 -0.04974365 C13.34046488 -0.06950769 17.07633633 -0.081145 20.81228638 -0.09111023 C22.72171209 -0.09722352 22.72171209 -0.09722352 24.66971207 -0.10346031 C30.70959831 -0.12217857 36.74946005 -0.13674277 42.78936756 -0.14507228 C49.76353303 -0.15484886 56.73738147 -0.18117952 63.7114352 -0.22157317 C69.75025904 -0.25535102 75.78892872 -0.26721546 81.82785416 -0.27127647 C84.39795204 -0.27616022 86.96804611 -0.28782455 89.53808212 -0.30631447 C93.12958052 -0.33055092 96.7202437 -0.32976906 100.3117981 -0.32279968 C101.37896057 -0.33560974 102.44612305 -0.3484198 103.54562378 -0.36161804 C110.74357317 -0.31054643 110.74357317 -0.31054643 114.0413208 2.05154419 C115.48484261 4.30691769 115.92412664 5.48939444 115.88259888 8.14717102 C115.89806763 9.13717102 115.89806763 9.13717102 115.91384888 10.14717102 C115.07770844 13.29499384 114.06277634 14.2239953 111.38259888 16.14717102 C107.71011033 16.76192175 104.05939611 16.68264328 100.34353638 16.64888 C98.6551767 16.65698448 98.6551767 16.65698448 96.93270874 16.66525269 C93.20740568 16.67777285 89.48287047 16.66122609 85.75759888 16.64326477 C83.17214924 16.64341968 80.58669938 16.64490733 78.00125122 16.64767456 C72.58072799 16.64906004 67.16048858 16.6369086 61.74002075 16.61372375 C55.47559121 16.58711431 49.21153205 16.5853671 42.94706535 16.59711212 C36.91780961 16.6078961 30.88872344 16.60159712 24.85946655 16.58755684 C22.29497671 16.58303483 19.73047596 16.58271205 17.16598511 16.58662224 C13.58431531 16.58952676 10.00325433 16.57306274 6.42166138 16.55122375 C4.8256308 16.55797623 4.8256308 16.55797623 3.19735718 16.56486511 C2.22159729 16.55496048 1.2458374 16.54505585 0.24050903 16.53485107 C-0.60603241 16.53242118 -1.45257385 16.52999128 -2.32476807 16.52748775 C-5.18034053 16.05378701 -6.54061684 15.14317033 -8.61740112 13.14717102 C-9.7211349 9.17372941 -10.03283695 7.0571733 -8.30490112 3.27217102 C-5.71972479 0.01676379 -3.98351177 0.02006573 0 0 Z " fill="#000000" transform="translate(148.61740112304688,119.85282897949219)"/>
</svg>
