<?xml version="1.0" encoding="UTF-8"?>
<svg version="1.1" xmlns="http://www.w3.org/2000/svg" width="512" height="512">
<path d="M0 0 C1.48821007 -0.00786278 1.48821007 -0.00786278 3.00648499 -0.0158844 C5.09668038 -0.02228404 7.18691188 -0.02099439 9.27709961 -0.01245117 C12.45947953 -0.00394148 15.64006266 -0.03273191 18.82226562 -0.06445312 C20.86067655 -0.06606547 22.89909063 -0.06548698 24.9375 -0.0625 C25.88044418 -0.07373398 26.82338837 -0.08496796 27.79490662 -0.09654236 C34.99039057 -0.0213544 40.31874995 1.61503562 45.77734375 6.3984375 C46.31617188 7.04941406 46.855 7.70039062 47.41015625 8.37109375 C47.96445312 9.01949219 48.51875 9.66789062 49.08984375 10.3359375 C53.56927722 16.83716932 53.20979353 23.80500292 52.53515625 31.43359375 C50.85430042 38.09318708 46.07137303 42.61906822 40.53515625 46.43359375 C35.64625733 49.06164692 30.67342345 48.7569321 25.265625 48.76953125 C24.27065506 48.77618805 23.27568512 48.78284485 22.25056458 48.78970337 C20.14842574 48.79981273 18.04625492 48.80452092 15.9440918 48.80419922 C12.74408453 48.80856452 9.54546587 48.84488136 6.34570312 48.8828125 C4.29818177 48.88868274 2.2506539 48.89265075 0.203125 48.89453125 C-0.74609329 48.90890228 -1.69531158 48.92327332 -2.67329407 48.93807983 C-9.90142078 48.88889165 -15.33008387 47.32805845 -20.70703125 42.36328125 C-21.24585938 41.68523437 -21.7846875 41.0071875 -22.33984375 40.30859375 C-22.89414062 39.62539062 -23.4484375 38.9421875 -24.01953125 38.23828125 C-24.49648438 37.64273438 -24.9734375 37.0471875 -25.46484375 36.43359375 C-26.12484375 35.77359375 -26.78484375 35.11359375 -27.46484375 34.43359375 C-29.67534109 37.16159123 -31.04572894 39.55767056 -32.14379883 42.88696289 C-32.43873734 43.76892838 -32.73367584 44.65089386 -33.03755188 45.55958557 C-33.35000351 46.51960983 -33.66245514 47.47963409 -33.984375 48.46875 C-34.32425949 49.49310654 -34.66414398 50.51746307 -35.014328 51.57286072 C-36.10904399 54.87832511 -37.19325978 58.1871292 -38.27734375 61.49609375 C-38.96352639 63.571184 -39.65037063 65.64605559 -40.33789062 67.72070312 C-44.36084181 79.88469189 -48.32349502 92.06824723 -52.28460693 104.25247192 C-57.92438839 121.59961891 -63.59364888 138.93655582 -69.3125 156.2578125 C-69.64412392 157.26228613 -69.97574783 158.26675976 -70.31742096 159.30167198 C-73.43988302 168.75793561 -76.56549502 178.21315718 -79.6925354 187.66790771 C-81.87536219 194.26788737 -84.05726869 200.8681706 -86.23828125 207.46875 C-86.59385542 208.54473701 -86.94942959 209.62072403 -87.31577873 210.72931671 C-91.68617864 223.95879646 -96.02597519 237.19748071 -100.30755043 250.4559803 C-101.05309579 252.76349079 -101.80018551 255.07049477 -102.54789734 257.37730408 C-102.78533063 258.1099262 -103.02276392 258.84254831 -103.26739216 259.5973711 C-103.73225879 261.03171374 -104.19717702 262.46603966 -104.66215038 263.90034771 C-105.96523332 267.92381293 -107.25720819 271.9506227 -108.54047012 275.98045063 C-109.49926557 278.98092077 -110.47365054 281.97633265 -111.4453125 284.97265625 C-111.93065964 286.51867775 -111.93065964 286.51867775 -112.42581177 288.09593201 C-116.55106944 300.70024074 -122.67356834 310.66637841 -134.65234375 316.80859375 C-140.77808055 319.7495765 -145.56045118 320.58270436 -152.3359375 320.6796875 C-153.89518804 320.71261973 -155.45443269 320.74583148 -157.01367188 320.77929688 C-159.46032773 320.82670221 -161.90695867 320.87116775 -164.35375977 320.91040039 C-166.72306331 320.95022663 -169.091896 321.00173391 -171.4609375 321.0546875 C-172.55177895 321.06730873 -172.55177895 321.06730873 -173.66465759 321.08018494 C-177.66553329 321.17704106 -180.91289445 321.52437408 -184.46484375 323.43359375 C-186.43146187 326.9264523 -186.80370343 330.2878193 -187.08984375 334.24609375 C-187.16460937 335.22191406 -187.239375 336.19773437 -187.31640625 337.203125 C-187.36539062 337.93917969 -187.414375 338.67523438 -187.46484375 339.43359375 C-186.47484375 338.93859375 -185.48484375 338.44359375 -184.46484375 337.93359375 C-176.43856117 334.94873066 -165.90508626 335.12956548 -157.90234375 338.05859375 C-149.33478976 342.16986966 -143.88274392 348.4270207 -140.3515625 357.19921875 C-137.98404647 365.83491598 -138.31342125 376.21026224 -142.20703125 384.32421875 C-147.18293307 392.66889882 -154.07049102 397.85808883 -163.46484375 400.43359375 C-174.56461647 401.43210887 -184.19933035 400.78306577 -193.27734375 393.68359375 C-198.87837201 388.45244472 -203.1305409 381.52957332 -203.63954163 373.77056885 C-203.69621096 370.45074674 -203.68939703 367.13658978 -203.66015625 363.81640625 C-203.65732635 362.60411346 -203.65449646 361.39182068 -203.65158081 360.14279175 C-203.64041042 356.28129086 -203.61531112 352.42002422 -203.58984375 348.55859375 C-203.57980991 345.93620127 -203.57068477 343.31380515 -203.5625 340.69140625 C-203.54048133 334.27205586 -203.50703473 327.85284155 -203.46484375 321.43359375 C-226.32603053 321.38689126 -249.18720946 321.35161349 -272.04843426 321.32996941 C-282.66308371 321.31965297 -293.27770354 321.30558559 -303.89233398 321.28271484 C-313.14308991 321.26279225 -322.39382438 321.24987999 -331.64460117 321.24541676 C-336.5436648 321.24280747 -341.44266706 321.23666681 -346.34171104 321.22213364 C-350.95204735 321.20856761 -355.56229693 321.20436914 -360.17265129 321.20737839 C-361.86535361 321.20682779 -363.5580588 321.20284451 -365.25074387 321.1951828 C-367.56124615 321.18523686 -369.87142072 321.18762353 -372.18193054 321.19308472 C-373.4752061 321.19124113 -374.76848166 321.18939754 -376.10094738 321.18749809 C-379.3702237 321.42667154 -381.58068028 321.90445833 -384.46484375 323.43359375 C-386.43146187 326.9264523 -386.80370343 330.2878193 -387.08984375 334.24609375 C-387.16460937 335.22191406 -387.239375 336.19773437 -387.31640625 337.203125 C-387.36539063 337.93917969 -387.414375 338.67523438 -387.46484375 339.43359375 C-386.47484375 338.93859375 -385.48484375 338.44359375 -384.46484375 337.93359375 C-376.43856117 334.94873066 -365.90508626 335.12956548 -357.90234375 338.05859375 C-349.33478976 342.16986966 -343.88274392 348.4270207 -340.3515625 357.19921875 C-337.98404647 365.83491598 -338.31342125 376.21026224 -342.20703125 384.32421875 C-347.18293307 392.66889882 -354.07049102 397.85808883 -363.46484375 400.43359375 C-374.56461647 401.43210887 -384.19933035 400.78306577 -393.27734375 393.68359375 C-398.87713565 388.45359943 -403.06695284 381.56674387 -403.66700745 373.82550049 C-403.76271971 370.58149765 -403.79448377 367.34308024 -403.80078125 364.09765625 C-403.80743805 362.90433685 -403.81409485 361.71101746 -403.82095337 360.48153687 C-403.83106143 357.96166522 -403.83577096 355.4417669 -403.83544922 352.921875 C-403.83982057 349.07897588 -403.87615735 345.23722724 -403.9140625 341.39453125 C-403.91993145 338.94141016 -403.92390032 336.48828364 -403.92578125 334.03515625 C-403.94015228 332.892211 -403.95452332 331.74926575 -403.96932983 330.57168579 C-403.92451518 322.69743572 -402.83393796 317.27824599 -397.5 311.19140625 C-396.84902344 310.65257812 -396.19804687 310.11375 -395.52734375 309.55859375 C-394.87894531 309.00429688 -394.23054688 308.45 -393.5625 307.87890625 C-388.20151413 304.1851171 -383.37830939 304.14511932 -377.07855225 304.1685791 C-376.12916251 304.16419783 -375.17977278 304.15981656 -374.20161366 304.15530252 C-371.01815034 304.14297416 -367.83485163 304.14479123 -364.65136719 304.14648438 C-362.36969254 304.1404606 -360.08802012 304.13353647 -357.80635071 304.1257782 C-352.8911041 304.110882 -347.97589817 304.10213812 -343.0606308 304.09806824 C-335.28657466 304.09135777 -327.51260552 304.06960607 -319.73858643 304.04553223 C-308.83696301 304.01317825 -297.93534265 303.98633339 -287.03369141 303.96533203 C-286.34206647 303.96399704 -285.65044153 303.96266205 -284.93785825 303.9612866 C-280.03018711 303.95186171 -275.12251549 303.9426997 -270.21484375 303.93359375 C-264.61572229 303.92320093 -259.01660111 303.91268201 -253.41748047 303.90185547 C-252.72791275 303.90052473 -252.03834502 303.89919398 -251.32788131 303.89782292 C-239.81622036 303.87536641 -228.30459494 303.84507666 -216.79296708 303.80946302 C-209.06731132 303.78613139 -201.34171583 303.77237744 -193.61602831 303.76596832 C-188.80495507 303.76002307 -183.99393056 303.74592049 -179.18288231 303.72962379 C-176.95488557 303.72375568 -174.7268769 303.72127394 -172.49887276 303.72246361 C-169.45216854 303.72362645 -166.40573691 303.71257644 -163.35906982 303.6986084 C-162.48210504 303.70190737 -161.60514026 303.70520635 -160.70160079 303.70860529 C-152.11016531 303.64382033 -142.90200395 302.6802249 -136.46484375 296.43359375 C-132.73186472 290.75222382 -130.50090006 284.62683539 -128.37597656 278.20727539 C-128.01755676 277.1262001 -127.65913696 276.04512482 -127.28985596 274.93128967 C-127.01760193 274.10705002 -126.7453479 273.28281036 -126.46484375 272.43359375 C-127.02177851 272.43587207 -127.57871326 272.43815039 -128.15252483 272.44049776 C-161.17913276 272.57483837 -194.20567206 272.67774939 -227.23249208 272.73998573 C-231.20024258 272.74748974 -235.16799252 272.7552557 -239.13574219 272.76318359 C-239.925632 272.76475746 -240.71552181 272.76633132 -241.52934767 272.76795287 C-254.31023427 272.7940432 -267.09095853 272.8413409 -279.87174891 272.89651053 C-292.99123104 272.95266879 -306.11062829 272.9859568 -319.23022568 272.99812472 C-327.32234082 273.00634735 -335.41399707 273.0322938 -343.50597091 273.08109255 C-349.71652883 273.11663194 -355.92673871 273.12031249 -362.13738441 273.11223984 C-364.68105325 273.11388884 -367.22473966 273.12580174 -369.76830482 273.1488266 C-373.24679505 273.17876684 -376.72333661 273.17147102 -380.20187378 273.15512085 C-381.20384666 273.1725979 -382.20581955 273.19007495 -383.23815525 273.2080816 C-391.15386371 273.10780343 -397.50756135 270.49138726 -403.10285175 264.75398195 C-406.91982134 260.0262499 -408.74423987 254.09845186 -410.765625 248.44921875 C-411.15890488 247.37761002 -411.55218475 246.30600128 -411.9573822 245.20191956 C-413.24048685 241.69929882 -414.50880111 238.19151156 -415.77734375 234.68359375 C-416.67236026 232.23355049 -417.5685319 229.78392892 -418.46582031 227.3347168 C-420.27985241 222.38078827 -422.08920181 217.42519016 -423.89501953 212.46826172 C-427.13893408 203.57442514 -430.43882089 194.70176993 -433.74957275 185.8326416 C-435.03157076 182.39738952 -436.31059749 178.9610344 -437.58966064 175.52468872 C-439.57856731 170.18147568 -441.56895218 164.838813 -443.559021 159.49603271 C-445.81311348 153.44433075 -448.06679333 147.39247542 -450.31994629 141.34042358 C-451.38052964 138.49217659 -452.44171585 135.64415471 -453.50292969 132.79614258 C-454.14521256 131.07113757 -454.78746675 129.34612188 -455.4296875 127.62109375 C-455.72364914 126.832686 -456.01761078 126.04427826 -456.32048035 125.23197937 C-458.70376573 118.82709767 -459.69995202 114.01013088 -459.77734375 107.24609375 C-459.80634766 106.42044922 -459.83535156 105.59480469 -459.86523438 104.74414062 C-459.93787532 97.65326657 -458.19560538 92.5498108 -453.5 87.19140625 C-452.84902344 86.65257812 -452.19804687 86.11375 -451.52734375 85.55859375 C-450.87894531 85.00429687 -450.23054688 84.45 -449.5625 83.87890625 C-445.71063425 81.22492054 -442.23949592 80.18143929 -437.58276367 80.20654297 C-436.64216599 80.20669403 -435.7015683 80.20684509 -434.73246765 80.20700073 C-433.73020645 80.2173233 -432.72794525 80.22764587 -431.6953125 80.23828125 C-430.65917313 80.24111115 -429.62303375 80.24394104 -428.55549622 80.24685669 C-425.25432668 80.25802921 -421.95343094 80.2831287 -418.65234375 80.30859375 C-416.41081122 80.31862732 -414.16927442 80.32775251 -411.92773438 80.3359375 C-406.43999908 80.35795901 -400.9524678 80.39246899 -395.46484375 80.43359375 C-395.46484375 85.71359375 -395.46484375 90.99359375 -395.46484375 96.43359375 C-396.65037842 96.45341309 -397.83591309 96.47323242 -399.05737305 96.49365234 C-403.46513742 96.56985164 -407.87257785 96.65854698 -412.2800293 96.75097656 C-414.18588861 96.78920714 -416.09181862 96.8240703 -417.99780273 96.85546875 C-420.74097928 96.90124797 -423.48367163 96.95922105 -426.2265625 97.01953125 C-427.07570724 97.03108246 -427.92485199 97.04263367 -428.79972839 97.05453491 C-433.07213632 97.16058921 -436.6289903 97.32706818 -440.46484375 99.43359375 C-443.39450971 103.82809268 -442.36926401 108.49990568 -441.46484375 113.43359375 C-440.45803071 116.923369 -439.18613095 120.28862024 -437.87890625 123.67578125 C-437.51031998 124.65623413 -437.1417337 125.63668701 -436.76197815 126.64685059 C-435.54748111 129.87112933 -434.31863449 133.08973845 -433.08984375 136.30859375 C-432.2310898 138.58113216 -431.37344233 140.85408895 -430.5168457 143.12744141 C-428.73271808 147.8600002 -426.94381588 152.59071438 -425.15185547 157.3203125 C-421.33878197 167.39780693 -417.59388723 177.50056087 -413.84390259 187.60165405 C-410.76030115 195.90080266 -407.66136069 204.19424334 -404.56420898 212.48834229 C-403.47741338 215.39991912 -402.39192564 218.3119809 -401.30664062 221.22412109 C-399.64924634 225.66956549 -397.98606755 230.11280128 -396.31802368 234.55426025 C-395.71357312 236.16614186 -395.11097492 237.77871946 -394.51034546 239.39202881 C-393.69690825 241.57581376 -392.87676049 243.75695416 -392.0546875 245.9375 C-391.59956787 247.15252197 -391.14444824 248.36754395 -390.67553711 249.61938477 C-389.63959702 252.50557906 -389.63959702 252.50557906 -387.46484375 254.43359375 C-384.57241127 255.40375763 -381.90153035 255.56213813 -378.86528397 255.57225895 C-377.94118674 255.57773339 -377.01708951 255.58320784 -376.06498933 255.58884817 C-375.05332129 255.58982628 -374.04165326 255.59080439 -372.99932861 255.59181213 C-371.92193664 255.59675011 -370.84454467 255.60168809 -369.73450446 255.6067757 C-366.11239258 255.62217433 -362.49029845 255.63051777 -358.86816406 255.63891602 C-356.2764724 255.64849268 -353.68478231 255.65850263 -351.09309387 255.66891479 C-345.50720204 255.69067045 -339.92130782 255.70881827 -334.33539581 255.72451973 C-326.25909306 255.74722665 -318.18281645 255.77536834 -310.10653588 255.80483901 C-297.00348989 255.85250483 -283.90043321 255.89577176 -270.79736328 255.9362793 C-258.06851367 255.97563936 -245.33967356 256.01706681 -232.61083984 256.0612793 C-231.8263109 256.06400357 -231.04178196 256.06672784 -230.23347941 256.06953467 C-226.29775109 256.08321423 -222.36202291 256.09693449 -218.4262948 256.11067498 C-185.77249734 256.2246239 -153.11868003 256.33136359 -120.46484375 256.43359375 C-119.80484375 253.46359375 -119.14484375 250.49359375 -118.46484375 247.43359375 C-115.82484375 239.84359375 -113.18484375 232.25359375 -110.46484375 224.43359375 C-196.59484375 224.43359375 -282.72484375 224.43359375 -371.46484375 224.43359375 C-371.46484375 219.15359375 -371.46484375 213.87359375 -371.46484375 208.43359375 C-283.35484375 208.43359375 -195.24484375 208.43359375 -104.46484375 208.43359375 C-103.80484375 205.46359375 -103.14484375 202.49359375 -102.46484375 199.43359375 C-100.81484375 194.48359375 -99.16484375 189.53359375 -97.46484375 184.43359375 C-113.96484375 184.43359375 -130.46484375 184.43359375 -147.46484375 184.43359375 C-147.46484375 179.15359375 -147.46484375 173.87359375 -147.46484375 168.43359375 C-128.98484375 168.43359375 -110.50484375 168.43359375 -91.46484375 168.43359375 C-90.80484375 165.46359375 -90.14484375 162.49359375 -89.46484375 159.43359375 C-87.81484375 154.48359375 -86.16484375 149.53359375 -84.46484375 144.43359375 C-105.25484375 144.43359375 -126.04484375 144.43359375 -147.46484375 144.43359375 C-147.46484375 139.15359375 -147.46484375 133.87359375 -147.46484375 128.43359375 C-124.69484375 128.43359375 -101.92484375 128.43359375 -78.46484375 128.43359375 C-77.47484375 124.80359375 -76.48484375 121.17359375 -75.46484375 117.43359375 C-73.15484375 110.50359375 -70.84484375 103.57359375 -68.46484375 96.43359375 C-91.89484375 96.43359375 -115.32484375 96.43359375 -139.46484375 96.43359375 C-139.46484375 91.15359375 -139.46484375 85.87359375 -139.46484375 80.43359375 C-114.05484375 80.43359375 -88.64484375 80.43359375 -62.46484375 80.43359375 C-61.80484375 77.46359375 -61.14484375 74.49359375 -60.46484375 71.43359375 C-60.02089046 69.84198954 -59.55455297 68.25610266 -59.04785156 66.68334961 C-58.78707825 65.86897934 -58.52630493 65.05460907 -58.25762939 64.21556091 C-57.98054138 63.36841019 -57.70345337 62.52125946 -57.41796875 61.6484375 C-57.12428406 60.74791153 -56.83059937 59.84738556 -56.52801514 58.91957092 C-55.90859294 57.02879646 -55.2865874 55.13886652 -54.66210938 53.24975586 C-53.71772687 50.3798553 -52.79440045 47.50369195 -51.87109375 44.62695312 C-51.2630108 42.77952214 -50.65367708 40.93250227 -50.04296875 39.0859375 C-49.77397766 38.23676254 -49.50498657 37.38758759 -49.22784424 36.51268005 C-46.95157843 29.75821805 -43.73777179 23.76446239 -37.83203125 19.55859375 C-37.00960938 19.18734375 -36.1871875 18.81609375 -35.33984375 18.43359375 C-34.51226562 18.04171875 -33.6846875 17.64984375 -32.83203125 17.24609375 C-30.46484375 16.43359375 -30.46484375 16.43359375 -26.46484375 16.43359375 C-26.27921875 15.58796875 -26.09359375 14.74234375 -25.90234375 13.87109375 C-23.29268046 7.63059458 -18.83091112 3.66723523 -12.59425354 1.07362366 C-8.47090865 -0.16571696 -4.27372035 -0.01327674 0 0 Z M-9.46484375 19.43359375 C-10.88526196 22.27443016 -10.77936647 24.28836653 -10.46484375 27.43359375 C-8.23277944 30.28139994 -6.91491376 31.28357041 -3.46484375 32.43359375 C1.05553559 32.6624386 5.5783166 32.66189944 10.10375977 32.67382812 C12.32932187 32.68351396 14.55395217 32.71453907 16.77929688 32.74609375 C18.20442163 32.75262647 19.62955296 32.75787589 21.0546875 32.76171875 C22.98985229 32.7757373 22.98985229 32.7757373 24.96411133 32.79003906 C28.83051645 32.40411225 31.24546574 31.46763703 34.53515625 29.43359375 C35.95557446 26.59275734 35.84967897 24.57882097 35.53515625 21.43359375 C33.30309194 18.58578756 31.98522626 17.58361709 28.53515625 16.43359375 C24.01477691 16.2047489 19.4919959 16.20528806 14.96655273 16.19335938 C12.74099063 16.18367354 10.51636033 16.15264843 8.29101562 16.12109375 C6.86589087 16.11456103 5.44075954 16.10931161 4.015625 16.10546875 C2.08046021 16.0914502 2.08046021 16.0914502 0.10620117 16.07714844 C-3.76020395 16.46307525 -6.17515324 17.39955047 -9.46484375 19.43359375 Z M-384.83984375 360.05859375 C-387.04392268 364.63629614 -387.26200765 368.43911786 -386.46484375 373.43359375 C-384.13515444 378.27217923 -381.30342923 381.10390444 -376.46484375 383.43359375 C-371.47036786 384.23075765 -367.66754614 384.01267268 -363.08984375 381.80859375 C-359.50576662 378.5658573 -356.86949134 375.96883479 -356.08203125 371.03515625 C-355.82600456 365.35136381 -356.52857443 361.7842072 -360.46484375 357.43359375 C-364.8154572 353.49732443 -368.38261381 352.79475456 -374.06640625 353.05078125 C-379.00008479 353.83824134 -381.5971073 356.47451662 -384.83984375 360.05859375 Z M-184.83984375 360.05859375 C-187.04392268 364.63629614 -187.26200765 368.43911786 -186.46484375 373.43359375 C-184.13515444 378.27217923 -181.30342923 381.10390444 -176.46484375 383.43359375 C-171.47036786 384.23075765 -167.66754614 384.01267268 -163.08984375 381.80859375 C-159.50576662 378.5658573 -156.86949134 375.96883479 -156.08203125 371.03515625 C-155.82600456 365.35136381 -156.52857443 361.7842072 -160.46484375 357.43359375 C-164.8154572 353.49732443 -168.38261381 352.79475456 -174.06640625 353.05078125 C-179.00008479 353.83824134 -181.5971073 356.47451662 -184.83984375 360.05859375 Z " fill="#000000" transform="translate(459.46484375,111.56640625)"/>
<path d="M0 0 C5.28 0 10.56 0 16 0 C16.09259653 14.01231157 16.16371264 28.02455059 16.20724869 42.03710556 C16.22814165 48.54340149 16.25649108 55.04948843 16.30175781 61.55566406 C16.3451537 67.83207509 16.36912422 74.10828484 16.37950897 80.38483429 C16.38691153 82.78189514 16.40136659 85.17894473 16.42292023 87.5759201 C16.45187016 90.92813605 16.45595941 94.27951552 16.45410156 97.63183594 C16.46848267 98.62733459 16.48286377 99.62283325 16.49768066 100.64849854 C16.45737444 107.34996203 16.45737444 107.34996203 14.15943909 110.61587524 C11.18951456 112.51949276 9.02561529 112.51394037 5.51171875 112.5390625 C4.24779297 112.56226562 2.98386719 112.58546875 1.68164062 112.609375 C0.36357422 112.61453125 -0.95449219 112.6196875 -2.3125 112.625 C-4.91285422 112.65065717 -7.51314452 112.68426236 -10.11328125 112.7265625 C-11.84251831 112.73550537 -11.84251831 112.73550537 -13.60668945 112.74462891 C-18.68457644 113.12677653 -22.72577082 114.03724907 -26.8125 117.125 C-29.52691577 120.69251787 -30.75711661 123.51922029 -31 128 C-29.4376361 136.52198493 -22.79327624 141.98548124 -17 148 C-15.84277686 149.28147236 -14.69514789 150.57175576 -13.5625 151.875 C-13.02238281 152.49632812 -12.48226562 153.11765625 -11.92578125 153.7578125 C-10.37683442 155.56125161 -8.83351348 157.36908502 -7.29296875 159.1796875 C-1.4655094 166.02119707 4.45656731 172.74252108 10.5546875 179.34375 C14.71504527 183.86298847 18.72685535 188.50178609 22.70703125 193.1796875 C28.5344906 200.02119707 34.45656731 206.74252108 40.5546875 213.34375 C44.71504527 217.86298847 48.72685535 222.50178609 52.70703125 227.1796875 C57.65802933 232.99222067 62.6340757 238.7630877 67.8125 244.375 C74.39487069 251.50987069 74.39487069 251.50987069 77.125 254.5625 C77.66382813 255.16191406 78.20265625 255.76132812 78.7578125 256.37890625 C80 258 80 258 81 261 C83.67643957 261.89214652 85.25384378 262.13540211 88 262.125 C89.0209375 262.12886719 89.0209375 262.12886719 90.0625 262.1328125 C92.21874781 262.06631126 92.21874781 262.06631126 95 261 C95.27457031 260.44828125 95.54914063 259.8965625 95.83203125 259.328125 C97.524236 255.95503459 100.11024199 253.45965679 102.6875 250.75 C103.78585649 249.57747848 104.88351724 248.40430481 105.98046875 247.23046875 C106.50688965 246.6689209 107.03331055 246.10737305 107.57568359 245.52880859 C111.41490871 241.40792624 115.05400911 237.11280591 118.703125 232.82421875 C124.53233688 225.98180944 130.45532531 219.25882339 136.5546875 212.65625 C140.71504527 208.13701153 144.72685535 203.49821391 148.70703125 198.8203125 C154.5344906 191.97880293 160.45656731 185.25747892 166.5546875 178.65625 C170.71504527 174.13701153 174.72685535 169.49821391 178.70703125 164.8203125 C179.72109297 163.62998577 180.73542446 162.43988881 181.75 161.25 C182.51872437 160.34797852 182.51872437 160.34797852 183.30297852 159.42773438 C186.74304704 155.41154699 190.27274199 151.49584197 193.875 147.625 C203.54892779 137.519563 203.54892779 137.519563 206.21484375 124.4765625 C205.93315491 121.22945841 205.15142982 119.44817877 203 117 C197.73694146 113.12195686 192.6918654 112.88566863 186.30859375 112.82421875 C184.39723633 112.78844727 184.39723633 112.78844727 182.44726562 112.75195312 C180.43713946 112.71677407 178.42763386 112.68743442 176.41723633 112.67407227 C174.46413325 112.65858468 172.51129547 112.61673327 170.55859375 112.57421875 C169.39642334 112.55963623 168.23425293 112.54505371 167.03686523 112.5300293 C163.16295854 111.85390972 162.26519766 111.2216366 160 108 C159.41060752 104.54669229 159.49540658 101.12701831 159.54589844 97.63183594 C159.54531433 96.57786621 159.54473022 95.52389648 159.54412842 94.43798828 C159.54691586 90.95311589 159.57804032 87.46909804 159.609375 83.984375 C159.61683501 81.56870999 159.62252907 79.15303894 159.62652588 76.73736572 C159.64180095 70.3782888 159.68109951 64.01957711 159.7253418 57.66064453 C159.76625376 51.17225078 159.78452822 44.68379804 159.8046875 38.1953125 C159.84759145 25.46338116 159.9158659 12.73172095 160 0 C165.28 0 170.56 0 176 0 C176 31.68 176 63.36 176 96 C184.25 96 192.5 96 201 96 C211.35613056 100.60272469 218.66144861 105.09290461 223.1875 115.8125 C225.7406823 125.82883056 225.52112346 135.07223834 220.3125 144.25 C217.86548303 148.01509616 215.16091455 151.057177 211.89453125 154.1171875 C209.69531074 156.30280459 207.80800832 158.63828847 205.875 161.0625 C201.18099608 166.89785419 196.11536098 172.33116508 190.99609375 177.79296875 C186.61883286 182.4639332 182.4485711 187.29747541 178.30078125 192.171875 C172.46981787 199.01518479 166.54591666 205.73983217 160.4453125 212.34375 C156.28495473 216.86298847 152.27314465 221.50178609 148.29296875 226.1796875 C142.4655094 233.02119707 136.54343269 239.74252108 130.4453125 246.34375 C126.22756207 250.92533194 122.15484583 255.62046622 118.15234375 260.390625 C117.37491821 261.31125732 117.37491821 261.31125732 116.58178711 262.25048828 C115.55819094 263.46351056 114.53915158 264.68039903 113.52563477 265.90185547 C107.55351442 272.96715386 101.33056171 279.30518225 91.796875 280.3515625 C82.7133741 280.72512639 76.24306545 279.25860801 69.1484375 273.49609375 C64.85774849 269.4307149 61.29110563 264.69793269 57.59375 260.1015625 C53.62158964 255.26793203 49.27245085 250.76952464 44.99609375 246.20703125 C40.61883286 241.5360668 36.4485711 236.70252459 32.30078125 231.828125 C26.46981787 224.98481521 20.54591666 218.26016783 14.4453125 211.65625 C10.28495473 207.13701153 6.27314465 202.49821391 2.29296875 197.8203125 C-3.5344906 190.97880293 -9.45656731 184.25747892 -15.5546875 177.65625 C-19.75965719 173.08855129 -23.80713154 168.39253658 -27.84765625 163.6796875 C-28.36207275 163.07979004 -28.87648926 162.47989258 -29.40649414 161.86181641 C-30.46626262 160.62360675 -31.52405497 159.38370293 -32.57983398 158.14208984 C-35.31359168 154.93276457 -38.10695024 151.81763035 -41 148.75 C-46.47771048 142.48403362 -49.12748309 134.28640098 -49 126 C-48.04436109 116.57593018 -44.85318006 109.06722601 -37.9375 102.5390625 C-26.30659049 93.29999325 -15.75860568 96 0 96 C0 64.32 0 32.64 0 0 Z " fill="#000000" transform="translate(120,8)"/>
<path d="M0 0 C3.63303084 1.69586126 5.94549046 3.73800488 8.75 6.625 C9.54921875 7.44226563 10.3484375 8.25953125 11.171875 9.1015625 C11.77515625 9.72804688 12.3784375 10.35453125 13 11 C11.55802042 14.30027875 9.77180823 16.47555514 7.22885132 19.01165771 C6.44358566 19.7996727 5.65832001 20.58768768 4.84925842 21.39958191 C3.98683029 22.25481949 3.12440216 23.11005707 2.23583984 23.99121094 C1.32846573 24.89887711 0.42109161 25.80654327 -0.51377869 26.74171448 C-2.99879203 29.22730138 -5.48992124 31.70667578 -7.98219347 34.18498135 C-10.58695014 36.77723116 -13.18603998 39.37515004 -15.78573608 41.97247314 C-20.70803215 46.88855432 -25.63540403 51.79951523 -30.56461942 56.7086575 C-36.17672601 62.2984054 -41.78315115 67.89383688 -47.38910604 73.48975325 C-58.91976028 84.99950528 -70.45752914 96.50209796 -82 108 C-85.63303084 106.30413874 -87.94549046 104.26199512 -90.75 101.375 C-91.54921875 100.55773437 -92.3484375 99.74046875 -93.171875 98.8984375 C-93.77515625 98.27195312 -94.3784375 97.64546875 -95 97 C-93.55802042 93.69972125 -91.77180823 91.52444486 -89.22885132 88.98834229 C-88.44358566 88.2003273 -87.65832001 87.41231232 -86.84925842 86.60041809 C-85.98683029 85.74518051 -85.12440216 84.88994293 -84.23583984 84.00878906 C-83.32846573 83.10112289 -82.42109161 82.19345673 -81.48622131 81.25828552 C-79.00120797 78.77269862 -76.51007876 76.29332422 -74.01780653 73.81501865 C-71.41304986 71.22276884 -68.81396002 68.62484996 -66.21426392 66.02752686 C-61.29196785 61.11144568 -56.36459597 56.20048477 -51.43538058 51.2913425 C-45.82327399 45.7015946 -40.21684885 40.10616312 -34.61089396 34.51024675 C-23.08023972 23.00049472 -11.54247086 11.49790204 0 0 Z " fill="#000000" transform="translate(249,90)"/>
<path d="M0 0 C5.82485779 3.51996782 10.54466582 8.98962934 12.5625 15.5 C13.36764105 23.33608208 13.68710392 31.11922577 8.5625 37.5 C3.75801361 42.54521222 -0.59927055 46.10562995 -7.70703125 46.8359375 C-16.22326573 46.92983204 -22.11345494 46.6177288 -28.40234375 40.62890625 C-34.7841668 33.72505269 -35.91792252 28.29832071 -35.7421875 18.9453125 C-35.04689797 11.08319245 -31.38995981 6.95041296 -25.53515625 1.9453125 C-18.47077988 -2.92213491 -7.84396301 -3.47595223 0 0 Z M-16.8125 17.125 C-18.92456506 20.21186432 -19.04945145 21.8282913 -18.4375 25.5 C-16.9375 28 -16.9375 28 -14.4375 29.5 C-10.7657913 30.11195145 -9.14936432 29.98706506 -6.0625 27.875 C-3.95043494 24.78813568 -3.82554855 23.1717087 -4.4375 19.5 C-5.9375 17 -5.9375 17 -8.4375 15.5 C-12.1092087 14.88804855 -13.72563568 15.01293494 -16.8125 17.125 Z " fill="#000000" transform="translate(243.4375,161.5)"/>
<path d="M0 0 C5.82485779 3.51996782 10.54466582 8.98962934 12.5625 15.5 C13.36764105 23.33608208 13.68710392 31.11922577 8.5625 37.5 C3.75801361 42.54521222 -0.59927055 46.10562995 -7.70703125 46.8359375 C-16.22326573 46.92983204 -22.11345494 46.6177288 -28.40234375 40.62890625 C-34.7841668 33.72505269 -35.91792252 28.29832071 -35.7421875 18.9453125 C-35.04689797 11.08319245 -31.38995981 6.95041296 -25.53515625 1.9453125 C-18.47077988 -2.92213491 -7.84396301 -3.47595223 0 0 Z M-16.8125 17.125 C-18.92456506 20.21186432 -19.04945145 21.8282913 -18.4375 25.5 C-16.9375 28 -16.9375 28 -14.4375 29.5 C-10.7657913 30.11195145 -9.14936432 29.98706506 -6.0625 27.875 C-3.95043494 24.78813568 -3.82554855 23.1717087 -4.4375 19.5 C-5.9375 17 -5.9375 17 -8.4375 15.5 C-12.1092087 14.88804855 -13.72563568 15.01293494 -16.8125 17.125 Z " fill="#000000" transform="translate(195.4375,81.5)"/>
<path d="M0 0 C5.28 0 10.56 0 16 0 C16 21.12 16 42.24 16 64 C10.72 64 5.44 64 0 64 C0 42.88 0 21.76 0 0 Z " fill="#000000" transform="translate(312,8)"/>
<path d="M0 0 C5.28 0 10.56 0 16 0 C16 18.48 16 36.96 16 56 C10.72 56 5.44 56 0 56 C0 37.52 0 19.04 0 0 Z " fill="#000000" transform="translate(88,40)"/>
<path d="M0 0 C5.28 0 10.56 0 16 0 C16 5.28 16 10.56 16 16 C10.72 16 5.44 16 0 16 C0 10.72 0 5.44 0 0 Z " fill="#000000" transform="translate(80,192)"/>
<path d="M0 0 C5.28 0 10.56 0 16 0 C16 5.28 16 10.56 16 16 C10.72 16 5.44 16 0 16 C0 10.72 0 5.44 0 0 Z " fill="#000000" transform="translate(88,8)"/>
</svg>
