<?xml version="1.0" encoding="UTF-8"?>
<svg version="1.1" xmlns="http://www.w3.org/2000/svg" width="512" height="512">
<path d="M0 0 C11.06113596 12.22546606 14.8344736 24.23354656 14.375 40.625 C15.27943848 40.86174438 15.27943848 40.86174438 16.20214844 41.10327148 C22.78065587 42.93563824 28.61026018 45.4759693 34.625 48.6875 C35.99362183 49.41332275 35.99362183 49.41332275 37.38989258 50.15380859 C49.26143813 56.57555413 59.62888359 64.26693723 69.375 73.625 C69.86822754 74.08181152 70.36145508 74.53862305 70.86962891 75.00927734 C96.82660186 99.06598589 113.2645388 133.35644071 116.375 168.625 C116.51123954 172.66129023 116.50158139 176.69416744 116.48852539 180.73242188 C116.48867142 181.9235257 116.48881744 183.11462952 116.4889679 184.34182739 C116.48839342 187.58506941 116.48340178 190.82826746 116.47639394 194.07150078 C116.47011363 197.46941815 116.46955292 200.86733651 116.46836853 204.26525879 C116.46526895 210.68945706 116.45707417 217.11363818 116.44701904 223.53782892 C116.43581513 230.85588975 116.4303367 238.17395142 116.42532361 245.4920187 C116.41489033 260.53635533 116.39731763 275.58067595 116.375 290.625 C116.98729965 290.75219925 117.5995993 290.8793985 118.23045349 291.01045227 C119.03668655 291.18271835 119.84291962 291.35498444 120.67358398 291.5324707 C121.47150864 291.70091995 122.26943329 291.8693692 123.09153748 292.04292297 C134.50705645 294.95285089 144.43542858 304.3296365 150.7734375 313.89453125 C159.13568583 328.15114487 159.71002565 342.56761524 159.63574219 358.6628418 C159.62495442 361.44927389 159.6357242 364.23507096 159.6484375 367.02148438 C159.64711689 368.81250141 159.64455654 370.60351805 159.640625 372.39453125 C159.64467346 373.21758255 159.64872192 374.04063385 159.65289307 374.8886261 C159.60276068 381.10388139 159.15290497 386.51958622 155 391.4375 C151.14935435 394.64637138 148.55350103 395.87648144 143.52813721 395.86550903 C142.06844765 395.86963303 142.06844765 395.86963303 140.57926941 395.87384033 C139.51831558 395.86664978 138.45736176 395.85945923 137.36425781 395.85205078 C135.68089073 395.85248886 135.68089073 395.85248886 133.96351624 395.85293579 C130.25164069 395.85154171 126.53996551 395.83597657 122.828125 395.8203125 C120.25551462 395.81658265 117.68290283 395.81373555 115.11029053 395.81173706 C109.02946417 395.80487927 102.94872058 395.78911401 96.86792541 395.76903808 C89.94415349 395.74667571 83.02037812 395.73568481 76.09657907 395.72564721 C61.85601407 395.70474766 47.61550959 395.66957378 33.375 395.625 C33.2831694 396.64805992 33.2831694 396.64805992 33.18948364 397.69178772 C33.10520111 398.5889299 33.02091858 399.48607208 32.93408203 400.41040039 C32.85223663 401.29869034 32.77039124 402.18698029 32.68606567 403.10218811 C30.78340984 418.53315064 19.90773774 431.93010707 8.375 441.625 C-7.94627375 453.90152471 -27.77502675 458.00577067 -47.87646484 455.32470703 C-60.58104864 452.93936901 -71.97663589 447.13310289 -81.625 438.625 C-82.37523437 437.96886719 -83.12546875 437.31273437 -83.8984375 436.63671875 C-95.61303498 425.70176171 -102.50155452 411.41220294 -104.625 395.625 C-105.21214846 395.62868717 -105.79929691 395.63237434 -106.40423775 395.63617325 C-120.70160955 395.72457335 -134.99895693 395.79073341 -149.29654121 395.83224869 C-156.21081492 395.85285969 -163.12490601 395.88095198 -170.0390625 395.92675781 C-176.71100248 395.97093785 -183.38271351 395.99413472 -190.05480576 396.00450897 C-192.6009304 396.01190258 -195.1470446 396.02634041 -197.69308853 396.04792023 C-201.25802339 396.07693564 -204.82217318 396.08095661 -208.38720703 396.07910156 C-209.44097031 396.09348267 -210.49473358 396.10786377 -211.58042908 396.12268066 C-217.59010297 396.08881863 -221.06806653 395.66273909 -225.625 391.625 C-229.91789079 385.93885354 -230.20526321 381.28684626 -230.12109375 374.30078125 C-230.12254898 373.3181279 -230.12400421 372.33547455 -230.12550354 371.32304382 C-230.12384913 369.24959339 -230.11233938 367.1761301 -230.09155273 365.1027832 C-230.06274747 361.9644617 -230.07092518 358.82784853 -230.08398438 355.68945312 C-230.06474594 336.74827358 -227.46669694 320.97886592 -213.8359375 306.8046875 C-212.74152344 305.72574219 -212.74152344 305.72574219 -211.625 304.625 C-211.06039062 304.05007813 -210.49578125 303.47515625 -209.9140625 302.8828125 C-203.10754491 296.47472521 -194.80427528 292.80424426 -185.625 291.625 C-185.62776538 291.00860499 -185.63053076 290.39220999 -185.63337994 289.75713634 C-185.70000028 274.67071401 -185.74945423 259.58433767 -185.78043652 244.4978056 C-185.79582241 237.20168927 -185.81675078 229.90567189 -185.85131836 222.60961914 C-185.88147724 216.24099029 -185.90063491 209.87243318 -185.90726548 203.50373489 C-185.91113362 200.14001236 -185.9216873 196.77665558 -185.94219017 193.41296959 C-186.04959292 175.04496959 -185.55072002 157.21862843 -179.9375 139.5625 C-179.68258789 138.74362305 -179.42767578 137.92474609 -179.16503906 137.08105469 C-172.86521639 117.51923971 -163.20224959 100.07663095 -149.625 84.625 C-148.54798828 83.36623047 -148.54798828 83.36623047 -147.44921875 82.08203125 C-131.11831464 63.37255852 -109.37951772 48.37325471 -85.625 40.625 C-84.965 40.625 -84.305 40.625 -83.625 40.625 C-83.65980469 39.98175781 -83.69460937 39.33851562 -83.73046875 38.67578125 C-84.13802675 25.0711072 -80.56701543 13.15833769 -72.25 2.3125 C-51.93784732 -18.48327537 -21.41656182 -19.37688926 0 0 Z M-60.6015625 13.98828125 C-65.86656404 21.12745001 -67.71993586 26.7326749 -67.625 35.625 C-66.76406738 35.48352539 -65.90313477 35.34205078 -65.01611328 35.19628906 C-55.29452548 33.73464724 -45.79631457 33.31358774 -35.97216797 33.36425781 C-33.49552112 33.37501946 -31.01959442 33.36427066 -28.54296875 33.3515625 C-19.36422869 33.34470297 -10.65862049 33.84862401 -1.625 35.625 C-0.864574 26.88010098 -4.43796305 19.19383364 -9.8671875 12.44140625 C-16.4675358 5.62104634 -25.03966124 1.65080253 -34.5 1.1875 C-44.73664191 1.55309435 -54.06387186 6.17147722 -60.6015625 13.98828125 Z M-139.625 96.625 C-143.72577342 101.67760432 -147.26307262 107.06038465 -150.625 112.625 C-151.02944336 113.29225098 -151.43388672 113.95950195 -151.85058594 114.64697266 C-182.56013553 166.38994854 -170.625 234.13050077 -170.625 289.625 C-80.865 289.625 8.895 289.625 101.375 289.625 C108.32558874 177.78995639 108.32558874 177.78995639 60.375 86.625 C59.90868164 86.15465332 59.44236328 85.68430664 58.96191406 85.19970703 C34.22354183 60.60565612 0.07647766 47.59059001 -34.625 47.25 C-75.95649583 47.65566268 -112.41785226 65.83560273 -139.625 96.625 Z M-205.6953125 321.26953125 C-218.24768672 340.04557218 -213.625 355.79614685 -213.625 380.625 C-95.155 380.625 23.315 380.625 145.375 380.625 C147.74536959 344.29697593 147.74536959 344.29697593 132.34375 316.46875 C123.27514269 307.66300087 113.2065474 304.86495275 100.81335449 304.99008179 C99.60692024 304.98228183 98.40048598 304.97448188 97.15749311 304.96644557 C93.84379897 304.95007284 90.53154278 304.95579909 87.21793914 304.97137666 C83.63092721 304.9827644 80.04403422 304.96519099 76.45704651 304.95147705 C69.44408807 304.92931864 62.43139817 304.93401261 55.41842949 304.94854026 C49.71561181 304.95986179 44.01286905 304.96135084 38.31004333 304.95592117 C37.08958182 304.95477193 37.08958182 304.95477193 35.84446451 304.95359946 C34.19123667 304.95200073 32.53800886 304.95037966 30.88478106 304.9487365 C15.40579063 304.93450068 -0.07305142 304.95083763 -15.55201751 304.97773834 C-28.81518881 305.00007517 -42.07814124 304.99619443 -55.34130859 304.97314453 C-70.76732911 304.94634814 -86.19321977 304.93587377 -101.61926031 304.95120585 C-103.26618797 304.95279849 -104.91311564 304.95437034 -106.56004333 304.95592117 C-107.37022747 304.95669255 -108.1804116 304.95746393 -109.01514676 304.95825868 C-114.70687146 304.96256418 -120.39851335 304.95531402 -126.09022522 304.94352341 C-133.03266507 304.9294571 -139.97482249 304.93338459 -146.91723025 304.95992713 C-150.45507374 304.97301025 -153.99244745 304.97831308 -157.53028679 304.96168137 C-161.37490463 304.94388166 -165.218764 304.96522538 -169.06335449 304.99008179 C-170.16804471 304.97892818 -171.27273492 304.96777457 -172.41090059 304.95628297 C-185.58216145 305.12076684 -197.51724849 310.82321175 -205.6953125 321.26953125 Z M-88.625 395.625 C-84.98963039 411.98416323 -77.15405408 423.51820951 -63.17578125 432.57421875 C-49.76283269 440.70406991 -35.24953 442.11273926 -20.21875 438.66015625 C-5.65908636 434.46634009 5.52514252 425.46387802 13.375 412.625 C16.44902478 406.87458549 18.29446416 402.10821504 19.375 395.625 C-16.265 395.625 -51.905 395.625 -88.625 395.625 Z " fill="#13132C" transform="translate(290.625,35.375)"/>
<path d="M0 0 C2.16520411 2.59824494 2.42571065 4.52366084 2.5625 7.875 C2.125 10.0625 2.125 10.0625 0.5625 11.875 C-8.14528008 15.9178979 -18.84164434 18.35988282 -28.4375 16.875 C-30.2265625 15.6015625 -30.2265625 15.6015625 -31.4375 13.875 C-32.20535714 6.96428571 -32.20535714 6.96428571 -29.92578125 3.73046875 C-26.57458545 1.23153939 -23.22412455 0.72171841 -19.1875 0.125 C-18.09888672 -0.06255859 -18.09888672 -0.06255859 -16.98828125 -0.25390625 C-4.82498901 -2.226918 -4.82498901 -2.226918 0 0 Z " fill="#13132D" transform="translate(450.4375,144.125)"/>
<path d="M0 0 C1.19592773 0.2484668 1.19592773 0.2484668 2.41601562 0.50195312 C3.18236328 0.67275391 3.94871094 0.84355469 4.73828125 1.01953125 C5.76949097 1.24733276 5.76949097 1.24733276 6.8215332 1.47973633 C9.0927522 2.34121269 10.1967163 3.27605665 11.6875 5.1875 C12.17008091 8.97920715 12.20629045 11.26782602 10.3125 14.625 C3.21324265 18.85074842 -6.34489394 15.62063916 -13.9921875 14.13671875 C-17.18115017 13.2250506 -19.01975448 12.55930571 -21.3125 10.1875 C-21.86973448 5.79927849 -22.08485685 3.47476141 -19.8125 -0.3125 C-14.01829905 -3.78902057 -6.23849305 -1.42136337 0 0 Z " fill="#13132D" transform="translate(82.3125,144.8125)"/>
<path d="M0 0 C3.5625 0.4375 3.5625 0.4375 6.0625 1.875 C8.42014949 5.9026512 7.63934715 9.11310853 6.5625 13.4375 C5.71921657 16.42203378 4.78938103 19.36914194 3.8125 22.3125 C3.57289551 23.06233154 3.33329102 23.81216309 3.08642578 24.5847168 C1.82615037 28.17037481 1.06155649 30.04270109 -1.98046875 32.44921875 C-5.041797 33.68056382 -6.36642596 33.61868232 -9.4375 32.4375 C-11.8125 30.8125 -11.8125 30.8125 -13.4375 28.4375 C-13.03210655 22.74751342 -11.37207642 17.57209326 -9.5625 12.1875 C-9.17771484 10.98480469 -9.17771484 10.98480469 -8.78515625 9.7578125 C-8.52863281 8.98695312 -8.27210938 8.21609375 -8.0078125 7.421875 C-7.77852051 6.72803711 -7.54922852 6.03419922 -7.31298828 5.31933594 C-5.55488665 1.54034894 -4.1588777 0.52931171 0 0 Z " fill="#13132D" transform="translate(370.4375,56.5625)"/>
<path d="M0 0 C4.2250911 3.26299282 5.19098979 8.50718029 6.8125 13.375 C7.14958984 14.32117188 7.48667969 15.26734375 7.83398438 16.2421875 C8.29708008 17.61890625 8.29708008 17.61890625 8.76953125 19.0234375 C9.05417236 19.85794434 9.33881348 20.69245117 9.63208008 21.55224609 C10.09635206 24.64102571 9.41016182 26.24955842 8 29 C6.3125 30.875 6.3125 30.875 4 32 C0.4375 32 0.4375 32 -3 31 C-5.76763958 27.239924 -7.22752178 23.0181671 -8.6875 18.625 C-8.91244141 17.99078125 -9.13738281 17.3565625 -9.36914062 16.703125 C-10.83159047 12.34689143 -11.34929062 8.58021405 -11 4 C-8.10582692 -0.51491 -5.12365602 -0.65210168 0 0 Z " fill="#13132C" transform="translate(145,57)"/>
<path d="M0 0 C1.9375 1.0625 1.9375 1.0625 3 3 C3.61784052 6.31387187 3.87064527 7.86005995 3 11 C0.72403245 14.14636341 -2.02345136 16.52717498 -5 19 C-5.68191406 19.60585937 -6.36382812 20.21171875 -7.06640625 20.8359375 C-10.33854411 23.56378628 -12.43799116 24.89521869 -16.6875 25.6875 C-20.95562162 24.80166344 -22.51898069 23.56646526 -25 20 C-25.15789777 16.21045343 -24.49143589 14.58655252 -22.0625 11.6875 C-21.05150509 10.78057809 -20.0284128 9.88712185 -19 9 C-18.18015625 8.24847656 -17.3603125 7.49695313 -16.515625 6.72265625 C-7.45143207 -1.56872254 -7.45143207 -1.56872254 0 0 Z " fill="#13132D" transform="translate(418,95)"/>
<path d="M0 0 C6.99190343 2.07572133 13.49606237 8.62916111 17.63671875 14.484375 C19.169823 17.69582496 18.84128033 19.46981323 17.75 22.81640625 C16.125 24.75390625 16.125 24.75390625 13.75 25.81640625 C7.40032422 25.62210773 4.10738119 23.35387384 -0.5625 19.44140625 C-1.18189453 18.94640625 -1.80128906 18.45140625 -2.43945312 17.94140625 C-5.25314899 15.65623306 -7.21095618 13.87497199 -9.25 10.81640625 C-9.80987672 4.54578694 -9.80987672 4.54578694 -7.97265625 2.15234375 C-5.4855423 0.2235615 -3.09335562 -0.07631634 0 0 Z " fill="#13132C" transform="translate(99.25,94.18359375)"/>
</svg>
