<svg xmlns="http://www.w3.org/2000/svg" width="512" height="512"><path d="M79.357 128.492q2.391-.006 4.783-.019c4.338-.016 8.676-.008 13.015.004 4.695.01 9.39-.005 14.086-.016a8616 8616 0 0 1 27.543-.002q11.2.013 22.397.006l3.227-.002 6.492-.004c20.262-.011 40.523.002 60.785.023q26.046.025 52.09-.003a36294 36294 0 0 1 67.044-.014l3.213.002q11.178.003 22.355-.012 13.632-.018 27.265.013c4.632.01 9.263.015 13.895.001q6.373-.017 12.746.016 2.292.008 4.584-.007c22.32-.132 40.37 7.307 56.521 22.827 15.341 15.969 20.92 35.67 20.877 57.39l.015 4.015c.013 3.604.014 7.207.012 10.81q0 4.536.008 9.072.016 10.714.006 21.429c-.006 7.333.006 14.665.027 21.998q.026 9.492.02 18.985c-.001 3.765.001 7.53.015 11.295q.018 5.317-.002 10.635c-.004 1.896.008 3.793.02 5.689-.127 21.055-7.49 39.59-21.888 54.963C469.992 397.335 450.53 399 422 399v-80l14-2c3.9-1.85 5.446-3.231 7.938-6.688 1.413-4.407 1.247-7.86.062-12.312-2.288-4.21-4.958-5.79-9.428-7.381-5.526-1.33-11.23-1.03-16.881-1q-2.187-.005-4.372-.014a2192 2192 0 0 0-11.974.003c-4.31.007-8.619-.004-12.929-.012a9693 9693 0 0 0-25.311-.002q-10.286.01-20.573.005l-2.958-.002q-2.976 0-5.95-.003c-18.595-.008-37.19.002-55.785.018q-23.929.018-47.857-.003a40760 40760 0 0 0-64.46-.009q-10.274.003-20.547-.009-12.52-.013-25.041.01-6.387.013-12.775.001-5.85-.013-11.698.012-2.114.005-4.227-.006c-12.212-.157-12.212-.157-22.671 5.517C66.425 299.058 65.81 302.537 66 307c1.191 3.714 2.533 5.545 5.313 8.25 5.143 2.664 5.143 2.664 17.687 3.75v80c-29.116 0-47.634-2.352-68.398-22.305-15.341-15.969-20.92-35.67-20.877-57.39l-.015-4.015a2462 2462 0 0 1-.012-10.81q0-4.536-.008-9.072-.016-10.715-.006-21.429c.006-7.333-.006-14.665-.027-21.998q-.027-9.492-.02-18.985c.001-3.765-.001-7.53-.015-11.295q-.018-5.317.002-10.635c.004-1.896-.008-3.793-.02-5.689.127-21.055 7.49-39.59 21.888-54.963 16.496-15.88 35.428-22.066 57.865-21.922m-11.294 70.133C65.505 202.811 64.702 206.117 65 211c1.609 4.737 3.828 7.283 8 10 5.602 2.464 11.016 2.306 17.023 2.3l3.213.014q3.356.008 6.712.002c3.408-.003 6.816.02 10.224.045q3.27.004 6.539.002l3.066.028c7.489-.048 13.376-.847 19.16-6.016 2.558-4.186 3.361-7.492 3.063-12.375-1.609-4.737-3.828-7.283-8-10-5.602-2.464-11.016-2.306-17.023-2.3l-3.213-.014a1491 1491 0 0 0-6.712-.002c-3.408.003-6.816-.02-10.224-.045q-3.27-.004-6.539-.002l-3.066-.028c-7.489.048-13.376.847-19.16 6.016"/><path d="M118 319h275l.25 83.875.11 26.46c.018 10.683.018 10.683.022 15.687q.006 5.232.04 10.462.04 6.682.03 13.366.002 2.445.025 4.892c.108 11.893-1.076 21.505-9.543 30.5-5.347 4.861-10.674 7.876-17.98 7.89l-2.427.011-2.648-.003-2.827.01q-4.7.01-9.4.011l-6.732.015q-9.152.019-18.304.024l-11.434.012q-15.834.019-31.67.026h-4.098l-4.116.002h-2.062q-16.535.009-33.069.046-16.985.035-33.968.037-9.533 0-19.066.025-8.967.023-17.935.01-3.29-.002-6.58.013c-2.996.013-5.992.007-8.99-.004l-2.62.025c-9.597-.078-15.837-3.41-22.801-9.978-5.785-6.328-7.333-12.947-7.327-21.31l-.003-2.097c-.002-2.325.004-4.65.01-6.975v-5.077q0-6.803.012-13.606.007-6.381.006-12.764c.006-12.445.02-24.89.032-37.335zm86.063 39.625c-2.558 4.186-3.361 7.492-3.063 12.375 1.609 4.737 3.828 7.283 8 10 4.696 1.922 8.978 2.292 13.99 2.275l2.358.015c2.558.014 5.117.013 7.675.01l5.365.014q5.616.01 11.232.002c4.784-.006 9.567.01 14.35.034 3.693.015 7.385.016 11.078.013q2.644 0 5.289.015c2.472.013 4.943.006 7.414-.006l2.18.023c6.612-.067 12.028-1.571 17.007-6.02 2.557-4.186 3.36-7.492 3.062-12.375-1.609-4.737-3.828-7.283-8-10-4.696-1.922-8.978-2.292-13.99-2.275l-2.358-.015c-2.558-.014-5.117-.013-7.675-.01l-5.365-.014q-5.616-.01-11.232-.002c-4.784.006-9.567-.01-14.35-.034-3.693-.015-7.385-.016-11.078-.013q-2.645 0-5.289-.015a765 765 0 0 0-7.414.006l-2.18-.023c-6.612.067-12.028 1.571-17.006 6.02m0 64c-2.558 4.186-3.361 7.492-3.063 12.375 1.609 4.737 3.828 7.283 8 10 4.696 1.922 8.978 2.292 13.99 2.275l2.358.015c2.558.014 5.117.013 7.675.01l5.365.014q5.616.01 11.232.002c4.784-.006 9.567.01 14.35.034 3.693.015 7.385.016 11.078.013q2.644 0 5.289.015c2.472.013 4.943.006 7.414-.006l2.18.023c6.612-.067 12.028-1.571 17.007-6.02 2.557-4.186 3.36-7.492 3.062-12.375-1.609-4.737-3.828-7.283-8-10-4.696-1.922-8.978-2.292-13.99-2.275l-2.358-.015c-2.558-.014-5.117-.013-7.675-.01l-5.365-.014q-5.616-.01-11.232-.002c-4.784.006-9.567-.01-14.35-.034-3.693-.015-7.385-.016-11.078-.013q-2.645 0-5.289-.015a765 765 0 0 0-7.414.006l-2.18-.023c-6.612.067-12.028 1.571-17.006 6.02M171.65-.518q3.055-.008 6.111-.02c5.49-.019 10.98-.012 16.47 0 5.77.01 11.54.001 17.31-.005q14.53-.01 29.061.022c11.167.021 22.334.014 33.501-.008q14.434-.026 28.868-.01c5.732.006 11.464.007 17.196-.006a2520 2520 0 0 1 16.173.02q2.951.008 5.902-.006c23.863-.098 42.573 5.94 60.156 22.836C423.285 44.047 423 69.175 423 99H88c0-31.261.337-54.997 21.492-77.586C127.613 3.971 147.457-.626 171.65-.518"/></svg>