<svg xmlns="http://www.w3.org/2000/svg" width="1250" height="938"><path fill="#FFA600" d="M1043 368h121v461h59c9.714 4.857 9.714 4.857 12 10 .782 5.002.583 8.789-1.625 13.375-3.492 3.86-5.906 6.3-11.14 6.988-3.607.143-7.194.15-10.803.117q-2.113.003-4.225.01c-3.882.009-7.763-.008-11.645-.028-4.22-.018-8.438-.012-12.657-.009q-11.098.002-22.196-.033c-11.003-.034-22.006-.044-33.009-.049q-26.067-.013-52.133-.062c-27.603-.051-55.205-.067-82.807-.072l-31.863-.009h-3.576q-42.153-.015-84.306-.048l-3.726-.003q-43.01-.031-86.02-.094l-3.733-.006-18.636-.028-3.72-.005-7.434-.012q-61.464-.094-122.929-.08l-17.376.003h-3.455c-18.318.001-36.636-.034-54.954-.085q-27.644-.075-55.288-.04a5259 5259 0 0 1-32.811-.06q-10.983-.05-21.966-.002c-4.162.016-8.322.018-12.484-.026-18.98-.188-34.42 1.65-51.825 10.067C362.789 875.024 346.909 877.59 332 880l-2.089.36c-24.891 4.154-52.144 2.71-76.911-1.36l-3.945-.621c-3.72-.67-7.385-1.48-11.055-2.379l-2.83-.687c-20.882-5.15-40.197-12.209-59.17-22.313l-2.21-1.164c-10.52-5.564-20.324-11.63-29.79-18.836l-1.716-1.284C126.166 819.641 111.558 805.733 99 790q-1.297-1.577-2.598-3.152C53.563 734.383 36.77 663.039 43.246 596.355 49.338 541.07 73.301 489.866 112 450l1.655-1.733c8.217-8.592 16.773-16.223 26.345-23.267l1.932-1.444C174.589 399.24 212.726 383.131 253 377l3.515-.553c11.43-1.629 22.765-1.845 34.298-1.822h2.995c16.05.035 31.455.986 47.192 4.375l2.706.567c5.833 1.256 11.57 2.753 17.294 4.433l2.503.729C411.282 398.946 455.29 428.653 486 468l2.246 2.695C520.421 510.32 536.405 560.71 540 611l.175 2.452c1.278 18.752.945 36.865-1.175 55.548h38v160h27V609l59.938-.062 18.956-.028c7.613-.005 7.613-.005 11.172-.005q3.744-.003 7.49-.01 5.657-.01 11.315-.009l3.396-.01c1.009 0 2.018.002 3.057.004l2.679-.003C724 609 724 609 725 610c.098 2.82.13 5.614.12 8.434l.003 2.713c.002 3.023-.004 6.047-.01 9.07l.001 6.473q-.001 8.817-.013 17.634c-.006 6.135-.006 12.27-.008 18.406q-.005 17.44-.021 34.88-.015 19.85-.022 39.7-.016 40.845-.05 81.69h25V443h121v386h25V405h121v424h26zM452.438 826.5 450 829h6v-5c-1.477-.116-1.477-.116-3.562 2.5"/><path fill="#AAD540" d="M1043 368h121v461h59c9.714 4.857 9.714 4.857 12 10 .782 5.002.583 8.789-1.625 13.375-3.498 3.866-5.908 6.3-11.15 6.99-3.621.146-7.223.156-10.848.127q-2.121.005-4.242.014c-3.898.012-7.795 0-11.693-.017-4.236-.014-8.472-.004-12.708.002q-11.142.012-22.284-.014c-11.045-.024-22.09-.026-33.135-.022q-27.868.006-55.736-.032-27.6-.037-55.198-.043l-3.465-.001-17.419-.004q-61.713-.014-123.428-.073-59.96-.056-119.92-.082l-3.733-.002-37.11-.015q-37.8-.015-75.601-.034l-3.511-.001c-77.398-.037-154.796-.1-232.194-.168 2.474-1.882 4.841-3.544 7.617-4.945l2.068-1.06 2.19-1.12c5.602-2.917 11.07-5.943 16.375-9.375l1.71-1.104a160 160 0 0 0 8.481-5.962c9.39-6.996 9.39-6.996 14.872-6.996L457 829v3h120v-3h27V609l59.938-.062 18.956-.028c7.613-.005 7.613-.005 11.172-.005q3.744-.003 7.49-.01 5.657-.01 11.315-.009l3.396-.01c1.009 0 2.018.002 3.057.004l2.679-.003C724 609 724 609 725 610c.098 2.82.13 5.614.12 8.434l.003 2.713c.002 3.023-.004 6.047-.01 9.07l.001 6.473q-.001 8.817-.013 17.634c-.006 6.135-.006 12.27-.008 18.406q-.005 17.44-.021 34.88-.015 19.85-.022 39.7-.016 40.845-.05 81.69h25V443h121v386h25V405h121v424h26z"/><path fill="#FFD800" d="M290.813 374.625h2.995c16.05.035 31.455.986 47.192 4.375l2.706.567c5.833 1.256 11.57 2.753 17.294 4.433l2.503.729C411.282 398.946 455.29 428.653 486 468l2.246 2.695C520.421 510.32 536.405 560.71 540 611l.175 2.452c1.278 18.752.945 36.865-1.175 55.548h38v163H457l-2-7-2.465 1.8C438.258 837.16 423.558 846.676 408 855l-1.915 1.034C380.638 869.664 352.642 877.743 324 881l-2.177.281c-8.269.977-16.571.96-24.885.969l-2.4.004c-14.02-.005-27.688-.979-41.538-3.254l-3.945-.621c-3.72-.67-7.385-1.48-11.055-2.379l-2.83-.687c-20.882-5.15-40.197-12.209-59.17-22.313l-2.21-1.164c-10.52-5.564-20.324-11.63-29.79-18.836l-1.716-1.284C126.166 819.641 111.558 805.733 99 790q-1.297-1.577-2.598-3.152C53.563 734.383 36.77 663.039 43.246 596.355 49.338 541.07 73.301 489.866 112 450l1.655-1.733c8.217-8.592 16.773-16.223 26.345-23.267l1.932-1.444C174.589 399.24 212.726 383.131 253 377l3.515-.553c11.43-1.629 22.765-1.845 34.298-1.822M173 469l-1.593 1.247c-40.009 31.717-66.727 76.75-73.032 127.616-5.664 49.876 6.043 102.414 37.563 142.387q2.018 2.385 4.062 4.75 1.32 1.606 2.633 3.219c21.37 25.945 48.986 44.92 80.367 56.781l1.95.74c30.357 11.31 64.071 14.455 96.05 9.26l2.337-.375C369.132 807.016 413.54 782.045 442 745l2.457-3.05c30.757-38.43 44.964-89.516 40.213-138.337-.867-6.95-2.18-13.774-3.67-20.613l-.535-2.609c-9.762-47.082-40.259-91.369-80.3-117.973-3.99-2.585-8.06-5.022-12.165-7.418l-1.962-1.164C373.38 446.412 359.886 441.624 346 437l-2.129-.731C287.854 417.169 218.656 433.129 173 469"/><path fill="#FE3030" d="m1140 56 1.98 1.773C1156.63 71.55 1165.2 92.031 1166 112l.121 2.117c.7 22.504-8.306 43.439-23.21 59.91-13.357 14.04-33.289 23.465-52.712 24.211-14.366.285-26.61-1.583-40.199-6.238l-.83 2.23c-1.102 2.61-2.33 4.75-3.904 7.098l-1.659 2.488-1.787 2.649-1.846 2.76q-2.92 4.36-5.849 8.713l-3.918 5.85a8578 8578 0 0 1-7.214 10.755l-1.562 2.333a347 347 0 0 1-2.72 3.98c-2.096 2.827-2.096 2.827-2.719 6.183 1.403 2.73 3.204 4.95 5.133 7.336 13.771 17.754 18.424 38.528 16.875 60.625-2.095 15.865-8.446 29.307-18 42-.516.69-1.031 1.382-1.562 2.094C1005.054 375.823 983.694 384.54 963 387c-21.363 1.977-41.672-4.904-58.484-17.89-16.528-13.86-28.119-33.057-30.399-54.852-.264-5.082-.187-10.172-.117-15.258l-3.514-.398c-4.141-.52-8.197-1.317-12.267-2.23l-2.118-.467q-3.301-.73-6.601-1.467-2.257-.5-4.516-.999Q839.491 292.225 834 291l-1.594 2.657-2.129 3.511-1.043 1.744c-3.438 5.647-7.569 10.407-12.234 15.088l-2.008 2.078c-15.452 14.923-37.046 21.45-58.183 21.192-5.82-.412-11.476-1.476-17.192-2.614-3.66-.775-3.66-.775-7.617-.656l-1.003 1.87c-6.305 11.74-12.68 23.426-19.33 34.974-6.092 10.597-11.994 21.299-17.915 31.992-2.558 4.62-5.124 9.236-7.69 13.851l-2.402 4.325L682 424l2.82 3.309 1.587 1.86a162 162 0 0 0 4.468 4.894C705.789 451.488 710.5 473.669 709 496c-1.953 21.051-13.264 40.234-29 54-19.341 15.585-40.854 19.344-65 18-20.018-2.169-39.163-14.325-52.012-29.453-13.47-17.254-20.124-38.622-17.777-60.515 2.78-22.508 12.991-41.629 30.516-56.313 15.291-11.56 31.815-17.116 50.836-17.094l3.452-.004c9.178.114 17.29 1.437 25.985 4.379l.839-2.192c1.11-2.686 2.359-5.183 3.743-7.738l1.554-2.872 1.677-3.073 1.752-3.223c4.941-9.059 10.001-18.048 15.1-27.02a3093 3093 0 0 0 10.648-18.945C696.162 335.266 701.04 326.61 706 318l-2.2-2.168c-17.437-17.633-26.112-38.185-26.112-63.096.318-22.114 9.425-41.24 24.437-57.361 15.978-15.345 37.954-23.081 59.915-22.78 16.813.593 32.277 5.566 45.96 15.405l2.777 1.992c17.204 13.174 27.006 32.557 30.68 53.63 1.699 13.067 1.699 13.067-.457 17.378 1.128.23 2.256.461 3.418.7 12.253 2.53 24.425 5.343 36.582 8.3l1.398-2.422c12.941-21.79 29.083-35.585 53.567-42.851 18.178-4.352 36.616-1.74 54.035 4.273l1.167-1.85c10.932-17.294 22.265-34.277 33.833-51.15-1.54-3.219-3.283-5.611-5.625-8.312-14.912-18.465-19.301-40.58-17.173-63.903 1.96-15.182 8.665-27.812 17.798-39.785.565-.75 1.13-1.5 1.71-2.273 12.773-15.762 33.439-24.807 53.165-27.54C1099.24 32.575 1121.937 39.304 1140 56"/><path fill="#FEE076" d="M896 405h121c.04 54.786.04 54.786.031 73.541l-.001 3.982c-.018 36.863-.132 73.724-.249 110.586l-.008 2.628q-.106 33.337-.218 66.673-.066 19.329-.128 38.658l-.009 2.793-.045 13.883Q1016.19 774.372 1016 831H896z"/><path fill="#35A4FE" d="M750 443h121a631465 631465 0 0 1 .055 164.752v3.496q.008 28.05.022 56.097.014 28.763.017 57.526.002 17.76.014 35.52.007 12.165.006 24.33-.002 7.028.005 14.054.007 6.426.002 12.852-.001 2.333.004 4.664.005 3.156-.002 6.312l.001 3.55C871 829 871 829 870 832H750z"/><path fill="#FFF500" d="M290.813 374.625h2.995c16.05.035 31.455.986 47.192 4.375l2.706.567c16.792 3.616 33.94 8.63 49.294 16.433v2l2.57.781c3.62 1.286 6.936 2.898 10.305 4.719l1.928 1.033c7.61 4.143 14.906 8.792 22.197 13.467l-1 4q3.154 2.721 6.313 5.438l1.935 1.666a379 379 0 0 0 11.315 9.334C457.858 445.989 466.395 454.75 474 464l1.291 1.552C494.069 488.2 510.497 514.295 518 543l.547 2.028c2.356 8.819 3.971 16.77 3.453 25.972h-14l-1.18-5.719C499.57 531.497 485.71 502.267 463 476l-1.926-2.262C450.144 461.238 438.284 449 425 439l-2.102-1.723c-1.931-1.556-1.931-1.556-4.898-1.277a78 78 0 0 0-4.562 5.813c-3.46 4.635-6.973 9.18-10.75 13.562l-2.364 2.773C398 460 398 460 395.652 460.043c-3.472-1.365-6.59-3.189-9.777-5.106-18.159-10.531-38.777-18.46-59.584-21.589a245 245 0 0 1-5.22-.858c-10.07-1.641-19.95-1.85-30.134-1.803l-2.613.008C246.502 430.882 206.116 443.961 173 470l-1.61 1.263C133.626 501.295 106.457 544.751 100 593a497 497 0 0 0-1.354 13.995l-.216 2.583c-.06.757-.12 1.514-.18 2.294-.248 2.112-.688 4.08-1.25 6.128-10.08 2.817-20.184 5.21-30.438 7.292q-3.43.7-6.857 1.415l-4.404.902-2.049.426c-3.191.643-5.973.965-9.252.965-1.361-68.524 20.595-129.707 68.258-179.477 8.717-8.963 17.63-17.178 27.742-24.523l1.914-1.426C174.574 399.246 212.716 383.132 253 377l3.515-.553c11.43-1.629 22.765-1.845 34.298-1.822"/><path fill="#A59AA7" d="m604 609 59.938-.062 18.956-.028c7.613-.005 7.613-.005 11.172-.005q3.744-.003 7.49-.01 5.657-.01 11.315-.009l3.396-.01c1.009 0 2.018.002 3.057.004l2.679-.003C724 609 724 609 725 610c.1 2.813.134 5.6.127 8.414l.005 2.706c.004 3.017 0 6.033-.003 9.05l.006 6.458q.005 8.798 0 17.597c-.003 6.126 0 12.252 0 18.378q.004 15.437-.005 30.875-.007 17.866.002 35.733.007 15.315.003 30.63-.003 9.157.001 18.314.004 8.612-.005 17.222 0 3.166.002 6.334.002 4.31-.006 8.62l.007 2.555c-.011 3.295-.084 5.965-1.134 9.114H604z"/><path fill="#292928" d="M1163 387h1v442h59c9.714 4.857 9.714 4.857 12 10 .782 5.002.583 8.789-1.625 13.375-3.498 3.866-5.908 6.3-11.15 6.99-3.621.146-7.223.156-10.848.127q-2.121.005-4.242.014c-3.898.012-7.795 0-11.693-.017-4.236-.014-8.472-.004-12.708.002q-11.142.012-22.284-.014c-11.045-.024-22.09-.026-33.135-.022q-27.868.006-55.736-.032-27.6-.037-55.198-.043l-3.465-.001-17.419-.004q-61.713-.014-123.428-.073-59.96-.056-119.92-.082l-3.733-.002-37.11-.015q-37.8-.015-75.601-.034l-3.511-.001c-77.398-.037-154.796-.1-232.194-.168 2.474-1.882 4.841-3.544 7.617-4.945l2.068-1.06 2.19-1.12c5.602-2.917 11.07-5.943 16.375-9.375l1.71-1.104a160 160 0 0 0 8.481-5.962c9.39-6.996 9.39-6.996 14.872-6.996L457 829v3h120v-3h27v3h120v-3h26v3h120v-3h26v2h120V513h1v316h27v2h119z"/><path fill="#FE3030" d="m990 230 2.86 1.531c6.955 3.884 13.05 8.355 19.14 13.469l3.125 2.313c13.814 12.912 22.312 33.245 23.113 52.05.491 21.953-4.965 40.003-18.238 57.637-.516.69-1.031 1.382-1.562 2.094C1005.054 375.823 983.694 384.54 963 387c-21.363 1.977-41.672-4.904-58.484-17.89-16.45-13.794-28.316-33.148-30.387-54.915-1.446-24.621 5.63-47.58 22.047-66.238C918.565 223.753 960.259 213.777 990 230M676.875 421.438c17.323 13.023 28.049 30.738 31.8 52.19 3.143 22.934-2.716 44.811-16.292 63.403C679.046 553.647 661.033 564.298 640 568c-25.41 1.724-47.231-2.987-67.098-19.434-17.752-15.698-26.244-35.714-28.183-58.933-.68-22.732 7.52-43.82 23.043-60.36 29.86-30.328 75.191-32.485 109.113-7.836"/><path fill="#FFFE8E" d="m214.84 518.877 3.886.003 2.156-.003q3.602-.001 7.204.01l5.143-.001q7.005.001 14.008.013 7.311.007 14.622.008 13.855.005 27.71.021 15.769.015 31.537.022 32.447.016 64.894.05a57 57 0 0 1-4.75 8.04l-1.594 2.257-1.656 2.328-1.656 2.352c-4.08 5.758-4.08 5.758-6.344 8.023-1.949.24-1.949.24-4.358.227h-2.73l-2.951-.032-3.018-.008c-3.19-.011-6.379-.037-9.568-.062q-3.238-.016-6.477-.027A4213 4213 0 0 1 325 542l1.912 3.354 1.075 1.887a218 218 0 0 0 2.427 4.095l1.211 2.039 1.227 2.023C334 558 334 558 336 567h49l1 2a8012 8012 0 0 1-6.875 9.375l-1.973 2.695-1.894 2.578-1.746 2.38C372 588 372 588 370 590a85 85 0 0 1-7.195.414l-2.144.059a1115 1115 0 0 1-6.786.152q-2.299.057-4.598.117-5.638.143-11.277.258l-1.066 3.332c-2.975 9.017-6.17 17.005-11.934 24.668l-1.578 2.129C314.644 632.017 302.47 638.315 290 644l-3.473 1.598c-3.85 1.53-7.618 2.558-11.652 3.465l-2.233.512c-8.101 1.818-16.307 3.608-24.642 3.425 5.786 7.637 12.177 14.565 18.742 21.527 2.911 3.09 5.727 6.245 8.496 9.461 2.803 3.2 5.695 6.32 8.575 9.45q4.373 4.754 8.687 9.562c3.31 3.688 6.647 7.35 10 11 4.87 5.301 9.692 10.643 14.5 16l2.313 2.563q3.35 3.712 6.687 7.437l1.91 2.125 1.778 2 1.511 1.695c1.705 2.064 3.311 4.172 4.914 6.316.54.723 1.08 1.446 1.638 2.19L339 756a580 580 0 0 1-18.884.824q-3.206.112-6.407.308c-18.675 1.115-18.675 1.115-25.198-4.393-3.099-3.097-5.77-6.435-8.29-10.014-1.476-2.085-3.123-3.968-4.846-5.85l-1.54-1.79c-2.56-2.909-5.2-5.743-7.835-8.585-3.83-4.131-7.613-8.291-11.3-12.55-3.514-4.031-7.117-7.981-10.7-11.95l-4.5-5-2.25-2.5-8.992-9.992a5113 5113 0 0 0-4.578-5.078c-4.605-5.105-9.183-10.23-13.68-15.43l-1.528-1.393c-3.59-3.535-4.874-6.019-5.058-11.103q.06-2.972.211-5.941l.082-3.084c.07-2.496.169-4.986.293-7.479l3.418-.044c4.265-.059 8.529-.136 12.793-.218q2.745-.05 5.492-.084c22.994-.297 44.492-3.163 62.129-19.334C294.554 608.207 297 600.656 297 591l-101-1c7.882-12.386 7.882-12.386 11.875-17.125l2.305-2.758c.913-1.062 1.83-2.126 2.82-3.117a178 178 0 0 1 7.55-.114h2.394c2.624 0 5.248.009 7.872.016l5.444.005q7.18.006 14.357.024 7.32.014 14.639.02 14.372.016 28.744.049a675 675 0 0 0-2.746-5.742l-1.545-3.23c-2.952-5.23-7.03-8.59-12.271-11.403-7.809-2.002-15.99-2.141-24-2.625l-2.13-.131C233.221 542.77 215.114 542.367 197 542c.622-3.385 1.88-5.53 3.906-8.293l1.754-2.408 1.84-2.486 1.84-2.522c5.325-7.277 5.325-7.277 8.5-7.414"/><path fill="#F47C7B" d="M538 669h39v163H457c-1-9-1-9 .922-11.555L461 818q1.965-1.891 3.89-3.82l2.137-2.105c7.133-7.06 13.866-14.1 19.973-22.075l2.406-2.996C506.02 766.202 518.458 742.153 527 717l.834-2.405c5.096-14.898 7.58-30.08 10.166-45.595"/><path fill="#FE9900" d="M539 617h1c3.367 33.49-.924 68.233-12 100l-.886 2.563C506.182 779.213 463.336 825.39 408 855l-1.915 1.034C380.638 869.664 352.642 877.743 324 881l-2.177.281c-8.269.977-16.571.96-24.885.969l-2.4.004c-14.02-.005-27.688-.979-41.538-3.254l-3.945-.621c-3.72-.67-7.385-1.48-11.055-2.379l-2.83-.687c-20.882-5.15-40.197-12.209-59.17-22.313l-2.21-1.164c-10.52-5.564-20.324-11.63-29.79-18.836l-1.716-1.284C126.166 819.641 111.558 805.733 99 790q-1.297-1.577-2.598-3.152c-22.552-27.62-37.92-60.605-46.277-95.16l-.653-2.697c-.94-4.057-1.766-7.796-1.472-11.991 2.087 3.69 3.118 7.634 4.25 11.688C62.28 723.426 78.297 755.528 102 783l1.957 2.293c10.977 12.53 22.758 24.549 36.234 34.386a333 333 0 0 1 3.711 2.752c50.719 38.14 117 54.574 179.776 46.335 10.6-1.616 21.01-3.84 31.322-6.766 1.043-.26 2.086-.52 3.16-.79 36.961-9.61 71.494-29.004 99.395-54.952 2.104-1.943 4.25-3.794 6.445-5.633 26.847-23.457 46.821-57.532 59-90.625l.885-2.362c4.961-13.404 8.057-26.888 10.598-40.937.463-2.418 1.008-4.794 1.591-7.185 2.23-9.861 2.141-20.205 2.489-30.266l.13-3.594q.157-4.327.307-8.656"/><path fill="#FFFEA4" d="M87 707c1.668 2.746 1.668 2.746 3.188 6.438A574 574 0 0 0 92 717.566l.973 2.2c23.213 50.476 68.24 89.771 119.89 109.117 9.848 3.486 19.939 5.907 30.137 8.117l5.563 1.25L252 839a1136 1136 0 0 1-.437 4.75l-.247 2.672c-.279 2.276-.738 4.365-1.316 6.578-44.116-3.453-86.433-26.575-118.25-56.437-2.477-2.308-5.002-4.536-7.562-6.75-4.12-3.664-7.694-7.554-11.188-11.813l-1.309-1.574C97.69 759.54 86.456 741.5 76.938 721.75l-1.196-2.456-1.09-2.31-.969-2.04C73 713 73 713 73 709c1.39-.536 2.787-1.053 4.188-1.562l2.355-.88c3.018-.686 4.58-.749 7.457.442"/><path fill="#282828" d="M706 318c3.957.65 6.782 2.608 10.125 4.75A153 153 0 0 0 733 332c-6.478 12.373-13.309 24.541-20.153 36.714a8370 8370 0 0 0-7.113 12.688l-3.458 6.172a2763 2763 0 0 0-8.183 14.678q-1.452 2.625-2.907 5.246a1979 1979 0 0 0-3.657 6.621l-1.666 2.998-1.46 2.644c-1.298 2.072-2.597 3.606-4.403 5.239l-2.676-2.012c-7.13-5.275-13.992-9.757-22.324-12.988 4.303-9.015 9.047-17.701 14.037-26.351 4.184-7.261 8.277-14.568 12.338-21.899a7706 7706 0 0 1 15.375-27.625l1.771-3.169 1.65-2.948 1.441-2.574A332 332 0 0 1 706 318"/><path fill="#FFFEFA" d="M420 417c8.264 3.76 14.575 9.596 21.307 15.534 2.36 2.043 4.806 3.97 7.255 5.904C457.859 445.989 466.397 454.75 474 464l1.291 1.552C494.069 488.2 510.497 514.295 518 543l.547 2.028c2.356 8.819 3.971 16.77 3.453 25.972h-14l-1.18-5.719C499.57 531.497 485.71 502.267 463 476l-1.926-2.262C450.141 461.234 438.284 449.007 425 439l-1.62-1.23A946 946 0 0 0 413 430c1.256-3.352 2.687-6.304 4.625-9.312l1.352-2.114z"/><path fill="#282828" d="M1026 175c3.375 1.538 6.165 3.523 9.125 5.75 5.111 3.77 10.382 7.074 15.875 10.25-3.36 6.27-7.023 12.234-11 18.129l-1.691 2.527a10890.845 10890.845 0 0 0-10.617 15.824 3073 3073 0 0 1-3.29 4.898A445 445 0 0 0 1015 247c-3.604-1.724-6.528-3.855-9.687-6.312-4.866-3.734-9.831-6.933-15.313-9.688 1.256-3.343 2.678-6.303 4.59-9.316l1.6-2.527 1.747-2.72 1.82-2.846c5.395-8.385 10.955-16.655 16.556-24.904l1.289-1.9c7.19-10.58 7.19-10.58 8.398-11.787"/><path fill="#FF8801" d="M202 647h2l-.203 1.73c-.11 5.786 1.418 9.037 5.21 13.217q3.226 3.345 6.54 6.603c1.807 1.803 3.482 3.697 5.14 5.638 4.039 4.663 8.18 9.233 12.313 13.812l4.5 5 2.25 2.5 8.992 9.992q2.288 2.541 4.578 5.078c3.38 3.746 6.749 7.495 10.055 11.305 3.408 3.913 6.916 7.733 10.428 11.553 12.798 13.922 12.798 13.922 14.463 16.635 1.743 2.55 3.173 4.187 5.734 5.937 5.96 1.006 11.949.586 17.958.258 12.096-.577 12.096-.577 17.282 2.938 2.534 2.485 4.754 4.878 6.76 7.804v2c-6.348.307-12.695.515-19.05.66q-3.234.089-6.467.245c-18.894.892-18.894.892-24.293-3.487-2.843-2.841-5.021-6.037-7.19-9.418a130 130 0 0 0-3.562-4.062l-1.63-1.88c-3.087-3.514-6.257-6.954-9.41-10.41a382 382 0 0 1-5.773-6.523c-3.648-4.2-7.437-8.266-11.22-12.345a423 423 0 0 1-9.565-10.69c-2.407-2.734-4.873-5.411-7.34-8.09a518 518 0 0 1-10.691-11.945c-2.23-2.534-4.522-5.01-6.809-7.492l-2.555-2.88c-2.325-2.642-2.325-2.642-4.64-4.648-4.686-4.639-5.195-8.731-5.324-15.106.081-12.491.081-12.491 1.519-13.929"/><path fill="#FF8700" d="m210.585 590.205 2.87-.003c3.118.005 6.233.06 9.35.114q3.249.02 6.498.03c5.692.027 11.383.096 17.075.173 5.811.072 11.623.104 17.434.14 11.397.074 22.792.194 34.188.341.25 7.5.25 7.5-2 12H193c3.794-9.485 7.262-13.088 17.585-12.795"/><path fill="#282828" d="M841 261c10.234 2.094 20.447 4.274 30.625 6.625l2.782.624 2.57.603 2.283.525C881 270 881 270 882 272a126 126 0 0 1-2.312 6.875c-2.338 6.634-3.815 13.129-4.688 20.125-7.76-.632-15.239-2.234-22.814-3.956-2.141-.486-4.285-.957-6.43-1.429q-2.048-.46-4.096-.924l-3.73-.837C835 291 835 291 833 289l.988-2.316c3.47-8.507 5.473-16.64 7.012-25.684"/><path fill="#F80" d="M205.207 541.849a121 121 0 0 1 6.035.14l3.278.035c3.455.05 6.903.168 10.355.289q3.421.062 6.844.11c45.29.77 45.29.77 53.062 8.304C294 560.844 294 560.844 294 567c-3.381.295-6.626.423-10 0-2.563-2.25-2.563-2.25-5-5-7.917-4.584-16.113-5.131-25.063-5.5l-2.818-.12c-19.03-.748-38.08-1.005-57.119-1.38l-1-2c5.564-10.54 5.564-10.54 12.207-11.151"/><path fill="#FF8902" d="M332 607c1 2 1 2 .32 4.582-7.165 19.365-19.94 32.226-38.32 41.418l-1.895.958c-7.71 3.822-15.394 6.631-23.793 8.542l-2.286.522c-3.931.812-7.22 1.419-11.026-.022-2.02-1.777-2.02-1.777-3.812-3.937l-1.833-2.153C248 655 248 655 248 653l1.997-.304c23.056-3.55 43.96-8.64 63.003-22.696l1.79-1.266c7.328-5.565 12.578-13.917 17.21-21.734"/><path fill="#FFFEF7" d="M339 389c20.67-.941 42.438 5.305 59 18l-1 4c-20.49 1.378-42.874-5.175-59-18z"/><path fill="#FF8A03" d="M379.697 531.723 382 532c-1.614 5.136-4.768 8.976-8 13.187l-1.656 2.194c-4.018 5.293-4.018 5.293-6.344 7.619-4.753.566-9.51.627-14.293.7q-2.382.05-4.762.164c-13.128.63-13.128.63-17.588-3.038-2.61-3.615-4.357-6.31-4.357-10.826l1.661.023c5.728.069 11.453.074 17.18.044q3.202-.005 6.405.04c3.077.039 6.15.02 9.227-.01l2.873.075c4.192-.09 6.667-.164 9.687-3.249 1.834-2.445 1.834-2.445 3.318-4.993C377 532 377 532 379.697 531.723"/><path fill="#FF8B05" d="M377 580c3.438-.562 3.438-.562 6 0-2.258 4.8-5.398 8.905-8.5 13.188l-1.8 2.521c-.572.79-1.143 1.582-1.731 2.396l-1.58 2.193C368 602 368 602 366 603c-2.408.086-4.787.116-7.195.098l-2.144-.005a2159 2159 0 0 1-6.786-.03q-2.299-.009-4.598-.014-5.638-.017-11.277-.049.426-2.409.875-4.812l.492-2.708C336 593 336 593 338 590c3.053-.29 3.053-.29 6.95-.195q2.13.01 4.259.015c2.235.02 4.467.055 6.7.121 8.838.521 8.838.521 16.55-2.983 1.877-2.41 1.877-2.41 3.248-4.965z"/></svg>