<?xml version="1.0" encoding="UTF-8"?>
<svg version="1.1" xmlns="http://www.w3.org/2000/svg" width="512" height="512">
<path d="M0 0 C31.41885385 18.68538036 71.26156556 24.74554829 106.90234375 16.1484375 C107.62744141 15.98214844 108.35253906 15.81585938 109.09960938 15.64453125 C124.80592977 11.97292389 139.03615078 5.78256112 152.68969727 -2.75878906 C166.22693964 -11.1194312 183.25703919 -13.52592389 198.85546875 -10.1328125 C230.2929864 -0.89524807 252.35731079 32.13133338 267.90234375 59.1484375 C268.26666504 59.7686377 268.63098633 60.38883789 269.00634766 61.02783203 C286.90244091 91.65526145 295.95521294 128.40875978 296.10546875 163.73828125 C296.11116882 164.80405899 296.1168689 165.86983673 296.1227417 166.96791077 C296.13212094 169.20572945 296.13869721 171.44356151 296.14257812 173.68139648 C296.15230851 177.0736521 296.18341027 180.46530718 296.21484375 183.85742188 C296.22137353 186.04687146 296.2266241 188.23632531 296.23046875 190.42578125 C296.24281555 191.42302719 296.25516235 192.42027313 296.2678833 193.44773865 C296.21515863 210.39473861 289.74901726 225.59592791 277.79296875 237.51953125 C267.81171961 246.5970727 255.47435191 252.25947673 241.88857269 252.28265858 C240.67441288 252.28711642 239.46025306 252.29157426 238.20930052 252.29616719 C236.86524168 252.29607791 235.52118284 252.29588807 234.17712402 252.29560852 C232.74664221 252.29890921 231.31616133 252.30263521 229.88568163 252.30675 C225.95432725 252.31675491 222.02298813 252.32048437 218.09162283 252.32313931 C213.85147041 252.32704687 209.61133003 252.33662493 205.3711853 252.34535217 C195.13062819 252.36510435 184.8900701 252.37518145 174.6494987 252.38407996 C169.82460513 252.38846511 164.99971265 252.39383135 160.17481995 252.39906883 C144.13139829 252.41608025 128.08797732 252.43057366 112.04454803 252.43781757 C107.88223774 252.43972741 103.71992746 252.44164775 99.55761719 252.44360352 C98.00587259 252.44432913 98.00587259 252.44432913 96.42277962 252.4450694 C79.67060905 252.45336687 62.91850995 252.4786994 46.16637057 252.51118419 C28.95944925 252.54427827 11.75256422 252.56226848 -5.4543891 252.56546181 C-15.11224138 252.56762479 -24.76998945 252.57634226 -34.42781067 252.60192299 C-42.65417236 252.62366212 -50.88040452 252.63166464 -59.10679168 252.62195621 C-63.30084009 252.61742074 -67.49462143 252.6192536 -71.68863297 252.63871765 C-75.53567792 252.65641652 -79.3822623 252.65529775 -83.2293126 252.63982036 C-85.26445128 252.63634213 -87.29959517 252.65242022 -89.33466578 252.66942483 C-106.24251609 252.55194962 -120.39306202 246.48455308 -132.58984375 234.84375 C-143.99390947 222.58704386 -148.23039313 207.82297828 -148.30078125 191.46875 C-148.30648132 190.4243576 -148.3121814 189.37996521 -148.3180542 188.30392456 C-148.32749033 186.08657842 -148.33403266 183.86921834 -148.33789062 181.65185547 C-148.34744344 178.34705923 -148.37841419 175.04292757 -148.41015625 171.73828125 C-148.50548558 152.79851541 -147.09258123 133.93857281 -142.41015625 115.5234375 C-142.15669434 114.50185547 -141.90323242 113.48027344 -141.64208984 112.42773438 C-130.83404196 70.44038099 -104.91997558 20.74057903 -67.16015625 -3.1640625 C-45.1053927 -15.70705599 -21.20073924 -12.67232081 0 0 Z M-69.10546875 26.171875 C-103.78383341 59.74768122 -126.14140336 110.34159962 -127.2746582 158.51538086 C-127.30113491 160.42293994 -127.32131658 162.33059446 -127.3359375 164.23828125 C-127.34400925 165.26345352 -127.35208099 166.28862579 -127.36039734 167.34486389 C-127.37413595 169.49869139 -127.38490308 171.65253973 -127.39282227 173.80639648 C-127.40436914 175.99103254 -127.42486329 178.1756398 -127.4543457 180.36010742 C-127.49725872 183.54885646 -127.51321869 186.73677847 -127.5234375 189.92578125 C-127.54094559 190.88757797 -127.55845367 191.84937469 -127.57649231 192.84031677 C-127.54142657 203.96194912 -123.77918965 213.10560498 -116.09765625 221.1484375 C-104.71167707 231.75325802 -91.5541395 232.3005489 -76.75749207 232.28215027 C-75.40549208 232.2840206 -74.05349263 232.28632219 -72.70149404 232.28901559 C-69.00108315 232.29511245 -65.30069493 232.2950025 -61.60028017 232.29382122 C-57.60357783 232.29361667 -53.60688268 232.29914103 -49.61018372 232.30387878 C-41.78562388 232.31217414 -33.96107158 232.31493311 -26.13650771 232.31549116 C-19.77475866 232.31596682 -13.41301208 232.31802407 -7.05126381 232.32119179 C10.99645929 232.32999508 29.04417644 232.33461164 47.0919017 232.33386131 C48.55038375 232.33380138 48.55038375 232.33380138 50.03833008 232.33374023 C51.0118423 232.33369935 51.98535451 232.33365847 52.9883671 232.33361635 C68.76522862 232.33320991 84.54206627 232.34277995 100.31892089 232.3568786 C116.52925686 232.37125002 132.73958119 232.37814837 148.94992369 232.37728482 C158.04648356 232.37695314 167.1430184 232.379688 176.23957253 232.39046288 C183.98426803 232.39957791 191.72892715 232.40173485 199.4736257 232.39495345 C203.42231408 232.39169341 207.37093271 232.39161292 211.31961441 232.4003067 C214.93995743 232.40819538 218.56017566 232.40671625 222.18051573 232.39802257 C224.09866907 232.3957725 226.01682635 232.40329757 227.93496448 232.41126221 C241.50142632 232.35745607 253.99159396 230.4476195 264.30859375 220.93359375 C274.72449876 209.26675897 275.37316055 196.3464116 275.23852539 181.4934082 C275.21516391 178.74855436 275.21794992 176.00469235 275.22460938 173.25976562 C275.20077121 157.61594704 274.19558162 142.0647981 270.71484375 126.7734375 C270.50126221 125.81993408 270.28768066 124.86643066 270.06762695 123.8840332 C260.84841115 84.28487052 238.17540487 38.68377899 203.640625 14.90234375 C194.21767047 9.65618616 183.85337615 8.51353587 173.26171875 10.69140625 C166.77569453 13.10665653 160.79087322 16.97340396 154.7734375 20.36376953 C115.80798195 42.18925507 68.43779572 45.78165482 25.69238281 34.18554688 C10.073223 29.71548278 -3.98336455 22.36955402 -18.10546875 14.46484375 C-38.08425751 3.64032315 -53.96641861 12.26364195 -69.10546875 26.171875 Z " fill="#000000" transform="translate(182.09765625,259.8515625)"/>
<path d="M0 0 C28.32520368 22.18423811 47.32950991 52.58106076 51.8125 88.6875 C53.75572816 126.17706175 46.3071554 159.37048781 21.8125 188.6875 C21.38598145 189.20054687 20.95946289 189.71359375 20.52001953 190.2421875 C0.10083699 214.46547067 -29.82636944 229.80781556 -61.1875 233.6875 C-98.67706175 235.63072816 -131.87048781 228.1821554 -161.1875 203.6875 C-161.95707031 203.04772217 -161.95707031 203.04772217 -162.7421875 202.39501953 C-186.98212582 181.96179741 -202.29151252 152.06616299 -206.1875 120.6875 C-208.27159405 80.48029514 -199.21250913 45.99408946 -171.875 15.5625 C-127.63531584 -32.10447253 -52.15128534 -37.74824711 0 0 Z M-147.1875 21.6875 C-147.96996094 22.30238281 -148.75242188 22.91726562 -149.55859375 23.55078125 C-168.91811291 39.66645941 -182.41938463 65.74385059 -185.1875 90.6875 C-187.07170888 120.03416203 -181.83367004 149.38935388 -162.23046875 172.3671875 C-161.55628906 173.13289062 -160.88210937 173.89859375 -160.1875 174.6875 C-159.19169922 175.89792969 -159.19169922 175.89792969 -158.17578125 177.1328125 C-139.88059902 198.70827694 -112.62388369 211.14686362 -84.6640625 213.52734375 C-64.92987038 214.80352968 -45.78020431 210.67483298 -28.1875 201.6875 C-27.22972656 201.213125 -26.27195312 200.73875 -25.28515625 200.25 C-18.57706214 196.78775788 -12.90375805 192.59622319 -7.1875 187.6875 C-5.96933594 186.68783203 -5.96933594 186.68783203 -4.7265625 185.66796875 C15.07750825 168.83138494 27.41554654 144.32995283 30.8125 118.6875 C33.01869761 86.70735354 25.93018743 59.94992231 5.8125 34.6875 C5.23628906 33.9553125 4.66007813 33.223125 4.06640625 32.46875 C-12.3268441 12.65532512 -38.08773643 0.40090555 -63.1875 -3.3125 C-95.27467876 -5.22748227 -121.80326105 1.40105869 -147.1875 21.6875 Z " fill="#000000" transform="translate(333.1875,24.3125)"/>
</svg>
