<svg xmlns="http://www.w3.org/2000/svg" width="512" height="512"><path d="M223 6c3.782 1.794 7.312 3.932 10.875 6.125q3.218 1.929 6.438 3.855l3.343 2.018c5.368 3.214 10.793 6.325 16.219 9.44l9.843 5.67Q277.86 37.803 286 42.5l6.5 3.75 91 52.5 3.255 1.877 6.453 3.728a2007 2007 0 0 0 15.154 8.688q2.685 1.522 5.367 3.05 3.36 1.914 6.734 3.81l3.08 1.757 2.688 1.52L429 125l1.774 1.018c3.235 2.197 4.97 3.863 5.86 7.749.23 3.576.231 7.091.16 10.674q-.002 2.055.004 4.11c.002 3.71-.04 7.417-.088 11.126-.044 3.88-.048 7.759-.056 11.639-.022 7.342-.08 14.683-.15 22.024-.078 8.36-.117 16.72-.152 25.081-.073 17.194-.196 34.386-.352 51.579l1.827.587c.8.26 1.598.52 2.421.79l2.39.773c3.647 1.312 6.947 3.109 10.3 5.038l2.098 1.197c5.777 3.37 10.946 7.187 15.964 11.615l2.512 2.148C491.712 308.036 503.955 327.58 510 351l.57 2.208c1.702 7.403 1.816 14.72 1.805 22.292l-.002 2.004c-.12 31.663-13.52 59.595-35.832 82.026C457.725 477.487 433.889 488.47 409 495l-2.244.593c-4.884 1.261-9.108 2.29-14.006.657-2.295-1.64-2.959-2.516-3.75-5.25-.161-5.08-.161-5.08 1-8 2.32-2.295 5.09-3.571 8-5 20.412-10.26 38.174-24.759 45.938-47 .378-1.327.736-2.66 1.062-4l.688-2.812c1.44-14.693-1.114-27.424-8.688-40.188l-2-2-1.293 1.049c-5.642 4.415-11.66 7.942-17.903 11.44-3.126 1.752-6.241 3.522-9.359 5.288l-1.912 1.082c-5.917 3.348-11.792 6.767-17.658 10.204-11.503 6.73-23.044 13.394-34.593 20.046Q344.14 435.802 336 440.5l-6.5 3.75-3.25 1.875-39.001 22.5-6.49 3.746q-8.196 4.73-16.4 9.45l-3.317 1.909a5482 5482 0 0 1-6.534 3.755c-5.289 3.043-10.544 6.128-15.75 9.312l-3.007 1.826a487 487 0 0 0-5.549 3.43c-9.55 5.803-9.55 5.803-15.202 4.947-3.748-1.462-7.077-3.465-10.5-5.562l-3.034-1.788a913 913 0 0 1-6.315-3.76c-3.983-2.389-7.997-4.72-12.014-7.052-2.996-1.74-5.987-3.49-8.977-5.24-9.6-5.615-19.241-11.156-28.878-16.707Q137.14 462.198 129 457.5l-6.5-3.75-65-37.5-3.254-1.877-6.46-3.728a16804 16804 0 0 0-20.368-11.739q-3.308-1.906-6.617-3.808c-2.938-1.693-5.87-3.395-8.801-5.098l-2.898-1.66-2.727-1.586-2.414-1.392C2 384 2 384 0 381c-.254-1.97-.254-1.97-.26-4.26l-.021-2.647.007-2.911-.016-3.09c-.015-3.435-.016-6.868-.016-10.302q-.012-3.683-.026-7.367c-.022-6.681-.03-13.363-.035-20.045q-.006-6.257-.017-12.513a24007 24007 0 0 1-.041-41.374v-2.254l-.001-2.257c-.004-12.07-.03-24.139-.068-36.208q-.057-18.582-.058-37.165c0-6.957-.009-13.914-.038-20.871-.027-6.542-.028-13.083-.012-19.625q.003-3.606-.02-7.211c-.021-3.277-.01-6.552.007-9.828l-.04-2.897c.058-4.567.14-6.522 3.05-10.208 2.378-1.796 4.669-3.378 7.28-4.807l2.72-1.509 2.918-1.588q3.13-1.737 6.257-3.477l3.24-1.798c4.998-2.801 9.937-5.699 14.878-8.6A2488 2488 0 0 1 66 91a2958 2958 0 0 0 29.067-16.783c10.524-6.155 21.087-12.24 31.65-18.326Q134.862 51.198 143 46.5l6.5-3.75 3.25-1.875 9.75-5.625 3.255-1.878 21.607-12.466 12.1-6.984q2.982-1.72 5.973-3.423a87 87 0 0 0 4.571-2.845C214.46 4.717 218.028 4.334 223 6m-14.187 22a2327 2327 0 0 1-4.579 2.8c-.834.515-1.669 1.028-2.529 1.558-4.995 3.032-10.074 5.921-15.143 8.83l-6.746 3.886-3.421 1.97Q168.196 51.77 160 56.5l-6.5 3.75-3.25 1.875-65.002 37.501-6.478 3.738q-8.291 4.785-16.586 9.562a9841 9841 0 0 0-16.246 9.379 2328 2328 0 0 1-8.348 4.789l-4.715 2.719-2.155 1.22c-1.607.933-3.17 1.942-4.72 2.967v2c1.02.56 2.042 1.119 3.094 1.695 8.071 4.444 16.093 8.964 24.048 13.614q3.107 1.815 6.224 3.612c4.38 2.533 8.702 5.066 12.853 7.962 5.822 4.152 5.822 4.152 12.691 4.61 3.287-1.55 6.104-3.423 9.09-5.493a303 303 0 0 1 5.57-3.253c2.16-1.245 4.301-2.517 6.442-3.794 5.778-3.433 11.601-6.787 17.426-10.14l10.167-5.857q8.199-4.726 16.395-9.456l9.75-5.625 65.004-37.502 6.456-3.726q7.56-4.365 15.126-8.716l5.344-3.074q3.345-1.925 6.695-3.847C263.989 63.778 269.533 60.474 275 57c-3.233-2.69-6.428-4.939-10.113-6.96l-3-1.66-3.2-1.755a938 938 0 0 1-29.981-17.269l-2.847-1.688-2.485-1.491c-6.082-3.015-9.095-1.672-14.561 1.823m76.683 41.973-3.393 1.953-3.666 2.136q-1.896 1.097-3.793 2.191a3567 3567 0 0 0-7.818 4.528 2890 2890 0 0 1-10.619 6.13 4923 4923 0 0 0-31.082 18.027c-9.27 5.421-18.583 10.764-27.913 16.081a2811 2811 0 0 0-27.279 15.764c-10.499 6.14-21.037 12.211-31.576 18.282a10396 10396 0 0 0-13.992 8.08l-6.652 3.845A975 975 0 0 1 100 177c2.875 3.116 5.687 5.145 9.402 7.172 1.05.579 2.1 1.157 3.18 1.754l3.356 1.824c8.077 4.425 15.97 8.896 23.511 14.188 2.51 1.307 2.51 1.307 5.211.636 4.875-2.298 9.464-5.002 14.09-7.762l6.492-3.828 3.382-1.998c5.397-3.175 10.824-6.3 16.251-9.423l6.555-3.778 3.288-1.894q8.142-4.693 16.282-9.391l6.5-3.75 3.25-1.875 61.75-35.625 30.229-17.441 6.734-3.887A3386 3386 0 0 1 335 93c-1.456-4.368-4.816-5.344-8.687-7.375-8.536-4.587-16.863-9.468-25.138-14.51-.892-.535-1.784-1.07-2.702-1.623l-2.399-1.457c-4.3-2.145-6.734-.29-10.578 1.938m61.535 34.78-3.129 1.817-3.402 1.993-3.527 2.05a6105 6105 0 0 0-7.336 4.27c-5.535 3.225-11.087 6.42-16.637 9.617l-6.5 3.75-91 52.5-3.254 1.877-6.459 3.726a20327 20327 0 0 0-20.418 11.79l-6.656 3.847A975 975 0 0 1 161 212c2.816 3.028 5.572 5.107 9.164 7.145l3.115 1.781 3.346 1.887 7.02 3.984 1.82 1.032c4.326 2.458 8.599 4.994 12.86 7.562q2.64 1.576 5.283 3.15a545 545 0 0 1 5.025 3.062l3.105 1.838 2.72 1.647c2.52 1.176 2.52 1.176 5.079.231L222 244l2.298-1.198 2.378-1.349 2.72-1.538c.962-.55 1.925-1.1 2.917-1.665l3.074-1.747c9.191-5.233 18.325-10.563 27.453-15.905 9.6-5.615 19.241-11.156 28.878-16.707q8.143-4.693 16.282-9.391l6.5-3.75 3.25-1.875 39.004-22.502 6.46-3.728a16804 16804 0 0 1 20.368-11.739q3.308-1.906 6.617-3.808 4.406-2.54 8.801-5.098l2.934-1.695 2.753-1.614c.809-.47 1.617-.942 2.45-1.427 2.004-1.138 2.004-1.138 2.863-3.264l-1.73-.971c-12.433-6.985-24.813-14.05-37.11-21.27a1103 1103 0 0 0-13.23-7.665l-2.157-1.229c-3.609-1.76-5.49-.008-8.742 1.889M16 150c-.397 28.772-.697 57.543-.88 86.317-.088 13.361-.208 26.72-.402 40.08-.17 11.646-.28 23.29-.318 34.937-.022 6.166-.074 12.33-.197 18.495a716 716 0 0 0-.126 17.419 224 224 0 0 1-.103 6.383c-.673 10.8-.673 10.8 3.683 20.186 4.063 3.196 8.5 5.334 13.261 7.291 3.01 1.29 5.716 2.926 8.516 4.622q3 1.73 6.004 3.457l6.746 3.887 3.421 1.97Q63.804 399.77 72 404.5l6.5 3.75 39 22.5 3.25 1.875 6.496 3.748a25831 25831 0 0 0 16.324 9.412 5862 5862 0 0 1 31.743 18.402c7.858 4.592 15.73 9.16 23.625 13.688l2.73 1.571 2.484 1.421 2.188 1.254c1.494.957 1.494.957 2.66.879a22135 22135 0 0 0 .494-94.519l.008-2.007c.036-10.058.1-20.115.177-30.173q.136-17.505.168-35.011c.012-6.181.04-12.361.105-18.542q.089-8.725.066-17.448.003-3.204.055-6.407c.692-10.81.692-10.81-3.038-20.454-2.33-1.588-4.374-2.546-7.035-3.439l-3.047-1.808-2.703-1.489-3.07-1.702-3.18-1.751c-8.3-4.604-16.555-9.263-24.697-14.142-3.698-2.206-7.444-4.202-11.303-6.108l-.004 3.117q-.026 14.545-.128 29.09c-.034 4.985-.06 9.97-.064 14.954q-.008 7.217-.077 14.434-.02 2.752-.013 5.505c.005 2.572-.021 5.142-.055 7.713l.027 2.298c-.086 3.93-.571 5.74-3 8.888C146 316 146 316 142.367 316.195c-5.67-1.141-10.379-4.327-15.242-7.32l-6.375-3.82-3.336-2.013c-5.72-3.421-11.507-6.727-17.289-10.042-3.09-1.775-6.178-3.552-9.26-5.34a705 705 0 0 0-5.737-3.289l-2.698-1.558-2.376-1.356C77.617 279.728 76.48 278.626 75 276a84 84 0 0 1-.29-8.896l.013-2.721q.015-2.923.05-5.846c.032-3.085.04-6.17.042-9.255.006-8.772.035-17.544.126-26.315.055-5.367.066-10.733.048-16.1q.002-3.066.056-6.132c.694-10.705.694-10.705-2.976-20.27-2.337-1.59-4.408-2.543-7.069-3.465a122 122 0 0 1-3.973-2.281q-2.042-1.114-4.09-2.219c-7.655-4.19-15.215-8.532-22.75-12.937l-3.127-1.829c-7.719-4.52-7.719-4.52-10.754-6.422-2.154-1.477-2.154-1.477-4.306-1.312m396.691 2.973-3.412 1.953-3.716 2.137q-1.913 1.096-3.826 2.193a12032 12032 0 0 0-34.52 19.885q-8.106 4.682-16.217 9.359l-6.5 3.75-42.25 24.375-6.496 3.748a25831 25831 0 0 1-16.324 9.412 7438 7438 0 0 0-35.34 20.473l-2.778 1.62-2.386 1.394L236 255l-2.433.74c-3.383 1.328-5.185 2.483-7.567 5.26-2.029 6.674-1.259 14.174-1.135 21.06q.004 3.282-.005 6.564c-.003 5.939.056 11.875.126 17.813.063 6.206.068 12.411.08 18.618.03 11.083.102 22.165.197 33.248q.128 15.089.188 30.178l.008 2.005.038 9.956c.104 27.52.28 55.039.503 82.558 2.958-1.169 5.8-2.346 8.582-3.89l2.035-1.128 2.196-1.232c.78-.435 1.56-.87 2.363-1.32 8.558-4.802 17.02-9.768 25.488-14.727 6.389-3.74 12.797-7.444 19.211-11.14l3.271-1.886 6.572-3.786q8.143-4.693 16.282-9.391l6.5-3.75 3.25-1.875 39.003-22.501 6.473-3.736q8.326-4.806 16.66-9.599c14.137-8.125 14.137-8.125 28.176-16.414l1.841-1.101c2.7-1.558 2.7-1.558 5.097-3.524q.062-3.5 0-7c-16.945-9.734-34.195-16.232-54-16l-.06 2.706q-.118 4.974-.257 9.947-.058 2.152-.105 4.303a870 870 0 0 1-.164 6.189l-.095 3.76C364 379 364 379 362 382c-4.264 1.254-6.275 1.366-10.281-.656-3.87-2.344-7.449-5.025-11.031-7.781a808 808 0 0 0-17.5-12.938c-8.645-6.216-17.22-12.522-25.784-18.85q-3.628-2.678-7.263-5.35l-2.425-1.782-4.764-3.503a942 942 0 0 1-11.632-8.687l-2.24-1.699a847 847 0 0 1-4.182-3.2c-3.1-2.652-3.1-2.652-6.898-3.554-1.213-3.638-1.395-6.177-1-10 2.203-2.43 2.203-2.43 5-5l2.508-2.36a360 360 0 0 1 16.61-14.292c3.162-2.576 6.275-5.205 9.382-7.848a690 690 0 0 1 11.938-9.937c4.246-3.456 8.415-6.99 12.562-10.563a664 664 0 0 1 15.207-12.707 520 520 0 0 0 7.832-6.582C352.768 222.138 352.768 222.138 358 222c2.75.813 2.75.813 5 2 1.423 2.845 1.22 5.362 1.316 8.54l.127 3.944.12 4.141.13 4.164q.16 5.105.307 10.211c2.842.785 5.525 1.191 8.465 1.395 12.263.934 24.132 2.596 36.162 5.156 3.106.588 6.243 1.002 9.373 1.449V150c-2.163 0-4.525 1.95-6.309 2.973M91 193c-.209 9.675-.369 19.349-.466 29.025-.047 4.494-.11 8.986-.213 13.479a756 756 0 0 0-.175 13.013 256 256 0 0 1-.098 4.959c-.575 8.916-.575 8.916 2.775 16.767 2.33 1.587 4.574 2.686 7.177 3.757q1.774 1.023 3.513 2.102l3.315 1.878 1.809 1.03q2.805 1.592 5.613 3.178 2.829 1.604 5.656 3.21 2.549 1.445 5.099 2.888a181 181 0 0 1 5.764 3.438c2.092 1.441 2.092 1.441 4.231 1.276.349-9.622.615-19.243.777-28.87.078-4.472.184-8.939.355-13.408.163-4.318.252-8.633.291-12.954q.042-2.465.163-4.927c.252-5.305.204-9.797-1.586-14.841-3.58-3.865-8.294-6.009-13.049-8.102-3.141-1.446-6.037-3.239-8.998-5.023A6444 6444 0 0 0 106.25 201l-3.477-2.02-3.32-1.917-2.964-1.715c-2.505-1.45-2.505-1.45-5.489-2.348m249.75 61.313-3.848 3.32-1.977 1.708a1072 1072 0 0 1-23.113 19.346 750 750 0 0 0-9.312 7.813 835 835 0 0 1-12.437 10.375l-2.672 2.184a478 478 0 0 1-4.407 3.539A99 99 0 0 0 279 306v2c1.397 1.285 1.397 1.285 3.27 2.547l2.163 1.539 2.38 1.664 4.992 3.55 2.612 1.855c4.038 2.885 8.03 5.831 12.02 8.783l4.75 3.507 2.391 1.767q3.709 2.737 7.422 5.468l4.938 3.632 2.39 1.759q8.358 6.159 16.617 12.452c1.769 1.574 1.769 1.574 3.055 1.477l.148-3.98.227-5.207c.03-.865.062-1.73.094-2.62.383-8.338.383-8.338 2.531-12.193 13.463-6.732 38.36.874 51.813 5.25 23.673 8.098 42.306 22.43 53.761 44.828 8.023 18.021 9.061 38.3 1.996 56.836-2.052 5.045-4.098 9.839-7.57 14.086l1 2c11.038-8.408 20.26-17.449 28-29l1.582-2.25c3.557-5.406 5.901-11.157 8.168-17.187l.89-2.348c8.02-22.21 6.403-47.363-3.446-68.661-13.444-27.435-37.11-45.76-65.409-55.988-19.132-6.502-38.805-8.739-58.896-9.689l-3.744-.217-3.364-.168c-3.05-.54-4.002-1.007-5.781-3.492-1.238-3.713-1.356-7.313-1.562-11.187l-.131-2.272q-.158-2.77-.307-5.541c-2.443 0-5.385 3.69-7.25 5.313"/></svg>