<?xml version="1.0" encoding="UTF-8"?>
<svg version="1.1" xmlns="http://www.w3.org/2000/svg" width="512" height="512">
<path d="M0 0 C1.1713147 -0.01268417 2.34262939 -0.02536835 3.54943848 -0.03843689 C4.81509644 -0.03550125 6.08075439 -0.03256561 7.38476562 -0.02954102 C8.68297241 -0.03478287 9.9811792 -0.04002472 11.31872559 -0.04542542 C14.06593543 -0.05435855 16.81285459 -0.05193102 19.56005859 -0.04199219 C23.08112477 -0.03049508 26.60118917 -0.05072233 30.12212372 -0.07990932 C33.48055805 -0.10266153 36.83875597 -0.09580575 40.19726562 -0.09204102 C42.09575256 -0.10889198 42.09575256 -0.10889198 44.03259277 -0.12608337 C45.78956482 -0.11201195 45.78956482 -0.11201195 47.58203125 -0.09765625 C49.13065857 -0.097407 49.13065857 -0.097407 50.71057129 -0.09715271 C53.29101562 0.40405273 53.29101562 0.40405273 54.92737293 2.06838512 C56.6370524 4.9967497 56.67480041 6.89292919 56.68974304 10.27593994 C56.70855026 12.07640274 56.70855026 12.07640274 56.72773743 13.91323853 C56.72558479 15.88337418 56.72558479 15.88337418 56.72338867 17.89331055 C56.73240654 19.29290635 56.74273382 20.69249424 56.75427246 22.09207153 C56.78186602 25.88925505 56.79113012 29.68628881 56.79712653 33.48355961 C56.80650411 37.45278427 56.83270698 41.4218968 56.85713196 45.39105225 C56.90081767 52.90616508 56.92935187 60.42125618 56.95245534 67.9364574 C56.97949593 76.49267912 57.02340812 85.04878815 57.06874406 93.60492945 C57.16161999 111.20457774 57.23328721 128.80425583 57.29101562 146.40405273 C57.76039047 145.99000687 58.22976532 145.575961 58.71336365 145.14936829 C59.64596764 144.33631477 59.64596764 144.33631477 60.59741211 143.50683594 C61.51803688 142.70014214 61.51803688 142.70014214 62.45726013 141.87715149 C64.91431384 139.90334267 67.42951226 138.74343285 70.35351562 137.59155273 C71.33449219 137.19323242 72.31546875 136.79491211 73.32617188 136.38452148 C84.50074939 132.68910784 96.67730428 133.65310549 107.21679688 138.84545898 C118.13538748 145.35432835 125.71881207 154.32958883 128.90039062 166.79077148 C130.74484924 179.13019963 129.25774125 190.5934363 122.47851562 201.21655273 C116.01211139 209.86641815 107.79799099 217.57890393 99.60327148 224.58300781 C95.02389516 228.57628621 90.75001985 232.83620226 86.47851562 237.15405273 C85.25878052 238.37946777 85.25878052 238.37946777 84.0144043 239.62963867 C81.43748265 242.21867944 78.86383937 244.8109401 76.29101562 247.40405273 C72.89814409 250.82367992 69.50186905 254.23987422 66.10351562 257.65405273 C65.33869873 258.42716797 64.57388184 259.2002832 63.78588867 259.99682617 C59.67941203 264.12177408 55.47687784 268.04541417 51.06622314 271.84255981 C48.71558276 273.91021009 46.5579271 276.12575055 44.40820312 278.40014648 C31.58797705 291.74513451 19.61099853 304.08726773 0.15117073 305.6573925 C-3.32059472 305.7261179 -6.77974335 305.70405095 -10.25170898 305.64599609 C-12.26076189 305.63205223 -14.269815 305.61812635 -16.27887261 305.60487759 C-18.41662599 305.58834619 -20.55420839 305.56474073 -22.69187737 305.53965569 C-27.16970935 305.48943248 -31.64730127 305.47236961 -36.12538147 305.46205139 C-37.66555319 305.45810201 -39.20572481 305.4541144 -40.74589634 305.45008945 C-41.90198153 305.44708149 -41.90198153 305.44708149 -43.08142197 305.44401276 C-53.48890723 305.41411598 -63.89563899 305.35622012 -74.30249023 305.23632812 C-81.34815772 305.15542505 -88.39267305 305.11771801 -95.43881422 305.12796885 C-99.15702782 305.13156765 -102.87221037 305.11351519 -106.58979607 305.04179192 C-123.9697983 303.89530095 -123.9697983 303.89530095 -139.06552219 310.78689671 C-141.26552138 313.19325545 -143.027847 315.60867141 -144.70898438 318.40405273 C-141.79316769 321.9863418 -138.80947919 325.3455993 -135.45117188 328.51733398 C-134.86875732 329.07396729 -134.28634277 329.63060059 -133.6862793 330.20410156 C-132.50870011 331.32256888 -131.31893634 332.42836908 -130.11645508 333.52001953 C-127.3068918 336.20524051 -125.81422487 338.13334562 -124.38476562 341.81030273 C-125.42445273 353.3345453 -145.66216107 367.77788843 -153.77388668 375.9655838 C-157.04919184 379.2715735 -160.31600246 382.58508722 -163.56420898 385.91772461 C-166.72528245 389.16069655 -169.9055212 392.38365051 -173.1003437 395.59336853 C-174.30928603 396.81454278 -175.51133268 398.04258507 -176.70612907 399.27760315 C-178.37623261 401.00115198 -180.06984586 402.6977914 -181.77124023 404.39038086 C-182.25512207 404.90145386 -182.73900391 405.41252686 -183.23754883 405.93908691 C-185.99911509 408.62786643 -187.64129209 409.39563809 -191.49486637 409.87466526 C-196.33022065 409.7265235 -198.93159518 407.30171085 -202.17578125 403.94639587 C-202.77473174 403.35921974 -203.37368223 402.77204361 -203.99078274 402.16707426 C-205.98920273 400.19818032 -207.95783864 398.20199194 -209.92773438 396.20458984 C-211.35580757 394.7857214 -212.78558525 393.36856674 -214.2169342 391.95300293 C-218.09669514 388.10544481 -221.95078849 384.23309111 -225.79985428 380.3548553 C-229.83014232 376.30059642 -233.88030635 372.26627633 -237.92749023 368.22889709 C-244.72033344 361.44603379 -251.49647606 354.64682097 -258.26318359 347.83789062 C-266.08882348 339.96386197 -273.94096422 332.11704015 -281.80769157 324.28407663 C-289.37260513 316.75026877 -296.91766504 309.19687083 -304.45410156 301.63458443 C-307.66286769 298.41559823 -310.8785846 295.20379975 -314.10009766 291.99757195 C-317.89184677 288.22213767 -321.66597173 284.42992641 -325.42712212 280.62401581 C-326.81104417 279.22923092 -328.20096994 277.840374 -329.59721565 276.4579258 C-331.50081947 274.57118325 -333.38158239 272.66426636 -335.25805664 270.75059509 C-336.09615246 269.93489867 -336.09615246 269.93489867 -336.9511795 269.10272354 C-339.72744472 266.22171017 -340.68102303 264.66188407 -341.11806774 260.63189888 C-340.68789462 257.2376454 -340.32991208 256.14114927 -337.9855957 253.75146484 C-337.34175934 253.07945038 -336.69792297 252.40743591 -336.03457642 251.71505737 C-335.26713104 250.95242584 -334.49968567 250.18979431 -333.70898438 249.40405273 C-332.36844498 248.02940353 -332.36844498 248.02940353 -331.00082397 246.62698364 C-327.78795173 243.33999066 -324.53654958 240.09231668 -321.28320312 236.84545898 C-320.08715984 235.64874093 -318.89126495 234.45187457 -317.69551086 233.25486755 C-315.20512082 230.7630121 -312.71295319 228.2729523 -310.21948242 225.78417969 C-307.02043171 222.59086296 -303.82594183 219.39302706 -300.63273907 216.19386387 C-298.17164755 213.7291671 -295.70818968 211.26684665 -293.24399757 208.80525017 C-292.06427387 207.62619391 -290.88529356 206.44639336 -289.70706749 205.26584053 C-288.06777522 203.62401834 -286.42532885 201.98541912 -284.78198242 200.34765625 C-283.84823288 199.4147023 -282.91448334 198.48174835 -281.95243835 197.52052307 C-279.25908988 194.9796231 -278.24926086 194.49049697 -274.58398438 193.90405273 C-269.066201 194.61602478 -266.50886356 197.54932993 -262.70898438 201.40405273 C-261.37618875 202.73792356 -260.04292336 204.07132532 -258.70898438 205.40405273 C-258.70751781 204.72229351 -258.70605125 204.04053429 -258.70454025 203.33811569 C-258.66749968 186.75466109 -258.60852179 170.17144473 -258.52508163 153.58816147 C-258.4852605 145.56861787 -258.4528837 137.54917284 -258.43798828 129.52954102 C-258.42498761 122.54017774 -258.39806381 115.55103106 -258.35437131 108.56178975 C-258.33172046 104.86047272 -258.31607584 101.15942319 -258.31710052 97.4580307 C-258.3179833 93.32742589 -258.28778404 89.19761252 -258.25488281 85.06713867 C-258.26242836 83.22323799 -258.26242836 83.22323799 -258.27012634 81.34208679 C-258.25621353 80.21750565 -258.24230072 79.0929245 -258.22796631 77.93426514 C-258.22243555 76.46861429 -258.22243555 76.46861429 -258.21679306 74.97335434 C-257.56327415 71.66681933 -256.32050139 70.47017363 -253.70898438 68.40405273 C-251.09094238 67.89611816 -251.09094238 67.89611816 -248.0859375 67.88647461 C-246.95796753 67.87386597 -245.82999756 67.86125732 -244.66784668 67.8482666 C-242.84742859 67.86041199 -242.84742859 67.86041199 -240.99023438 67.87280273 C-239.7402063 67.86897583 -238.49017822 67.86514893 -237.20227051 67.86120605 C-234.55892532 67.85848359 -231.91705952 67.8638532 -229.27392578 67.88256836 C-225.89080947 67.90535919 -222.50896241 67.8922329 -219.12589264 67.8682785 C-215.89312804 67.8503259 -212.66051555 67.86290572 -209.42773438 67.87280273 C-208.21412231 67.86470581 -207.00051025 67.85660889 -205.75012207 67.8482666 C-204.6221521 67.86087524 -203.49418213 67.87348389 -202.33203125 67.88647461 C-200.84455383 67.89124817 -200.84455383 67.89124817 -199.32702637 67.89611816 C-196.70898438 68.40405273 -196.70898438 68.40405273 -194.3916626 69.90887451 C-192.0088169 73.44230391 -192.13715616 76.72522942 -192.16308594 80.84448242 C-192.15274826 81.69362717 -192.14241058 82.54277191 -192.13175964 83.41764832 C-192.10229351 86.22060082 -192.10083168 89.02283241 -192.09960938 91.82592773 C-192.08463029 93.77078634 -192.06790372 95.71563221 -192.04949951 97.66046143 C-192.00578327 102.77651549 -191.9858174 107.89239796 -191.97076416 113.00860596 C-191.95120851 118.2303687 -191.90923677 123.45194571 -191.86914062 128.67358398 C-191.79379219 138.91701634 -191.74352874 149.16040721 -191.70898438 159.40405273 C-190.80535156 158.9825293 -189.90171875 158.56100586 -188.97070312 158.12670898 C-187.79121094 157.57885742 -186.61171875 157.03100586 -185.39648438 156.46655273 C-184.22472656 155.9212793 -183.05296875 155.37600586 -181.84570312 154.81420898 C-178.70898437 153.40405273 -178.70898437 153.40405273 -175.70898438 152.40405273 C-175.70540184 151.4496066 -175.70540184 151.4496066 -175.70174694 150.47587872 C-175.64264463 135.00270443 -175.56712545 119.52971093 -175.47326946 104.05671215 C-175.42827869 96.57411798 -175.38887171 89.09157176 -175.36254883 81.60888672 C-175.33959519 75.08796895 -175.30622697 68.56720249 -175.26028281 62.04640466 C-175.23631473 58.59275926 -175.2176096 55.13926405 -175.21137047 51.68553734 C-175.20421536 47.8326711 -175.17381168 43.98018185 -175.14135742 40.12744141 C-175.14279251 38.97873566 -175.1442276 37.83002991 -175.14570618 36.64651489 C-175.13316803 35.5990358 -175.12062988 34.5515567 -175.10771179 33.47233582 C-175.10310283 32.56068255 -175.09849386 31.64902929 -175.09374523 30.70975018 C-174.63267163 27.94674507 -173.94200586 27.05121753 -171.70898438 25.40405273 C-169.12854004 25.02310181 -169.12854004 25.02310181 -166 25.01586914 C-164.24302795 25.00168442 -164.24302795 25.00168442 -162.45056152 24.98721313 C-161.18490356 24.99328583 -159.91924561 24.99935852 -158.61523438 25.00561523 C-157.31702759 25.00274506 -156.0188208 24.99987488 -154.68127441 24.99691772 C-151.93405447 24.99249598 -149.1871273 24.99892014 -146.43994141 25.01293945 C-142.91901597 25.03003182 -139.39877655 25.02018975 -135.87787628 25.00222206 C-132.51944066 24.98877316 -129.16118949 24.9981901 -125.80273438 25.00561523 C-123.90424744 24.9965062 -123.90424744 24.9965062 -121.96740723 24.98721313 C-120.79609253 24.99666962 -119.62477783 25.0061261 -118.41796875 25.01586914 C-116.86934143 25.01944931 -116.86934143 25.01944931 -115.28942871 25.02310181 C-112.22439026 25.47559335 -111.54228678 25.95734938 -109.70898438 28.40405273 C-109.33260345 30.87595463 -109.33260345 30.87595463 -109.33044434 33.8764801 C-109.32224167 35.01362457 -109.314039 36.15076904 -109.30558777 37.32237244 C-109.31173599 38.57079422 -109.31788422 39.819216 -109.32421875 41.10546875 C-109.31597178 43.12233639 -109.30772401 45.13920403 -109.29944611 47.15607154 C-109.29344325 49.32460514 -109.29483148 51.49302385 -109.29829407 53.66156197 C-109.30509357 58.17811601 -109.28925434 62.69441498 -109.26989746 67.21092224 C-109.22879288 77.61208102 -109.2174867 88.01323297 -109.20636749 98.41445923 C-109.19587036 107.94918465 -109.17915252 117.48378794 -109.13827181 127.0184378 C-109.11987061 131.51135109 -109.11603891 136.00397387 -109.12320709 140.49691594 C-109.12435975 142.61655103 -109.11874177 144.7360361 -109.11003113 146.85565186 C-109.09943256 149.44416686 -109.09965375 152.03275619 -109.11238098 154.6212616 C-109.10417831 155.75558624 -109.09597565 156.88991089 -109.08752441 158.05860901 C-109.0868119 159.04840539 -109.0860994 160.03820177 -109.0853653 161.05799198 C-108.96115959 161.83219203 -108.83695389 162.60639208 -108.70898438 163.40405273 C-105.07178833 165.8288501 -102.85194956 165.7906785 -98.52148438 166.02905273 C-97.24917969 166.10381836 -95.976875 166.17858398 -94.66601562 166.25561523 C-93.20228516 166.3290918 -93.20228516 166.3290918 -91.70898438 166.40405273 C-91.71786682 165.1328508 -91.72674927 163.86164886 -91.73590088 162.55192566 C-91.81688756 150.58868371 -91.87690214 138.62549716 -91.91623306 126.66204357 C-91.93713308 120.51107064 -91.96549515 114.3603185 -92.01074219 108.20947266 C-92.05411325 102.27670933 -92.07810328 96.34415875 -92.08849335 90.41124916 C-92.0959004 88.14454103 -92.11036411 85.87784492 -92.1319046 83.61122704 C-92.16082186 80.44319613 -92.1649452 77.27605118 -92.16308594 74.10791016 C-92.17746704 73.16492065 -92.19184814 72.22193115 -92.20666504 71.25036621 C-92.16663295 64.97203667 -92.16663295 64.97203667 -90.03204346 62.32281494 C-87.23618603 61.21706255 -85.09637139 61.01640226 -82.0859375 61 C-80.95796753 60.98731583 -79.82999756 60.97463165 -78.66784668 60.96156311 C-77.45423462 60.96449875 -76.24062256 60.96743439 -74.99023438 60.97045898 C-73.7402063 60.96521713 -72.49017822 60.95997528 -71.20227051 60.95457458 C-68.5591686 60.94815058 -65.91692994 60.94805744 -63.27392578 60.95800781 C-59.89085485 60.96950482 -56.5088266 60.94927314 -53.12589264 60.92009068 C-49.89316782 60.89731243 -46.66052066 60.90419551 -43.42773438 60.90795898 C-42.21412231 60.89672501 -41.00051025 60.88549103 -39.75012207 60.87391663 C-38.05816711 60.88798805 -38.05816711 60.88798805 -36.33203125 60.90234375 C-35.34037964 60.90250992 -34.34872803 60.90267609 -33.32702637 60.90284729 C-30.70898438 61.40405273 -30.70898438 61.40405273 -28.38592529 62.82182312 C-25.7951531 66.81121154 -26.18356007 70.56253202 -26.25488281 75.22143555 C-26.25429871 76.21688385 -26.2537146 77.21233215 -26.25311279 78.23794556 C-26.25589938 81.5280444 -26.28701942 84.81723716 -26.31835938 88.10717773 C-26.3258197 90.38832097 -26.33151361 92.66947062 -26.33551025 94.95062256 C-26.35078288 100.95460708 -26.39007923 106.95820454 -26.43432617 112.96203613 C-26.47524346 119.0884884 -26.49351373 125.21500321 -26.51367188 131.34155273 C-26.55657149 143.36255612 -26.62484292 155.38327224 -26.70898438 167.40405273 C-26.06832031 167.56260742 -25.42765625 167.72116211 -24.76757812 167.88452148 C-18.75753926 169.50570931 -14.55978031 171.50232557 -9.70898438 175.40405273 C-9.70540184 174.07853787 -9.70540184 174.07853787 -9.70174694 172.72624493 C-9.64266317 151.24456594 -9.56715579 129.76299976 -9.47326946 108.2814436 C-9.42826498 97.89320577 -9.38886112 87.50500259 -9.36254883 77.11669922 C-9.33960635 68.0643964 -9.30625056 59.01220278 -9.26028281 49.95998651 C-9.23629984 45.16495494 -9.2176044 40.37003186 -9.21137047 35.57494164 C-9.20534247 31.06464231 -9.185426 26.55462075 -9.15470886 22.04442406 C-9.14589182 20.3863823 -9.14221359 18.72830429 -9.14397621 17.07024002 C-9.1456198 14.81136945 -9.12900958 12.55335494 -9.10771179 10.29460144 C-9.10310283 9.02897967 -9.09849386 7.76335791 -9.09374523 6.45938396 C-8.70898438 3.40405273 -8.70898438 3.40405273 -7.34534168 1.49762344 C-4.90231266 -0.13504258 -2.91751215 0.0152683 0 0 Z M6.29101562 15.40405273 C6.29101562 75.13405273 6.29101562 134.86405273 6.29101562 196.40405273 C8.60101563 194.42405273 10.91101563 192.44405273 13.29101562 190.40405273 C15.52616193 189.02614106 17.77554319 187.67107188 20.03808594 186.33862305 C30.24343512 179.53783132 39.1938404 171.09293941 42.15982056 158.80447388 C45.5023471 137.84168295 44.09300644 116.03962092 43.30776739 94.91613054 C42.99071031 86.23298988 42.83983009 77.54913705 42.70007658 68.86162138 C42.40971276 51.03453279 41.89774994 33.22337273 41.29101562 15.40405273 C29.74101562 15.40405273 18.19101562 15.40405273 6.29101562 15.40405273 Z M-159.70898438 40.40405273 C-159.70898438 76.37405273 -159.70898438 112.34405273 -159.70898438 149.40405273 C-154.09898437 149.73405273 -148.48898438 150.06405273 -142.70898438 150.40405273 C-137.87304688 151.37670898 -137.87304688 151.37670898 -134.33398438 152.46655273 C-129.59472139 153.94685303 -129.59472139 153.94685303 -124.70898438 154.40405273 C-124.70898438 116.78405273 -124.70898438 79.16405273 -124.70898438 40.40405273 C-136.25898438 40.40405273 -147.80898437 40.40405273 -159.70898438 40.40405273 Z M-76.70898438 76.40405273 C-76.70898438 106.10405273 -76.70898438 135.80405273 -76.70898438 166.40405273 C-65.15898437 166.40405273 -53.60898437 166.40405273 -41.70898438 166.40405273 C-41.70898438 136.70405273 -41.70898438 107.00405273 -41.70898438 76.40405273 C-53.25898438 76.40405273 -64.80898438 76.40405273 -76.70898438 76.40405273 Z M-242.70898438 83.40405273 C-242.70898438 122.67405273 -242.70898438 161.94405273 -242.70898438 202.40405273 C-238.36188863 198.67797067 -234.09581014 194.96917912 -229.89648438 191.09155273 C-228.8564203 190.13419492 -227.81605075 189.17716886 -226.77539062 188.22045898 C-226.26250488 187.74882324 -225.74961914 187.2771875 -225.22119141 186.79125977 C-222.93460206 184.69368136 -220.63641146 182.60922442 -218.33398438 180.52905273 C-217.58375 179.85100586 -216.83351563 179.17295898 -216.06054688 178.47436523 C-213.70898438 176.40405273 -213.70898438 176.40405273 -210.60458374 174.3150177 C-208.76651665 172.77286732 -207.84327852 171.86275324 -207.16472244 169.54504967 C-206.97047075 167.26234665 -206.96645091 165.04857299 -207.02783203 162.75830078 C-207.02695587 161.89925644 -207.02607971 161.0402121 -207.025177 160.15513611 C-207.02934698 157.32441286 -207.07596934 154.49607907 -207.12304688 151.66577148 C-207.13424115 149.69994908 -207.14278024 147.73410991 -207.14877319 145.76826477 C-207.17165324 140.60079519 -207.23056974 135.43434176 -207.29699707 130.26727295 C-207.35843717 124.9920425 -207.38579192 119.71664743 -207.41601562 114.44116211 C-207.48031392 104.09494129 -207.5858327 93.74974059 -207.70898438 83.40405273 C-219.25898438 83.40405273 -230.80898437 83.40405273 -242.70898438 83.40405273 Z M66.54101562 158.46264648 C65.99008743 158.9804216 65.43915924 159.49819672 64.87153625 160.03166199 C56.90203998 167.58288322 49.20651763 175.42016853 41.47851562 183.21655273 C38.41249896 186.30938867 35.34301398 189.39872403 32.27148438 192.48608398 C31.58797409 193.17789261 30.90446381 193.86970123 30.20024109 194.58247375 C26.29198026 198.51034959 22.27091139 202.23244532 18.07524109 205.85136414 C14.24336203 209.1859847 10.69511206 212.81546685 7.10351562 216.40405273 C6.32298828 217.17233398 5.54246094 217.94061523 4.73828125 218.73217773 C1.38775945 222.07417403 -1.78561344 225.31963374 -4.46289062 229.23217773 C-6.6145138 232.27064385 -8.41578026 234.06557932 -11.45898438 236.15405273 C-12.23757813 236.70577148 -13.01617187 237.25749023 -13.81835938 237.82592773 C-21.46672283 242.00152075 -28.52642359 242.84312095 -37.14794922 242.79223633 C-38.25635162 242.79749329 -39.36475403 242.80275024 -40.50674438 242.8081665 C-44.14461646 242.82129587 -47.78204591 242.81265684 -51.41992188 242.80249023 C-53.95578088 242.80451213 -56.49163932 242.80742452 -59.02749634 242.81118774 C-64.32812605 242.81560079 -69.62859861 242.80949788 -74.92919922 242.79516602 C-81.05571082 242.77879231 -87.18192361 242.78416937 -93.30842817 242.80064523 C-99.21432765 242.81589065 -105.12013421 242.81429052 -111.02605057 242.80550003 C-113.53554959 242.80349596 -116.04505623 242.80596451 -118.55454636 242.81293869 C-122.05203469 242.82053027 -125.54894185 242.80898295 -129.04638672 242.79223633 C-130.08744568 242.79830902 -131.12850464 242.80438171 -132.20111084 242.81063843 C-133.15144196 242.80217896 -134.10177307 242.79371948 -135.0809021 242.78500366 C-136.32023278 242.78330705 -136.32023278 242.78330705 -137.58460045 242.78157616 C-140.23329311 242.31087804 -141.11973556 241.54637655 -142.70898438 239.40405273 C-143.11159697 236.18315194 -143.33639928 234.27048284 -141.39648438 231.59155273 C-138.4197807 229.49683533 -135.79075523 229.27929473 -132.27072144 229.27947998 C-130.90833092 229.27563545 -130.90833092 229.27563545 -129.51841736 229.27171326 C-128.52411209 229.27381302 -127.52980682 229.27591278 -126.50537109 229.27807617 C-124.93169014 229.27527397 -124.93169014 229.27527397 -123.32621765 229.27241516 C-121.04432293 229.26840766 -118.76242418 229.266336 -116.48052597 229.26595306 C-111.62581768 229.26253986 -106.7712436 229.24117766 -101.91658211 229.2207222 C-92.8753601 229.18269883 -83.83427981 229.15143512 -74.79296875 229.15356445 C-68.50640782 229.15435251 -62.22033594 229.13094421 -55.93390274 229.09168243 C-53.5410291 229.08123293 -51.14809894 229.0796906 -48.75521469 229.08733368 C-45.39926258 229.09698086 -42.0447841 229.07572182 -38.68896484 229.04760742 C-37.70680496 229.05780411 -36.72464508 229.06800079 -35.71272278 229.07850647 C-28.02452588 228.96347747 -22.19250567 226.73360623 -16.58789062 221.37670898 C-12.20948615 215.02347519 -9.61581161 209.32254773 -10.70898438 201.40405273 C-12.62361098 193.68495688 -16.17430679 188.88272956 -22.70898438 184.40405273 C-28.52001321 181.36018049 -34.78790801 181.28454663 -41.23632812 181.34155273 C-42.74739433 181.35099318 -44.25846214 181.3601773 -45.76953125 181.36914062 C-46.56351318 181.37543488 -47.35749512 181.38172913 -48.17553711 181.38821411 C-52.4249565 181.41545263 -56.67434576 181.40529555 -60.92382812 181.40014648 C-66.31114196 181.39396096 -71.69740809 181.39903712 -77.08447266 181.45532227 C-81.45569004 181.49999058 -85.82499249 181.49991966 -90.19631958 181.47119141 C-91.84828458 181.46814169 -93.5003655 181.48070872 -95.15206909 181.51025391 C-105.96256994 181.69286138 -112.95096738 180.21339258 -121.6628418 173.62231445 C-133.9222532 164.6947668 -149.07386127 162.90895422 -163.77929688 164.79858398 C-184.54368864 169.18343511 -200.0700345 183.51600173 -214.91113281 197.69897461 C-217.96934816 200.59937873 -221.11370339 203.40061892 -224.25976562 206.20483398 C-226.14523561 207.89784771 -228.01552156 209.60287911 -229.87695312 211.32202148 C-230.4199707 211.82314453 -230.96298828 212.32426758 -231.52246094 212.84057617 C-232.57936427 213.81740144 -233.63478396 214.79583525 -234.68847656 215.77612305 C-236.95416375 217.86834594 -239.13473442 219.6878861 -241.70898438 221.40405273 C-240.33074021 224.49980814 -238.74995319 226.61091563 -236.35543823 228.99810791 C-235.31637329 230.04129684 -235.31637329 230.04129684 -234.25631714 231.1055603 C-233.49674713 231.85793976 -232.73717712 232.61031921 -231.95458984 233.38549805 C-230.75446259 234.58606339 -230.75446259 234.58606339 -229.53009033 235.81088257 C-226.88349701 238.4560822 -224.2298891 241.09412658 -221.57617188 243.73217773 C-219.74013471 245.56448492 -217.90453852 247.39723407 -216.06936646 249.23040771 C-211.73111019 253.56180708 -207.38842934 257.88872378 -203.0435735 262.21350169 C-198.09650593 267.13820423 -193.15512521 272.06859603 -188.21421218 276.99947214 C-178.05211509 287.14067163 -167.88290192 297.27471258 -157.70898438 307.40405273 C-152.89841384 305.21819135 -149.77505715 301.54119703 -146.21875 297.74780273 C-145.71150391 297.22186523 -145.20425781 296.69592773 -144.68164062 296.15405273 C-144.23054932 295.67452148 -143.77945801 295.19499023 -143.31469727 294.70092773 C-139.54708474 291.65796624 -135.66234725 291.15408166 -130.94271851 291.15249634 C-129.79058868 291.14711349 -128.63845886 291.14173065 -127.45141602 291.13618469 C-126.19627197 291.14030869 -124.94112793 291.14443268 -123.64794922 291.14868164 C-122.30546862 291.14592989 -120.96298966 291.14224887 -119.62051392 291.13771057 C-116.73349177 291.12961048 -113.84654701 291.12742718 -110.95951462 291.12965775 C-106.38575709 291.13249788 -101.81215317 291.11811101 -97.23843384 291.10067749 C-84.23368651 291.05372294 -71.22894944 291.02972664 -58.22412109 291.02319336 C-51.03838261 291.01943112 -43.85281795 291.00130663 -36.66715395 290.968099 C-32.12985547 290.94798409 -27.59300838 290.94546607 -23.05568385 290.95637918 C-20.21871478 290.95900479 -17.382003 290.94489242 -14.54510117 290.92629814 C-12.6233165 290.91852409 -10.70148298 290.93034274 -8.77972412 290.94297791 C5.90556124 290.80451625 15.14958813 285.63885215 25.29101562 275.46655273 C26.05414063 274.6737793 26.81726563 273.88100586 27.60351562 273.06420898 C29.66291419 271.0257636 31.7246442 269.14951111 33.921875 267.27099609 C38.44361472 263.32984278 42.66854272 259.13611895 46.88476562 254.87280273 C47.67572632 254.07805542 48.46668701 253.28330811 49.28161621 252.46447754 C51.78721086 249.94676842 54.2895242 247.42583827 56.79101562 244.90405273 C60.09013242 241.57817084 63.39265936 238.25572937 66.69726562 234.93530273 C67.44020874 234.18406128 68.18315186 233.43281982 68.9486084 232.65881348 C72.97440132 228.61440469 77.09574841 224.76476993 81.41870117 221.04037476 C84.25138654 218.56473 86.94048213 215.95443702 89.61914062 213.31420898 C90.17543152 212.76598984 90.73172241 212.21777069 91.30487061 211.65293884 C92.46574397 210.50574742 93.62518147 209.35710124 94.78320312 208.20703125 C95.95780776 207.04400952 97.1368819 205.885485 98.3203125 204.73144531 C100.05493861 203.03970568 101.77572613 201.33489594 103.49414062 199.62670898 C104.27860565 198.86850609 104.27860565 198.86850609 105.07891846 198.09498596 C110.75159212 192.38874584 114.38128118 185.47065487 114.60351562 177.34155273 C114.50115186 169.5926158 112.36005699 163.24976084 107.04101562 157.52905273 C101.01224553 152.03185161 93.83019444 148.92268708 85.61132812 149.15014648 C77.80114155 150.00479653 72.17385314 153.07576716 66.54101562 158.46264648 Z M-276.65150452 214.22631836 C-277.50199875 215.0790332 -278.35249298 215.93174805 -279.22875977 216.81030273 C-279.69707718 217.27847412 -280.16539459 217.74664551 -280.64790344 218.22900391 C-282.20319626 219.78499624 -283.75491219 221.3445064 -285.30664062 222.90405273 C-286.38116569 223.98044184 -287.45591101 225.05661113 -288.53086853 226.13256836 C-291.36566429 228.9711904 -294.19744486 231.8128022 -297.02862549 234.6550293 C-299.91571961 237.55233516 -302.80563095 240.44682789 -305.6953125 243.34155273 C-311.36931069 249.0262902 -317.0401293 254.71418654 -322.70898438 260.40405273 C-317.11836859 267.22157764 -310.88157613 273.3651805 -304.64501953 279.58154297 C-303.42226022 280.80401985 -302.19972177 282.02671768 -300.97738647 283.24961853 C-297.67429688 286.55299393 -294.36814271 289.85328643 -291.06141329 293.15301776 C-287.60029247 296.60786893 -284.14202097 300.06556989 -280.68344116 303.52296448 C-274.14077511 310.06252784 -267.59556509 316.59953883 -261.04942834 323.13562781 C-253.59400419 330.57985778 -246.14143405 338.02694219 -238.68909764 345.47426307 C-223.36555799 360.78736241 -208.03845286 376.09688872 -192.70898438 391.40405273 C-189.17834201 389.73989785 -186.88962756 387.8272838 -184.12402344 385.04614258 C-183.22339172 384.1453598 -182.32276001 383.24457703 -181.39483643 382.3164978 C-180.42131957 381.33276865 -179.44791312 380.34893023 -178.47460938 379.36499023 C-177.47185276 378.35850145 -176.46865216 377.35245484 -175.46502686 376.34683228 C-172.83024624 373.70443126 -170.20152827 371.05607845 -167.57403564 368.40643311 C-164.88958749 365.70149221 -162.19943815 363.00223452 -159.50976562 360.30249023 C-154.23724819 355.008551 -148.9711238 349.7083099 -143.70898438 344.40405273 C-145.28641965 340.54832691 -147.89085269 337.94448163 -150.80213928 335.06365967 C-151.32583727 334.53754727 -151.84953525 334.01143486 -152.38910288 333.46937966 C-154.14473242 331.70811534 -155.90741809 329.95408894 -157.67016602 328.19995117 C-158.93032877 326.93871552 -160.19005845 325.67704703 -161.4493866 324.41497803 C-164.87027478 320.98924095 -168.29738282 317.56978885 -171.72576451 314.15155315 C-175.30804167 310.57805161 -178.88505377 306.99928707 -182.4627533 303.42120361 C-188.46924165 297.41565185 -194.47959158 291.41398691 -200.49243164 285.41479492 C-207.45427097 278.46869891 -214.41085191 271.51737215 -221.36445719 264.56303382 C-228.04476594 257.88211585 -234.7279221 251.20405432 -241.4126873 244.52759552 C-244.26234839 241.68147418 -247.11115024 238.83449681 -249.95930672 235.98686981 C-253.30820857 232.63896869 -256.65963556 229.29361611 -260.01307869 225.95026398 C-261.24713714 224.71913872 -262.48033811 223.48715328 -263.71264267 222.25427246 C-265.38706717 220.57936109 -267.06450872 218.90753346 -268.74281311 217.23651123 C-269.23657741 216.74119833 -269.73034171 216.24588542 -270.23906857 215.73556304 C-273.25500354 212.06443402 -273.25500354 212.06443402 -276.65150452 214.22631836 Z " fill="#000000" transform="translate(361.708984375,102.595947265625)"/>
<path d="M0 0 C1.51672302 -0.01902626 1.51672302 -0.01902626 3.06408691 -0.03843689 C4.15475464 -0.03550125 5.24542236 -0.03256561 6.36914062 -0.02954102 C7.48977905 -0.03478287 8.61041748 -0.04002472 9.76501465 -0.04542542 C12.13548961 -0.0518519 14.50599644 -0.05050057 16.87646484 -0.04199219 C20.51131715 -0.03348022 24.14459986 -0.06224039 27.77929688 -0.09399414 C30.08007765 -0.09560609 32.38086122 -0.09502875 34.68164062 -0.09204102 C36.31764221 -0.10889198 36.31764221 -0.10889198 37.98669434 -0.12608337 C38.99784302 -0.11670242 40.0089917 -0.10732147 41.05078125 -0.09765625 C42.38622986 -0.097407 42.38622986 -0.097407 43.74865723 -0.09715271 C46.02539062 0.40405273 46.02539062 0.40405273 47.81105042 2.12986755 C49.20459824 4.73966816 49.41070683 6.34670615 49.42944336 9.29272461 C49.44846962 10.74443054 49.44846962 10.74443054 49.46788025 12.22546387 C49.46347679 13.78339661 49.46347679 13.78339661 49.45898438 15.37280273 C49.46422623 16.44526245 49.46946808 17.51772217 49.47486877 18.62268066 C49.48128865 20.88882583 49.47995245 23.15500432 49.47143555 25.42114258 C49.46292189 28.89130845 49.49169516 32.35983059 49.5234375 35.82983398 C49.52504948 38.03165641 49.52447205 40.23348175 49.52148438 42.43530273 C49.53271835 43.47392456 49.54395233 44.51254639 49.55552673 45.5826416 C49.48624661 52.73005939 49.48624661 52.73005939 47.21313477 56.05444336 C43.94348847 58.07147324 41.77980129 58.00744016 38.02539062 57.40405273 C34.37915932 53.81048195 33.51566776 51.28561709 33.41601562 46.22827148 C33.38378906 45.07133789 33.3515625 43.9144043 33.31835938 42.72241211 C33.30417969 41.52422852 33.29 40.32604492 33.27539062 39.09155273 C33.23091797 37.26527344 33.23091797 37.26527344 33.18554688 35.40209961 C33.1149724 32.4026844 33.06221198 29.40404103 33.02539062 26.40405273 C32.14238281 27.16588867 31.259375 27.92772461 30.34960938 28.71264648 C22.99102207 35.04872103 15.57027315 41.28990349 8.02539062 47.40405273 C1.57920805 52.64216595 -4.80885789 57.93946496 -11.13818359 63.31762695 C-15.43572562 66.96360205 -19.79118739 70.53382554 -24.16210938 74.09155273 C-27.29260696 76.66551742 -30.38629985 79.27978268 -33.47460938 81.90405273 C-38.33943146 86.0370432 -43.24465545 90.11315066 -48.20898438 94.12670898 C-50.20990612 95.77436064 -52.16971391 97.4397792 -54.11523438 99.15014648 C-54.64431396 99.60897217 -55.17339355 100.06779785 -55.71850586 100.54052734 C-57.20280589 101.83077102 -58.6769235 103.13270151 -60.15039062 104.43530273 C-63.4556526 106.73938577 -64.95436065 107.19006441 -68.97460938 107.40405273 C-72.41044485 106.65194829 -75.67566672 105.48769553 -78.98632812 104.31030273 C-79.97215378 103.97184326 -80.95797943 103.63338379 -81.97367859 103.28466797 C-85.20778365 102.17070458 -88.43479893 101.03753439 -91.66210938 99.90405273 C-93.89753749 99.13007609 -96.13338215 98.35730152 -98.36962891 97.58569336 C-104.11330808 95.59994205 -109.85111353 93.5978072 -115.5869751 91.58959961 C-120.95784363 89.709994 -126.33165645 87.838844 -131.70507812 85.96655273 C-137.42823816 83.97215727 -143.15052739 81.97547778 -148.86791992 79.96459961 C-149.72650101 79.66320068 -150.58508209 79.36180176 -151.46968079 79.05126953 C-153.06110207 78.49239166 -154.6520313 77.93210974 -156.24235535 77.37011719 C-158.14844778 76.701333 -160.06114874 76.05145449 -161.97460938 75.40405273 C-162.64618073 75.16561646 -163.31775208 74.92718018 -164.00967407 74.68151855 C-164.65810272 74.58995483 -165.30653137 74.49839111 -165.97460938 74.40405273 C-168.4374553 76.29539211 -170.52991096 78.16686677 -172.72460938 80.34155273 C-173.74071289 81.31995117 -173.74071289 81.31995117 -174.77734375 82.31811523 C-182.47125438 89.7743499 -190.01891163 97.39050175 -197.54785156 105.01318359 C-202.18697449 109.6998846 -206.86636775 114.25033569 -211.88378906 118.53588867 C-216.57694673 122.72926122 -220.93122285 127.29952214 -225.34960938 131.77905273 C-227.31287508 133.76890895 -229.27944769 135.75541209 -231.24804688 137.73999023 C-232.538479 139.04782471 -232.538479 139.04782471 -233.85498047 140.38208008 C-236.61663823 143.01650182 -237.49190468 143.35935786 -241.34960938 143.71655273 C-244.97460937 143.40405273 -244.97460937 143.40405273 -247.41210938 141.77905273 C-248.97460938 139.40405273 -248.97460938 139.40405273 -249.66210938 136.65405273 C-248.5993442 131.63007193 -245.52636208 128.98038505 -241.97460938 125.40405273 C-241.10578125 124.50944336 -240.23695313 123.61483398 -239.34179688 122.69311523 C-235.50011164 118.78722356 -231.67582486 114.98461267 -227.50195312 111.43920898 C-220.98815083 105.78878367 -215.03487629 99.53067293 -208.97460938 93.40405273 C-194.88471175 79.15988615 -194.88471175 79.15988615 -188.72753906 73.93432617 C-185.52060442 71.13473476 -182.57559684 68.06987653 -179.59960938 65.02905273 C-178.38579209 63.78978854 -177.16975308 62.55269532 -175.95117188 61.31811523 C-175.42604004 60.78138184 -174.9009082 60.24464844 -174.35986328 59.69165039 C-172.62407832 58.07823307 -171.54512706 57.3999406 -169.14974976 57.41720581 C-163.22463389 58.04407723 -157.93499381 59.50182772 -152.32617188 61.47436523 C-151.41136047 61.78784409 -150.49654907 62.10132294 -149.55401611 62.42430115 C-147.58790865 63.09966635 -145.6233037 63.77941886 -143.66009521 64.46316528 C-140.5623362 65.54203401 -137.4606453 66.60887433 -134.35791016 67.67333984 C-123.71343369 71.33349799 -113.09465452 75.06316492 -102.49023438 78.83764648 C-100.51162497 79.53885026 -98.5329479 80.23986315 -96.55419922 80.94067383 C-92.80427962 82.26880183 -89.0610357 83.61386326 -85.32080078 84.96899414 C-83.61966725 85.57421464 -81.91834314 86.17889983 -80.21679688 86.78295898 C-79.06839325 87.20671059 -79.06839325 87.20671059 -77.89678955 87.63902283 C-73.90056494 89.04124715 -71.02474281 89.89891851 -66.97460938 88.40405273 C-64.807864 86.79479888 -62.8469278 85.19947616 -60.84960938 83.40405273 C-59.69147234 82.39281417 -58.53260728 81.38240884 -57.37304688 80.37280273 C-56.7990918 79.8687793 -56.22513672 79.36475586 -55.63378906 78.84545898 C-53.29117128 76.81031841 -50.88654471 74.856235 -48.47460938 72.90405273 C-44.41130457 69.597812 -40.40161628 66.23588845 -36.41210938 62.84155273 C-31.86176621 58.97163472 -27.24628102 55.20445376 -22.56445312 51.49389648 C-18.94329968 48.57184959 -15.40506369 45.55583787 -11.86132812 42.54077148 C-7.55770238 38.88369984 -3.19551539 35.3040262 1.18554688 31.73999023 C5.03102264 28.57686161 8.82546518 25.35498135 12.61132812 22.12084961 C15.35359786 19.78547526 18.13275642 17.54901289 21.02539062 15.40405273 C19.86753052 15.38217896 19.86753052 15.38217896 18.6862793 15.35986328 C15.1946397 15.28547241 11.70396573 15.18878184 8.21289062 15.09155273 C6.99794922 15.06899414 5.78300781 15.04643555 4.53125 15.02319336 C2.78618164 14.97001953 2.78618164 14.97001953 1.00585938 14.91577148 C-0.06768799 14.8895874 -1.14123535 14.86340332 -2.24731445 14.83642578 C-4.97460938 14.40405273 -4.97460938 14.40405273 -6.82348633 12.99316406 C-8.2616921 11.00773853 -8.37728485 9.83949469 -8.34960938 7.40405273 C-8.35734375 6.72342773 -8.36507812 6.04280273 -8.37304688 5.34155273 C-7.41461124 0.68092453 -4.30476435 0.02612445 0 0 Z " fill="#000000" transform="translate(363.974609375,-0.404052734375)"/>
</svg>
