<?xml version="1.0" encoding="UTF-8"?>
<svg version="1.1" xmlns="http://www.w3.org/2000/svg" width="512" height="512">
<path d="M0 0 C2.35148913 1.90758557 3.56822982 3.35312696 4.53125 6.2421875 C3.90625 9.9296875 3.90625 9.9296875 2.53125 13.2421875 C-0.36324491 15.17185077 -1.83194633 15.77872197 -5.2578125 15.69921875 C-9.30355216 14.86290861 -12.78142991 12.69459215 -16.40625 10.7734375 C-30.51663317 3.71824592 -46.59969334 3.63138741 -61.46875 8.2421875 C-78.64175933 14.87937953 -91.27971836 26.35659109 -99.1796875 43.0859375 C-104.9917702 57.31673393 -105.2728246 72.70518255 -100.46875 87.2421875 C-100.20191406 88.09167969 -99.93507812 88.94117187 -99.66015625 89.81640625 C-94.15815747 105.39317613 -81.96485404 116.54673203 -67.48046875 123.72265625 C-50.81446284 131.09374317 -34.27569568 130.70445029 -17.21875 124.4921875 C-1.15943641 117.59830453 9.61630323 104.62391337 16.55859375 88.97265625 C19.14365504 81.71579745 19.91885397 75.21790274 19.90625 67.5546875 C19.90536377 66.58660156 19.90447754 65.61851563 19.90356445 64.62109375 C19.75574806 55.64106028 18.10833654 48.1836884 13.921875 40.15625 C11.95121204 36.0267147 12.01920046 33.77748345 12.53125 29.2421875 C14.09375 26.7421875 14.09375 26.7421875 16.53125 25.2421875 C19.96875 24.6796875 19.96875 24.6796875 23.53125 25.2421875 C26.16141161 27.4149297 28.00461894 29.18892538 29.53125 32.2421875 C30.28331789 32.24273227 31.03538578 32.24327703 31.81024361 32.24383831 C50.11350451 32.25880851 68.41651296 32.30126493 86.71963692 32.37427807 C95.57093178 32.40892467 104.42207097 32.43428315 113.2734375 32.43774414 C120.98871134 32.4407845 128.70370789 32.46128452 136.41887462 32.50271207 C140.50371875 32.52403744 144.58816872 32.53664521 148.673069 32.52834129 C152.51955815 32.52079799 156.36524886 32.53663408 160.21159172 32.57024765 C161.62164774 32.57847773 163.03178321 32.57823447 164.44183159 32.56878471 C176.41784048 32.49648369 176.41784048 32.49648369 180.29220581 35.53340149 C184.46983293 40.58747678 184.81794223 44.33177159 184.77175903 50.80950928 C184.77432231 52.11933081 184.77432231 52.11933081 184.77693737 53.45561337 C184.78023631 56.38683307 184.76922185 59.31782476 184.75830078 62.24902344 C184.75773676 64.34810887 184.75805306 66.4471947 184.75918579 68.54627991 C184.75976064 74.25044101 184.74798492 79.95451834 184.73403788 85.65865993 C184.72155254 91.61775223 184.72036175 97.57684635 184.71798706 103.53594971 C184.71176583 114.82290384 184.6953463 126.10981932 184.67528808 137.39675641 C184.6529491 150.24545059 184.64194069 163.0941466 184.63189721 175.94285536 C184.61098064 202.37598752 184.57579216 228.80908534 184.53125 255.2421875 C185.22686035 255.22124023 185.9224707 255.20029297 186.63916016 255.17871094 C189.81137458 255.0952177 192.98335731 255.04342221 196.15625 254.9921875 C197.25066406 254.95867187 198.34507812 254.92515625 199.47265625 254.890625 C205.62196747 254.81608789 209.84471541 254.78315459 214.53125 259.2421875 C217.41518877 262.93846584 217.91426029 265.69387669 217.95117188 270.33007812 C217.96708374 271.53482788 217.98299561 272.73957764 217.99938965 273.98083496 C217.99969177 275.92004822 217.99969177 275.92004822 218 277.8984375 C218.00710656 279.24695145 218.01480629 280.59546238 218.02307129 281.94396973 C218.03649206 284.7649782 218.03809536 287.58570689 218.03222656 290.40673828 C218.02632532 294.01514463 218.05694759 297.62220783 218.09734344 301.23035431 C218.12323636 304.01343978 218.12609669 306.79620217 218.12245178 309.57939148 C218.12495967 311.55418282 218.14964052 313.52890589 218.17468262 315.50354004 C218.09777054 325.46115752 218.09777054 325.46115752 215.18164062 328.55664062 C211.88591802 330.65259391 210.36262408 331.04039043 206.53125 330.2421875 C203.87426758 328.47192383 203.87426758 328.47192383 201.53125 325.2421875 C200.82851709 321.13976671 200.95024381 317.09278758 201.04296875 312.94140625 C201.05004349 311.74989456 201.05711823 310.55838287 201.06440735 309.33076477 C201.09236814 305.52976378 201.15511526 301.73024236 201.21875 297.9296875 C201.24383044 295.35093275 201.26664404 292.77215488 201.28710938 290.19335938 C201.34220126 283.87573307 201.42849047 277.55921103 201.53125 271.2421875 C195.92125 271.2421875 190.31125 271.2421875 184.53125 271.2421875 C184.55219727 272.81105713 184.57314453 274.37992676 184.59472656 275.99633789 C184.667268 281.83136831 184.7131019 287.66635904 184.75097656 293.50170898 C184.77105963 296.02456369 184.79833157 298.54737203 184.83300781 301.07006836 C184.88166913 304.70177673 184.90425265 308.33286821 184.921875 311.96484375 C184.94252014 313.08802505 184.96316528 314.21120636 184.98443604 315.36842346 C184.98628491 321.85868279 184.666541 326.10485725 180.53125 331.2421875 C175.34726295 335.10518339 169.65530539 334.71496376 163.4453125 334.75390625 C161.85993179 334.78083305 161.85993179 334.78083305 160.24252319 334.80830383 C156.8804722 334.86230688 153.5185624 334.89627112 150.15625 334.9296875 C147.87107415 334.96286933 145.5859169 334.99735979 143.30078125 335.03320312 C137.71106412 335.11802759 132.12132849 335.18641979 126.53125 335.2421875 C126.08177002 336.11246582 125.63229004 336.98274414 125.16918945 337.87939453 C116.9074657 353.59917669 105.66672115 365.25245175 88.53125 371.2421875 C79.79502467 373.57372031 71.55538455 374.61304234 62.53125 374.2421875 C62.53125 380.8421875 62.53125 387.4421875 62.53125 394.2421875 C108.40125 394.2421875 154.27125 394.2421875 201.53125 394.2421875 C201.53125 381.0421875 201.53125 367.8421875 201.53125 354.2421875 C206.53125 349.2421875 206.53125 349.2421875 209.53125 348.6171875 C213.66942829 349.47930798 214.95606464 350.90279166 217.53125 354.2421875 C218.20495386 357.33387456 218.11531607 360.32872777 218.01953125 363.48046875 C218.01245651 364.36123581 218.00538177 365.24200287 217.99809265 366.14945984 C217.97018848 368.95208035 217.90745943 371.75267485 217.84375 374.5546875 C217.8186619 376.45895544 217.79584962 378.36325482 217.77539062 380.26757812 C217.72037503 384.92655734 217.63413151 389.58402939 217.53125 394.2421875 C218.28744629 394.22647705 219.04364258 394.2107666 219.82275391 394.19458008 C223.26717576 394.13200703 226.71147774 394.09312545 230.15625 394.0546875 C231.94095703 394.01698242 231.94095703 394.01698242 233.76171875 393.97851562 C245.1447975 393.8831267 245.1447975 393.8831267 249.53125 397.2421875 C253.56768037 402.02770255 252.96468122 407.33622718 252.9296875 413.2734375 C252.93255768 414.3421106 252.93542786 415.41078369 252.93838501 416.51184082 C252.94042348 418.76782767 252.93490886 421.02383227 252.92236328 423.27978516 C252.90630721 426.72989481 252.92222004 430.17883297 252.94140625 433.62890625 C252.93942378 435.82291925 252.93558003 438.01693152 252.9296875 440.2109375 C252.93576019 441.24126099 252.94183289 442.27158447 252.9480896 443.33312988 C252.85673447 452.6507696 252.85673447 452.6507696 249.53125 456.2421875 C243.89726838 460.49654948 237.00206683 459.71908774 230.2578125 459.75390625 C228.33949112 459.78083305 228.33949112 459.78083305 226.38241577 459.80830383 C222.99910039 459.85320161 219.61614441 459.8855503 216.23266602 459.91174316 C212.77346797 459.94163747 209.31449651 459.98813705 205.85546875 460.03320312 C199.08083408 460.11811083 192.30618424 460.18647022 185.53125 460.2421875 C185.33664436 461.1676387 185.33664436 461.1676387 185.1381073 462.11178589 C184.96386734 462.92164948 184.78962738 463.73151306 184.61010742 464.56591797 C184.43912033 465.36851044 184.26813324 466.17110291 184.09196472 466.99801636 C182.23110433 474.44581293 176.63533812 481.69018251 170.53125 486.2421875 C160.52416166 491.78568248 151.23381524 493.78446494 140.03125 491.1171875 C129.80986519 488.05791988 122.36355385 481.62783443 117.21875 472.3671875 C115.83304642 469.37443925 115.23075934 466.76364432 114.92578125 463.484375 C114.8481958 462.68628418 114.77061035 461.88819336 114.69067383 461.06591797 C114.63806396 460.46408691 114.5854541 459.86225586 114.53125 459.2421875 C113.83495137 459.24679646 113.13865274 459.25140543 112.42125416 459.25615406 C95.47879562 459.36657564 78.53645105 459.44931584 61.59371662 459.50124836 C53.4003183 459.52703012 45.20716017 459.56217981 37.01391602 459.61938477 C29.87266718 459.66922096 22.73159228 459.70147873 15.59017438 459.71262997 C11.80874581 459.71914849 8.02781486 459.73446731 4.24654579 459.77083778 C0.68664028 459.80480131 -2.87256314 459.81524016 -6.43261528 459.80772591 C-8.36047194 459.80975522 -10.28825228 459.8366488 -12.21591187 459.86428833 C-21.64454607 459.80799391 -21.64454607 459.80799391 -24.74543762 456.89421082 C-26.88588543 453.60025346 -27.27120791 452.09398547 -26.46875 448.2421875 C-24.81446087 445.68512736 -24.06469338 444.66951703 -21.46875 443.2421875 C-17.09181773 442.51482663 -12.75485646 442.64580031 -8.32836914 442.72558594 C-6.97778678 442.73187137 -5.62719185 442.7358245 -4.27659607 442.73762512 C-1.37293462 442.7457629 1.53007957 442.76894159 4.43354607 442.80342865 C9.02694718 442.8564573 13.61984561 442.86711457 18.21351624 442.87042236 C31.27380545 442.88654904 44.33349076 442.9644793 57.39331055 443.07373047 C64.61015482 443.13372397 71.8264261 443.16127478 79.04352289 443.15466523 C83.60825259 443.15250699 88.17024876 443.19102622 92.73443019 443.26001024 C95.57679038 443.29360481 98.41818816 443.28957407 101.26067162 443.27509117 C103.20157495 443.27632899 105.1422884 443.32239952 107.08261108 443.36988831 C113.42664062 443.43946359 113.42664062 443.43946359 118.60447884 440.2566452 C120.12802085 437.97826513 121.33467403 435.70320389 122.53125 433.2421875 C128.94925648 425.87593502 136.24355405 421.93046437 145.95703125 420.8671875 C156.39276413 420.50222198 165.45757387 422.77166335 173.671875 429.390625 C177.19382616 432.89777804 180.05518936 436.94003214 182.53125 441.2421875 C182.53125 441.9021875 182.53125 442.5621875 182.53125 443.2421875 C200.68125 443.2421875 218.83125 443.2421875 237.53125 443.2421875 C237.53125 432.3521875 237.53125 421.4621875 237.53125 410.2421875 C107.84125 410.2421875 -21.84875 410.2421875 -155.46875 410.2421875 C-155.46875 421.1321875 -155.46875 432.0221875 -155.46875 443.2421875 C-145.48662537 443.8921885 -145.48662537 443.8921885 -136.40234375 440.5703125 C-135.22653591 438.50585781 -134.34143997 436.44908617 -133.46875 434.2421875 C-127.12428279 426.84030909 -119.08326004 421.76546147 -109.30859375 420.9921875 C-97.9335244 420.59610239 -89.32899722 423.05669663 -80.3984375 430.1640625 C-78.20450574 432.52675824 -77.44926138 434.63321683 -76.28125 437.6171875 C-75.06108768 440.37595042 -75.06108768 440.37595042 -72.46875 442.2421875 C-67.82646064 443.16225452 -63.14186536 443.11186339 -58.42700195 442.95654297 C-51.09662852 442.77810337 -51.09662852 442.77810337 -47.32421875 445.56640625 C-45.46875 448.2421875 -45.46875 448.2421875 -44.84375 451.2421875 C-45.71432393 455.42094238 -47.05483616 456.67853145 -50.46875 459.2421875 C-53.92839735 459.84910427 -57.28250019 459.71540746 -60.78125 459.5546875 C-61.71259766 459.53212891 -62.64394531 459.50957031 -63.60351562 459.48632812 C-65.8935896 459.42760828 -68.18032875 459.34555608 -70.46875 459.2421875 C-70.51628418 459.83241699 -70.56381836 460.42264648 -70.61279297 461.03076172 C-71.45380833 470.04269223 -74.56328789 477.39464362 -81.3125 483.640625 C-90.55679045 490.50685522 -100.22188403 493.26218537 -111.62890625 492.00390625 C-121.18393112 490.33556857 -128.6380898 485.04068243 -134.7734375 477.67578125 C-138.912012 471.73492431 -140.56241977 466.42702854 -140.46875 459.2421875 C-141.03980469 459.25106995 -141.61085938 459.25995239 -142.19921875 459.269104 C-148.16933126 459.3579379 -154.1392545 459.41807056 -160.10986328 459.46191406 C-162.33487582 459.48196796 -164.55983607 459.50921815 -166.78466797 459.54394531 C-169.99199365 459.59273684 -173.19861951 459.61521912 -176.40625 459.6328125 C-177.88641602 459.66378021 -177.88641602 459.66378021 -179.39648438 459.69537354 C-185.61140983 459.69737028 -190.29133759 458.8149988 -195.46875 455.2421875 C-200.12944641 450.45884118 -201.71970033 445.91105628 -201.71484566 439.30142498 C-201.71882775 438.10363185 -201.72280985 436.90583871 -201.72691262 435.67174882 C-201.72108693 434.35949966 -201.71526125 433.04725049 -201.70925903 431.69523621 C-201.71013125 430.28436322 -201.71188252 428.87349055 -201.71443737 427.4626196 C-201.7189118 423.58593821 -201.7109059 419.70936722 -201.70088124 415.83269989 C-201.69225043 411.65210799 -201.69516664 407.47152238 -201.69668579 403.29092407 C-201.69773488 396.04784353 -201.69145581 388.80479901 -201.68021011 381.56172752 C-201.66396127 371.08944581 -201.65874774 360.61718152 -201.65623413 350.14488856 C-201.65185606 333.15460659 -201.63854392 316.16434381 -201.61962891 299.17407227 C-201.60127301 282.66886491 -201.58711508 266.16366277 -201.57861328 249.65844727 C-201.57782511 248.13256945 -201.57782511 248.13256945 -201.57702102 246.57586583 C-201.57441096 241.47265073 -201.57188354 236.3694356 -201.56939721 231.26622045 C-201.54866123 188.92486284 -201.51343265 146.58352616 -201.46875 104.2421875 C-202.02949722 104.24662872 -202.59024445 104.25106995 -203.16798401 104.25564575 C-209.02447959 104.30002465 -214.8809271 104.33011423 -220.73754883 104.35205078 C-222.92083681 104.36208442 -225.10411143 104.3757144 -227.28735352 104.39306641 C-230.43248805 104.41743063 -233.57744429 104.42869721 -236.72265625 104.4375 C-237.6927211 104.44782257 -238.66278595 104.45814514 -239.6622467 104.46878052 C-246.49707684 104.46990226 -252.10721442 104.40344447 -257.36474609 99.59179688 C-259.86242611 95.61544855 -260.11276241 93.31609913 -260.1328125 88.6484375 C-260.13759613 87.93868774 -260.14237976 87.22893799 -260.14730835 86.49768066 C-260.1506933 85.00510425 -260.14158927 83.51245227 -260.12060547 82.02001953 C-260.0938106 79.74732733 -260.12039153 77.47957157 -260.15234375 75.20703125 C-260.14903939 73.7499892 -260.1426326 72.2929502 -260.1328125 70.8359375 C-260.12717285 69.52302734 -260.1215332 68.21011719 -260.11572266 66.85742188 C-259.27782409 62.17530793 -257.79503395 60.57412946 -254.46875 57.2421875 C-251.48415691 55.74989096 -248.75347732 56.08186656 -245.42382812 56.04931641 C-244.69832764 56.04113892 -243.97282715 56.03296143 -243.2253418 56.02453613 C-240.81690289 55.99966659 -238.40852332 55.98315547 -236 55.96875 C-235.17584091 55.96342632 -234.35168182 55.95810265 -233.50254822 55.95261765 C-229.13386973 55.92586964 -224.76521988 55.90650664 -220.39648438 55.89208984 C-216.79205724 55.87879057 -213.18820162 55.85101561 -209.58398438 55.81005859 C-205.22440018 55.7605197 -200.86533151 55.73594184 -196.50547791 55.72886276 C-194.85019813 55.72218162 -193.19492842 55.70704201 -191.53981018 55.68297195 C-181.20901376 55.54139823 -172.31598215 55.80141913 -164.34436035 63.21890259 C-156.74001262 71.18048008 -155.33596482 79.74970081 -155.35522461 90.55444336 C-155.35510407 91.25905229 -155.35498354 91.96366121 -155.35485935 92.68962193 C-155.35559915 94.9454584 -155.36318436 97.20120977 -155.37109375 99.45703125 C-155.37256606 100.85974081 -155.37358499 102.26245092 -155.37414551 103.66516113 C-155.37936485 108.83667836 -155.3933261 114.00818379 -155.40625 119.1796875 C-155.426875 130.7503125 -155.4475 142.3209375 -155.46875 154.2421875 C-120.15875 154.2421875 -84.84875 154.2421875 -48.46875 154.2421875 C-48.46875 151.2721875 -48.46875 148.3021875 -48.46875 145.2421875 C-49.47808594 145.27441406 -50.48742187 145.30664062 -51.52734375 145.33984375 C-67.47550761 144.94469598 -82.88408829 136.7235481 -94.46875 126.2421875 C-95.22671875 125.57703125 -95.9846875 124.911875 -96.765625 124.2265625 C-111.08233154 110.89721503 -119.70526063 91.97725275 -120.7890625 72.50390625 C-121.50097768 51.40495619 -115.94095383 31.12265962 -101.46875 15.2421875 C-100.39560547 14.03175781 -100.39560547 14.03175781 -99.30078125 12.796875 C-74.62754168 -13.52661387 -30.62814495 -20.89462431 0 0 Z M34.53125 48.2421875 C34.86125 50.5521875 35.19125 52.8621875 35.53125 55.2421875 C35.86125 61.5121875 36.19125 67.7821875 36.53125 74.2421875 C80.09125 74.2421875 123.65125 74.2421875 168.53125 74.2421875 C168.53125 65.6621875 168.53125 57.0821875 168.53125 48.2421875 C124.31125 48.2421875 80.09125 48.2421875 34.53125 48.2421875 Z M-244.46875 71.2421875 C-244.46875 76.8521875 -244.46875 82.4621875 -244.46875 88.2421875 C-241.99314575 88.25620605 -241.99314575 88.25620605 -239.4675293 88.27050781 C-233.35641274 88.31031689 -227.24580445 88.37605098 -221.13500977 88.44970703 C-218.48794066 88.47796929 -215.84078634 88.49915749 -213.19360352 88.51318359 C-209.39294638 88.5345396 -205.59331963 88.58115477 -201.79296875 88.6328125 C-200.01160774 88.63465546 -200.01160774 88.63465546 -198.19425964 88.63653564 C-197.09334488 88.65625427 -195.99243011 88.6759729 -194.8581543 88.69628906 C-193.40254341 88.70961273 -193.40254341 88.70961273 -191.91752625 88.72320557 C-189.46875 89.2421875 -189.46875 89.2421875 -187.83957446 90.9033826 C-186.10910596 93.85578702 -186.09116011 95.76739112 -186.08678246 99.18204784 C-186.07794261 100.4051004 -186.06910277 101.62815295 -186.05999506 102.8882677 C-186.06531587 104.24746822 -186.0709113 105.6066677 -186.07675171 106.96586609 C-186.07203001 108.4081657 -186.06599182 109.85046151 -186.05874789 111.29275066 C-186.04262152 115.26099007 -186.04516154 119.22903403 -186.05066919 123.19729435 C-186.05334558 127.47474606 -186.03876986 131.75214225 -186.02622986 136.02957153 C-186.00682511 143.44236305 -185.9982668 150.85510364 -185.99692917 158.26791954 C-185.99489229 168.98673801 -185.97544678 179.70546986 -185.95153125 190.42425928 C-185.91310962 207.81546389 -185.88730984 225.20666265 -185.87011719 242.59790039 C-185.85337647 259.49113792 -185.83319654 276.38436269 -185.80664062 293.27758789 C-185.8050072 294.31843305 -185.80337378 295.35927821 -185.80169086 296.43166413 C-185.78373718 307.78578153 -185.76439304 319.13989591 -185.74338722 330.49400806 C-185.7415458 331.49079132 -185.73970438 332.48757458 -185.73780716 333.51456339 C-185.73042884 337.49833366 -185.72303545 341.4821039 -185.71546336 345.46587382 C-185.69329383 357.14791231 -185.67550501 368.82993829 -185.66551055 380.51199386 C-185.6591449 387.83466668 -185.64960815 395.15733041 -185.63754199 402.47999605 C-185.63073659 406.71093242 -185.62567783 410.94185412 -185.62495613 415.17279625 C-185.62429173 419.03947065 -185.61915557 422.90611131 -185.61035486 426.77277551 C-185.60799378 428.177777 -185.60736039 429.58278257 -185.60855167 430.98778554 C-185.60993626 432.8851427 -185.60469399 434.78250135 -185.59903526 436.67985058 C-185.59748753 438.2662973 -185.59748753 438.2662973 -185.59590852 439.88479346 C-185.73428003 442.19932219 -185.73428003 442.19932219 -184.46875 443.2421875 C-182.28235547 443.31477696 -180.09374611 443.32592533 -177.90625 443.3046875 C-176.70871094 443.29566406 -175.51117188 443.28664063 -174.27734375 443.27734375 C-172.88708984 443.25994141 -172.88708984 443.25994141 -171.46875 443.2421875 C-171.4229861 397.62686692 -171.38773767 352.01154877 -171.36661934 306.39620977 C-171.36411789 301.01259359 -171.36152925 295.62897745 -171.35888672 290.24536133 C-171.35809979 288.63766953 -171.35809979 288.63766953 -171.35729696 286.99749912 C-171.34859107 269.63636425 -171.33282007 252.27524261 -171.31444441 234.9141156 C-171.2957505 217.10395718 -171.28463435 199.2938057 -171.28057301 181.48363787 C-171.2778269 170.49118878 -171.26914914 159.49877708 -171.25291707 148.5063395 C-171.24235648 140.97146953 -171.23914728 133.43661893 -171.24174725 125.90174209 C-171.24302997 121.55260198 -171.24104439 117.20352726 -171.23033905 112.85439873 C-171.22060915 108.87250436 -171.22011341 104.89071938 -171.22695221 100.90881998 C-171.2277975 99.46859509 -171.22525822 98.02836339 -171.21898364 96.58815192 C-170.73310223 85.48615908 -170.73310223 85.48615908 -174.80078125 75.5 C-180.01361544 71.51128782 -184.12652873 71.11515124 -190.54418945 71.12866211 C-192.34549065 71.12877541 -192.34549065 71.12877541 -194.18318176 71.12889099 C-195.46980209 71.13405228 -196.75642242 71.13921356 -198.08203125 71.14453125 C-199.42009936 71.14639794 -200.75816815 71.14782066 -202.09623718 71.14881897 C-205.6061087 71.15262436 -209.11593839 71.16243762 -212.62579346 71.17352295 C-216.21211176 71.18377973 -219.79843686 71.18832571 -223.38476562 71.19335938 C-230.41277926 71.20406178 -237.44075831 71.22164244 -244.46875 71.2421875 Z M33.53125 90.2421875 C31.55125 94.8621875 29.57125 99.4821875 27.53125 104.2421875 C24.15625 109.4921875 24.15625 109.4921875 22.6328125 111.5703125 C21.34785343 113.18684234 21.34785343 113.18684234 21.53125 115.2421875 C22.26152405 115.24805374 22.9917981 115.25391998 23.74420166 115.25996399 C30.63031273 115.317896 37.51614646 115.38997561 44.40193558 115.47790241 C47.94192473 115.52260778 51.48179876 115.56186313 55.02197266 115.58862305 C59.09306932 115.61963589 63.16354543 115.67442465 67.234375 115.73046875 C69.13923676 115.74005363 69.13923676 115.74005363 71.08258057 115.74983215 C72.85396393 115.77952339 72.85396393 115.77952339 74.66113281 115.80981445 C76.22000214 115.82646904 76.22000214 115.82646904 77.81036377 115.84346008 C80.90078298 116.29634005 82.29276163 117.09793075 84.53125 119.2421875 C85.02734375 121.1796875 85.02734375 121.1796875 84.96875 123.2421875 C84.96746094 123.9228125 84.96617187 124.6034375 84.96484375 125.3046875 C84.37819587 127.92610505 83.71778432 128.65657326 81.53125 130.2421875 C79.02022612 130.5104987 76.76044329 130.59802144 74.25268555 130.54760742 C73.51395706 130.54494873 72.77522858 130.54229004 72.01411438 130.53955078 C70.40826785 130.5325929 68.80243942 130.51915995 67.19669151 130.5000515 C64.64257413 130.47238113 62.08936715 130.46751877 59.53511047 130.46955872 C52.27235517 130.47308523 45.01020059 130.45064683 37.74780273 130.3762207 C33.30243789 130.33229837 28.85842948 130.32811831 24.41291237 130.34780312 C22.73022718 130.34770648 21.04746987 130.33311813 19.36505699 130.30284691 C8.62561938 130.11498417 1.47486885 131.35505738 -7.57095337 137.34396362 C-11.38721218 139.84383319 -15.14298838 141.08789138 -19.53125 142.1796875 C-20.23701172 142.37369141 -20.94277344 142.56769531 -21.66992188 142.76757812 C-25.25230493 143.73787682 -28.82676267 144.51379003 -32.46875 145.2421875 C-32.46875 202.3321875 -32.46875 259.4221875 -32.46875 318.2421875 C-19.92875 318.2421875 -7.38875 318.2421875 5.53125 318.2421875 C5.86125 312.9621875 6.19125 307.6821875 6.53125 302.2421875 C9.42627836 286.48036644 16.84869602 271.89222902 29.71875 261.9921875 C45.64808758 251.06289199 62.67362609 247.85635005 81.68408203 250.546875 C85.5003395 251.33609839 88.98845798 252.64269912 92.53125 254.2421875 C93.47871094 254.66628906 94.42617188 255.09039062 95.40234375 255.52734375 C102.43907771 259.0310712 107.98630098 263.71683194 113.53125 269.2421875 C114.09585938 269.78359375 114.66046875 270.325 115.2421875 270.8828125 C127.52503192 283.75055428 129.40399896 301.33342197 130.53125 318.2421875 C143.07125 318.2421875 155.61125 318.2421875 168.53125 318.2421875 C168.53125 243.0021875 168.53125 167.7621875 168.53125 90.2421875 C123.98125 90.2421875 79.43125 90.2421875 33.53125 90.2421875 Z M-155.46875 170.2421875 C-155.46875 198.2921875 -155.46875 226.3421875 -155.46875 255.2421875 C-120.15875 255.2421875 -84.84875 255.2421875 -48.46875 255.2421875 C-48.46875 227.1921875 -48.46875 199.1421875 -48.46875 170.2421875 C-53.08875 170.2421875 -57.70875 170.2421875 -62.46875 170.2421875 C-62.50613281 172.42199219 -62.54351562 174.60179687 -62.58203125 176.84765625 C-62.62830248 178.96925635 -62.67951546 181.09068392 -62.73120117 183.2121582 C-62.76436259 184.68145172 -62.79242178 186.15086994 -62.81518555 187.62036133 C-62.84889519 189.73833118 -62.90121433 191.85516745 -62.95703125 193.97265625 C-62.98321533 195.24520264 -63.00939941 196.51774902 -63.03637695 197.82885742 C-63.49888315 201.48007097 -64.19642584 203.37118649 -66.46875 206.2421875 C-69.35257436 208.00333133 -71.52529571 208.49643072 -74.88256836 208.5168457 C-75.74704086 208.52637772 -76.61151337 208.53590973 -77.50218201 208.54573059 C-78.42829788 208.54481918 -79.35441376 208.54390778 -80.30859375 208.54296875 C-81.26770157 208.54725388 -82.22680939 208.551539 -83.21498108 208.55595398 C-85.24153861 208.56169184 -87.26811673 208.56220155 -89.29467773 208.55786133 C-92.39147152 208.55470257 -95.48730874 208.5781633 -98.58398438 208.60351562 C-100.5546863 208.60578882 -102.52539078 208.60649202 -104.49609375 208.60546875 C-105.88223122 208.61928337 -105.88223122 208.61928337 -107.29637146 208.63337708 C-112.12005008 208.59874726 -115.64932889 208.5380046 -119.46875 205.2421875 C-122.00150016 201.81840911 -121.78072278 198.22196115 -121.8828125 194.0703125 C-121.91842285 192.8215332 -121.9540332 191.57275391 -121.99072266 190.28613281 C-122.02472168 188.70413086 -122.0587207 187.12212891 -122.09375 185.4921875 C-122.2175 180.4596875 -122.34125 175.4271875 -122.46875 170.2421875 C-133.35875 170.2421875 -144.24875 170.2421875 -155.46875 170.2421875 Z M-106.46875 170.2421875 C-106.46875 177.8321875 -106.46875 185.4221875 -106.46875 193.2421875 C-97.22875 193.2421875 -87.98875 193.2421875 -78.46875 193.2421875 C-78.46875 185.6521875 -78.46875 178.0621875 -78.46875 170.2421875 C-87.70875 170.2421875 -96.94875 170.2421875 -106.46875 170.2421875 Z M30.53125 283.4296875 C22.58523175 294.60377567 20.4346592 305.69443275 21.53125 319.2421875 C24.0533703 331.80748144 31.08405429 342.82857191 41.53125 350.2421875 C53.27787247 357.36953005 65.01178293 360.07949747 78.46875 357.0546875 C91.89187264 353.37525287 101.86998525 346.28370945 109.0234375 334.22265625 C115.15011706 322.11214718 116.52178433 309.71615427 112.4296875 296.7265625 C108.00075348 284.47959712 99.25060079 274.95839302 87.80859375 268.76953125 C66.3213096 259.01740102 45.679695 266.86107578 30.53125 283.4296875 Z M-155.46875 271.2421875 C-155.46875 311.8321875 -155.46875 352.4221875 -155.46875 394.2421875 C-88.80875 394.2421875 -22.14875 394.2421875 46.53125 394.2421875 C46.53125 386.3221875 46.53125 378.4021875 46.53125 370.2421875 C43.1590625 368.5715625 43.1590625 368.5715625 39.71875 366.8671875 C25.42391102 359.39834376 16.62582805 348.57521967 9.53125 334.2421875 C8.94322601 334.23632126 8.35520203 334.23045502 7.74935913 334.22441101 C1.61693483 334.16036741 -4.51497 334.07591944 -10.64697266 333.97973633 C-12.93401226 333.94652744 -15.22113303 333.91848299 -17.50830078 333.89575195 C-20.80015578 333.8621324 -24.09126972 333.80981126 -27.3828125 333.75390625 C-28.40178619 333.74751633 -29.42075989 333.7411264 -30.47061157 333.73454285 C-35.86092038 333.62346334 -39.83541166 333.31409923 -44.46875 330.2421875 C-47.82954442 326.18605631 -47.90529375 322.30295509 -48.46875 317.2421875 C-49.92897583 317.22031372 -49.92897583 317.22031372 -51.41870117 317.19799805 C-55.04390476 317.13985454 -58.6684976 317.06262373 -62.29321289 316.97973633 C-63.85951801 316.94656218 -65.42594051 316.91850692 -66.99243164 316.89575195 C-69.24936763 316.86206634 -71.50523526 316.80974701 -73.76171875 316.75390625 C-74.80576118 316.74432137 -74.80576118 316.74432137 -75.87089539 316.73454285 C-80.21856593 316.60421186 -83.01312664 315.9113505 -86.46875 313.2421875 C-89.07217956 309.33704317 -88.82045734 305.95596481 -88.8828125 301.41796875 C-88.90045654 300.65432007 -88.91810059 299.89067139 -88.9362793 299.10388184 C-88.9992911 296.25436362 -89.045516 293.40449416 -89.09375 290.5546875 C-89.2175 284.1815625 -89.34125 277.8084375 -89.46875 271.2421875 C-111.24875 271.2421875 -133.02875 271.2421875 -155.46875 271.2421875 Z M-73.46875 271.2421875 C-73.46875 281.1421875 -73.46875 291.0421875 -73.46875 301.2421875 C-65.21875 301.2421875 -56.96875 301.2421875 -48.46875 301.2421875 C-48.46875 291.3421875 -48.46875 281.4421875 -48.46875 271.2421875 C-56.71875 271.2421875 -64.96875 271.2421875 -73.46875 271.2421875 Z M-122.05078125 446.3046875 C-125.46475085 450.96950547 -125.12563001 456.72288536 -124.46875 462.2421875 C-122.5481365 467.36669437 -119.07834026 471.38590136 -114.484375 474.33203125 C-109.30765293 476.66958211 -103.70794953 476.91376701 -98.28125 475.3046875 C-92.71623563 472.79873782 -88.76595752 468.44402511 -86.484375 462.8125 C-84.91042686 456.65106885 -85.67103744 451.90502738 -88.46875 446.2421875 C-91.35500483 441.43176278 -95.19272376 438.92256572 -100.46875 437.2421875 C-110.32340667 435.87348518 -115.72930606 438.93661046 -122.05078125 446.3046875 Z M133.59375 445.3671875 C129.97244796 450.41506306 129.89675826 455.21898424 130.53125 461.2421875 C132.32104937 467.15363915 135.48621418 470.81156314 140.53125 474.2421875 C145.80473811 476.87893155 150.89914913 476.50091151 156.53125 475.2421875 C162.20666393 472.35093889 166.108265 468.15283864 168.90625 462.4296875 C170.09102621 456.38732881 169.44038283 451.29385469 166.34375 445.9296875 C163.28572641 441.48004158 159.65486861 438.95006037 154.53125 437.2421875 C145.49201077 436.1183034 139.56494651 438.54296292 133.59375 445.3671875 Z " fill="#000000" transform="translate(259.46875,15.7578125)"/>
<path d="M0 0 C3.41620723 2.30824813 3.93366666 3.6683333 4.75 7.75 C4.8325 8.8225 4.915 9.895 5 11 C5.96421875 10.94199219 6.9284375 10.88398437 7.921875 10.82421875 C9.18515625 10.77910156 10.4484375 10.73398437 11.75 10.6875 C13.00296875 10.62949219 14.2559375 10.57148437 15.546875 10.51171875 C19 11 19 11 21.45703125 13.29296875 C23 16 23 16 22.9375 19.625 C22.04211343 22.84839166 21.64893115 24.09276958 19 26 C15.85086642 27.57456679 12.46050325 27.19923428 9 27.24609375 C7.37499439 27.27902104 5.74999452 27.31223287 4.125 27.34570312 C1.55733046 27.39320698 -1.01031394 27.43765725 -3.578125 27.47680664 C-6.05232719 27.51641475 -8.52605629 27.56797409 -11 27.62109375 C-11.77085937 27.6295079 -12.54171875 27.63792206 -13.3359375 27.64659119 C-17.63082309 27.59619558 -17.63082309 27.59619558 -21 30 C-21.33333333 33 -21.33333333 33 -21 36 C-18.13479194 38.86520806 -16.09365285 38.26997551 -12.0859375 38.30859375 C-10.67056926 38.33377982 -9.25520477 38.35917741 -7.83984375 38.38476562 C-5.61508395 38.41335083 -3.39039034 38.43736905 -1.16552734 38.45629883 C18.39046774 38.65513632 18.39046774 38.65513632 26.453125 46.14453125 C30.5791278 51.09365077 32.39442054 56.71566617 32 63.125 C31.03980362 69.01543551 29.53973435 73.89197456 24.83984375 77.79296875 C19.79281588 81.24792604 16.00961799 83.14298205 9.8125 83.0625 C8.46091797 83.04896484 8.46091797 83.04896484 7.08203125 83.03515625 C6.39496094 83.02355469 5.70789063 83.01195313 5 83 C4.896875 84.093125 4.79375 85.18625 4.6875 86.3125 C4 90 4 90 2.875 91.875 C-0.11945572 93.67167343 -2.52938771 93.94016186 -6 94 C-8.9375 92.5 -8.9375 92.5 -11 90 C-11.12890625 86.34375 -11.12890625 86.34375 -11 83 C-12.44632813 83.05220703 -12.44632813 83.05220703 -13.921875 83.10546875 C-15.18515625 83.13253906 -16.4484375 83.15960938 -17.75 83.1875 C-19.00296875 83.22230469 -20.2559375 83.25710937 -21.546875 83.29296875 C-25.17397737 82.98523948 -26.53465451 82.62168448 -29 80 C-29.87281149 76.57109774 -30.32922829 74.10740423 -29.3125 70.6875 C-27.62338543 68.51578127 -26.60577401 67.97419358 -24 67 C-21.07122063 66.76312944 -18.22838814 66.62771428 -15.296875 66.5859375 C-14.04019012 66.55688828 -14.04019012 66.55688828 -12.75811768 66.5272522 C-10.08884787 66.46759276 -7.41953461 66.42112587 -4.75 66.375 C-2.93748146 66.33680764 -1.12498082 66.29775518 0.6875 66.2578125 C5.12485415 66.16190248 9.56229325 66.0778212 14 66 C14.85650653 63.19954954 14.85650653 63.19954954 15 60 C13.63886533 57.48290956 13.63886533 57.48290956 11 56 C7.55349027 55.4214583 7.55349027 55.4214583 3.671875 55.53125 C2.9640387 55.52420044 2.25620239 55.51715088 1.5269165 55.5098877 C-1.48794643 55.48052296 -4.50215631 55.49693969 -7.51708984 55.50927734 C-24.75275967 55.52802399 -24.75275967 55.52802399 -32.0234375 49.25390625 C-32.46945313 48.69574219 -32.91546875 48.13757813 -33.375 47.5625 C-33.83648437 47.00691406 -34.29796875 46.45132813 -34.7734375 45.87890625 C-38.6641338 39.91895427 -38.71020395 33.91325113 -38 27 C-36.28110745 20.81404538 -32.31790255 16.47156216 -27 13 C-23.25663803 11.16550473 -20.33776033 10.77499373 -16.1875 10.875 C-14.72376953 10.90207031 -14.72376953 10.90207031 -13.23046875 10.9296875 C-12.49441406 10.95289063 -11.75835937 10.97609375 -11 11 C-11.103125 9.9275 -11.20625 8.855 -11.3125 7.75 C-11 4 -11 4 -8.875 1.5625 C-5.50620179 -0.26836859 -3.77472994 -0.64250722 0 0 Z " fill="#000000" transform="translate(221,36)"/>
<path d="M0 0 C1.74120117 -0.01475121 1.74120117 -0.01475121 3.51757812 -0.02980042 C4.78214844 -0.02013245 6.04671875 -0.01046448 7.34960938 -0.00050354 C8.70182863 -0.00428872 10.05404401 -0.0097904 11.40625 -0.01687622 C15.07162733 -0.03082254 18.73653481 -0.01966725 22.40188599 -0.00316501 C26.24058386 0.0107002 30.07925486 0.00422374 33.91796875 0.0007019 C40.36400918 -0.00199906 46.80986328 0.01146552 53.25585938 0.03465271 C60.70462986 0.06126184 68.15308884 0.06300918 75.60189056 0.05126435 C82.77215046 0.040479 89.94229786 0.04667955 97.11254883 0.06081963 C100.16189234 0.06657289 103.21115334 0.06650196 106.26049805 0.06175423 C109.85242995 0.05697609 113.44402149 0.06712032 117.03588867 0.08870888 C118.98028945 0.09691297 120.92473486 0.0904331 122.86914062 0.08351135 C124.02994141 0.09341599 125.19074219 0.10332062 126.38671875 0.11352539 C127.39327515 0.11595529 128.39983154 0.11838518 129.43688965 0.12088871 C132.96216186 0.60727897 135.65991253 1.9677586 138.19335938 4.50120544 C138.78761702 11.75114869 138.78761702 11.75114869 136.52968597 14.60105133 C133.60032442 16.98352577 132.12857003 17.00366553 128.38635254 17.00914001 C127.2002388 17.02041931 126.01412506 17.03169861 124.79206848 17.0433197 C123.49427963 17.03522278 122.19649078 17.02712585 120.859375 17.01878357 C119.47612267 17.02420487 118.09287612 17.03132758 116.7096405 17.0400238 C112.95545229 17.05825958 109.20170376 17.05118889 105.44750786 17.03850746 C101.51890756 17.02838098 97.59034494 17.03777215 93.66174316 17.04405212 C87.06430298 17.05132958 80.4670419 17.04173835 73.86962891 17.02268982 C66.24187508 17.00092075 58.6145489 17.00797206 50.98680544 17.02999544 C44.43805928 17.04814674 37.88944188 17.05070913 31.34067869 17.04024076 C27.42926238 17.03400429 23.51804708 17.03317426 19.60664368 17.04638672 C15.92929883 17.05794084 12.25250538 17.04992831 8.57522011 17.02680969 C6.58170454 17.01899662 4.58814235 17.03088228 2.59465027 17.0433197 C1.40853653 17.03204041 0.22242279 17.02076111 -0.99963379 17.00914001 C-2.03053383 17.00763191 -3.06143387 17.00612381 -4.1235733 17.00457001 C-7.50442329 16.37029592 -8.68754027 15.15347154 -10.80664062 12.50120544 C-11.37304688 10.50120544 -11.37304688 10.50120544 -11.36914062 8.50120544 C-11.39105469 7.84120544 -11.41296875 7.18120544 -11.43554688 6.50120544 C-9.77485175 1.21998863 -4.98642473 0.00103678 0 0 Z " fill="#000000" transform="translate(263.806640625,163.49879455566406)"/>
<path d="M0 0 C1.13418365 -0.00426498 2.26836731 -0.00852997 3.43692017 -0.01292419 C4.67703354 -0.01247101 5.91714691 -0.01201782 7.19483948 -0.0115509 C8.50412415 -0.01490952 9.81340881 -0.01826813 11.16236877 -0.02172852 C14.75120082 -0.03055776 18.34000903 -0.03290616 21.92885089 -0.0335443 C24.17153404 -0.03425533 26.41421113 -0.03639062 28.65689278 -0.03904152 C36.48220835 -0.04829082 44.3075069 -0.05237686 52.13282776 -0.05158997 C59.4253046 -0.05098902 66.7177075 -0.06154511 74.01016563 -0.07733363 C80.27354576 -0.09041058 86.53690173 -0.09577381 92.80029541 -0.09513456 C96.54011228 -0.09487965 100.27986341 -0.097727 104.01966667 -0.10831261 C108.1900882 -0.11979511 112.36034402 -0.11524583 116.53077698 -0.10920715 C118.38791069 -0.11763641 118.38791069 -0.11763641 120.28256226 -0.12623596 C121.41956573 -0.12204147 122.55656921 -0.11784698 123.72802734 -0.11352539 C124.71375953 -0.11407016 125.69949171 -0.11461493 126.71509457 -0.1151762 C129.67869981 0.15676219 131.78578418 0.76900592 134.42750549 2.13371277 C136.90789456 5.85429637 136.89087752 7.73167847 136.42750549 12.13371277 C134.34952837 14.87545486 133.15827669 15.99661434 129.74443817 16.63707733 C128.71353813 16.63858543 127.68263809 16.64009354 126.62049866 16.64164734 C125.43438492 16.65292664 124.24827118 16.66420593 123.0262146 16.67582703 C121.72842575 16.6677301 120.4306369 16.65963318 119.09352112 16.65129089 C117.71026879 16.65671219 116.32702224 16.6638349 114.94378662 16.67253113 C111.18959841 16.6907669 107.43584988 16.68369621 103.68165398 16.67101479 C99.75305368 16.6608883 95.82449105 16.67027948 91.89588928 16.67655945 C85.2984491 16.6838369 78.70118802 16.67424568 72.10377502 16.65519714 C64.4760212 16.63342808 56.84869502 16.64047939 49.22095156 16.66250277 C42.6722054 16.68065407 36.12358799 16.68321645 29.57482481 16.67274809 C25.66340849 16.66651162 21.7521932 16.66568158 17.84078979 16.67889404 C14.16344495 16.69044816 10.4866515 16.68243564 6.80936623 16.65931702 C4.81585066 16.65150395 2.82228846 16.6633896 0.82879639 16.67582703 C-0.35731735 16.66454773 -1.54343109 16.65326843 -2.76548767 16.64164734 C-3.79638771 16.64013924 -4.82728775 16.63863113 -5.88942719 16.63707733 C-9.27067171 16.00272923 -10.45752597 14.79056721 -12.57249451 12.13371277 C-13.28131754 9.22586396 -12.9122124 7.19117377 -12.57249451 4.13371277 C-11.15452318 1.93585721 -10.27357472 1.35586856 -7.81140041 0.57566357 C-5.16236046 0.052754 -2.7014019 0.00459441 0 0 Z " fill="#000000" transform="translate(265.57249450683594,229.8662872314453)"/>
<path d="M0 0 C0.77254623 -0.0049649 1.54509247 -0.00992981 2.34104919 -0.01504517 C4.90340051 -0.02968064 7.46568988 -0.0364715 10.02807617 -0.04199219 C11.80685936 -0.04774304 13.58564252 -0.05350078 15.36442566 -0.05926514 C19.09777109 -0.06977944 22.83109496 -0.07561911 26.56445312 -0.07910156 C31.34622629 -0.0845835 36.1277143 -0.10860323 40.90939808 -0.13707352 C44.58543222 -0.15570714 48.26139783 -0.16090591 51.9374752 -0.16243744 C53.70011642 -0.16546348 55.46275644 -0.17349038 57.22535133 -0.18662262 C59.69342273 -0.20369645 62.16079959 -0.20179965 64.62890625 -0.1953125 C65.35584686 -0.20452728 66.08278748 -0.21374207 66.83175659 -0.22323608 C71.2248713 -0.1871035 74.01529932 0.45647528 77.50854492 3.16113281 C79.05441368 6.25287033 78.80214014 8.75542834 78.50854492 12.16113281 C76.99536133 14.35534668 76.99536133 14.35534668 74.50854492 16.16113281 C71.67792087 16.5557926 69.23624038 16.70866437 66.40698242 16.67871094 C65.18679413 16.68922485 65.18679413 16.68922485 63.94195557 16.69995117 C61.2554705 16.7175434 58.57004053 16.70590445 55.88354492 16.69238281 C54.01554156 16.69507738 52.14753957 16.69895951 50.27954102 16.70397949 C46.36550537 16.70987619 42.45183498 16.70130609 38.5378418 16.68261719 C33.52044604 16.65982749 28.50390611 16.67294966 23.48654175 16.69690704 C19.62949168 16.7113604 15.77264456 16.70676117 11.91558838 16.69639587 C10.06561176 16.69372731 8.21561673 16.69700292 6.36566162 16.70631409 C3.77998035 16.71647218 1.19568541 16.70098992 -1.38989258 16.67871094 C-2.53708771 16.69085632 -2.53708771 16.69085632 -3.7074585 16.70324707 C-7.16576242 16.64803567 -9.14258095 16.41676621 -11.96655273 14.34753418 C-14.20304679 11.1408543 -14.03614604 8.97396957 -13.49145508 5.16113281 C-9.50369194 0.10996617 -6.08822563 0.00928466 0 0 Z " fill="#000000" transform="translate(323.491455078125,196.8388671875)"/>
<path d="M0 0 C1.57328979 3.14657957 1.94884691 5.64782374 1 9 C-0.65625 11.19140625 -0.65625 11.19140625 -2.875 13.5625 C-3.69274902 14.44035156 -4.51049805 15.31820313 -5.35302734 16.22265625 C-6.22652832 17.13917969 -7.1000293 18.05570312 -8 19 C-9.28511475 20.35931641 -9.28511475 20.35931641 -10.59619141 21.74609375 C-13.24795131 24.52239333 -15.93170693 27.26401784 -18.625 30 C-19.97851562 31.40958984 -19.97851562 31.40958984 -21.359375 32.84765625 C-30.05203045 41.65435528 -30.05203045 41.65435528 -36 42 C-40.58818163 40.10864396 -43.67265996 37.69400078 -47.14453125 34.18359375 C-48.06814453 33.25482422 -48.99175781 32.32605469 -49.94335938 31.36914062 C-50.41410889 30.88807861 -50.8848584 30.4070166 -51.36987305 29.91137695 C-52.81884329 28.4310193 -54.27843115 26.9618175 -55.74023438 25.49414062 C-63.90859751 17.23393363 -63.90859751 17.23393363 -64.25 12.625 C-64 9 -64 9 -62.875 6.625 C-60.25065402 4.35056682 -58.45152438 4.06903049 -55 4 C-50.00269738 6.33730733 -46.4812074 10.29221032 -42.6875 14.1875 C-42.04232422 14.84169922 -41.39714844 15.49589844 -40.73242188 16.16992188 C-39.15029484 17.77548783 -37.5730487 19.3855469 -36 21 C-32.25397085 19.44867406 -29.95511767 17.14426386 -27.15625 14.24609375 C-26.23972656 13.30958984 -25.32320313 12.37308594 -24.37890625 11.40820312 C-22.93476006 9.92051113 -21.49318382 8.43042946 -20.05419922 6.93774414 C-18.65726581 5.49250111 -17.25062531 4.05666061 -15.84375 2.62109375 C-15.01037109 1.7592749 -14.17699219 0.89745605 -13.31835938 0.00952148 C-8.41925074 -4.23695737 -5.56647987 -2.8357539 0 0 Z " fill="#000000" transform="translate(359,309)"/>
<path d="M0 0 C1.24101974 -0.00855011 1.24101974 -0.00855011 2.5071106 -0.01727295 C4.25716882 -0.02671523 6.00724477 -0.03325387 7.75732422 -0.03710938 C10.42837681 -0.04681347 13.09865925 -0.07784285 15.76953125 -0.109375 C17.47134961 -0.11590558 19.17317346 -0.12115584 20.875 -0.125 C21.67098602 -0.1373468 22.46697205 -0.1496936 23.28707886 -0.16241455 C27.87072636 -0.14409103 30.84069066 0.23927074 34.5703125 3.203125 C36.11618126 6.29486252 35.86390771 8.79742052 35.5703125 12.203125 C34.140625 14.39648438 34.140625 14.39648438 31.5703125 16.203125 C28.42536987 16.79841071 25.32593214 16.76357239 22.1328125 16.734375 C21.2157251 16.7382019 20.2986377 16.74202881 19.35375977 16.74597168 C17.41714377 16.74869049 15.48049103 16.74133146 13.54394531 16.72460938 C10.58054697 16.70319894 7.61957299 16.72441169 4.65625 16.75 C2.77343215 16.74735672 0.89061581 16.74223173 -0.9921875 16.734375 C-1.87769287 16.74247192 -2.76319824 16.75056885 -3.67553711 16.75891113 C-9.80897841 16.66547362 -9.80897841 16.66547362 -12.98852539 14.29711914 C-15.43288018 10.74549606 -14.90070958 8.44232375 -14.4296875 4.203125 C-11.07462548 -0.74958561 -5.39548238 0.02866144 0 0 Z " fill="#000000" transform="translate(267.4296875,196.796875)"/>
<path d="M0 0 C3.25 1.5 3.25 1.5 5 4 C5.62579274 6.80171429 5.78494003 9.22834967 5 12 C2.75263265 15.1079446 1.53670783 15.90724358 -2.27734375 16.56640625 C-12.04440509 16.55598249 -12.04440509 16.55598249 -16.4375 14 C-18.24057871 10.53808888 -18.33958208 8.65395467 -17.8828125 4.8671875 C-14.73969723 -1.78064036 -6.1140036 -0.7346938 0 0 Z " fill="#000000" transform="translate(397,131)"/>
</svg>
