<svg xmlns="http://www.w3.org/2000/svg" width="512" height="512"><path d="m287 55 3.426 1.063c25.764 9.06 46.517 27.647 58.695 52.062C355.795 122.36 359 137.316 359 153h56c2.25 9 2.25 9 2.933 13.065l.477 2.807.5 3.012c.182 1.074.364 2.148.55 3.255q.908 5.382 1.806 10.766l1.301 7.733q1.949 11.587 3.887 23.176.914 5.468 1.832 10.937a72552 72552 0 0 1 7.664 45.822l.395 2.366q3.17 18.969 6.363 37.933 3.281 19.507 6.536 39.017c1.217 7.294 2.437 14.587 3.669 21.878a6859 6859 0 0 1 3.442 20.593q.627 3.767 1.267 7.532c5.922 34.86 5.922 34.86-.786 46.577-4.464 6.155-10.481 9.69-17.836 11.531-4.927.442-9.847.41-14.79.388q-2.263.006-4.528.016c-4.136.014-8.271.01-12.407.003-4.465-.005-8.93.008-13.395.018-8.742.017-17.485.018-26.228.013q-10.66-.006-21.32.002l-3.066.003-6.167.004c-19.274.014-38.547.009-57.82-.003-17.627-.01-35.254.003-52.881.027q-27.159.037-54.316.027c-10.163-.003-20.325 0-30.488.017q-12.976.022-25.953-.002c-4.413-.009-8.825-.011-13.237.004q-6.065.02-12.128-.01-2.19-.005-4.377.01c-10.108.067-17.714-1.093-26.211-6.704-7.017-7.343-9.157-15.005-8.974-24.955.452-10.52 2.64-20.954 4.401-31.314q.665-3.99 1.325-7.977 1.606-9.66 3.238-19.313c1.265-7.5 2.517-15.001 3.768-22.503a30151 30151 0 0 1 6.725-40.13q3.275-19.466 6.527-38.938l.406-2.428 1.614-9.664a75267 75267 0 0 1 8.094-48.361q1.97-11.782 3.952-23.562.82-4.87 1.635-9.74.883-5.27 1.772-10.538l.522-3.135.481-2.834.413-2.459C96 155 96 155 97 153h56v-9c.347-2.813.734-5.535 1.25-8.312l.413-2.239C158.026 116.057 165.71 100.603 177 87l2.113-2.61C204.937 53.989 249.405 43.287 287 55m-81.617 52.973C194.074 121.745 189.488 135.145 188 153h136c-1.674-20.084-6.919-33.635-21-48l-2.016-2.125C288.956 91.122 272.53 85.818 256 85.625c-19.196.224-37.786 7.774-50.617 22.348M127 188c-1.654 5.7-1.654 5.7-2.84 11.414l-.413 2.443-.43 2.62-.476 2.833q-.783 4.683-1.556 9.367l-1.124 6.727q-1.523 9.123-3.037 18.247-1.586 9.543-3.18 19.086a66541 66541 0 0 0-5.33 32.038 57552 57552 0 0 1-5.489 32.971q-3.314 19.872-6.62 39.744-1.263 7.592-2.529 15.182-1.488 8.928-2.97 17.857-.544 3.284-1.093 6.566-.744 4.467-1.484 8.936l-.444 2.647C87.468 419.818 87 422.81 87 426h338c-2.232-15.882-2.232-15.882-4.72-31.719l-.452-2.725a7570 7570 0 0 0-1.457-8.752q-.532-3.195-1.06-6.389-1.424-8.565-2.852-17.128l-2.386-14.333a91665 91665 0 0 0-5.625-33.768q-2.905-17.423-5.8-34.85a54282 54282 0 0 0-4.99-29.985q-1.492-8.942-2.977-17.885-1.39-8.378-2.792-16.754a4483 4483 0 0 1-1.025-6.162q-.694-4.186-1.397-8.37l-.41-2.495c-.34-3.648-.34-3.648-2.057-6.685a115 115 0 0 0-5.785-.098l-3.192.008-4.086.028L359 188v34h-35v-34H188v34h-35v-34z"/><path d="M237 221c7.426 6.296 7.426 6.296 10.309 9.21l1.572 1.583 1.556 1.582 1.64 1.652Q254.04 237.01 256 239c-1.426 3.259-3.167 5.402-5.695 7.89l-2.168 2.15-2.262 2.21-2.285 2.258A1634 1634 0 0 1 238 259l2.342.018q11.01.087 22.018.218 5.658.068 11.316.11 5.475.041 10.95.117 2.074.025 4.147.035c20.9.105 37.035 6.117 52.336 20.482 13.01 13.439 18.345 31.435 18.164 49.813-.82 17.334-8.183 32.815-20.273 45.207-15.509 13.769-32.679 18.51-53.062 18.34q-2.19 0-4.38.002c-3.92 0-7.841-.017-11.762-.038-4.113-.019-8.226-.02-12.34-.024-7.77-.01-15.539-.034-23.309-.064-8.854-.034-17.707-.05-26.561-.065-18.196-.031-36.39-.086-54.586-.151v-27l13.32-.028c14.536-.034 29.073-.09 43.61-.156 8.811-.04 17.623-.072 26.435-.087q11.526-.019 23.052-.084c4.066-.022 8.13-.038 12.196-.037q5.751 0 11.502-.05 2.1-.012 4.2-.004c11.328.04 20.472-1.813 29.685-8.554l2.25-1c2.295-1.312 2.607-2.628 3.75-5a612 612 0 0 1 4.563-7.27c4.468-8.488 4.803-18.567 2.75-27.832-3.833-11.337-9.99-18.804-20.313-24.898-6.684-3.018-13.6-4.13-20.914-4.114h-3.456l-3.685.016-3.808.005q-4.986.007-9.972.024-5.099.014-10.196.02-9.985.017-19.969.049l1.668 1.589c2.478 2.374 4.936 4.767 7.394 7.161l2.627 2.5 2.471 2.422 2.301 2.222C256 305 256 305 255.84 307.15c-1.098 2.421-2.535 3.884-4.437 5.74l-2.177 2.15-2.287 2.21-2.3 2.258A1104 1104 0 0 1 239 325c-3.235-1.423-5.4-3.147-7.895-5.636l-2.275-2.256-2.428-2.44-2.517-2.511q-2.632-2.63-5.257-5.269a2598 2598 0 0 0-8.052-8.038l-5.111-5.12-2.434-2.421-2.266-2.285-1.989-1.994c-4.628-5.29-5.928-10.107-5.776-17.03 2.612-9.467 11.338-16.486 18.121-23.219l2.257-2.252q3.526-3.518 7.06-7.029l4.818-4.805Q231.124 226.845 237 221"/></svg>