<svg xmlns="http://www.w3.org/2000/svg" width="1080" height="1350" version="1.0" viewBox="0 0 810 1012.5"><defs><clipPath id="a"><path d="M45 969h153v24.945H45Zm0 0"/></clipPath><clipPath id="b"><path d="M613 969h153v24.945H613Zm0 0"/></clipPath><clipPath id="c"><path d="M234 969h153v24.945H234Zm0 0"/></clipPath><clipPath id="d"><path d="M423 969h153v24.945H423Zm0 0"/></clipPath><clipPath id="e"><path d="M620 380.75h163V534H620Zm0 0"/></clipPath></defs><g clip-path="url(#a)"><path fill="#ffb733" d="M45.254 969.164h151.934v25.07H45.254Zm0 0"/></g><path fill="#ffd55c" d="M45.254 967.383h151.934v22.449H45.254Zm0 0"/><path fill="#ffb733" d="M45.254 942.309h151.934v25.074H45.254Zm0 0"/><path fill="#ffd55c" d="M45.254 940.492h151.934v22.469H45.254Zm0 0"/><g clip-path="url(#b)"><path fill="#ffb733" d="M613.25 969.164h151.922v25.07H613.25Zm0 0"/></g><path fill="#ffd55c" d="M613.25 967.383h151.922v22.449H613.25Zm0 0"/><path fill="#ffb733" d="M613.25 942.309h151.922v25.074H613.25Zm0 0"/><path fill="#ffd55c" d="M613.25 940.492h151.922v22.469H613.25Zm0 0"/><path fill="#ffb733" d="M613.25 915.422h151.922v25.066H613.25Zm0 0"/><path fill="#ffd55c" d="M613.25 913.629h151.922v22.457H613.25Zm0 0"/><path fill="#ffb733" d="M613.25 888.566h151.922v25.063H613.25Zm0 0"/><path fill="#ffd55c" d="M613.25 886.75h151.922v22.465H613.25Zm0 0"/><path fill="#ffb733" d="M613.25 861.68h151.922v25.07H613.25Zm0 0"/><path fill="#ffd55c" d="M613.25 859.883h151.922v22.465H613.25Zm0 0"/><path fill="#ffb733" d="M613.25 834.813h151.922v25.066H613.25Zm0 0"/><path fill="#ffd55c" d="M613.25 833.004h151.922v22.465H613.25Zm0 0"/><path fill="#ffb733" d="M613.25 807.934h151.922v25.07H613.25Zm0 0"/><path fill="#ffd55c" d="M613.25 806.133h151.922v22.46H613.25Zm0 0"/><path fill="#ffb733" d="M613.25 781.07h151.922v25.063H613.25Zm0 0"/><path fill="#ffd55c" d="M613.25 779.266h151.922v22.464H613.25Zm0 0"/><path fill="#ffb733" d="M613.25 754.18h151.922v25.082H613.25Zm0 0"/><path fill="#ffd55c" d="M613.25 752.39h151.922v22.458H613.25Zm0 0"/><path fill="#ffb733" d="M613.25 727.32h151.922v25.07H613.25Zm0 0"/><path fill="#ffd55c" d="M613.25 725.52h151.922v22.457H613.25Zm0 0"/><path fill="#ffb733" d="M613.25 700.43h151.922v25.082H613.25Zm0 0"/><path fill="#ffd55c" d="M613.25 698.648h151.922v22.45H613.25Zm0 0"/><path fill="#ffb733" d="M613.25 673.574h151.922v25.07H613.25Zm0 0"/><path fill="#ffd55c" d="M613.25 671.762h151.922v22.476H613.25Zm0 0"/><path fill="#ffb733" d="M613.25 646.684h151.922v25.078H613.25Zm0 0"/><path fill="#ffd55c" d="M613.25 644.902h151.922v22.45H613.25Zm0 0"/><path fill="#ffb733" d="M613.25 619.832h151.922v25.07H613.25Zm0 0"/><path fill="#ffd55c" d="M613.25 618.023h151.922v22.461H613.25Zm0 0"/><g clip-path="url(#c)"><path fill="#ffb733" d="M234.586 969.164h151.941v25.07H234.586Zm0 0"/></g><path fill="#ffd55c" d="M234.586 967.383h151.941v22.449H234.586Zm0 0"/><path fill="#ffb733" d="M234.586 942.309h151.941v25.074H234.586Zm0 0"/><path fill="#ffd55c" d="M234.586 940.492h151.941v22.469H234.586Zm0 0"/><path fill="#ffb733" d="M234.586 915.434h151.941V940.5H234.586Zm0 0"/><path fill="#ffd55c" d="M234.586 913.629h151.941v22.473H234.586Zm0 0"/><path fill="#ffb733" d="M234.586 888.566h151.941v25.063H234.586Zm0 0"/><path fill="#ffd55c" d="M234.586 886.766h151.941v22.464H234.586Zm0 0"/><path fill="#ffb733" d="M234.586 861.695h151.941v25.07H234.586Zm0 0"/><path fill="#ffd55c" d="M234.586 859.895h151.941v22.464H234.586Zm0 0"/><path fill="#ffb733" d="M234.586 834.836h151.941v25.062H234.586Zm0 0"/><path fill="#ffd55c" d="M234.586 833.023h151.941v22.465H234.586Zm0 0"/><g clip-path="url(#d)"><path fill="#ffb733" d="M423.922 969.164h151.93v25.07h-151.93Zm0 0"/></g><path fill="#ffd55c" d="M423.922 967.383h151.93v22.449h-151.93Zm0 0"/><path fill="#ffb733" d="M423.922 942.309h151.93v25.074h-151.93Zm0 0"/><path fill="#ffd55c" d="M423.922 940.492h151.93v22.469h-151.93Zm0 0"/><path fill="#ffb733" d="M423.922 915.434h151.93V940.5h-151.93Zm0 0"/><path fill="#ffd55c" d="M423.922 913.629h151.93v22.473h-151.93Zm0 0"/><path fill="#ffb733" d="M423.922 888.566h151.93v25.063h-151.93Zm0 0"/><path fill="#ffd55c" d="M423.922 886.766h151.93v22.464h-151.93Zm0 0"/><path fill="#ffb733" d="M423.922 861.695h151.93v25.07h-151.93Zm0 0"/><path fill="#ffd55c" d="M423.922 859.895h151.93v22.464h-151.93Zm0 0"/><path fill="#ffb733" d="M423.922 834.836h151.93v25.062h-151.93Zm0 0"/><path fill="#ffd55c" d="M423.922 833.023h151.93v22.465h-151.93Zm0 0"/><path fill="#ffb733" d="M423.922 807.95h151.93v25.073h-151.93Zm0 0"/><path fill="#ffd55c" d="M423.922 806.168h151.93v22.465h-151.93Zm0 0"/><path fill="#ffb733" d="M423.922 781.086h151.93v25.066h-151.93Zm0 0"/><path fill="#ffd55c" d="M423.922 779.293h151.93v22.45h-151.93Zm0 0"/><path fill="#ffb733" d="M423.922 754.223h151.93v25.07h-151.93Zm0 0"/><path fill="#ffd55c" d="M423.922 752.434h151.93v22.445h-151.93Zm0 0"/><path fill="#ffb733" d="M423.922 727.352h151.93v25.082h-151.93Zm0 0"/><path fill="#ffd55c" d="M423.922 725.563h151.93v22.453h-151.93Zm0 0"/><path fill="#1c3379" d="M45.238 855.344c-8.488 0-15.781-6.063-17.34-14.43-1.77-9.578 4.579-18.8 14.133-20.582 149.864-27.828 312.219-100.973 457.176-205.977 92.379-66.906 173.18-142.687 240.133-225.265a17.6 17.6 0 0 1 13.715-6.531 17.68 17.68 0 0 1 11.113 3.953 17.48 17.48 0 0 1 6.43 11.875 17.48 17.48 0 0 1-3.844 12.953C697.848 496.3 614.8 574.23 519.918 642.95 370.801 750.956 203.378 826.292 48.48 855.058a19.5 19.5 0 0 1-3.242.285m0 0"/><g clip-path="url(#e)"><path fill="#1c3379" d="M765.074 533.184c-9.058 0-16.59-6.809-17.539-15.817l-10.21-97.762-97.755 10.2c-.617.07-1.242.093-1.86.093a17.59 17.59 0 0 1-17.534-15.808c-.504-4.692.875-9.293 3.844-12.961a17.5 17.5 0 0 1 11.894-6.43l132.852-13.887 13.89 132.883c1 9.684-6.054 18.383-15.722 19.395-.63.062-1.262.094-1.86.094m0 0"/></g></svg>