<?xml version="1.0" encoding="UTF-8"?>
<svg version="1.1" xmlns="http://www.w3.org/2000/svg" width="512" height="512">
<path d="M0 0 C1.07022717 -0.00467997 2.14045433 -0.00935994 3.24311262 -0.01418173 C6.82354308 -0.02613239 10.40359085 -0.01667388 13.98402405 -0.00723267 C16.55332665 -0.01129834 19.12262751 -0.0166402 21.69192505 -0.02316284 C27.94283373 -0.03648859 34.19363422 -0.0336275 40.44454711 -0.02492492 C45.52631925 -0.0181436 50.60806113 -0.01723359 55.6898365 -0.02049637 C56.41372293 -0.02095607 57.13760937 -0.02141577 57.88343175 -0.0218894 C59.35410917 -0.0228486 60.82478658 -0.02382124 62.29546399 -0.02480717 C76.07987595 -0.03335783 89.86422801 -0.02353235 103.64863015 -0.00740607 C115.46846593 0.00599399 127.2882133 0.00367098 139.10804749 -0.01016235 C152.8423359 -0.0262288 166.57657182 -0.0325309 180.31086832 -0.02332556 C181.77637358 -0.02236994 183.24187884 -0.02142683 184.70738411 -0.02049637 C185.78889353 -0.01980213 185.78889353 -0.01980213 186.89225162 -0.01909386 C191.96561486 -0.01650696 197.03894472 -0.02086857 202.11230278 -0.02793503 C208.94544123 -0.03724359 215.77841017 -0.03058475 222.61153221 -0.01325226 C225.11892673 -0.00928664 227.62633529 -0.01042273 230.13372421 -0.01704025 C233.55735642 -0.02524258 236.98045451 -0.01494918 240.40405273 0 C241.39540362 -0.00669217 242.3867545 -0.01338433 243.40814632 -0.02027929 C250.16923715 0.03694875 255.86037577 0.89188222 261.47254944 4.99423218 C269.05269782 13.01701696 270.43430994 20.33285027 270.36317444 31.06063843 C270.36105202 32.27978439 270.36105202 32.27978439 270.35888672 33.52355957 C270.35332153 36.10106194 270.34077559 38.67847513 270.32801819 41.25595093 C270.32299868 43.011158 270.31843657 44.76636644 270.31434631 46.52157593 C270.30336352 50.80806824 270.2861231 55.0944945 270.26551819 59.38095093 C271.19855774 58.84043091 272.13159729 58.29991089 273.09291077 57.74301147 C274.344382 57.02193405 275.59593248 56.30099413 276.84754944 55.58016968 C277.45924988 55.22531494 278.07095032 54.87046021 278.70118713 54.50485229 C305.16230533 39.29560608 339.21300934 34.19513616 368.88270569 42.05673218 C402.49551795 51.92812467 429.56860502 71.80147339 446.83192444 102.58163452 C462.6591575 131.65699294 465.42635593 165.62278242 456.56654358 197.34750366 C450.88958834 216.17570655 440.82550248 232.2444367 427.26551819 246.38095093 C426.50754944 247.20208374 425.74958069 248.02321655 424.96864319 248.86923218 C405.13767649 269.70470863 375.95493633 282.63268952 347.29286194 283.69735718 C330.13110864 284.07870519 313.68277147 283.29115538 297.61244202 276.86264038 C291.345172 275.57632771 285.13379747 278.29924281 279.32801819 280.44345093 C278.54877991 280.72511108 277.76954163 281.00677124 276.96669006 281.29696655 C275.06411694 281.98562799 273.16450093 282.68244996 271.26551819 283.38095093 C271.26193566 284.80639803 271.26193566 284.80639803 271.25828075 286.26064205 C271.19945371 309.39676981 271.123551 332.5327937 271.02980328 355.66880703 C270.98486156 366.85726924 270.94544309 378.04569973 270.91908264 389.23422241 C270.89608948 398.98754996 270.8626766 408.740777 270.81681663 418.49402481 C270.79290231 423.65701124 270.77416175 428.81989824 270.76790428 433.98293877 C270.76184539 438.84617981 270.74181627 443.70916651 270.71124268 448.57231331 C270.70247538 450.3536159 270.69873715 452.13495174 270.70051003 453.91627502 C270.71521901 475.52184725 270.71521901 475.52184725 263.26551819 484.38095093 C257.95910345 488.41820255 253.41276967 490.49816327 246.7095089 490.51796532 C245.33783863 490.52557713 245.33783863 490.52557713 243.93845785 490.53334272 C242.43702401 490.53408935 242.43702401 490.53408935 240.90525818 490.53485107 C239.83900542 490.53923333 238.77275266 490.54361558 237.67418921 490.54813063 C234.08923329 490.56152128 230.50430196 490.56769812 226.91932678 490.57382202 C224.35371286 490.58172276 221.78810004 490.5899917 219.2224884 490.59860229 C211.51473979 490.622561 203.80699239 490.63775032 196.09921831 490.65066236 C193.9213826 490.65437576 191.74354753 490.65834887 189.56571245 490.66241503 C176.03496149 490.68765277 162.50420947 490.70970083 148.97344017 490.72214317 C145.84049348 490.72507276 142.70754683 490.72803444 139.57460022 490.73104858 C138.79594426 490.73179463 138.0172883 490.73254069 137.21503671 490.73330934 C124.60578451 490.74595868 111.99667346 490.77917734 99.38748722 490.82085042 C86.43510923 490.86330603 73.48280343 490.88684237 60.53035605 490.89206374 C53.2607708 490.89547372 45.99140614 490.90717998 38.7218895 490.94016647 C31.88134909 490.97115602 25.04119865 490.9765635 18.20059967 490.96478271 C15.69241784 490.96456187 13.18421824 490.97287587 10.67609787 490.99043655 C7.24616386 491.01314066 3.81762192 491.00482562 0.38768005 490.98895264 C-0.59989151 491.00283472 -1.58746307 491.01671681 -2.60496104 491.03101957 C-10.09788396 490.94585098 -16.60170092 488.97026991 -22.35485423 483.97365797 C-27.56226939 478.17090965 -29.18676348 472.03855386 -29.11759186 464.45726299 C-29.12255137 463.68566039 -29.12751089 462.9140578 -29.13262069 462.1190733 C-29.14556358 459.53616866 -29.13719637 456.95378209 -29.12889099 454.37086487 C-29.13378052 452.49928732 -29.13997061 450.62771279 -29.14734888 448.75614339 C-29.16376375 443.61490512 -29.16142729 438.47382004 -29.15597391 433.33256471 C-29.15330563 427.78709488 -29.16783176 422.24166605 -29.18006897 416.69621277 C-29.20113382 405.83249113 -29.20566321 394.96882284 -29.20388108 384.10508319 C-29.20257396 375.27523698 -29.20637507 366.44540742 -29.21380615 357.61556435 C-29.21590533 355.07306729 -29.21800293 352.53057023 -29.22009897 349.98807317 C-29.2211425 348.72263546 -29.22218603 347.45719776 -29.22326118 346.15341345 C-29.23679633 329.01607661 -29.24438686 311.87874596 -29.23993683 294.74140453 C-29.23976487 294.07130027 -29.23959292 293.40119601 -29.23941575 292.71078556 C-29.23852687 289.31448759 -29.23758206 285.91818963 -29.23661774 282.52189168 C-29.23642671 281.84738542 -29.23623568 281.17287916 -29.23603886 280.47793332 C-29.23565176 279.1139177 -29.23526144 277.74990208 -29.23486788 276.38588645 C-29.22889849 255.16406326 -29.2443337 233.94234914 -29.276474 212.72055054 C-29.31256034 188.87305776 -29.33183858 165.0256336 -29.32693529 141.17810518 C-29.32468987 128.55310809 -29.32994448 115.92821912 -29.35482788 103.30324364 C-29.37583203 92.55487128 -29.3794417 81.80666631 -29.36052829 71.05828711 C-29.35136502 65.57449092 -29.35024585 60.0910069 -29.37088394 54.60723495 C-29.38957462 49.58536334 -29.3851115 44.56406 -29.36233813 39.54221014 C-29.35814759 37.72731321 -29.36236761 35.91237287 -29.37593406 34.0975218 C-29.44663271 23.94704454 -29.42358942 14.81690623 -22.32724142 6.78897256 C-15.56840836 0.59302874 -8.70860999 -0.05865593 0 0 Z M-15.73448181 13.38095093 C-22.32308273 22.06200188 -22.32308273 22.06200188 -19.73448181 47.38095093 C72.99551819 47.38095093 165.72551819 47.38095093 261.26551819 47.38095093 C263.65051342 22.62461311 263.65051342 22.62461311 256.26551819 12.38095093 C251.82424407 8.31501372 246.49942914 8.95888605 240.79605103 8.99327087 C239.73020513 8.98788534 238.66435923 8.9824998 237.56621498 8.97695106 C233.98873368 8.96262436 230.41161994 8.96978701 226.8341217 8.97689819 C224.27172039 8.97119712 221.70932162 8.96423388 219.14692688 8.95610046 C212.90576734 8.93999289 206.66474391 8.93807427 200.42356987 8.94331337 C195.35078929 8.94735463 190.27803847 8.94591204 185.20525932 8.94056511 C184.48329983 8.93981669 183.76134033 8.93906827 183.01750327 8.93829716 C181.55084832 8.93676569 180.08419338 8.93522734 178.61753844 8.9336822 C164.86324403 8.91995394 151.10900649 8.92539713 137.35471337 8.93686741 C124.77193432 8.94680026 112.1893023 8.93385885 99.60654593 8.90993322 C86.68578156 8.88555002 73.7650857 8.87593241 60.84429878 8.88258594 C53.59055839 8.88607989 46.33693109 8.88383457 39.08320808 8.86633492 C32.26319058 8.85008565 25.4434991 8.85478237 18.62347412 8.87364006 C16.11846407 8.87733565 13.61343334 8.87418942 11.10844231 8.86375427 C7.69262408 8.85060974 4.27774631 8.86203501 0.86196899 8.87974548 C-0.63000579 8.86533797 -0.63000579 8.86533797 -2.15212148 8.8506394 C-7.8345544 8.91138808 -11.34723384 9.40746282 -15.73448181 13.38095093 Z M251.87294006 87.51913452 C231.50840637 111.1066093 223.29957863 141.75218248 225.26551819 172.38095093 C227.03730186 191.06279032 233.72857974 209.50537938 244.32801819 225.00595093 C246.62658032 229.00989786 246.43768293 230.03576348 245.26551819 234.38095093 C242.95875635 238.30597681 240.0757496 241.80342084 237.26551819 245.38095093 C236.59262756 246.26009155 235.91973694 247.13923218 235.22645569 248.04501343 C228.09168171 257.10377141 219.9340989 265.96746613 210.83973694 273.10751343 C209.99024475 273.8577478 209.14075256 274.60798218 208.26551819 275.38095093 C208.26551819 276.37095093 208.26551819 277.36095093 208.26551819 278.38095093 C233.94417658 283.17378823 264.62570229 279.58494216 287.83583069 267.20126343 C293.14268318 265.40956082 298.38214504 268.02186996 303.45301819 269.75595093 C333.31430398 279.44097647 364.18950105 276.22714349 392.22938538 262.43222046 C417.51156506 249.37885527 438.32719648 224.96676635 447.0750885 197.87362671 C456.33130554 166.45120569 453.86183083 135.78634227 438.95301819 106.69345093 C423.68613171 79.36672633 399.28354948 59.96267807 369.26551819 51.38095093 C325.28909458 40.0536903 282.25384181 54.337219 251.87294006 87.51913452 Z M-19.73448181 56.38095093 C-19.73448181 172.21095093 -19.73448181 288.04095093 -19.73448181 407.38095093 C72.99551819 407.38095093 165.72551819 407.38095093 261.26551819 407.38095093 C261.26551819 367.12095093 261.26551819 326.86095093 261.26551819 285.38095093 C252.35551819 286.04095093 243.44551819 286.70095093 234.26551819 287.38095093 C229.17398919 287.49735534 224.15859949 287.5861544 219.07801819 287.50595093 C217.91206116 287.49692749 216.74610413 287.48790405 215.54481506 287.47860718 C212.78478164 287.45589085 210.02530011 287.4236771 207.26551819 287.38095093 C207.22793396 288.59210571 207.22793396 288.59210571 207.18959045 289.82772827 C207.07386332 293.4706401 206.95103183 297.11327819 206.82801819 300.75595093 C206.78870178 302.02696655 206.74938538 303.29798218 206.70887756 304.60751343 C206.64603577 306.42509155 206.64603577 306.42509155 206.58192444 308.27938843 C206.52693787 309.96040649 206.52693787 309.96040649 206.47084045 311.67538452 C206.26551819 314.38095093 206.26551819 314.38095093 205.26551819 316.38095093 C199.58721741 316.40559798 193.90894749 316.42378555 188.23060608 316.43588257 C186.29733234 316.44092349 184.36406243 316.44775611 182.43080139 316.45639038 C179.65824947 316.46846657 176.88574778 316.47418149 174.11317444 316.47860718 C172.80848961 316.48634911 172.80848961 316.48634911 171.47744751 316.49424744 C169.40646005 316.49444278 167.33557495 316.4430326 165.26551819 316.38095093 C163.39589101 314.51132375 164.13665516 311.83431532 164.12657166 309.34713745 C164.129608 308.07996887 164.129608 308.07996887 164.13270569 306.78720093 C164.13174896 305.9253418 164.13079224 305.06348267 164.12980652 304.17550659 C164.12912469 302.34961881 164.13097914 300.52372861 164.13514709 298.69784546 C164.14049533 295.89294015 164.1352022 293.08819497 164.12879944 290.28329468 C164.12946022 288.51376307 164.13074138 286.74423157 164.13270569 284.97470093 C164.13068146 284.12992188 164.12865723 283.28514282 164.12657166 282.4147644 C164.15056788 276.49590124 164.15056788 276.49590124 165.26551819 275.38095093 C167.73780553 275.29510894 170.18761707 275.26829702 172.66004944 275.27548218 C174.18805833 275.26202351 175.71605409 275.24699988 177.24403381 275.2305603 C179.66059123 275.20773249 182.07567382 275.19343884 184.49232483 275.2059021 C186.82014973 275.21472052 189.14502931 275.18581637 191.47254944 275.15048218 C192.55243889 275.16882866 192.55243889 275.16882866 193.65414429 275.18754578 C195.97788591 275.19457605 195.97788591 275.19457605 199.26551819 274.38095093 C201.63603351 271.58291706 201.63603351 271.58291706 203.26551819 268.38095093 C204.84608459 266.77279663 204.84608459 266.77279663 206.36708069 265.55673218 C206.93459045 265.09154175 207.50210022 264.62635132 208.08680725 264.14706421 C208.68203186 263.66737183 209.27725647 263.18767944 209.89051819 262.69345093 C218.69998542 255.34003731 226.11945905 247.16950342 233.01551819 238.00595093 C233.47087952 237.42281128 233.92624084 236.83967163 234.395401 236.23886108 C235.81325751 234.37396749 235.81325751 234.37396749 237.26551819 231.38095093 C236.88560009 228.76368905 236.88560009 228.76368905 235.26551819 226.38095093 C234.704776 225.38063843 234.14403381 224.38032593 233.56629944 223.34970093 C232.91016663 222.20501343 232.25403381 221.06032593 231.57801819 219.88095093 C215.67461821 190.73262978 214.89479621 159.23456081 221.26551819 127.38095093 C202.95051819 126.88595093 202.95051819 126.88595093 184.26551819 126.38095093 C183.26551819 121.38095093 183.26551819 121.38095093 183.26551819 119.38095093 C196.79551819 119.05095093 210.32551819 118.72095093 224.26551819 118.38095093 C226.90551819 113.10095093 229.54551819 107.82095093 232.26551819 102.38095093 C239.04352887 89.60700773 249.01491267 75.54802127 261.26551819 67.38095093 C261.26551819 63.75095093 261.26551819 60.12095093 261.26551819 56.38095093 C168.53551819 56.38095093 75.80551819 56.38095093 -19.73448181 56.38095093 Z M172.26551819 282.38095093 C172.26551819 291.29095093 172.26551819 300.20095093 172.26551819 309.38095093 C180.84551819 309.38095093 189.42551819 309.38095093 198.26551819 309.38095093 C198.26551819 300.47095093 198.26551819 291.56095093 198.26551819 282.38095093 C189.68551819 282.38095093 181.10551819 282.38095093 172.26551819 282.38095093 Z M-19.73448181 415.38095093 C-23.47830049 448.12003929 -23.47830049 448.12003929 -15.73448181 477.38095093 C-10.52811012 482.0946992 -5.81790059 481.94879054 0.85523987 481.8888855 C2.45529035 481.89824544 2.45529035 481.89824544 4.08766508 481.90779448 C7.66214822 481.92374973 11.23595186 481.91110969 14.81044006 481.89852905 C17.37298989 481.90394901 19.9355366 481.91107096 22.49807739 481.91976929 C28.73579994 481.93612476 34.97327085 481.93371783 41.21099675 481.92211872 C46.28089866 481.91308183 51.35074663 481.9118615 56.4206543 481.91621399 C57.1424783 481.91682692 57.86430231 481.91743985 58.60799977 481.91807136 C60.0744132 481.91935027 61.5408266 481.92064713 63.00724 481.92196172 C76.75488435 481.93336543 90.50242197 481.92025715 104.25004882 481.89876026 C116.04383294 481.88088944 127.83745957 481.88399361 139.63124084 481.9024353 C153.32998958 481.92384576 167.0286448 481.93226681 180.72740793 481.91998625 C182.1883993 481.91871206 183.64939068 481.91745458 185.11038208 481.91621399 C185.82920066 481.91559689 186.54801924 481.91497979 187.2886202 481.91434398 C192.35190084 481.9108916 197.41512211 481.916717 202.47839355 481.9261322 C209.29433328 481.93852801 216.10992961 481.92969127 222.92585564 481.90655518 C225.4292495 481.90126034 227.93266837 481.90279502 230.43605232 481.91160583 C233.84964018 481.92251364 237.26226992 481.90885388 240.67579651 481.8888855 C241.66976425 481.89780838 242.66373199 481.90673127 243.68781996 481.91592455 C249.34954362 481.85155068 252.93903114 481.40254724 257.26551819 477.38095093 C267.5403734 459.39995431 261.26551819 436.09058368 261.26551819 415.38095093 C168.53551819 415.38095093 75.80551819 415.38095093 -19.73448181 415.38095093 Z " fill="#000000" transform="translate(39.73448181152344,10.619049072265625)"/>
<path d="M0 0 C0.6875 2.3125 0.6875 2.3125 1 5 C0.03125 6.625 0.03125 6.625 -2 8 C-4.79251583 8.37674518 -7.38779201 8.60191941 -10.1875 8.6875 C-10.93708984 8.72166016 -11.68667969 8.75582031 -12.45898438 8.79101562 C-14.30546838 8.87334294 -16.15270994 8.93835281 -18 9 C-18.23137161 9.97639435 -18.46274323 10.9527887 -18.7011261 11.95877075 C-20.88514559 21.1710651 -23.07698325 30.38146869 -25.27644062 39.5900898 C-26.40688621 44.32411189 -27.53459067 49.05875177 -28.65600586 53.79492188 C-29.73882429 58.36763059 -30.82887515 62.93856003 -31.92391014 67.508358 C-32.33991411 69.24999752 -32.75333153 70.99225701 -33.1640873 72.73514175 C-33.740933 75.18076304 -34.32703058 77.6239957 -34.9152832 80.06689453 C-35.08216141 80.78403122 -35.24903961 81.50116791 -35.42097473 82.24003601 C-37.04902773 88.92096204 -38.96826075 94.29870546 -45 98 C-48.8125 98.75 -48.8125 98.75 -52 99 C-51.67 99.66 -51.34 100.32 -51 101 C-50.60432854 105.11498317 -50.73211889 107.47454089 -52.625 111.1875 C-55.59738128 114.7074252 -58.28078465 117.46703379 -62.953125 118.3828125 C-68.05332368 118.67480861 -71.02533396 117.32762738 -75 114 C-78.39056645 110.84326572 -78.54452086 107.43664072 -78.984375 103.0234375 C-79 101 -79 101 -78 99 C-88.23 99 -98.46 99 -109 99 C-109 102.63 -109 106.26 -109 110 C-111.1548104 113.50926265 -112.83738614 115.32690777 -116.375 117.375 C-121.25091148 118.5359313 -125.23796907 118.65957262 -129.75 116.375 C-133.21173078 114.15015729 -134.70283091 111.96781133 -136 108 C-136.21624626 105.27726297 -136.14172121 102.73994332 -136 100 C-137.7015625 99.5359375 -137.7015625 99.5359375 -139.4375 99.0625 C-143 98 -143 98 -144 97 C-144.25 94.5625 -144.25 94.5625 -144 92 C-140.08792313 89.39194876 -136.79831301 89.72991445 -132.26171875 89.76049805 C-131.36877106 89.75848389 -130.47582336 89.75646973 -129.55581665 89.75439453 C-127.61604116 89.75084762 -125.67625411 89.75161785 -123.73648071 89.75617027 C-120.66882949 89.76175273 -117.60155787 89.75262311 -114.53393555 89.7389679 C-105.81199454 89.70178848 -97.09018203 89.6833242 -88.36816406 89.69458008 C-83.03474868 89.70042015 -77.70186731 89.682225 -72.36856079 89.64869118 C-70.33356213 89.64071886 -68.29850556 89.64203882 -66.26351929 89.65271568 C-63.42117918 89.66698857 -60.58052728 89.65082946 -57.73828125 89.62768555 C-56.89351227 89.63945328 -56.04874329 89.65122101 -55.17837524 89.66334534 C-52.57179944 89.67839108 -52.57179944 89.67839108 -49 89 C-46.78264727 86.37119189 -46.08222999 84.24668998 -45 81 C-46.02650665 81.0199855 -47.05301331 81.03997101 -48.11062622 81.06056213 C-57.79165533 81.24312704 -67.47233468 81.37797567 -77.15469551 81.46630955 C-82.13250674 81.51325162 -87.10892695 81.57689975 -92.0859375 81.67895508 C-96.89064022 81.77685885 -101.69400669 81.83058008 -106.49962997 81.85389519 C-108.33142005 81.87050577 -110.16313814 81.90294562 -111.99435806 81.95157051 C-126.31203573 82.31657735 -126.31203573 82.31657735 -130.35490417 79.16322327 C-131.94326214 76.82999716 -132.98566266 74.62753516 -134 72 C-134.67168213 70.89954346 -135.34336426 69.79908691 -136.03540039 68.6652832 C-136.63344482 67.63749756 -137.23148926 66.60971191 -137.84765625 65.55078125 C-138.18167953 64.97898636 -138.51570282 64.40719147 -138.85984802 63.81806946 C-139.93023004 61.98451214 -140.99668554 60.14871557 -142.0625 58.3125 C-143.562671 55.73241342 -145.06412227 53.15307555 -146.56640625 50.57421875 C-146.93943878 49.93335327 -147.31247131 49.29248779 -147.69680786 48.63220215 C-150.07926787 44.54872684 -152.50548139 40.4948741 -154.96484375 36.45703125 C-155.56482178 35.46598389 -156.1647998 34.47493652 -156.78295898 33.45385742 C-157.89676003 31.61884922 -159.01946534 29.78920491 -160.15258789 27.96606445 C-162.99470995 23.26057352 -164.94248989 19.56410282 -165 14 C-163 12 -163 12 -160.64555931 11.75390434 C-159.65186647 11.75574793 -158.65817364 11.75759151 -157.6343689 11.75949097 C-156.49570877 11.75674164 -155.35704865 11.75399231 -154.18388367 11.75115967 C-152.30114494 11.7619455 -152.30114494 11.7619455 -150.38037109 11.77294922 C-149.06334702 11.77265717 -147.74632294 11.77236511 -146.38938904 11.77206421 C-142.77180004 11.77148897 -139.15434292 11.78327076 -135.53678465 11.79721212 C-131.75846743 11.80969114 -127.98014739 11.81088774 -124.20181274 11.81326294 C-117.04428311 11.81948605 -109.88681437 11.83590807 -102.72931159 11.85596192 C-94.58190762 11.87829511 -86.43450079 11.88930785 -78.28707385 11.89935279 C-61.52468022 11.92027361 -44.76234787 11.95546567 -28 12 C-27.87882813 11.30132812 -27.75765625 10.60265625 -27.6328125 9.8828125 C-27.38144531 8.51769531 -27.38144531 8.51769531 -27.125 7.125 C-26.88136719 5.76761719 -26.88136719 5.76761719 -26.6328125 4.3828125 C-26 2 -26 2 -24 0 C-21.05637791 -0.33716787 -18.20316388 -0.55899999 -15.25 -0.6875 C-14.05117188 -0.75807617 -14.05117188 -0.75807617 -12.828125 -0.83007812 C-8.39080476 -1.05267396 -4.37632556 -0.93879242 0 0 Z M-153 21 C-151.35 24.3 -149.7 27.6 -148 31 C-140.74 31 -133.48 31 -126 31 C-127.32 27.7 -128.64 24.4 -130 21 C-137.59 21 -145.18 21 -153 21 Z M-120 21 C-119.46599103 24.91606575 -118.80330533 27.39338934 -117 31 C-109.74 31 -102.48 31 -95 31 C-94.98584708 25.51257291 -94.98584708 25.51257291 -97 21 C-98.70772358 20.91286169 -100.41898649 20.89299993 -102.12890625 20.90234375 C-103.16337891 20.90556641 -104.19785156 20.90878906 -105.26367188 20.91210938 C-106.35228516 20.92048828 -107.44089844 20.92886719 -108.5625 20.9375 C-109.65498047 20.94201172 -110.74746094 20.94652344 -111.87304688 20.95117188 C-114.58208495 20.96300174 -117.29101599 20.97948457 -120 21 Z M-88 21 C-87.34 24.3 -86.68 27.6 -86 31 C-78.74 31 -71.48 31 -64 31 C-63.67 27.7 -63.34 24.4 -63 21 C-71.25 21 -79.5 21 -88 21 Z M-55 21 C-55 24.3 -55 27.6 -55 31 C-47.74 31 -40.48 31 -33 31 C-30.78918149 25.42163702 -30.78918149 25.42163702 -31 21 C-38.92 21 -46.84 21 -55 21 Z M-142 40 C-141.05125 41.753125 -140.1025 43.50625 -139.125 45.3125 C-138.59132813 46.29863281 -138.05765625 47.28476563 -137.5078125 48.30078125 C-135.99277874 51.09586458 -135.99277874 51.09586458 -134 54 C-131.2114711 54.22107787 -128.65346819 54.28107535 -125.875 54.1875 C-125.12089844 54.17396484 -124.36679687 54.16042969 -123.58984375 54.14648438 C-121.72625873 54.11109985 -119.86304022 54.05729167 -118 54 C-118.59900842 50.45008694 -119.55211126 47.45188857 -121.0625 44.1875 C-121.701875 42.805625 -122.34125 41.42375 -123 40 C-129.27 40 -135.54 40 -142 40 Z M-113 40 C-112.54625 41.5675 -112.0925 43.135 -111.625 44.75 C-111.36976563 45.63171875 -111.11453125 46.5134375 -110.8515625 47.421875 C-109.96860208 50.30300107 -109.96860208 50.30300107 -108 54 C-102.39 54 -96.78 54 -91 54 C-91.144375 52.618125 -91.28875 51.23625 -91.4375 49.8125 C-91.51871094 49.03519531 -91.59992188 48.25789063 -91.68359375 47.45703125 C-92.00597621 44.95359214 -92.50498105 42.47509476 -93 40 C-99.6 40 -106.2 40 -113 40 Z M-84 40 C-83.855625 41.753125 -83.71125 43.50625 -83.5625 45.3125 C-83.48128906 46.29863281 -83.40007812 47.28476563 -83.31640625 48.30078125 C-83.08187441 51.09375599 -83.08187441 51.09375599 -82 54 C-76.06 54 -70.12 54 -64 54 C-64 49.38 -64 44.76 -64 40 C-70.6 40 -77.2 40 -84 40 Z M-55 40 C-55.85221996 43.40887983 -56.10783755 45.80434631 -56.0625 49.25 C-56.041875 50.8175 -56.02125 52.385 -56 54 C-50.06 54 -44.12 54 -38 54 C-37.01 49.38 -36.02 44.76 -35 40 C-41.6 40 -48.2 40 -55 40 Z M-129 62 C-128.195625 63.629375 -127.39125 65.25875 -126.5625 66.9375 C-125.88380859 68.31228516 -125.88380859 68.31228516 -125.19140625 69.71484375 C-124.19474606 71.90528904 -124.19474606 71.90528904 -123 73 C-120.81360547 73.07258946 -118.62499611 73.08373783 -116.4375 73.0625 C-115.23996094 73.05347656 -114.04242188 73.04445313 -112.80859375 73.03515625 C-111.41833984 73.01775391 -111.41833984 73.01775391 -110 73 C-111.32 69.37 -112.64 65.74 -114 62 C-118.95 62 -123.9 62 -129 62 Z M-105 62 C-103.68 65.63 -102.36 69.26 -101 73 C-96.71 73 -92.42 73 -88 73 C-88.33 69.37 -88.66 65.74 -89 62 C-94.28 62 -99.56 62 -105 62 Z M-80 62 C-79.67 65.63 -79.34 69.26 -79 73 C-74.38 73 -69.76 73 -65 73 C-65 69.37 -65 65.74 -65 62 C-69.95 62 -74.9 62 -80 62 Z M-56 62 C-56 65.63 -56 69.26 -56 73 C-51.71 73 -47.42 73 -43 73 C-40.93798263 67.22739701 -40.93798263 67.22739701 -40 62 C-45.28 62 -50.56 62 -56 62 Z M-127 101 C-127.41666667 104 -127.41666667 104 -127 107 C-125.17796419 109.22966747 -125.17796419 109.22966747 -122.5625 109.3125 C-119.99629985 109.18542656 -119.99629985 109.18542656 -118.125 107.8125 C-116.75718135 105.99182178 -116.75718135 105.99182178 -117.125 103.4375 C-117.84389168 100.6738389 -117.84389168 100.6738389 -121 99 C-124.18490007 98.7226499 -124.18490007 98.7226499 -127 101 Z M-68.8125 100.125 C-70.30906118 102.07269207 -70.30906118 102.07269207 -69.75 105.125 C-69.29066476 107.87790841 -69.29066476 107.87790841 -68 109 C-65.04182893 109.25005386 -65.04182893 109.25005386 -62 109 C-59.77033253 107.17796419 -59.77033253 107.17796419 -59.6875 104.5625 C-59.80015605 101.98992726 -59.80015605 101.98992726 -61.25 100.1875 C-63.90485982 98.38598798 -66.10381362 98.44374638 -68.8125 100.125 Z " fill="#000000" transform="translate(463,121)"/>
<path d="M0 0 C1.28753174 0.00136711 1.28753174 0.00136711 2.60107422 0.00276184 C3.48134277 -0.00152328 4.36161133 -0.00580841 5.26855469 -0.01022339 C7.1313389 -0.01597132 8.99414556 -0.01646355 10.85693359 -0.01213074 C13.71474263 -0.00896944 16.57151819 -0.03242828 19.42919922 -0.05778503 C21.23648957 -0.06005776 23.04378272 -0.06076165 24.85107422 -0.05973816 C25.70942871 -0.06894791 26.5677832 -0.07815765 27.45214844 -0.08764648 C29.85888672 -0.06877136 29.85888672 -0.06877136 33.72607422 0.30354309 C36.26169921 4.10698058 36.01443957 7.17859583 35.99169922 11.58479309 C35.9945694 12.79963379 35.9945694 12.79963379 35.99749756 14.03901672 C35.99885783 15.75040498 35.99517238 17.4618036 35.98681641 19.173172 C35.97611447 21.79368757 35.98671682 24.41351761 35.99951172 27.03401184 C35.9981901 28.69677377 35.99562764 30.35953528 35.99169922 32.02229309 C35.99574768 32.80672791 35.99979614 33.59116272 36.00396729 34.39936829 C35.97093668 38.22859689 35.90063634 40.04169991 33.72607422 43.30354309 C31.92904663 43.66430664 31.92904663 43.66430664 29.73535156 43.64411926 C28.50430191 43.64377937 28.50430191 43.64377937 27.24838257 43.64343262 C26.36188019 43.62794876 25.47537781 43.6124649 24.56201172 43.59651184 C23.65480377 43.592267 22.74759583 43.58802216 21.81289673 43.58364868 C18.9086569 43.56682442 16.00510512 43.52916569 13.10107422 43.49104309 C11.13493839 43.47600108 9.16879171 43.46231184 7.20263672 43.45002747 C2.37684983 43.41690866 -2.44842123 43.36510095 -7.27392578 43.30354309 C-8.93068951 39.99001564 -8.43704822 36.29013947 -8.44189453 32.64729309 C-8.44522293 31.78922058 -8.44855133 30.93114807 -8.45198059 30.04707336 C-8.45704716 28.23136431 -8.459389 26.41564593 -8.45922852 24.59992981 C-8.46141695 21.81478139 -8.47958067 19.03002773 -8.49853516 16.24494934 C-8.50146868 14.48323195 -8.50345375 12.72151267 -8.50439453 10.95979309 C-8.51158005 10.12331238 -8.51876556 9.28683167 -8.52616882 8.42500305 C-8.49706979 1.10252525 -7.2890282 0.08748054 0 0 Z M0.72607422 8.30354309 C0.72607422 17.21354309 0.72607422 26.12354309 0.72607422 35.30354309 C9.30607422 35.30354309 17.88607422 35.30354309 26.72607422 35.30354309 C26.72607422 26.39354309 26.72607422 17.48354309 26.72607422 8.30354309 C18.14607422 8.30354309 9.56607422 8.30354309 0.72607422 8.30354309 Z " fill="#000000" transform="translate(82.27392578125,284.6964569091797)"/>
<path d="M0 0 C1.28753174 0.00136711 1.28753174 0.00136711 2.60107422 0.00276184 C3.48134277 -0.00152328 4.36161133 -0.00580841 5.26855469 -0.01022339 C7.1313389 -0.01597132 8.99414556 -0.01646355 10.85693359 -0.01213074 C13.71474263 -0.00896944 16.57151819 -0.03242828 19.42919922 -0.05778503 C21.23648957 -0.06005776 23.04378272 -0.06076165 24.85107422 -0.05973816 C25.70942871 -0.06894791 26.5677832 -0.07815765 27.45214844 -0.08764648 C29.85888672 -0.06877136 29.85888672 -0.06877136 33.72607422 0.30354309 C36.26169921 4.10698058 36.01443957 7.17859583 35.99169922 11.58479309 C35.9945694 12.79963379 35.9945694 12.79963379 35.99749756 14.03901672 C35.99885783 15.75040498 35.99517238 17.4618036 35.98681641 19.173172 C35.97611447 21.79368757 35.98671682 24.41351761 35.99951172 27.03401184 C35.9981901 28.69677377 35.99562764 30.35953528 35.99169922 32.02229309 C35.99574768 32.80672791 35.99979614 33.59116272 36.00396729 34.39936829 C35.97093668 38.22859689 35.90063634 40.04169991 33.72607422 43.30354309 C31.92904663 43.66430664 31.92904663 43.66430664 29.73535156 43.64411926 C28.50430191 43.64377937 28.50430191 43.64377937 27.24838257 43.64343262 C26.36188019 43.62794876 25.47537781 43.6124649 24.56201172 43.59651184 C23.65480377 43.592267 22.74759583 43.58802216 21.81289673 43.58364868 C18.9086569 43.56682442 16.00510512 43.52916569 13.10107422 43.49104309 C11.13493839 43.47600108 9.16879171 43.46231184 7.20263672 43.45002747 C2.37684983 43.41690866 -2.44842123 43.36510095 -7.27392578 43.30354309 C-8.93068951 39.99001564 -8.43704822 36.29013947 -8.44189453 32.64729309 C-8.44522293 31.78922058 -8.44855133 30.93114807 -8.45198059 30.04707336 C-8.45704716 28.23136431 -8.459389 26.41564593 -8.45922852 24.59992981 C-8.46141695 21.81478139 -8.47958067 19.03002773 -8.49853516 16.24494934 C-8.50146868 14.48323195 -8.50345375 12.72151267 -8.50439453 10.95979309 C-8.51158005 10.12331238 -8.51876556 9.28683167 -8.52616882 8.42500305 C-8.49706979 1.10252525 -7.2890282 0.08748054 0 0 Z M0.72607422 8.30354309 C0.72607422 17.21354309 0.72607422 26.12354309 0.72607422 35.30354309 C9.30607422 35.30354309 17.88607422 35.30354309 26.72607422 35.30354309 C26.72607422 26.39354309 26.72607422 17.48354309 26.72607422 8.30354309 C18.14607422 8.30354309 9.56607422 8.30354309 0.72607422 8.30354309 Z " fill="#000000" transform="translate(211.27392578125,155.6964569091797)"/>
<path d="M0 0 C1.28753174 0.00136711 1.28753174 0.00136711 2.60107422 0.00276184 C3.48134277 -0.00152328 4.36161133 -0.00580841 5.26855469 -0.01022339 C7.1313389 -0.01597132 8.99414556 -0.01646355 10.85693359 -0.01213074 C13.71474263 -0.00896944 16.57151819 -0.03242828 19.42919922 -0.05778503 C21.23648957 -0.06005776 23.04378272 -0.06076165 24.85107422 -0.05973816 C25.70942871 -0.06894791 26.5677832 -0.07815765 27.45214844 -0.08764648 C29.85888672 -0.06877136 29.85888672 -0.06877136 33.72607422 0.30354309 C36.26169921 4.10698058 36.01443957 7.17859583 35.99169922 11.58479309 C35.9945694 12.79963379 35.9945694 12.79963379 35.99749756 14.03901672 C35.99885783 15.75040498 35.99517238 17.4618036 35.98681641 19.173172 C35.97611447 21.79368757 35.98671682 24.41351761 35.99951172 27.03401184 C35.9981901 28.69677377 35.99562764 30.35953528 35.99169922 32.02229309 C35.99574768 32.80672791 35.99979614 33.59116272 36.00396729 34.39936829 C35.97093668 38.22859689 35.90063634 40.04169991 33.72607422 43.30354309 C31.92904663 43.66430664 31.92904663 43.66430664 29.73535156 43.64411926 C28.50430191 43.64377937 28.50430191 43.64377937 27.24838257 43.64343262 C26.36188019 43.62794876 25.47537781 43.6124649 24.56201172 43.59651184 C23.65480377 43.592267 22.74759583 43.58802216 21.81289673 43.58364868 C18.9086569 43.56682442 16.00510512 43.52916569 13.10107422 43.49104309 C11.13493839 43.47600108 9.16879171 43.46231184 7.20263672 43.45002747 C2.37684983 43.41690866 -2.44842123 43.36510095 -7.27392578 43.30354309 C-8.93068951 39.99001564 -8.43704822 36.29013947 -8.44189453 32.64729309 C-8.44522293 31.78922058 -8.44855133 30.93114807 -8.45198059 30.04707336 C-8.45704716 28.23136431 -8.459389 26.41564593 -8.45922852 24.59992981 C-8.46141695 21.81478139 -8.47958067 19.03002773 -8.49853516 16.24494934 C-8.50146868 14.48323195 -8.50345375 12.72151267 -8.50439453 10.95979309 C-8.51158005 10.12331238 -8.51876556 9.28683167 -8.52616882 8.42500305 C-8.49706979 1.10252525 -7.2890282 0.08748054 0 0 Z M0.72607422 8.30354309 C0.72607422 17.21354309 0.72607422 26.12354309 0.72607422 35.30354309 C9.30607422 35.30354309 17.88607422 35.30354309 26.72607422 35.30354309 C26.72607422 26.39354309 26.72607422 17.48354309 26.72607422 8.30354309 C18.14607422 8.30354309 9.56607422 8.30354309 0.72607422 8.30354309 Z " fill="#000000" transform="translate(82.27392578125,155.6964569091797)"/>
<path d="M0 0 C1.12276085 -0.0049926 1.12276085 -0.0049926 2.26820374 -0.01008606 C3.85449609 -0.01515818 5.44079915 -0.0174943 7.02709961 -0.01733398 C9.45899994 -0.01951898 11.89044574 -0.03766706 14.32226562 -0.05664062 C15.86067553 -0.05957474 17.39908759 -0.06155942 18.9375 -0.0625 C20.03287331 -0.07327827 20.03287331 -0.07327827 21.15037537 -0.08427429 C26.30633318 -0.06085432 26.30633318 -0.06085432 28.53515625 2.16796875 C28.93544043 6.71057153 28.86416275 11.26763515 28.85083008 15.82592773 C28.84767302 18.09342622 28.87111385 20.35961635 28.89648438 22.62695312 C28.89875766 24.0664046 28.89946073 25.50585959 28.8984375 26.9453125 C28.90141846 28.25749756 28.90439941 29.56968262 28.9074707 30.92163086 C28.53515625 34.16796875 28.53515625 34.16796875 27.46386719 36.09667969 C24.43958625 37.77649548 21.74547001 37.53904885 18.3125 37.53125 C17.61121475 37.5317485 16.9099295 37.53224701 16.18739319 37.53276062 C14.70717531 37.53042295 13.22695324 37.52071238 11.74682617 37.50415039 C9.4773419 37.48051754 7.20902949 37.48359603 4.93945312 37.49023438 C-6.18570941 37.44710309 -6.18570941 37.44710309 -8.46484375 35.16796875 C-8.65214128 32.59869844 -8.72059017 30.13922898 -8.6953125 27.5703125 C-8.69462517 26.44611656 -8.69462517 26.44611656 -8.69392395 25.29920959 C-8.69090186 23.71467506 -8.68301681 22.13014349 -8.6706543 20.5456543 C-8.65239058 18.11171017 -8.65014464 15.67814613 -8.65039062 13.24414062 C-8.64547576 11.70702794 -8.63964757 10.16991785 -8.6328125 8.6328125 C-8.63169968 7.9005394 -8.63058685 7.1682663 -8.62944031 6.4138031 C-8.56081483 -0.83801947 -6.55821878 0.00996642 0 0 Z M-0.46484375 8.16796875 C-0.46484375 14.76796875 -0.46484375 21.36796875 -0.46484375 28.16796875 C6.13515625 28.16796875 12.73515625 28.16796875 19.53515625 28.16796875 C19.53515625 21.56796875 19.53515625 14.96796875 19.53515625 8.16796875 C12.93515625 8.16796875 6.33515625 8.16796875 -0.46484375 8.16796875 Z " fill="#000000" transform="translate(150.46484375,223.83203125)"/>
<path d="M0 0 C5.45879029 4.78247999 7.67712264 9.66360061 8.375 16.875 C8.19543982 22.40967863 6.08762862 26.81273456 2.28125 30.80078125 C-3.01506704 35.50238473 -7.10321691 36.35571993 -14.140625 36.28125 C-19.73402515 35.73107949 -23.54551244 33.53103953 -27.375 29.5 C-31.40683579 23.29717571 -31.61284472 18.35413664 -31 11 C-29.01673693 4.7002232 -24.18475351 0.79652762 -18.5625 -2.375 C-12.04092891 -3.9656271 -5.81300451 -3.41093653 0 0 Z M-21 10 C-22.77665262 12.93533911 -23.01779354 14.5729551 -22.875 18 C-21.82480872 21.60065582 -20.72718873 23.41634752 -18 26 C-13.75208426 27.92358449 -11.76207503 28.21592126 -7.25 26.9375 C-3.73548745 24.84230983 -2.46285136 23.78620352 -1 20 C-0.5101933 16.63257892 -0.2509612 14.24007534 -2.0546875 11.25390625 C-3.83229781 9.06081898 -5.45585937 7.27207031 -8 6 C-13.66612382 5.4551804 -16.66638828 6.27107829 -21 10 Z " fill="#000000" transform="translate(172,443)"/>
<path d="M0 0 C2.375 0.75 2.375 0.75 3.375 1.75 C3.46368299 4.70705321 3.49020296 7.64065056 3.47265625 10.59765625 C3.4712413 11.4840831 3.46982635 12.37050995 3.46836853 13.28379822 C3.46275215 16.12673254 3.45019691 18.96958931 3.4375 21.8125 C3.43248711 23.73502491 3.42792384 25.65755104 3.42382812 27.58007812 C3.41277741 32.30341549 3.39550183 37.02669458 3.375 41.75 C4.54071533 41.73952637 5.70643066 41.72905273 6.9074707 41.71826172 C11.22921685 41.68208278 15.55094959 41.65910719 19.87280273 41.64013672 C21.74391938 41.63007433 23.61502028 41.61642309 25.48608398 41.59912109 C28.17435591 41.57488316 30.86242006 41.56351937 33.55078125 41.5546875 C34.38837479 41.54436493 35.22596832 41.53404236 36.08894348 41.52340698 C42.03338488 41.52225659 42.03338488 41.52225659 45.375 43.75 C45.5625 46.875 45.5625 46.875 45.375 49.75 C42.99807876 50.93846062 41.51771078 50.889166 38.86523438 50.91113281 C37.93086548 50.92074036 36.99649658 50.9303479 36.03381348 50.94024658 C35.02234253 50.94449646 34.01087158 50.94874634 32.96875 50.953125 C31.93310913 50.95882507 30.89746826 50.96452515 29.83044434 50.97039795 C27.63811263 50.97985371 25.44576668 50.98638421 23.25341797 50.99023438 C19.88874792 50.99996026 16.52468335 51.03098679 13.16015625 51.0625 C11.03385781 51.06902779 8.90755498 51.07427914 6.78125 51.078125 C5.76977905 51.0904718 4.75830811 51.1028186 3.71618652 51.11553955 C2.78181763 51.11253845 1.84744873 51.10953735 0.88476562 51.10644531 C-0.35194885 51.11191376 -0.35194885 51.11191376 -1.61364746 51.11749268 C-2.2773938 50.99622009 -2.94114014 50.87494751 -3.625 50.75 C-5.7113505 47.62047425 -5.8787096 46.88949507 -5.8996582 43.32617188 C-5.90919022 42.43514771 -5.91872223 41.54412354 -5.92854309 40.62609863 C-5.92763168 39.66667358 -5.92672028 38.70724854 -5.92578125 37.71875 C-5.93006638 36.73128784 -5.9343515 35.74382568 -5.93876648 34.72644043 C-5.94451012 32.63843554 -5.94500979 30.55041063 -5.94067383 28.46240234 C-5.9375122 25.26234964 -5.96097867 22.06321973 -5.98632812 18.86328125 C-5.98860089 16.83593867 -5.98930472 14.8085936 -5.98828125 12.78125 C-5.997491 11.82182495 -6.00670074 10.8623999 -6.01618958 9.87390137 C-6.00996078 8.9828772 -6.00373199 8.09185303 -5.99731445 7.17382812 C-5.99794388 6.39011841 -5.9985733 5.60640869 -5.9992218 4.7989502 C-5.32498774 1.10736405 -3.71338985 -0.35365618 0 0 Z " fill="#000000" transform="translate(52.625,304.25)"/>
<path d="M0 0 C1.37140892 -0.00934319 1.37140892 -0.00934319 2.77052307 -0.01887512 C3.75495895 -0.00966537 4.73939484 -0.00045563 5.75366211 0.0090332 C6.76569199 0.0085347 7.77772186 0.00803619 8.82041931 0.00752258 C10.9597266 0.00986333 13.09903663 0.01959185 15.23828125 0.03613281 C18.52165201 0.05974718 21.80421228 0.05669097 25.08764648 0.05004883 C27.16382322 0.0556247 29.23999653 0.06273401 31.31616211 0.0715332 C32.79585228 0.07016609 32.79585228 0.07016609 34.30543518 0.06877136 C35.21655563 0.07830338 36.12767609 0.08783539 37.06640625 0.09765625 C37.87010147 0.10226364 38.67379669 0.10687103 39.50184631 0.11161804 C41.46850586 0.37231445 41.46850586 0.37231445 43.46850586 2.37231445 C43.71850586 4.87231445 43.71850586 4.87231445 43.46850586 7.37231445 C41.46850586 9.37231445 41.46850586 9.37231445 37.56958008 9.59936523 C35.88741793 9.59904787 34.20523566 9.58770841 32.52319336 9.56762695 C31.63818146 9.56479706 30.75316956 9.56196716 29.84133911 9.55905151 C27.00859174 9.54783686 24.17615802 9.52273016 21.34350586 9.49731445 C19.42554167 9.48728631 17.50757253 9.47816017 15.58959961 9.4699707 C10.8824471 9.44789334 6.1755297 9.4133549 1.46850586 9.37231445 C1.47897949 10.57355957 1.48945312 11.77480469 1.50024414 13.01245117 C1.53637873 17.45903557 1.55938243 21.90560693 1.57836914 26.35229492 C1.58844168 28.2787494 1.60210029 30.20518853 1.61938477 32.1315918 C1.64357827 34.89676697 1.65497622 37.66174045 1.66381836 40.42700195 C1.67414093 41.29163055 1.6844635 42.15625916 1.69509888 43.04708862 C1.69549692 45.15684966 1.59115829 47.26612164 1.46850586 49.37231445 C-0.53149414 51.37231445 -0.53149414 51.37231445 -3.03149414 51.68481445 C-3.85649414 51.58168945 -4.68149414 51.47856445 -5.53149414 51.37231445 C-7.61784464 48.24278871 -7.78520374 47.51180952 -7.80615234 43.94848633 C-7.81568436 43.05746216 -7.82521637 42.16643799 -7.83503723 41.24841309 C-7.83412582 40.28898804 -7.83321442 39.32956299 -7.83227539 38.34106445 C-7.83656052 37.35360229 -7.84084564 36.36614014 -7.84526062 35.34875488 C-7.85100426 33.26074999 -7.85150393 31.17272509 -7.84716797 29.0847168 C-7.84400634 25.88466409 -7.86747281 22.68553418 -7.89282227 19.4855957 C-7.89509503 17.45825312 -7.89579886 15.43090805 -7.89477539 13.40356445 C-7.90398514 12.4441394 -7.91319489 11.48471436 -7.92268372 10.49621582 C-7.91645493 9.60519165 -7.91022614 8.71416748 -7.90380859 7.79614258 C-7.90443802 7.01243286 -7.90506744 6.22872314 -7.90571594 5.42126465 C-7.06828345 0.83612966 -4.28267357 -0.00335072 0 0 Z " fill="#000000" transform="translate(54.531494140625,128.627685546875)"/>
<path d="M0 0 C1.58358604 1.58358604 1.13513663 3.1999036 1.14526367 5.39624023 C1.15164352 6.33068466 1.15802338 7.26512909 1.16459656 8.22789001 C1.16570938 9.24452225 1.1668222 10.26115448 1.16796875 11.30859375 C1.17296135 12.86417747 1.17296135 12.86417747 1.17805481 14.45118713 C1.1831286 16.64950109 1.185463 18.84782277 1.18530273 21.04614258 C1.18748838 24.41956201 1.20563714 27.79265417 1.22460938 31.16601562 C1.2275433 33.29687388 1.2295281 35.42773369 1.23046875 37.55859375 C1.23765427 38.57320175 1.24483978 39.58780975 1.25224304 40.63316345 C1.24916641 41.57076004 1.24608978 42.50835663 1.24291992 43.47436523 C1.24434494 44.30185776 1.24576996 45.12935028 1.24723816 45.98191833 C1 48 1 48 -1 50 C-3.01135254 50.25396729 -3.01135254 50.25396729 -5.50976562 50.25878906 C-6.44413452 50.26509338 -7.37850342 50.27139771 -8.34118652 50.27789307 C-9.35265747 50.2738446 -10.36412842 50.26979614 -11.40625 50.265625 C-12.44189087 50.26753845 -13.47753174 50.2694519 -14.54455566 50.27142334 C-16.73690025 50.27278597 -18.92925289 50.26908414 -21.12158203 50.26074219 C-24.48618616 50.25004392 -27.85025632 50.26063503 -31.21484375 50.2734375 C-33.34114702 50.27211592 -35.46744995 50.26955356 -37.59375 50.265625 C-39.11095642 50.27169769 -39.11095642 50.27169769 -40.65881348 50.27789307 C-41.59318237 50.27158875 -42.52755127 50.26528442 -43.49023438 50.25878906 C-44.72694885 50.25640228 -44.72694885 50.25640228 -45.98864746 50.25396729 C-48 50 -48 50 -50 48 C-49.625 44.875 -49.625 44.875 -49 42 C-45.05257303 40.68419101 -41.28912951 40.87688961 -37.17578125 40.90234375 C-36.41213257 40.90335083 -35.64848389 40.90435791 -34.86169434 40.90539551 C-32.01194759 40.91062336 -29.16222227 40.92458464 -26.3125 40.9375 C-19.939375 40.958125 -13.56625 40.97875 -7 41 C-7 27.47 -7 13.94 -7 0 C-4.31633121 -1.3418344 -2.84719317 -0.73004953 0 0 Z " fill="#000000" transform="translate(272,305)"/>
<path d="M0 0 C2.375 0.8125 2.375 0.8125 3.375 2.8125 C3.46158569 5.36612604 3.49062516 7.8920442 3.47265625 10.4453125 C3.4712413 11.19714813 3.46982635 11.94898376 3.46836853 12.72360229 C3.46276465 15.1282751 3.45021157 17.53285527 3.4375 19.9375 C3.4324855 21.56640491 3.4279225 23.19531127 3.42382812 24.82421875 C3.41279397 28.82034827 3.39552679 32.81640842 3.375 36.8125 C5.03269409 36.79678955 5.03269409 36.79678955 6.72387695 36.78076172 C10.82198856 36.74457593 14.92008603 36.72160471 19.01831055 36.70263672 C20.79242324 36.69257589 22.56651935 36.67892578 24.34057617 36.66162109 C26.88985284 36.63737622 29.43891037 36.62601782 31.98828125 36.6171875 C32.78212723 36.60686493 33.57597321 36.59654236 34.39387512 36.58590698 C38.25723043 36.5851189 40.08339446 36.61809631 43.375 38.8125 C43.6875 41.3125 43.6875 41.3125 43.375 43.8125 C40.953764 46.233736 40.36138291 46.06781312 37.04882812 46.0871582 C35.70733704 46.10145622 35.70733704 46.10145622 34.33874512 46.11604309 C32.88716003 46.11467598 32.88716003 46.11467598 31.40625 46.11328125 C29.91937683 46.11970894 29.91937683 46.11970894 28.40246582 46.12626648 C26.30428838 46.13201584 24.206091 46.1325056 22.10791016 46.12817383 C18.8880027 46.12501277 15.66901257 46.1484696 12.44921875 46.17382812 C10.41406366 46.17610084 8.3789061 46.17680474 6.34375 46.17578125 C5.37602661 46.184991 4.40830322 46.19420074 3.41125488 46.20368958 C2.51692749 46.19746078 1.6226001 46.19123199 0.70117188 46.18481445 C-0.08777466 46.18544388 -0.87672119 46.1860733 -1.6895752 46.1867218 C-2.32826538 46.06322861 -2.96695557 45.93973541 -3.625 45.8125 C-6.25500199 41.86749701 -5.9306912 38.45443985 -5.92578125 33.875 C-5.93006638 32.99851807 -5.9343515 32.12203613 -5.93876648 31.21899414 C-5.94450796 29.36638249 -5.94501138 27.51374829 -5.94067383 25.66113281 C-5.9375119 22.82317798 -5.9609816 19.98626356 -5.98632812 17.1484375 C-5.9886009 15.34895965 -5.98930472 13.54947899 -5.98828125 11.75 C-5.997491 10.89994385 -6.00670074 10.0498877 -6.01618958 9.17407227 C-5.96960301 3.25859565 -5.96960301 3.25859565 -4.26579285 1.05297852 C-2.625 -0.1875 -2.625 -0.1875 0 0 Z " fill="#000000" transform="translate(189.625,173.1875)"/>
<path d="M0 0 C0.96763779 0.00091644 1.93527557 0.00183289 2.93223572 0.0027771 C4.97741604 0.00881899 7.02258727 0.02458256 9.06762695 0.04931641 C12.20622168 0.08583717 15.34363684 0.09033576 18.48242188 0.08984375 C20.46745817 0.09967408 22.45248643 0.11133072 24.4375 0.125 C25.38021255 0.12722565 26.32292511 0.12945129 27.29420471 0.13174438 C28.16528366 0.14450409 29.03636261 0.15726379 29.93383789 0.17041016 C30.70200333 0.17803375 31.47016876 0.18565735 32.26161194 0.19351196 C34.15234375 0.4609375 34.15234375 0.4609375 36.15234375 2.4609375 C36.39285278 4.33389282 36.39285278 4.33389282 36.37939453 6.63525391 C36.37924347 7.49599518 36.37909241 8.35673645 36.37893677 9.24356079 C36.3686142 10.17381073 36.35829163 11.10406067 36.34765625 12.0625 C36.34482635 13.01410004 36.34199646 13.96570007 36.33908081 14.94613647 C36.32786364 17.99286342 36.30275638 21.03929904 36.27734375 24.0859375 C36.26731593 26.14843326 36.25818974 28.21093362 36.25 30.2734375 C36.22791929 35.33605017 36.19337905 40.3984444 36.15234375 45.4609375 C33.27734375 46.0859375 33.27734375 46.0859375 30.15234375 46.4609375 C28.15234375 44.4609375 28.15234375 44.4609375 27.92529297 41.02099609 C27.92561006 39.55041771 27.93693388 38.07981608 27.95703125 36.609375 C27.95986115 35.83534332 27.96269104 35.06131165 27.96560669 34.26382446 C27.97681621 31.78770593 28.00192172 29.311947 28.02734375 26.8359375 C28.03737257 25.15885938 28.04649859 23.48177561 28.0546875 21.8046875 C28.07675801 17.68996527 28.11129273 13.57551239 28.15234375 9.4609375 C27.01168457 9.46617432 25.87102539 9.47141113 24.69580078 9.47680664 C20.47282696 9.49487619 16.24985657 9.50637669 12.02685547 9.51586914 C10.19742254 9.52090487 8.36799366 9.52773377 6.53857422 9.53637695 C3.91242477 9.54847574 1.28632843 9.55417333 -1.33984375 9.55859375 C-2.16072479 9.56375504 -2.98160583 9.56891632 -3.82736206 9.57423401 C-9.61991284 9.57480921 -9.61991284 9.57480921 -11.84765625 8.4609375 C-12.66015625 6.6484375 -12.66015625 6.6484375 -12.84765625 4.4609375 C-10.50375619 -1.19982701 -5.25252602 -0.08024361 0 0 Z " fill="#000000" transform="translate(100.84765625,264.5390625)"/>
<path d="M0 0 C0.825 0.103125 1.65 0.20625 2.5 0.3125 C5.74964548 5.18696822 4.83300751 10.91394418 4.81567383 16.61865234 C4.81251104 18.80486769 4.83598905 20.98973292 4.86132812 23.17578125 C4.86360094 24.56510246 4.8643047 25.95442731 4.86328125 27.34375 C4.86626221 28.60767578 4.86924316 29.87160156 4.87231445 31.17382812 C4.5 34.3125 4.5 34.3125 3.14135742 36.25976562 C1.5 37.3125 1.5 37.3125 -1.125 37.125 C-3.5 36.3125 -3.5 36.3125 -4.5 34.3125 C-4.539992 32.31289988 -4.54346799 30.31202758 -4.5 28.3125 C-5.42337158 28.31773682 -6.34674316 28.32297363 -7.2980957 28.32836914 C-10.72534814 28.34541585 -14.1525555 28.3579525 -17.57983398 28.36743164 C-19.06291413 28.37245903 -20.54598933 28.37928185 -22.02905273 28.38793945 C-24.16130801 28.40007482 -26.29349773 28.40574425 -28.42578125 28.41015625 C-29.70880127 28.41539307 -30.99182129 28.42062988 -32.3137207 28.42602539 C-35.5 28.3125 -35.5 28.3125 -38.5 27.3125 C-39.125 24.4375 -39.125 24.4375 -39.5 21.3125 C-37.5 19.3125 -37.5 19.3125 -34.24365234 19.08544922 C-32.85770705 19.08576618 -31.47173699 19.09708241 -30.0859375 19.1171875 C-29.35629791 19.1200174 -28.62665833 19.12284729 -27.87490845 19.12576294 C-25.54143972 19.13696998 -23.20835297 19.1620749 -20.875 19.1875 C-19.29427637 19.19752915 -17.71354673 19.20665511 -16.1328125 19.21484375 C-12.25506086 19.23691095 -8.37759522 19.27144385 -4.5 19.3125 C-4.52320313 18.10851562 -4.54640625 16.90453125 -4.5703125 15.6640625 C-4.58906863 14.08854785 -4.60726899 12.51302652 -4.625 10.9375 C-4.64175781 10.1434375 -4.65851563 9.349375 -4.67578125 8.53125 C-4.69335473 6.45757985 -4.60335168 4.38366759 -4.5 2.3125 C-2.5 0.3125 -2.5 0.3125 0 0 Z " fill="#000000" transform="translate(189.5,256.6875)"/>
<path d="M0 0 C2.5 0.25 2.5 0.25 4.5 2.25 C4.625 5.875 4.625 5.875 4.5 9.25 C5.48919434 9.23952637 6.47838867 9.22905273 7.49755859 9.21826172 C11.16142164 9.18210981 14.82526886 9.15911718 18.48925781 9.14013672 C20.07619883 9.13006812 21.66312125 9.11641233 23.25 9.09912109 C25.52869247 9.07490999 27.80714006 9.06352578 30.0859375 9.0546875 C30.79744965 9.04436493 31.50896179 9.03404236 32.24203491 9.02340698 C33.99631665 9.02300578 35.74996709 9.12797791 37.5 9.25 C38.16 9.91 38.82 10.57 39.5 11.25 C38.94444444 15.80555556 38.94444444 15.80555556 37.5 17.25 C35.05169574 17.33843793 32.63179401 17.36528752 30.18359375 17.34765625 C29.45253922 17.3462413 28.72148468 17.34482635 27.96827698 17.34336853 C25.62464368 17.33775408 23.28110461 17.32519922 20.9375 17.3125 C19.35221492 17.30748686 17.76692834 17.30292363 16.18164062 17.29882812 C12.2877239 17.28777997 8.39387795 17.27050572 4.5 17.25 C4.52320313 18.45398438 4.54640625 19.65796875 4.5703125 20.8984375 C4.58906863 22.47395215 4.60726899 24.04947348 4.625 25.625 C4.65013672 26.81609375 4.65013672 26.81609375 4.67578125 28.03125 C4.69335473 30.10492015 4.60335168 32.17883241 4.5 34.25 C2.5 36.25 2.5 36.25 0 36.5 C-2.5 36.25 -2.5 36.25 -4.5 34.25 C-4.75878906 31.1171875 -4.75878906 31.1171875 -4.765625 27.125 C-4.76753845 26.4222998 -4.7694519 25.71959961 -4.77142334 24.99560547 C-4.77278475 23.50943646 -4.76909132 22.02325555 -4.76074219 20.53710938 C-4.75004154 18.25884354 -4.76063839 15.98136623 -4.7734375 13.703125 C-4.7721159 12.26041492 -4.76955349 10.81770534 -4.765625 9.375 C-4.76336914 8.05757812 -4.76111328 6.74015625 -4.75878906 5.3828125 C-4.44186175 1.5461981 -3.9224597 0.39224597 0 0 Z " fill="#000000" transform="translate(132.5,190.75)"/>
<path d="M0 0 C1.2375 0.1546875 1.2375 0.1546875 2.5 0.3125 C4.63604308 3.51656462 4.74208908 4.30850747 4.6953125 7.98046875 C4.68564453 9.31948242 4.68564453 9.31948242 4.67578125 10.68554688 C4.65902344 11.61431641 4.64226562 12.54308594 4.625 13.5 C4.61597656 14.44037109 4.60695312 15.38074219 4.59765625 16.34960938 C4.57409056 18.67082968 4.54119116 20.99153644 4.5 23.3125 C5.42337158 23.29678955 6.34674316 23.2810791 7.2980957 23.26489258 C10.72539889 23.21375168 14.15229642 23.17614465 17.57983398 23.14770508 C19.06297199 23.13262232 20.54606544 23.11215311 22.02905273 23.08618164 C24.16140745 23.04977384 26.29317235 23.03276927 28.42578125 23.01953125 C30.35031128 22.99596558 30.35031128 22.99596558 32.3137207 22.97192383 C35.5 23.3125 35.5 23.3125 37.45385742 24.66674805 C38.5 26.3125 38.5 26.3125 38.3125 28.9375 C37.5 31.3125 37.5 31.3125 35.5 32.3125 C32.6792202 32.42373833 29.88387186 32.47661451 27.0625 32.48046875 C25.8086853 32.48546135 25.8086853 32.48546135 24.52954102 32.49055481 C22.76091055 32.49562107 20.99227052 32.49796323 19.22363281 32.49780273 C16.51090865 32.4999912 13.79858977 32.51815527 11.0859375 32.53710938 C9.36979306 32.5400429 7.65364669 32.54202797 5.9375 32.54296875 C5.12289307 32.55015427 4.30828613 32.55733978 3.46899414 32.56474304 C-2.27117354 32.54132646 -2.27117354 32.54132646 -4.5 30.3125 C-4.75878906 27.546875 -4.75878906 27.546875 -4.765625 24.0625 C-4.76820313 22.8146875 -4.77078125 21.566875 -4.7734375 20.28125 C-4.76570312 18.9715625 -4.75796875 17.661875 -4.75 16.3125 C-4.75773438 15.0028125 -4.76546875 13.693125 -4.7734375 12.34375 C-4.77085937 11.0959375 -4.76828125 9.848125 -4.765625 8.5625 C-4.76336914 7.41265625 -4.76111328 6.2628125 -4.75878906 5.078125 C-4.41801203 1.43631158 -3.66106059 0.45763257 0 0 Z " fill="#000000" transform="translate(133.5,155.6875)"/>
<path d="M0 0 C1.31419922 -0.01224609 2.62839844 -0.02449219 3.98242188 -0.03710938 C5.23474609 -0.03904297 6.48707031 -0.04097656 7.77734375 -0.04296875 C8.93355225 -0.04707764 10.08976074 -0.05118652 11.28100586 -0.05541992 C14.0625 0.1875 14.0625 0.1875 16.0625 2.1875 C16.25015495 5.03306578 16.31806777 7.77957719 16.29296875 10.625 C16.29251053 11.46087646 16.29205231 12.29675293 16.2915802 13.15795898 C16.28855692 14.92660948 16.28066835 16.69525728 16.26831055 18.46386719 C16.25007376 21.17652788 16.24780071 23.88884696 16.24804688 26.6015625 C16.24313095 28.3177113 16.2373023 30.03385777 16.23046875 31.75 C16.22935593 32.56460693 16.2282431 33.37921387 16.22709656 34.21850586 C16.17856674 39.95536653 16.17856674 39.95536653 15.0625 42.1875 C12.1875 42.3125 12.1875 42.3125 9.0625 42.1875 C7.0625 40.1875 7.0625 40.1875 6.83544922 37.02294922 C6.83576611 35.67932037 6.84707819 34.3356659 6.8671875 32.9921875 C6.8700174 32.28474396 6.87284729 31.57730042 6.87576294 30.84841919 C6.88696863 28.5862749 6.91207321 26.32452485 6.9375 24.0625 C6.94752933 22.52995363 6.95665526 20.99740106 6.96484375 19.46484375 C6.98690914 15.70557699 7.02144104 11.94660536 7.0625 8.1875 C6.43682129 8.19797363 5.81114258 8.20844727 5.16650391 8.21923828 C2.3402099 8.26073191 -0.48602011 8.28680473 -3.3125 8.3125 C-4.29734375 8.32925781 -5.2821875 8.34601563 -6.296875 8.36328125 C-7.23789063 8.36972656 -8.17890625 8.37617188 -9.1484375 8.3828125 C-10.45240479 8.39852295 -10.45240479 8.39852295 -11.78271484 8.41455078 C-13.9375 8.1875 -13.9375 8.1875 -15.9375 6.1875 C-14.84705137 -2.75417876 -7.54753556 0.00369073 0 0 Z " fill="#000000" transform="translate(200.9375,229.8125)"/>
<path d="M0 0 C2.4375 0.1875 2.4375 0.1875 3.4375 1.1875 C3.52593793 3.63580426 3.55278752 6.05570599 3.53515625 8.50390625 C3.5337413 9.23496078 3.53232635 9.96601532 3.53086853 10.71922302 C3.52525408 13.06285632 3.51269922 15.40639539 3.5 17.75 C3.49498686 19.33528508 3.49042363 20.92057166 3.48632812 22.50585938 C3.47527997 26.3997761 3.45800572 30.29362205 3.4375 34.1875 C4.09347168 34.17178955 4.74944336 34.1560791 5.42529297 34.13989258 C8.38760816 34.07766348 11.3497861 34.03854832 14.3125 34 C15.34503906 33.97486328 16.37757812 33.94972656 17.44140625 33.92382812 C18.42753906 33.91416016 19.41367188 33.90449219 20.4296875 33.89453125 C21.34089355 33.8788208 22.25209961 33.86311035 23.19091797 33.84692383 C24.30297607 34.01550903 24.30297607 34.01550903 25.4375 34.1875 C27.4375 37.1875 27.4375 37.1875 27.1875 39.8125 C26.94 40.59625 26.6925 41.38 26.4375 42.1875 C22.1031545 44.35467275 16.26079475 43.37246361 11.5 43.375 C9.69112305 43.39336914 9.69112305 43.39336914 7.84570312 43.41210938 C6.11416992 43.41500977 6.11416992 43.41500977 4.34765625 43.41796875 C2.75642944 43.42413208 2.75642944 43.42413208 1.13305664 43.43041992 C-1.5625 43.1875 -1.5625 43.1875 -4.5625 41.1875 C-4.85402022 38.23138941 -4.95833639 35.48808955 -4.92578125 32.53125 C-4.92627975 31.67317749 -4.92677826 30.81510498 -4.92729187 29.93103027 C-4.92494945 28.11529222 -4.91521102 26.29955104 -4.89868164 24.48388672 C-4.87509399 21.69859905 -4.87811857 18.91426834 -4.88476562 16.12890625 C-4.8791889 14.36718177 -4.87207905 12.60546134 -4.86328125 10.84375 C-4.86419266 10.00726929 -4.86510406 9.17078857 -4.86604309 8.30895996 C-4.76803832 0.34888085 -4.76803832 0.34888085 0 0 Z " fill="#000000" transform="translate(109.5625,211.8125)"/>
<path d="M0 0 C5.65998046 -0.04934926 11.31983636 -0.08569529 16.97998047 -0.10986328 C18.90643494 -0.11993582 20.83287408 -0.13359443 22.75927734 -0.15087891 C25.52445252 -0.17507241 28.289426 -0.18647036 31.0546875 -0.1953125 C31.9193161 -0.20563507 32.7839447 -0.21595764 33.67477417 -0.22659302 C35.78453521 -0.22699106 37.89380718 -0.12265243 40 0 C42.72234602 2.72234602 42.25788057 4.22762873 42.265625 8.03125 C42.26949219 9.83529297 42.26949219 9.83529297 42.2734375 11.67578125 C42.26570313 12.93777344 42.25796875 14.19976562 42.25 15.5 C42.26160156 17.39298828 42.26160156 17.39298828 42.2734375 19.32421875 C42.27085937 20.52691406 42.26828125 21.72960937 42.265625 22.96875 C42.26336914 24.07669922 42.26111328 25.18464844 42.25878906 26.32617188 C42 29 42 29 40 31 C36.875 31.125 36.875 31.125 34 31 C32.7736243 28.54724859 32.88584686 26.9494219 32.90234375 24.2109375 C32.90556641 23.26992188 32.90878906 22.32890625 32.91210938 21.359375 C32.92467773 19.88210938 32.92467773 19.88210938 32.9375 18.375 C32.94201172 17.38242187 32.94652344 16.38984375 32.95117188 15.3671875 C32.96297855 12.9113984 32.979446 10.45572896 33 8 C32.04109863 8.01047363 31.08219727 8.02094727 30.09423828 8.03173828 C26.54219281 8.06789328 22.99016366 8.09088393 19.43798828 8.10986328 C17.89954902 8.11993118 16.36112893 8.13358646 14.82275391 8.15087891 C12.61355867 8.17509317 10.40461605 8.18647491 8.1953125 8.1953125 C7.50567413 8.20563507 6.81603577 8.21595764 6.10549927 8.22659302 C4.40199094 8.22699478 2.69914057 8.12191026 1 8 C0.34 7.34 -0.32 6.68 -1 6 C-0.625 2.875 -0.625 2.875 0 0 Z " fill="#000000" transform="translate(151,297)"/>
<path d="M0 0 C1.2219104 0.00607269 1.2219104 0.00607269 2.46850586 0.01226807 C3.30438232 0.01035461 4.14025879 0.00844116 5.00146484 0.00646973 C6.77010397 0.00510771 8.53875309 0.0088053 10.30737305 0.01715088 C13.02016579 0.02785031 15.7322963 0.01725631 18.44506836 0.00445557 C20.16121566 0.00577716 21.87736255 0.00833955 23.59350586 0.01226807 C24.40811279 0.0082196 25.22271973 0.00417114 26.06201172 0 C31.80108658 0.04797379 31.80108658 0.04797379 34.03100586 2.27789307 C33.70100586 4.25789307 33.37100586 6.23789307 33.03100586 8.27789307 C19.83100586 8.27789307 6.63100586 8.27789307 -6.96899414 8.27789307 C-7.29899414 6.29789307 -7.62899414 4.31789307 -7.96899414 2.27789307 C-5.36593522 -0.32516585 -3.54620875 0.02964329 0 0 Z " fill="#000000" transform="translate(159.968994140625,35.72210693359375)"/>
<path d="M0 0 C2.5 0.25 2.5 0.25 4.5 2.25 C4.75878906 5.3828125 4.75878906 5.3828125 4.765625 9.375 C4.76753845 10.0777002 4.7694519 10.78040039 4.77142334 11.50439453 C4.77278475 12.99056354 4.76909132 14.47674445 4.76074219 15.96289062 C4.75004154 18.24115646 4.76063839 20.51863377 4.7734375 22.796875 C4.7721159 24.23958508 4.76955349 25.68229466 4.765625 27.125 C4.76336914 28.44242188 4.76111328 29.75984375 4.75878906 31.1171875 C4.5 34.25 4.5 34.25 2.5 36.25 C0 36.5 0 36.5 -2.5 36.25 C-5.40441659 33.34558341 -4.75867736 31.18242155 -4.765625 27.125 C-4.76753845 26.4222998 -4.7694519 25.71959961 -4.77142334 24.99560547 C-4.77278475 23.50943646 -4.76909132 22.02325555 -4.76074219 20.53710938 C-4.75004154 18.25884354 -4.76063839 15.98136623 -4.7734375 13.703125 C-4.7721159 12.26041492 -4.76955349 10.81770534 -4.765625 9.375 C-4.76336914 8.05757812 -4.76111328 6.74015625 -4.75878906 5.3828125 C-4.44186175 1.5461981 -3.9224597 0.39224597 0 0 Z " fill="#000000" transform="translate(88.5,211.75)"/>
<path d="M0 0 C1.2375 0.1546875 1.2375 0.1546875 2.5 0.3125 C4.9286032 3.9554048 4.75761901 5.72553841 4.765625 10.0625 C4.76753845 10.71702148 4.7694519 11.37154297 4.77142334 12.04589844 C4.77278245 13.42773829 4.76910513 14.80959103 4.76074219 16.19140625 C4.75003809 18.3049796 4.76064601 20.41770305 4.7734375 22.53125 C4.77211586 23.87500187 4.76955336 25.21875322 4.765625 26.5625 C4.76336914 27.78453125 4.76111328 29.0065625 4.75878906 30.265625 C4.5 33.3125 4.5 33.3125 2.5 36.3125 C-0.625 36.5 -0.625 36.5 -3.5 36.3125 C-5.75215426 31.80819147 -4.68584447 25.61393789 -4.68530273 20.59960938 C-4.68749143 18.32142523 -4.70565804 16.04372357 -4.72460938 13.765625 C-4.72754293 12.32291833 -4.72952798 10.88020935 -4.73046875 9.4375 C-4.73457764 8.12007812 -4.73868652 6.80265625 -4.74291992 5.4453125 C-4.44435455 1.59486938 -3.90634455 0.48829307 0 0 Z " fill="#000000" transform="translate(233.5,235.6875)"/>
<path d="M0 0 C1.08946678 -0.0049926 1.08946678 -0.0049926 2.20094299 -0.01008606 C3.74015671 -0.015158 5.27938145 -0.0174943 6.81860352 -0.01733398 C9.17808096 -0.01951891 11.53708986 -0.0376669 13.89648438 -0.05664062 C15.38932131 -0.05957477 16.88216048 -0.06155942 18.375 -0.0625 C19.43756264 -0.07327827 19.43756264 -0.07327827 20.52159119 -0.08427429 C25.52508288 -0.06085462 25.52508288 -0.06085462 27.75390625 2.16796875 C27.37890625 5.29296875 27.37890625 5.29296875 26.75390625 8.16796875 C21.94842028 8.21733758 17.14308131 8.25367318 12.33740234 8.27783203 C10.70195953 8.28790129 9.06653476 8.30155756 7.43115234 8.31884766 C5.08296255 8.3430558 2.73501037 8.35444232 0.38671875 8.36328125 C-0.71336014 8.37876511 -0.71336014 8.37876511 -1.83566284 8.39456177 C-3.64072072 8.39496243 -5.44517205 8.2900963 -7.24609375 8.16796875 C-7.90609375 7.50796875 -8.56609375 6.84796875 -9.24609375 6.16796875 C-8.42068448 -0.60038729 -6.15079721 0.00963508 0 0 Z " fill="#000000" transform="translate(165.24609375,155.83203125)"/>
<path d="M0 0 C0.70837509 0.00718552 1.41675018 0.01437103 2.14659119 0.02177429 C3.23749306 0.02246162 3.23749306 0.02246162 4.35043335 0.02316284 C5.88788993 0.02618468 7.42534346 0.03406899 8.9627533 0.0464325 C11.32427229 0.06469731 13.68539954 0.06694214 16.04698181 0.06669617 C17.53852168 0.07161101 19.03005888 0.07743918 20.52159119 0.08427429 C21.23199051 0.08538712 21.94238983 0.08649994 22.67431641 0.08764648 C27.65163129 0.13618939 27.65163129 0.13618939 28.76768494 1.25224304 C28.89268494 4.25224304 28.89268494 4.25224304 28.76768494 7.25224304 C27.03475514 8.98517284 24.80554158 8.3804435 22.49620056 8.39118958 C21.76079041 8.38916534 21.02538025 8.38714111 20.26768494 8.38505554 C19.51680603 8.38601227 18.76592712 8.38696899 17.99229431 8.38795471 C16.40179867 8.38863642 14.81130026 8.38678276 13.22080994 8.38261414 C10.77803839 8.37726571 8.33545072 8.38255938 5.89268494 8.38896179 C4.35101786 8.38830101 2.8093509 8.38701984 1.26768494 8.38505554 C0.53227478 8.38707977 -0.20313538 8.389104 -0.96083069 8.39118958 C-6.11736346 8.36719465 -6.11736346 8.36719465 -7.23231506 7.25224304 C-7.41981506 4.81474304 -7.41981506 4.81474304 -7.23231506 2.25224304 C-4.76324539 -0.21682664 -3.36957737 0.01577186 0 0 Z " fill="#000000" transform="translate(136.23231506347656,319.7477569580078)"/>
<path d="M0 0 C1.18851563 0.00902344 2.37703125 0.01804688 3.6015625 0.02734375 C4.51679688 0.03894531 5.43203125 0.05054688 6.375 0.0625 C7.5 2.375 7.5 2.375 8.375 5.0625 C7.385 6.5475 7.385 6.5475 6.375 8.0625 C3.15234375 8.390625 3.15234375 8.390625 -0.6875 8.3125 C-1.95722656 8.29703125 -3.22695312 8.2815625 -4.53515625 8.265625 C-7.625 8.0625 -7.625 8.0625 -8.625 7.0625 C-8.66580783 5.06291636 -8.66754356 3.06204746 -8.625 1.0625 C-5.74084117 -0.37957941 -3.20778472 -0.03144887 0 0 Z " fill="#000000" transform="translate(135.625,35.9375)"/>
</svg>
