<svg xmlns="http://www.w3.org/2000/svg" width="682.667" height="682.667" version="1.0" viewBox="0 0 512 512"><path d="M54.5 1.6c-3.8.8-11.3 3.5-16.5 6.1-7.8 3.8-10.9 6-17.6 12.7S11.5 30.2 7.7 38C.2 53.4 0 55.2 0 114.7c0 31.6.4 53.2 1 55.4 3.4 12.2 16.6 18.6 30.3 14.8 4.7-1.3 10.2-6 13-11.3 2.2-4 2.2-4.9 2.7-58.1l.5-54 2.5-4.3c1.5-2.7 4.2-5.4 7-7l4.5-2.7L115 47c51.5-.5 53.7-.6 58-2.6 18.8-8.7 16.9-37.9-2.9-43.4-2.2-.6-23.8-1-56.1-.9-41.6 0-54 .4-59.5 1.5M342 .9c-10.3 3.2-16 11-16 22 0 9.8 4.2 17 12.4 21.4 4 2.2 4.9 2.2 58.1 2.7l54 .5 4.3 2.5c2.7 1.5 5.4 4.2 7 7l2.7 4.5.5 54c.5 53.2.5 54.1 2.7 58.1 9.8 18.2 37.9 16 43.3-3.5.6-2.2 1-23.8 1-55.4 0-59.4-.2-61.3-7.6-76.5C495 19 478.1 6 456.8 1.6 450.3.2 440.9 0 396.8.1c-28.8 0-53.4.4-54.8.8"/><path d="M107.4 94.6c-2.3.8-5.8 3.1-7.7 5.1-6.7 6.6-6.7 6.9-6.7 62.5 0 32.7.4 51.4 1.1 54.2 1.4 5.5 5.9 11 11.2 13.9 4.2 2.2 4.3 2.2 57.7 2.2 52.9 0 53.5 0 57.5-2.2 4.6-2.4 7.5-5.4 10.1-10.3 1.8-3.3 1.9-6.7 1.9-57 0-53.4 0-53.5-2.2-57.7-2.9-5.3-8.4-9.8-13.9-11.2-2.8-.7-21.4-1.1-54.6-1-41.4 0-51 .3-54.4 1.5M186 163v23h-46v-46h46zM294.1 94.5c-5.1 1.6-9.4 5.4-12.4 11-2.2 4-2.2 4.6-2.2 57.5s0 53.5 2.2 57.5c2.4 4.6 5.4 7.5 10.3 10.1 3.3 1.8 6.7 1.9 57 1.9 53.4 0 53.5 0 57.7-2.2 5.3-2.9 9.8-8.4 11.2-13.9.7-2.8 1.1-21.4 1.1-53.7 0-55.4-.1-56.1-6.7-62.9-6.6-6.7-7.2-6.8-63.7-6.7-39.4 0-51 .3-54.5 1.4M372 163v23h-46v-46h46zM110.5 279.9c-4.3 1.1-7.6 2.9-11.3 6.4-6 5.8-6.2 7.5-6.2 63.3 0 56 0 55.7 6.8 62.7 6.4 6.6 7.3 6.7 62.9 6.7 32.3 0 50.9-.4 53.7-1.1 5.5-1.4 11-5.9 13.9-11.2 2.2-4.2 2.2-4.3 2.2-57.7 0-50.3-.1-53.7-1.9-57-2.6-4.9-5.5-7.9-10.1-10.3-3.9-2.2-4.8-2.2-55.5-2.4-28.3-.1-52.8.2-54.5.6M186 349v23h-46v-46h46zM296.5 279.9c-7 1.8-11.7 5.6-15.1 12.1-1.5 2.8-1.9 6.5-2.2 18.6-.5 20.3.5 25.4 6.7 31.5 5.4 5.5 10.9 7.4 19.3 6.6 10.3-.9 17.4-6.9 19.8-16.8.7-2.9 1-10.7.8-20.5-.3-16.8-1-19.6-6.2-25.2-4.7-5.2-15.8-8.2-23.1-6.3M366.5 279.9c-10.5 2.7-17.5 11.7-17.5 22.6 0 10 6.6 19.4 15.4 22 6.1 1.8 31.6 2 38.3.3 3.2-.8 6.1-2.5 9.4-5.7 3.9-3.8 4.9-5.6 6-10.5 2.5-11.3-1.7-21.2-11.2-26.6-4.1-2.4-5.3-2.5-20.9-2.7-9.1-.1-17.8.2-19.5.6"/><path d="M11.9 328.7c-5.7 3-9.2 7.1-10.9 13.2-.6 2.2-1 23.8-1 55.4 0 59.5.2 61.3 7.7 76.7 3.8 7.8 6 10.9 12.7 17.6s9.8 8.9 17.6 12.7c15.4 7.5 17.2 7.7 76.7 7.7 31.6 0 53.2-.4 55.4-1 12.2-3.4 18.6-16.6 14.8-30.3-1.3-4.7-6-10.2-11.3-13-4-2.2-4.9-2.2-58.1-2.7l-54-.5-4.3-2.5c-2.7-1.5-5.4-4.2-7-7l-2.7-4.5-.5-54c-.5-53.2-.5-54.1-2.7-58.1-6.2-11.7-20.2-15.8-32.4-9.7M479.6 327.5c-4.7 1.7-9.1 5.7-11.9 11-2.2 3.9-2.2 5.1-2.7 58l-.5 54-2.7 4.5c-1.6 2.8-4.3 5.5-7 7l-4.3 2.5-54 .5c-53.2.5-54.1.5-58.1 2.7-18.2 9.8-16 37.9 3.5 43.3 2.2.6 23.8 1 55.4 1 43.4 0 53-.3 59.5-1.6 21.3-4.4 38.2-17.4 47.6-36.6 7.4-15.2 7.6-17.1 7.6-76.5 0-31.6-.4-53.2-1-55.4-1.7-6.1-5.2-10.2-10.9-13.2-6.2-3.1-13.9-3.6-20.5-1.2"/><path d="M318.8 373.4c-10.4 2.8-15.8 10.4-15.8 21.9 0 10.6 3.3 16.7 11.5 21 3.9 2.1 5.3 2.2 43.8 2.5 46.3.3 47.7.1 54.5-7.2 10.2-11.1 7.3-29.1-5.9-36.6l-4.4-2.5-39.5-.2c-29.8-.2-40.7.1-44.2 1.1"/></svg>