<svg xmlns="http://www.w3.org/2000/svg" width="512" height="512"><path d="M328.534 72.7c5.497 5.127 10.803 10.452 16.13 15.756l4.113 4.082a13397 13397 0 0 1 15.73 15.65q10.805 10.758 21.6 21.526 13.765 13.734 27.564 27.431a8845 8845 0 0 1 19.425 19.346q5.78 5.776 11.587 11.527 5.463 5.41 10.888 10.857a694 694 0 0 0 3.989 3.956c16.918 16.66 16.918 16.66 18.167 28.524-.526 19.83-12.025 29.093-25.306 42.417l-4.122 4.147q-6.733 6.77-13.475 13.53l-4.656 4.673a34442 34442 0 0 1-19.377 19.428 17845 17845 0 0 0-27.685 27.791 10773 10773 0 0 1-19.516 19.58q-5.828 5.83-11.634 11.682-5.46 5.504-10.95 10.975a851 851 0 0 0-3.998 4.024c-9.083 9.197-17.497 17.34-31.196 17.648-9.464-.173-17.195-3.443-23.812-10.25-4.65-6.437-7.128-11.592-7.114-19.583v-2.01c0-2.192.009-4.384.016-6.575l.005-4.56q.006-6 .024-12 .014-6.123.02-12.247.016-12.012.049-24.025a4918 4918 0 0 0-12.21 1.832l-3.438.51c-25.72 3.902-50.558 11.213-73.494 23.653a382 382 0 0 1-5.721 3.013C164.599 353.24 150.732 363.925 138 376a571 571 0 0 1-4.063 3.437C117.85 393.54 105.905 411.932 95.11 430.2c-4.556 7.522-9.816 14.541-18.586 17.297C66.86 449.426 56.592 450.693 48 445c-6.224-4.942-10.958-10.214-13-18-.56-6.05-.527-12.055-.438-18.125l.022-2.572C34.914 368.78 43.574 332.74 60 299l1.266-2.61C69.626 279.344 79.698 263.493 92 249l2.625-3.18C105.273 233.034 116.814 221.184 130 211l2.898-2.344c37.542-29.882 84.485-48.524 132.243-52.761l2.895-.266q3.48-.32 6.964-.629l-.02-2.528q-.09-11.827-.135-23.656c-.016-4.053-.037-8.106-.071-12.16-.033-3.916-.05-7.832-.059-11.749q-.008-2.233-.032-4.468c-.129-12.279 1.088-19.977 9.782-29.166 13.435-12.048 31.24-10.054 44.069 1.426"/></svg>