<?xml version="1.0" encoding="UTF-8"?>
<svg version="1.1" xmlns="http://www.w3.org/2000/svg" width="512" height="512">
<path d="M0 0 C0.94762711 -0.00852997 1.89525421 -0.01705994 2.87159729 -0.02584839 C4.42083641 -0.02448883 4.42083641 -0.02448883 6.00137329 -0.02310181 C7.64102303 -0.03317764 7.64102303 -0.03317764 9.313797 -0.04345703 C12.93186981 -0.06247458 16.5497575 -0.06636312 20.1678772 -0.06851196 C22.6812752 -0.07493714 25.19467244 -0.08166529 27.70806885 -0.08868408 C32.97886355 -0.10066616 38.24961121 -0.10444953 43.52041626 -0.10317993 C49.60534337 -0.10197877 55.68991564 -0.12307698 61.77475297 -0.15466726 C67.6363145 -0.18400982 73.49773598 -0.191155 79.35936356 -0.18996048 C81.84965082 -0.19232145 84.33994068 -0.20117271 86.83018112 -0.21662521 C90.31332615 -0.23621524 93.79555738 -0.23047379 97.27871704 -0.21841431 C98.30749466 -0.22965332 99.33627228 -0.24089233 100.39622498 -0.25247192 C106.15819061 -0.20176524 109.8160963 0.21308869 114.2694397 4.26742554 C116.19265528 7.35256423 116.5186395 9.69725709 116.51553535 13.3042717 C116.51951745 14.325904 116.52349955 15.34753631 116.52760231 16.40012717 C116.52177663 17.52074176 116.51595095 18.64135635 116.50994873 19.79592896 C116.512512 21.58352611 116.512512 21.58352611 116.51512706 23.40723634 C116.51785453 26.71614503 116.51159349 30.02481783 116.50157094 33.33369803 C116.49294246 36.90148653 116.49585617 40.46926761 116.49737549 44.0370636 C116.49842472 50.21884644 116.49214412 56.40058709 116.48089981 62.58235931 C116.46465297 71.52018289 116.45943764 80.45798605 116.45692383 89.39582279 C116.45254544 103.89649231 116.43923245 118.39713933 116.4203186 132.89779663 C116.40196352 146.98470955 116.38780519 161.07161636 116.37930298 175.15853882 C116.37877753 176.02670364 116.37825208 176.89486846 116.37771071 177.7893413 C116.37510066 182.14462346 116.37257324 186.49990566 116.37008691 190.85518789 C116.34934994 226.99261632 116.3141205 263.13001918 116.2694397 299.26742554 C117.23583374 299.23987183 118.20222778 299.21231812 119.19790649 299.18392944 C120.46287964 299.16249878 121.72785278 299.14106812 123.03115845 299.11898804 C124.28630249 299.09143433 125.54144653 299.06388062 126.83462524 299.03549194 C130.20518794 299.26308698 131.55498513 299.50993187 134.0819397 301.64242554 C137.07872964 305.23857347 137.66330499 307.42816418 137.6288147 312.16195679 C136.99362156 315.88336007 134.92964954 317.67055403 132.2694397 320.26742554 C129.27448746 321.76490165 126.20315506 321.40986929 122.91858292 321.40443993 C122.14817441 321.40709175 121.3777659 321.40974358 120.58401167 321.41247576 C117.9752564 321.42019941 115.36654795 321.4207291 112.75778198 321.42132568 C110.87942213 321.42533828 109.00106315 321.42977617 107.12270522 321.43460524 C101.93969057 321.44659907 96.75668524 321.45222568 91.57365942 321.45678639 C85.99206268 321.46273182 80.41047714 321.47434424 74.82888794 321.4850769 C61.33903464 321.50962447 47.84917761 321.5242311 34.35930884 321.53713697 C30.55146773 321.54084706 26.74362699 321.54482043 22.93578625 321.54888964 C-0.69247255 321.57412323 -24.32073216 321.59620024 -47.94900131 321.60861778 C-53.42469027 321.6115392 -58.90037921 321.6145067 -64.37606812 321.61752319 C-65.05636606 321.6178941 -65.736664 321.61826501 -66.43757703 321.61864716 C-88.49913642 321.63080523 -110.56061607 321.66175297 -132.622138 321.70344472 C-155.9375416 321.7474258 -179.25289103 321.77314947 -202.56834245 321.77853835 C-215.28160644 321.7819571 -227.99474464 321.79376698 -240.70796967 321.82664108 C-251.53268695 321.8545854 -262.35725267 321.86566563 -273.18200323 321.85444562 C-278.70780866 321.84924467 -284.23329642 321.85223892 -289.75905609 321.87691116 C-294.81482526 321.89929712 -299.8700466 321.898747 -304.92582467 321.87970729 C-306.75763011 321.87689228 -308.58947186 321.88258849 -310.4212186 321.89752023 C-312.9069306 321.91654858 -315.39067341 321.90489193 -317.87633896 321.88545799 C-318.5915867 321.89830721 -319.30683445 321.91115643 -320.04375637 321.92439502 C-325.6425335 321.82786923 -327.93305343 320.08673121 -331.7305603 316.26742554 C-333.34485954 313.03882707 -333.32626687 309.757489 -332.7305603 306.26742554 C-330.99453925 303.24234408 -328.89475893 300.84952485 -325.7305603 299.26742554 C-323.35653529 299.19626172 -320.98055354 299.18333469 -318.6055603 299.20492554 C-317.32423218 299.21394897 -316.04290405 299.22297241 -314.7227478 299.23226929 C-313.24161499 299.24967163 -313.24161499 299.24967163 -311.7305603 299.26742554 C-311.73424747 298.43289793 -311.73793465 297.59837032 -311.74173355 296.738554 C-311.83007111 276.43261412 -311.89626338 256.12670736 -311.93780899 235.82061577 C-311.95843417 226.00073216 -311.98655396 216.18097682 -312.03231812 206.36117554 C-312.07218719 197.80222555 -312.09799344 189.24336846 -312.10691428 180.6843282 C-312.11212891 176.15234893 -312.12438424 171.6206354 -312.15348053 167.0887413 C-312.18065077 162.82223095 -312.18900208 158.55609557 -312.18299103 154.28950691 C-312.18409055 152.72460072 -312.19203505 151.15968186 -312.2073822 149.59485054 C-312.22733647 147.45512974 -312.22248122 145.31681757 -312.21157837 143.17706299 C-312.21526554 141.9805757 -312.21895271 140.7840884 -312.22275162 139.55134392 C-311.61928776 135.52501108 -310.30702908 133.3931056 -307.7305603 130.26742554 C-304.83293775 128.25354878 -302.48531686 128.01421441 -299 128 C-297.57855934 127.98720505 -297.57855934 127.98720505 -296.12840271 127.97415161 C-294.57916359 127.97551117 -294.57916359 127.97551117 -292.99862671 127.97689819 C-291.90552689 127.97018097 -290.81242706 127.96346375 -289.686203 127.95654297 C-286.06813019 127.93752542 -282.4502425 127.93363688 -278.8321228 127.93148804 C-276.3187248 127.92506286 -273.80532756 127.91833471 -271.29193115 127.91131592 C-266.02113645 127.89933384 -260.75038879 127.89555047 -255.47958374 127.89682007 C-249.39465663 127.89802123 -243.31008436 127.87692302 -237.22524703 127.84533274 C-231.3636855 127.81599018 -225.50226402 127.808845 -219.64063644 127.81003952 C-217.15034918 127.80767855 -214.66005932 127.79882729 -212.16981888 127.78337479 C-208.68667385 127.76378476 -205.20444262 127.76952621 -201.72128296 127.78158569 C-200.69250534 127.77034668 -199.66372772 127.75910767 -198.60377502 127.74752808 C-192.66623987 127.79977982 -189.2351681 128.28189272 -184.7305603 132.26742554 C-182.31341477 135.89314384 -182.48345801 137.53897693 -182.49005127 141.85426331 C-182.48834242 142.52652917 -182.48663357 143.19879503 -182.48487294 143.89143258 C-182.48157337 146.14862587 -182.4925892 148.40552321 -182.50350952 150.66268921 C-182.50407354 152.27887464 -182.50375727 153.89506059 -182.50262451 155.51124573 C-182.50204961 159.90353468 -182.51382606 164.29571487 -182.52777243 168.68797851 C-182.54025698 173.27641104 -182.54144849 177.86484595 -182.54382324 182.45329285 C-182.55004471 191.14429542 -182.56646454 199.8352478 -182.58652222 208.52622825 C-182.60886049 218.41969384 -182.61986943 228.3131618 -182.62991309 238.20664632 C-182.65083019 258.56026819 -182.68642098 278.91384194 -182.7305603 299.26742554 C-175.8005603 299.26742554 -168.8705603 299.26742554 -161.7305603 299.26742554 C-161.74166336 296.40959915 -161.75276642 293.55177277 -161.76420593 290.60734558 C-161.8636822 264.40594497 -161.93833603 238.20455947 -161.98588695 212.00301229 C-161.99214055 208.56958391 -161.99861216 205.13615598 -162.00521851 201.70272827 C-162.00718583 200.67741943 -162.00718583 200.67741943 -162.00919291 199.63139727 C-162.03095483 188.56077965 -162.07038062 177.49029174 -162.11632428 166.41975109 C-162.1630672 155.06197433 -162.19047676 143.70429376 -162.20100278 132.34641474 C-162.20753007 125.96612774 -162.2229065 119.58613499 -162.25921059 113.20594215 C-162.29308935 107.20348307 -162.3036295 101.20144011 -162.29609871 95.1988945 C-162.29747687 92.99338077 -162.30745726 90.78785345 -162.32658768 88.58242226 C-162.35139819 85.57524137 -162.34550877 82.56963973 -162.33183289 79.56242371 C-162.3536792 78.24772928 -162.3536792 78.24772928 -162.37596685 76.90647537 C-162.32215362 72.54069499 -162.14767658 70.80316884 -159.38048077 67.24898815 C-155.88204105 64.63291818 -153.39826514 64.14245228 -149.15148926 64.12698364 C-148.21220581 64.1212735 -147.27292236 64.11556335 -146.30517578 64.10968018 C-144.76221329 64.10800339 -144.76221329 64.10800339 -143.18807983 64.10629272 C-141.56087006 64.09884537 -141.56087006 64.09884537 -139.90078735 64.09124756 C-136.3049761 64.07661844 -132.70920895 64.06982301 -129.1133728 64.06430054 C-126.61857095 64.05855015 -124.12376911 64.0527924 -121.62896729 64.04702759 C-117.06428604 64.0378598 -112.49961747 64.03156005 -107.93492806 64.02853084 C-101.8880579 64.02449573 -95.84134291 64.01220932 -89.79452515 63.98617554 C-83.30716315 63.95867359 -76.81993441 63.94578466 -70.33251572 63.94385529 C-67.85815192 63.94082499 -65.38378906 63.93278385 -62.90945816 63.9196701 C-59.45009116 63.90264312 -55.99122156 63.90448182 -52.53182983 63.91098022 C-51.50723663 63.90176544 -50.48264343 63.89255066 -49.42700195 63.88305664 C-43.29264025 63.91921111 -39.89033891 64.59111215 -35.12785548 68.62490684 C-32.61309406 71.58100568 -33.3330465 75.61141099 -33.36979675 79.32191467 C-33.36723348 80.25961144 -33.3646702 81.1973082 -33.36202925 82.16342002 C-33.35707099 85.31894794 -33.37361808 88.47400193 -33.38998413 91.62948608 C-33.39082996 93.88605742 -33.39035613 96.14262958 -33.38865662 98.39920044 C-33.38779352 104.53732863 -33.40547019 110.67528205 -33.42637849 116.81336951 C-33.44509293 123.22356777 -33.44689159 129.63376973 -33.45045471 136.04399109 C-33.45872892 146.80706389 -33.47748585 157.57006006 -33.50424194 168.33309937 C-33.53177371 179.41968463 -33.5530116 190.50625245 -33.56576538 201.59286499 C-33.56655355 202.27609881 -33.56734172 202.95933262 -33.56815378 203.6632705 C-33.57206885 207.0908108 -33.57585999 210.51835123 -33.57958949 213.94589174 C-33.61069601 242.38644874 -33.66436598 270.82693038 -33.7305603 299.26742554 C-26.8005603 299.26742554 -19.8705603 299.26742554 -12.7305603 299.26742554 C-12.73424747 297.76714467 -12.73793465 296.2668638 -12.74173355 294.72111988 C-12.82832955 259.12261257 -12.89430461 223.52411989 -12.93482162 187.92552926 C-12.93982456 183.54576078 -12.94500184 179.16599252 -12.95028687 174.78622437 C-12.95133611 173.9142764 -12.95238535 173.04232844 -12.95346639 172.14395782 C-12.97088059 158.01794082 -13.00242386 143.8919888 -13.03917149 129.76601038 C-13.07655267 115.27584128 -13.09879017 100.78570626 -13.10691428 86.29549092 C-13.11240793 77.35129359 -13.12977078 68.40727994 -13.16222617 59.46313914 C-13.18333924 53.33319006 -13.18976764 47.2033362 -13.18456581 41.07335339 C-13.181999 37.53446724 -13.18598566 33.99590248 -13.2073822 30.45707321 C-13.23039707 26.62264482 -13.22252971 22.7886374 -13.21157837 18.95414734 C-13.22322973 17.83255464 -13.2348811 16.71096195 -13.24688554 15.5553816 C-13.18881967 8.06688452 -13.18881967 8.06688452 -10.95049667 4.16200542 C-7.29065193 1.03855183 -4.80960963 0.01961536 0 0 Z M9.2694397 22.26742554 C9.2694397 113.67742554 9.2694397 205.08742554 9.2694397 299.26742554 C37.3194397 299.26742554 65.3694397 299.26742554 94.2694397 299.26742554 C94.2694397 207.85742554 94.2694397 116.44742554 94.2694397 22.26742554 C66.2194397 22.26742554 38.1694397 22.26742554 9.2694397 22.26742554 Z M-139.7305603 86.26742554 C-139.7305603 156.55742554 -139.7305603 226.84742554 -139.7305603 299.26742554 C-112.0105603 299.26742554 -84.2905603 299.26742554 -55.7305603 299.26742554 C-55.7305603 228.97742554 -55.7305603 158.68742554 -55.7305603 86.26742554 C-83.4505603 86.26742554 -111.1705603 86.26742554 -139.7305603 86.26742554 Z M-289.7305603 150.26742554 C-289.7305603 199.43742554 -289.7305603 248.60742554 -289.7305603 299.26742554 C-261.6805603 299.26742554 -233.6305603 299.26742554 -204.7305603 299.26742554 C-204.7305603 250.09742554 -204.7305603 200.92742554 -204.7305603 150.26742554 C-232.7805603 150.26742554 -260.8305603 150.26742554 -289.7305603 150.26742554 Z " fill="#000000" transform="translate(353.7305603027344,169.73257446289063)"/>
<path d="M0 0 C0.89773636 -0.00817749 1.79547272 -0.01635498 2.72041321 -0.02478027 C5.6999952 -0.04965155 8.67952948 -0.06615531 11.65917969 -0.08056641 C13.18423756 -0.08855192 13.18423756 -0.08855192 14.74010468 -0.09669876 C20.12213894 -0.12343871 25.50414995 -0.14281035 30.88623047 -0.15722656 C36.44602876 -0.17387054 42.00523384 -0.21864408 47.56480789 -0.26959801 C51.83879274 -0.30325325 56.11263656 -0.31480217 60.38674164 -0.32045364 C62.43606852 -0.32717156 64.48538595 -0.3424076 66.53458405 -0.36634445 C69.40505792 -0.39795967 72.27392901 -0.39803808 75.14453125 -0.390625 C75.98943619 -0.40703033 76.83434113 -0.42343567 77.70484924 -0.44033813 C81.88977879 -0.39615308 84.52790555 -0.07241597 87.8427124 2.6043396 C91.28583793 6.18609719 91.54960034 8.01199679 91.48087502 12.95562172 C91.2329148 16.6583825 90.36884985 20.14606278 89.45092773 23.73266602 C89.25092163 24.54510269 89.05091553 25.35753937 88.84484863 26.19459534 C88.18682414 28.85659708 87.51526617 31.51495952 86.84277344 34.17333984 C86.37855075 36.03308278 85.91492174 37.892974 85.45185852 39.75300598 C84.4818388 43.64034731 83.50518585 47.52594334 82.52368164 51.41040039 C81.26748452 56.38394256 80.02714557 61.36127703 78.79162884 66.33999157 C77.83770658 70.17710602 76.87583205 74.01219211 75.91150856 77.84670448 C75.45106693 79.68129947 74.992995 81.51649092 74.53735924 83.35228539 C73.89936183 85.91737152 73.25079742 88.47955749 72.59936523 91.04125977 C72.41378555 91.79617706 72.22820587 92.55109436 72.03700256 93.32888794 C70.76040854 98.28570594 69.13169605 102.18446342 65.70605469 106.00537109 C61.98282827 107.8669843 58.40538777 107.86829529 54.33105469 107.19287109 C51.460756 105.39893442 49.83973831 104.21023833 48.33105469 101.19287109 C47.67517786 94.00331571 48.91697048 87.53613238 50.77246094 80.62646484 C51.01898911 79.66636002 51.26551727 78.70625519 51.51951599 77.71705627 C52.29957543 74.68510177 53.09543827 71.65761773 53.89355469 68.63037109 C54.69302632 65.57049003 55.48902153 62.50980614 56.27830505 59.44728088 C56.76817237 57.54923463 57.26431967 55.6527963 57.76722717 53.75816345 C57.98753098 52.90960281 58.20783478 52.06104218 58.43481445 51.18676758 C58.63244888 50.43749496 58.83008331 49.68822235 59.03370667 48.91624451 C59.18089394 48.06317467 59.18089394 48.06317467 59.33105469 47.19287109 C59.00105469 46.86287109 58.67105469 46.53287109 58.33105469 46.19287109 C57.48285156 46.93150391 56.63464844 47.67013672 55.76074219 48.43115234 C48.12713643 55.04687064 40.37639409 61.45619063 32.37304688 67.61914062 C30.92606788 68.73430402 29.48166024 69.85280751 28.0390625 70.97363281 C14.45502434 81.52305424 0.54709993 91.51374555 -13.66894531 101.19287109 C-14.73967285 101.92328613 -14.73967285 101.92328613 -15.83203125 102.66845703 C-20.08019821 105.55788993 -24.35931348 108.39599439 -28.66894531 111.19287109 C-29.35778809 111.64017578 -30.04663086 112.08748047 -30.75634766 112.54833984 C-69.91342762 137.86130719 -111.59863325 160.26684769 -154.66894531 178.19287109 C-155.78527344 178.65967285 -156.90160156 179.12647461 -158.05175781 179.60742188 C-220.11150076 205.39971249 -284.59131832 223.20070329 -350.92285156 233.88037109 C-352.07715416 234.06859436 -352.07715416 234.06859436 -353.254776 234.26062012 C-369.72236341 236.85725836 -369.72236341 236.85725836 -374.53613281 234.13818359 C-378.23332182 230.60809918 -378.82317516 227.39421949 -379.19238281 222.45849609 C-378.38227155 218.95204434 -376.31358286 216.52803367 -373.66894531 214.19287109 C-370.25195312 213.04516602 -370.25195312 213.04516602 -366.37207031 212.48583984 C-365.67140442 212.37652634 -364.97073853 212.26721283 -364.24884033 212.15458679 C-362.78276169 211.92726217 -361.31504353 211.71028501 -359.84594727 211.50335693 C-357.1209715 211.11471861 -354.40945707 210.66047776 -351.69544983 210.20237732 C-349.68105653 209.86279188 -347.66532321 209.5323316 -345.64916992 209.20336914 C-289.88372183 200.04234004 -235.22391766 184.96509791 -182.66894531 164.19287109 C-180.86369385 163.48227539 -180.86369385 163.48227539 -179.02197266 162.75732422 C-141.83864593 148.01543697 -105.75083538 130.34612001 -71.41796875 109.83056641 C-68.84598823 108.29834213 -66.26372486 106.78554908 -63.67675781 105.27880859 C-26.50298059 83.49530531 8.46752236 57.70048213 41.17285156 29.70532227 C43.82855947 27.43566913 46.52604649 25.27383749 49.33105469 23.19287109 C48.61774994 23.18922546 47.90444519 23.18557983 47.16952515 23.18182373 C40.43113409 23.14387985 33.69319794 23.0869553 26.95514488 23.00896835 C23.49139957 22.96954114 20.02790665 22.93732989 16.56396484 22.921875 C12.57714532 22.90376557 8.59102512 22.85379298 4.60449219 22.80224609 C3.3667807 22.80101746 2.12906921 22.79978882 0.85385132 22.79852295 C-9.93723335 22.61520587 -9.93723335 22.61520587 -14.66894531 18.19287109 C-16.52621147 14.47833878 -16.25395621 10.23707684 -15.66894531 6.19287109 C-10.97348278 0.13819572 -7.23983856 0.03615624 0 0 Z " fill="#000000" transform="translate(399.6689453125,20.80712890625)"/>
</svg>
