<svg xmlns="http://www.w3.org/2000/svg" width="682.667" height="682.667" version="1.0" viewBox="0 0 512 512"><path d="M145 75.4c-69.4 31-98.1 44.3-99.7 46.1l-2.3 2.6v242.8l2.2 2.5c1.6 1.7 33.6 16.4 97.3 44.7 52.3 23.2 96.9 42.9 99.3 43.7 4.3 1.5 4.3 1.5 13-2.9 10.7-5.4 13.2-8.7 11.3-15-1.3-4.4-5.8-7.9-10-7.9-1.4 0-4.4.9-6.7 2.1l-4.3 2-90.6-40.2L64 355.7V250.4c0-58 .3-105.4.6-105.4.4 0 40.7 17.8 89.7 39.6 71.8 31.9 89.7 39.5 92.2 39.1 1.7-.3 42.2-17.9 90-39.2 47.9-21.3 87.8-39 88.8-39.2 1.6-.5 1.7 2.2 1.7 46.3 0 42.9.2 47.1 1.8 49 4.4 5.5 10.9 5.9 15.8 1l3.4-3.4v-56.4c0-53.4-.1-56.5-1.9-59.4-1.7-2.7-12.6-7.8-99.2-46.4-53.6-23.8-99-43.4-100.9-43.6-2.9-.3-20.4 7.1-101 43m163.2 7.7c-.8.8-161 72-163.4 72.6-1.6.5-63.8-26.6-63.8-27.7 0-.3 37-17 82.2-37.1l82.2-36.5 31.7 14c17.5 7.8 31.4 14.4 31.1 14.7m65 28.1c20.3 9 36.8 16.5 36.8 16.8s-37 16.9-82.3 37.1l-82.3 36.5-37.2-16.5C187.7 176 171 168.3 171 168c.1-.7 162.1-72.8 164-72.9.8-.1 18 7.2 38.2 16.1"/><path d="M350.5 246.1c-51.4 6.1-91.2 48.3-94.2 100-2.1 37.2 16 73.7 46.9 94.2C374.3 487.6 469 437.1 469 352c0-54.3-40.1-99.2-94.5-105.9-10-1.2-13.8-1.2-24 0m35.3 23.8c28.2 8.2 50.2 30.1 58.8 58.6 2.4 8 2.7 10.6 2.7 23.5s-.3 15.5-2.7 23.5c-8.6 28.5-30.6 50.4-58.8 58.6-10.4 3-28.8 3.7-39.6 1.5-17.7-3.6-29.9-10.3-43.7-24.1-8.9-8.8-10.7-11.2-15.3-20.5-7.3-14.6-9.4-23.4-9.4-39 0-14.7 2-23.9 8.1-36.7 4.8-10 9.9-16.9 18.2-24.9 12.5-11.8 24.1-18 41.4-22 8.9-2 30.9-1.2 40.3 1.5"/><path d="M400 321.6c-1.4.9-12.7 11.8-25.2 24.2l-22.7 22.6-11-10.7C330.4 347.2 330 347 325.5 347c-3.8 0-5.2.5-7.6 2.9s-2.9 3.8-2.9 7.7v4.8l15.8 15.7c17.1 17.1 19.3 18.4 25.5 15.4 1.8-.8 15.8-14 30.9-29.3 23.4-23.4 27.7-28.3 28.3-31.3 1.6-8.9-8.3-16.1-15.5-11.3"/></svg>