<svg xmlns="http://www.w3.org/2000/svg" width="512" height="512"><path d="M158.563 1.563C165.636 6.028 170.879 11.81 173 20c.647 6.324.375 12.72.25 19.063L173 57h56c-.197-11.727-.197-11.727-.45-23.453-.153-10.602.802-18.065 7.887-26.422C245.346-.262 252.896-.787 264 0c8.074 2.185 12.761 8.263 16.984 15.133 2.36 4.338 2.145 8.46 2.114 13.254l-.003 2.195c-.006 2.702-.02 5.404-.033 8.105L283 57h56c-.197-11.727-.197-11.727-.45-23.453-.153-10.602.802-18.065 7.887-26.422C355.346-.262 362.895-.787 374 0c5.557 1.504 9.226 4.702 13 9l2.188 2.438c3.876 5.48 4.093 10.78 4.007 17.242l-.008 2.463a1386 1386 0 0 1-.062 7.732q-.016 2.632-.027 5.266Q393.063 50.57 393 57l3.513-.048c4.343-.054 8.685-.088 13.028-.117q2.807-.022 5.615-.061c24.878-.339 24.878-.339 32.719 6.851l2.117 1.852c6.11 7.679 6.587 15.293 6.523 24.84q.008 2.007.02 4.012c.02 3.655.013 7.31.003 10.964-.007 3.95.009 7.898.022 11.847.021 7.726.021 15.453.013 23.18q-.008 9.416.001 18.833l.003 2.71.006 5.448c.016 17.02.007 34.038-.01 51.057-.014 15.578 0 31.156.03 46.734a19721 19721 0 0 1 .026 56.11q-.002 9.411.022 18.822.027 11.46-.005 22.92c-.012 3.9-.015 7.799.004 11.698.02 4.222 0 8.443-.022 12.665l.036 3.755c-.09 8.235-.09 8.235-2.977 11.725-3.668 1.642-5.854 1.268-9.687.203-2.306-1.68-2.927-2.54-3.377-5.384l-.002-2.885-.025-3.33.019-3.673-.016-3.891c-.014-3.571-.01-7.142-.002-10.714.004-3.848-.008-7.697-.019-11.546q-.023-10.009-.02-20.017c.003-9.655-.013-19.31-.034-28.964q-.049-23.51-.068-47.02l-.002-2.844-.01-11.408a95259 95259 0 0 0-.034-34.215q-.028-23.413-.075-46.827-.029-14.445-.03-28.89-.003-9.9-.023-19.8-.012-5.712-.007-11.425c.005-4.129-.005-8.258-.017-12.387l.012-3.646c-.029-5.742-.162-10.756-2.27-16.134-4.54-4.394-9.612-4.194-15.605-4.316l-2.544-.063q-4.02-.097-8.038-.183l-5.452-.131q-6.68-.16-13.361-.307l.105 3.656q.043 2.423.082 4.844l.077 2.398c.106 8.625-2.396 14.98-8.295 21.34-6.17 5.522-13.238 7.1-21.317 6.969-8.27-.645-14.117-4.109-19.652-10.207-6.735-9.323-5-16.744-5-29h-56v18c-3.15 8.4-6.088 14.252-14.187 18.438-7.166 3.254-14.859 3.64-22.438 1.5C238.623 108.015 233.472 102.36 230 95c-1.78-7.122-1-14.66-1-22h-56v18c-3.15 8.4-6.088 14.252-14.187 18.438-7.166 3.254-14.859 3.64-22.438 1.5-7.425-2.834-13.193-8.337-16.454-15.587-1.227-4.463-1.136-8.608-1.046-13.21l.027-2.668c.024-2.158.06-4.315.098-6.473q-7.953.105-15.906.262-2.703.051-5.406.084c-2.597.034-5.193.086-7.79.142l-2.425.02c-4.853.126-8.281.79-12.473 3.492-3.613 5.42-3.133 11.013-3.14 17.316l-.06 5.502c-.028 2.88-.05 5.758-.05 8.638a639 639 0 0 1-.078 8.36l.021 2.608c-.085 4.195-.122 5.94-3.008 9.154-3.667 1.942-5.742 1.517-9.685.422-2.154-1.619-2.905-2.48-3.394-5.154l-.026-2.526-.048-2.874v-3.106l-.024-3.211q-.015-3.37-.009-6.741c.001-3.413-.04-6.825-.085-10.238q-.008-3.28-.008-6.56l-.05-3.063c.088-9.074 2.884-16.017 9.331-22.464 9.27-8.365 23.41-6.411 34.938-6.25q2.822.022 5.645.04c4.577.033 9.153.085 13.73.147l-.08-3.238c-.09-4.007-.148-8.013-.195-12.02a481 481 0 0 0-.102-5.18c-.286-11.629-.03-20.184 7.814-29.437 8.66-7.18 21.264-10.585 32.126-5.562M136 21c-1.393 2.785-1.15 5.09-1.177 8.206l-.039 3.955q-.012 2.148-.022 4.296l-.013 2.182q-.03 5.718-.044 11.435c-.011 3.935-.046 7.869-.085 11.803-.027 3.027-.035 6.055-.038 9.082q-.008 2.175-.035 4.35a429 429 0 0 0-.017 6.097l-.018 3.5c.592 3.752 1.882 5.386 4.488 8.094 3.27 2.289 6.07 2.472 10 2 3.968-2.137 6.41-3.768 8-8 .323-2.989.323-2.989.306-6.326l.049-3.884q.01-2.094.016-4.188l.027-4.312q.024-4.517.028-9.033c.005-3.85.043-7.698.088-11.547.03-2.968.037-5.936.038-8.905q.006-2.128.038-4.255c.443-8.733.443-8.733-3-16.404-3.577-2.964-5.786-3.54-10.485-3.505-3.72.635-5.508 2.699-8.105 5.359m110 0c-1.38 2.76-1.15 5.01-1.177 8.099l-.039 3.884q-.012 2.11-.022 4.22l-.013 2.145q-.03 5.622-.044 11.244c-.011 3.865-.046 7.73-.085 11.594-.027 2.977-.035 5.954-.038 8.93a444 444 0 0 1-.035 4.273 414 414 0 0 0-.017 5.995l-.018 3.44c.6 3.909 2.073 6.084 4.488 9.176 3.208 2.352 6.096 2.468 10 2 3.968-2.137 6.41-3.768 8-8 .323-2.989.323-2.989.306-6.326l.049-3.884q.01-2.094.016-4.188l.027-4.312q.024-4.517.028-9.033c.005-3.85.043-7.698.088-11.547.03-2.968.037-5.936.038-8.905q.006-2.128.038-4.255c.443-8.733.443-8.733-3-16.404-3.577-2.964-5.786-3.54-10.485-3.505-3.72.635-5.508 2.699-8.105 5.359m110 0c-1.38 2.76-1.15 5.01-1.177 8.099l-.039 3.884q-.013 2.11-.022 4.22l-.013 2.145q-.03 5.622-.044 11.244c-.011 3.865-.046 7.73-.085 11.594-.027 2.977-.035 5.954-.038 8.93a444 444 0 0 1-.035 4.273 414 414 0 0 0-.017 5.995l-.018 3.44c.6 3.909 2.073 6.084 4.488 9.176 3.208 2.352 6.096 2.468 10 2 3.658-2.04 5.67-3.504 8-7 .326-2.93.326-2.93.306-6.304l.049-3.945q.01-2.135.016-4.27l.027-4.384q.024-4.596.028-9.192c.005-3.918.043-7.834.088-11.752.03-3.019.037-6.037.038-9.057q.006-2.165.038-4.33c.461-8.851.461-8.851-3-16.636-3.58-2.944-5.796-3.524-10.485-3.49-3.72.636-5.508 2.7-8.105 5.36M63.5 148.5c4.102.586 4.997 1.293 7.5 4.5.5 2.618.5 2.618.502 5.658l.031 3.515-.027 3.865q.006 2.052.018 4.104c.016 3.763.008 7.525-.005 11.288-.009 4.057.005 8.113.017 12.17q.023 10.547.011 21.094c-.01 10.174.003 20.348.022 30.521q.047 24.774.05 49.548v2.996l.001 3q.004 21.044.022 42.087l.002 2.99q.022 24.675.061 49.35.024 15.22.02 30.444-.003 10.431.012 20.862.01 6.02.001 12.039-.008 5.511.007 11.023c.003 1.957-.003 3.915-.01 5.872-.301 9.957-.301 9.957 4.078 18.449 4.227 2.174 8.502 2.25 13.186 2.254l3.67.01 4.02-.005 4.28.007q5.88.008 11.76.004 6.342.002 12.684.01 12.425.012 24.848.012 10.098 0 20.196.006 28.623.013 57.245.012h6.239q25.047.002 50.094.023 25.713.023 51.424.02 14.438-.001 28.876.014 12.29.014 24.583.005 6.27-.007 12.543.005 5.742.011 11.484-.002 2.076-.003 4.153.005c11.162.562 11.162.562 20.777-4.067 2.145-4.17 2.25-8.395 2.267-13.016l.021-3.479.013-3.728q.034-3.914.072-7.826c.036-4.11.066-8.221.078-12.332.012-3.968.056-7.936.1-11.905l-.006-3.734.05-3.469.018-3.05c.654-3.383 1.804-4.573 4.512-6.649 3.872-.553 6-.748 9.185 1.634 2.357 3.073 2.327 4.87 2.348 8.72l.048 3.905q-.004 2.109-.015 4.218.009 2.175.02 4.35.014 4.561-.01 9.124c-.017 3.873.007 7.745.042 11.619.022 2.998.02 5.995.012 8.993q0 2.14.02 4.279c.086 9.615-.652 17.739-7.405 25.061-7.99 7.569-16.252 7.534-26.762 7.491q-2.24.007-4.477.019c-4.092.016-8.184.014-12.276.008-4.417-.002-8.834.012-13.25.025q-12.975.028-25.95.023a16980 16980 0 0 0-27.172.017l-3.055.003c-19.069.019-38.137.018-57.206.01-17.44-.005-34.878.016-52.318.05q-26.867.05-53.733.043c-10.054-.002-20.108.003-30.162.028q-12.84.033-25.679.006c-4.366-.01-8.731-.01-13.097.01q-6 .028-12.001-.008-2.165-.006-4.33.013c-9.483.084-17.461-.742-24.682-7.396-7.378-7.797-7.53-15.678-7.483-25.968q-.007-2.107-.016-4.216c-.014-3.854-.01-7.706-.003-11.56.005-4.158-.008-8.317-.018-12.476-.017-8.142-.018-16.285-.013-24.427a13987 13987 0 0 0-.005-22.701l-.004-5.738c-.014-17.933-.009-35.865.003-53.797.01-16.415-.003-32.83-.027-49.246q-.037-25.276-.027-50.553.006-14.194-.017-28.387-.022-12.078.002-24.156c.009-4.11.011-8.22-.004-12.33q-.02-5.639.01-11.278c.006-2.01-.009-4.02-.023-6.03l.03-3.6v-3.113c.903-4.818 3.293-6.497 8-7.169"/><path d="m222.026 177.726 2.107-.016c2.325-.015 4.649-.016 6.973-.016q2.505-.012 5.008-.026c4.531-.022 9.062-.03 13.594-.035q4.25-.006 8.5-.017 14.84-.037 29.679-.042c9.208-.003 18.417-.033 27.625-.075q11.872-.051 23.746-.05c4.723-.002 9.446-.01 14.169-.039q6.669-.038 13.339-.012a446 446 0 0 0 4.878-.02c8.92-.083 16.89.038 24.356 5.622 5.284 5.427 7.61 10.786 8.313 18.375-.681 7.899-3.217 14.374-9.313 19.625-6.116 3.877-11.43 5.122-18.647 5.14l-2.02.01q-3.35.01-6.699.011l-4.805.015q-6.527.019-13.055.024l-8.16.012q-12.777.02-25.551.027-14.733.007-29.465.05-11.396.033-22.792.034-6.803 0-13.605.025-6.403.023-12.806.01-2.343-.002-4.686.013c-10.6.063-20.249-.257-28.709-7.371-5.784-7.743-6.786-14.4-6-24 1.709-6.65 6.465-11.186 12-15 4.103-2.009 7.48-2.257 12.026-2.274M214 199c-.917 3-.917 3 0 6 2.804 3.568 4.582 4.791 9.109 5.458 4.099.182 8.17.195 12.272.157q2.37.006 4.737.017c4.279.014 8.557-.003 12.836-.026 4.48-.02 8.962-.014 13.442-.012 7.523 0 15.046-.02 22.569-.052 8.695-.037 17.39-.046 26.086-.039 8.37.007 16.738-.004 25.107-.024q5.34-.011 10.68-.009 6.288 0 12.576-.04 2.306-.01 4.613-.005c2.1.004 4.2-.011 6.3-.03l3.56-.012c3.451-.425 5.33-1.339 8.113-3.383 1.747-2.382 2.023-3.545 1.875-6.5-1.102-3.148-2.261-4.424-4.875-6.5-3.123-.604-3.123-.604-6.673-.515l-2.03-.02c-2.242-.019-4.484-.009-6.726.002q-2.413-.011-4.825-.027c-4.368-.022-8.735-.02-13.103-.01-3.646.005-7.292-.002-10.937-.01q-12.9-.024-25.801.004c-8.875.017-17.748 0-26.622-.032q-11.427-.039-22.854-.025c-4.55.005-9.1.003-13.65-.018q-6.42-.025-12.837.012-2.355.008-4.71-.01a357 357 0 0 0-6.432.02l-3.635.003c-4.097.81-5.59 2.406-8.165 5.626M223.994 375.733l2.06-.014c2.267-.013 4.533-.011 6.799-.01q2.445-.008 4.89-.02c4.419-.018 8.839-.022 13.258-.024q4.147-.001 8.293-.01 14.48-.028 28.96-.026c8.982.002 17.965-.02 26.948-.051q11.586-.038 23.173-.036c4.608 0 9.215-.005 13.823-.026q6.506-.029 13.012-.005a530 530 0 0 0 4.757-.015c9.7-.07 18.434.252 26.435 6.328 4.797 5.822 7.084 11.136 8.036 18.614-.945 7.687-3.825 13.608-9.266 19.09-8.151 5.526-16.99 4.912-26.435 4.892q-2.475.01-4.95.026c-4.465.022-8.93.025-13.395.023q-5.603.002-11.205.017-13.222.027-26.446.015c-9.077-.007-18.154.016-27.231.053q-11.715.045-23.428.038c-4.657-.002-9.314.004-13.971.028a1352 1352 0 0 1-13.144 0q-2.403-.005-4.806.016c-9.903.083-18.47-.4-26.086-7.408-5.618-5.942-6.615-12.126-6.446-20.126.832-6.954 3.84-12.256 9.309-16.602 5.326-3.762 10.614-4.75 17.056-4.767M215 395c-1.444 2.889-1.377 4.796-1 8 2.552 3.23 4.06 4.813 8.147 5.626l3.609.002 2.019.022c2.226.017 4.45 0 6.676-.019q2.398.008 4.796.022c4.337.018 8.673.005 13.01-.014 4.54-.017 9.078-.008 13.618-.003 7.623.005 15.246-.011 22.869-.04 8.812-.031 17.623-.031 26.436-.014 8.478.016 16.956.01 25.435-.008q5.411-.01 10.822.002 6.373.01 12.745-.032 2.34-.01 4.677 0a440 440 0 0 0 6.385-.03l3.61-.008c3.786-.609 5.445-1.83 8.146-4.506 1.162-2.394 1.162-2.394 1-5-1.622-3.486-2.765-4.843-6-7-2.999-.306-2.999-.306-6.477-.26-.66-.005-1.321-.008-2.002-.012-2.218-.01-4.435-.007-6.653-.003q-2.383-.007-4.765-.015a3509 3509 0 0 0-12.955-.012q-5.405 0-10.81-.008-12.751-.016-25.504-.006a8443 8443 0 0 1-26.316-.027q-11.293-.026-22.586-.02c-4.498.001-8.996-.001-13.493-.015q-6.345-.019-12.691.002-2.329.004-4.658-.009c-2.12-.01-4.239-.002-6.359.01h-3.594c-3.47.415-5.356 1.295-8.137 3.375M223.204 276.619l2.092-.014c2.295-.012 4.59-.003 6.885.007q2.48-.006 4.96-.016c4.477-.014 8.954-.008 13.431.001 4.693.008 9.386 0 14.079-.004q11.82-.007 23.642.016c9.1.016 18.201.01 27.302-.006q11.735-.02 23.47-.007 7.003.008 14.005-.005 6.585-.012 13.171.015 2.412.006 4.823-.004c16.832-.063 16.832-.063 24.108 4.87 5.44 5.482 8.321 11.403 9.266 19.09-.952 7.478-3.239 12.792-8.036 18.614-8.654 6.572-18.344 6.395-28.74 6.326q-2.451.005-4.902.016c-4.41.014-8.822.003-13.233-.014-4.628-.014-9.257-.007-13.886-.003q-11.653.002-23.306-.034c-8.97-.027-17.939-.029-26.908-.017q-12.972.014-25.943-.01-5.508-.007-11.016 0-6.489.006-12.977-.028a713 713 0 0 0-4.75 0c-18.925.052-18.925.052-26.354-6.787-5.287-6.195-7.195-12.66-6.801-20.73 1.022-7.145 3.804-12.022 9.34-16.606 5.46-3.394 9.849-4.664 16.278-4.67M214 298c-.75 3.043-.75 3.043 0 6 1.867 2.303 3.356 3.678 6 5 2.117.103 4.237.14 6.357.147l2 .011q3.33.015 6.662.019l4.764.02q6.484.025 12.968.036l8.098.018q12.663.029 25.326.041 14.626.015 29.254.077 11.3.044 22.599.048c4.5.002 9.002.011 13.503.036q6.35.034 12.703.018 2.331 0 4.662.02c2.123.017 4.244.01 6.366-.003l3.598.007c3.8-.599 5.448-1.793 8.14-4.495 1.247-2.897 1.247-2.897 1-6-1.77-2.747-3.063-4.531-6-6a143 143 0 0 0-6.395-.154l-2.011-.013c-2.235-.014-4.47-.02-6.705-.026l-4.794-.025a6922 6922 0 0 0-15.77-.055l-5.426-.017q-11.28-.033-22.562-.051a8571 8571 0 0 1-32.357-.107q-11.37-.056-22.739-.063c-4.529-.004-9.057-.016-13.587-.048q-6.39-.044-12.782-.025-2.345 0-4.69-.025c-2.137-.023-4.27-.015-6.406.001l-3.62-.01c-4.097.802-5.59 2.394-8.156 5.618M187 249c3.216 2.377 4.732 3.902 5.688 7.813-1.024 4.744-3.583 7.532-6.688 11.187l-2.531 3.016a1330 1330 0 0 1-5.676 6.691c-2.47 2.9-4.89 5.837-7.293 8.793-3.743 4.599-7.559 9.13-11.4 13.646-3.75 4.415-7.407 8.898-11.03 13.416-6.182 7.28-6.182 7.28-10.57 8.063-5.133-.917-7.21-3.8-10.102-7.891a325 325 0 0 1-5.148-8.109c-.59-.92-1.178-1.84-1.785-2.79-3.096-4.98-5.411-8.898-5.465-14.835 1.346-2.948 2.086-4.543 5-6 3.596-.4 5.406-.393 8.46 1.629 2.841 2.652 4.472 5.229 6.352 8.621l1.833 3.266L138 298c3.804-3.707 7.312-7.579 10.75-11.625l1.594-1.867a770 770 0 0 0 11.36-13.707c3.119-3.804 6.3-7.554 9.492-11.3 2.048-2.408 4.059-4.827 6.003-7.321 2.942-3.561 5.288-3.71 9.801-3.18M187 150c3.216 2.377 4.732 3.902 5.688 7.813-1.024 4.744-3.583 7.532-6.688 11.187l-2.531 3.016a1330 1330 0 0 1-5.676 6.691c-2.47 2.9-4.89 5.837-7.293 8.793-3.743 4.599-7.559 9.13-11.4 13.646-3.75 4.415-7.407 8.898-11.03 13.417-6.182 7.278-6.182 7.278-10.57 8.062-5.133-.917-7.21-3.8-10.102-7.891a325 325 0 0 1-5.148-8.109c-.59-.92-1.178-1.84-1.785-2.79-3.096-4.98-5.411-8.898-5.465-14.835 1.346-2.948 2.086-4.543 5-6 3.596-.4 5.406-.393 8.46 1.629 2.841 2.652 4.472 5.229 6.352 8.621l1.833 3.266L138 199c3.804-3.707 7.312-7.579 10.75-11.625l1.594-1.867a770 770 0 0 0 11.36-13.707c3.119-3.804 6.3-7.554 9.492-11.3 2.048-2.408 4.059-4.827 6.003-7.321 2.942-3.561 5.288-3.71 9.801-3.18M184.375 348.063c3.944 1.02 5.492 1.471 7.625 4.937.75 3.125.75 3.125 0 7-2.313 3.639-5.149 6.775-8 10a1046 1046 0 0 0-4.04 4.779q-2.113 2.504-4.237 4.998a559 559 0 0 0-7.223 8.723c-3.763 4.625-7.603 9.178-11.471 13.715-3.511 4.131-6.881 8.358-10.177 12.664-3.11 3.563-5.427 5.989-10.227 6.433-5.544-2.007-7.508-5.435-10.625-10.312l-1.396-2.174a429 429 0 0 1-4.604-7.451l-1.532-2.458c-2.339-3.983-3.484-6.17-3.382-10.882.914-3.035.914-3.035 2.539-4.973 3.496-1.564 5.581-1.716 9.375-1.062 2.492 1.985 4.198 4.39 6 7l1.707 2.469q2.189 3.238 4.293 6.531l1.582-1.95a860 860 0 0 1 12.793-15.363 328 328 0 0 0 9.806-12.029A865 865 0 0 1 170 360l1.325-1.686c7.928-9.958 7.928-9.958 13.05-10.252"/></svg>