<svg xmlns="http://www.w3.org/2000/svg" width="512" height="512"><path fill="red" d="m341 76 2.98.096C447.77 79.485 447.77 79.485 468 90l2.633 1.336C479.995 96.518 488.342 103.879 494 113l1.742 2.805C501.74 126.537 503.92 137.977 506 150l.452 2.576c1.14 6.78 1.877 13.584 2.548 20.424l.202 1.974c5.492 53.75 5.612 110.3-.202 164.026l-.234 2.17c-.989 8.987-2.22 17.92-3.766 26.83l-.44 2.59c-3.372 19.006-11.904 34.767-27.56 46.348-35.907 23.313-94.867 17.741-136 19.062l-2.843.092c-55.638 1.76-111.521 1.704-167.157-.092l-2.98-.096C64.23 432.515 64.23 432.515 44 422l-2.633-1.336C32.005 415.482 23.658 408.121 18 399l-1.742-2.805C10.26 385.463 8.08 374.023 6 362l-.452-2.576C4.408 352.644 3.67 345.84 3 339l-.202-1.974C-2.694 283.276-2.814 226.726 3 173l.234-2.17C4.223 161.844 5.454 152.91 7 144l.44-2.59c3.372-19.006 11.904-34.767 27.56-46.347C70.907 71.749 129.867 77.32 171 76l2.843-.092C229.481 74.148 285.364 74.204 341 76"/><path fill="#FFFEFE" d="M204 181c3.754.938 6.215 2.085 9.559 3.957l3.324 1.853 3.554 2.002 3.686 2.063a3068 3068 0 0 1 29.026 16.488 9407 9407 0 0 0 18.534 10.608 4583 4583 0 0 0 26.838 15.214c8.248 4.657 16.428 9.428 24.59 14.235 4.566 2.682 9.105 5.305 13.889 7.58v2l-2.034 1.123c-17.15 9.477-34.204 19.111-51.2 28.863q-7.973 4.575-15.954 9.139l-1.758 1.006a2592 2592 0 0 1-27.995 15.76c-8.182 4.568-16.247 9.32-24.246 14.2l-2.586 1.557-2.264 1.38C207 331 207 331 204 331z"/></svg>